<?xml version="1.0" encoding="utf-8"?>
<!-- Generator: Adobe Illustrator 16.0.0, SVG Export Plug-In . SVG Version: 6.00 Build 0)  -->
<!DOCTYPE svg PUBLIC "-//W3C//DTD SVG 1.1//EN" "http://www.w3.org/Graphics/SVG/1.1/DTD/svg11.dtd">
<svg version="1.1" id="Layer_1" xmlns="http://www.w3.org/2000/svg" xmlns:xlink="http://www.w3.org/1999/xlink" x="0px" y="0px"
	 width="44.9px" height="69.1px" viewBox="0 0 44.9 69.1" style="enable-background:new 0 0 44.9 69.1;" xml:space="preserve">
<style type="text/css">
<![CDATA[
	.st0{fill-rule:evenodd;clip-rule:evenodd;fill:#066DB7;}
	.st1{fill-rule:evenodd;clip-rule:evenodd;fill:#066EB7;}
	.st2{fill-rule:evenodd;clip-rule:evenodd;fill:#066EB8;}
	.st3{fill-rule:evenodd;clip-rule:evenodd;fill:#066FB8;}
	.st4{fill-rule:evenodd;clip-rule:evenodd;fill:#0770B9;}
	.st5{fill-rule:evenodd;clip-rule:evenodd;fill:#0771B9;}
	.st6{fill-rule:evenodd;clip-rule:evenodd;fill:#0772B9;}
	.st7{fill-rule:evenodd;clip-rule:evenodd;fill:#0871B9;}
	.st8{fill-rule:evenodd;clip-rule:evenodd;fill:#0D134C;}
	.st9{fill-rule:evenodd;clip-rule:evenodd;fill:#000003;}
	.st10{fill-rule:evenodd;clip-rule:evenodd;fill:#000004;}
	.st11{fill-rule:evenodd;clip-rule:evenodd;fill:#000005;}
	.st12{fill-rule:evenodd;clip-rule:evenodd;fill:#000008;}
	.st13{fill-rule:evenodd;clip-rule:evenodd;fill:#000015;}
	.st14{fill-rule:evenodd;clip-rule:evenodd;fill:#00001E;}
	.st15{fill-rule:evenodd;clip-rule:evenodd;fill:#00001F;}
	.st16{fill-rule:evenodd;clip-rule:evenodd;fill:#000022;}
	.st17{fill-rule:evenodd;clip-rule:evenodd;fill:#00002C;}
	.st18{fill-rule:evenodd;clip-rule:evenodd;fill:#000039;}
	.st19{fill-rule:evenodd;clip-rule:evenodd;fill:#00003F;}
	.st20{fill-rule:evenodd;clip-rule:evenodd;fill:#000058;}
	.st21{fill-rule:evenodd;clip-rule:evenodd;fill:#000076;}
	.st22{fill-rule:evenodd;clip-rule:evenodd;fill:#000104;}
	.st23{fill-rule:evenodd;clip-rule:evenodd;fill:#00010B;}
	.st24{fill-rule:evenodd;clip-rule:evenodd;fill:#000113;}
	.st25{fill-rule:evenodd;clip-rule:evenodd;fill:#00012C;}
	.st26{fill-rule:evenodd;clip-rule:evenodd;fill:#000136;}
	.st27{fill-rule:evenodd;clip-rule:evenodd;fill:#00013A;}
	.st28{fill-rule:evenodd;clip-rule:evenodd;fill:#000141;}
	.st29{fill-rule:evenodd;clip-rule:evenodd;fill:#000143;}
	.st30{fill-rule:evenodd;clip-rule:evenodd;fill:#000157;}
	.st31{fill-rule:evenodd;clip-rule:evenodd;fill:#000158;}
	.st32{fill-rule:evenodd;clip-rule:evenodd;fill:#000159;}
	.st33{fill-rule:evenodd;clip-rule:evenodd;fill:#00020A;}
	.st34{fill-rule:evenodd;clip-rule:evenodd;fill:#000255;}
	.st35{fill-rule:evenodd;clip-rule:evenodd;fill:#000256;}
	.st36{fill-rule:evenodd;clip-rule:evenodd;fill:#000258;}
	.st37{fill-rule:evenodd;clip-rule:evenodd;fill:#000259;}
	.st38{fill-rule:evenodd;clip-rule:evenodd;fill:#000309;}
	.st39{fill-rule:evenodd;clip-rule:evenodd;fill:#000411;}
	.st40{fill-rule:evenodd;clip-rule:evenodd;fill:#00045A;}
	.st41{fill-rule:evenodd;clip-rule:evenodd;fill:#000516;}
	.st42{fill-rule:evenodd;clip-rule:evenodd;fill:#000658;}
	.st43{fill-rule:evenodd;clip-rule:evenodd;fill:#00075E;}
	.st44{fill-rule:evenodd;clip-rule:evenodd;fill:#000855;}
	.st45{fill-rule:evenodd;clip-rule:evenodd;fill:#010313;}
	.st46{fill-rule:evenodd;clip-rule:evenodd;fill:#010654;}
	.st47{fill-rule:evenodd;clip-rule:evenodd;fill:#0465B3;}
	.st48{fill-rule:evenodd;clip-rule:evenodd;fill:#0469B5;}
	.st49{fill-rule:evenodd;clip-rule:evenodd;fill:#056AB5;}
	.st50{fill-rule:evenodd;clip-rule:evenodd;fill:#056BB6;}
	.st51{fill-rule:evenodd;clip-rule:evenodd;fill:#056DB7;}
]]>
</style>
<g>
	<path class="st6" d="M44.4,48.3c0,6,0.1,11.9,0.1,17.9c0,1.9-0.8,2.8-2.7,2.8c-4.9,0-9.8,0.1-14.6,0.1c-2.6,0-5.1,0-7.7,0
		c-0.2,0-0.5,0-0.7-0.2c0.4-0.5,1-0.4,1.5-0.4c4.1,0,8.2-0.1,12.3,0c0.3,0,0.6,0.1,1-0.1c-0.3-0.5-0.8-0.8-1.4-1
		c-0.3-0.1-0.5-0.3-0.6-0.6c0-0.2,0-0.4,0.1-0.4c1.1-0.8,1.2-2,1.3-3.2c0.1-1.7,0.6-3.4,0.6-5.1c0-0.4,0-0.9-0.2-1.3
		c-0.2-1.2-1-1.7-2.2-1.8c-2.2-0.2-4.3-0.4-6.5-0.7c-1.3-0.2-1.8,0.4-1.9,2c-0.1,1.2-0.5,2.4-0.6,3.6c-0.2,1.4-0.3,2.8,0.1,4.2
		c0.2,0.9,0.1,1.5-0.8,1.7c-0.3,0.1-0.6,0.2-0.9,0.3c-1.3,0.3-2.5,0.6-3.7,1.2c-0.6,0.3-1.1,0.7-1.1,1.4c0,0.1-0.1,0.2-0.1,0.3
		c-2.1,0-4.3,0-6.4,0c-0.1-0.1-0.1-0.1-0.1-0.2c0-0.1,0-0.1,0-0.1c1.5-2.1,2.5-4.4,3.1-6.9c0.5-1,0.7-2.1,1.3-3.1
		c0.5-0.2,0.7,0.2,1,0.5c0.5,0.6,1.1,1.2,1.7,1.7c0.5,0.5,1,0.7,1.7,0.5c0.8-0.4,0.7-0.9,0.4-1.6c-0.6-1.1-1.4-2.1-2.2-3.1
		c-0.2-0.3-0.5-0.5-0.5-0.9c0-0.5,0.3-0.8,0.6-1.1c0.6-0.5,1.2-1,1.5-1.7c1-1.5,1.8-3,2.6-4.5c0.4-0.7,0.2-1.2-0.4-1.6
		c-1.8-1.1-3.7-2.3-5.6-3.4c-0.7-0.4-1.3-0.2-1.9,0.3c-0.7,0.5-1.1,1.1-1.5,1.8c-0.5,1-1.1,2-1.7,2.9c-0.5,0.8-1,1.6-0.9,2.7
		c0,0.2-0.1,0.4-0.3,0.5C6.5,52,4.7,51.4,3,51.7c-0.3,0.1-0.6,0.1-0.9,0.1c-0.1,0-0.3-0.1-0.4-0.2c-0.2-0.2-0.2-0.4-0.2-0.7
		c0.1-4.4-0.4-8.8-0.3-13.1c0.1-3.8,0-7.7-0.1-11.5c0-1,0-2,0.2-3c0.2-1,0.1-2.1-0.4-3c0.2-0.4,0.5-0.5,0.8-0.6
		c1.2-0.3,2.3-0.6,3.5-0.8c0.5-0.1,1-0.2,1.3,0.5c0,1.4-0.7,2.6-0.9,3.9C5.2,24,5,24.8,4.8,25.6C4.1,29,2.9,32.4,2.6,35.9
		c-0.1,1.6-0.2,3.3,0.5,4.8c0.5,0.8,1,0.6,1.5,0c0.5-0.6,0.9-1.2,1.2-1.9c0.8-1.8,1.9-3.5,3.1-5.1c1.2-1.7,2.8-2.7,5-2.6
		c0.9,0,1.7,0.4,2.3,1.1c1.8,2.2,3.4,4.6,5.2,6.9c0.4,0.5,0.8,1.3,1.5,1.1c0.6-0.2,0.4-1.1,0.6-1.7c0.1-0.6,0-1.2-0.1-1.8
		c-0.1-0.5-0.2-1,0.3-1.3c0.2,0,0.3,0,0.5,0.2c0.6,0.9,1.1,1.9,1.9,2.6c0.5,0.6,1.4,0.7,1.6,1.6c-0.1,0.6-0.5,1-0.9,1.4
		c-1,1.3-2,2.5-2.7,3.9c-0.3,0.7-0.3,1.3,0.5,1.7c0.7,0.5,1.3,0.3,1.9-0.2c0.9-0.8,1.7-1.7,2.5-2.5c0.3-0.3,0.6-0.7,1.1-0.5
		c0.9,1,1,2.5,1.5,3.6c0.9,2.9,1.9,5.6,3.6,8.1c0.2,0.4,0.5,0.7,0.9,0.9c0.9,0.1,0.9-0.6,0.8-1.1c-0.1-1.1-0.2-2.2-0.3-3.2
		c-0.1-0.8-0.1-1.6,0.1-2.4c0.5-2.2,2-3.1,4.2-2.4C42.2,47.5,43.4,47.6,44.4,48.3z"/>
	<path class="st6" d="M44.4,16.4c0,6.2,0,12.4,0,18.6c-1.5,0.1-3-0.3-4.4-0.1c-0.4,0-0.9,0-1.3,0c-0.1,0-0.2,0-0.4,0.1
		c-0.6-0.1-1.2,0.3-1.8-0.1c0.1-3.4-2.5-5.5-3.8-8.3c-0.3-0.5-0.8-0.9-1.3-1.2c-0.1-0.1-0.2-0.3-0.3-0.4c0-0.2-0.1-0.4,0.1-0.5
		c0.9-0.8,0.7-1.7,0.4-2.6c0-1.3-0.9-2.2-1.9-2.9c-1.6-1.2-3.2-2.3-5-3.3c-0.6-0.3-1.1-0.8-1.7-1c-0.3-0.2-0.8-0.4-1-0.8
		c0-0.1,0-0.3,0.1-0.4c2.1-0.9,1.9-2.9,2.1-4.7c0.2-2.2,0.4-4.3,0.5-6.5c0-0.5,0.1-1,0.5-1.3c1.2,0,2.4,0.4,3.6,0.2
		C30,1,31.3,1.1,32.5,0.9C33,1,33.1,1.3,33.2,1.7c0.4,1.4,1.1,2.7,1.3,4.2c0.1,1.2,1.2,1.6,1.6,2.5c0,0.3-0.2,0.5-0.4,0.8
		c-1.2,1.2-2.6,2.3-3.4,3.9c-0.1,0.5-0.3,1,0.2,1.3c0.5,0.3,1-0.1,1.4-0.3c0.8-0.5,1.4-1.2,2.1-1.8c0.9-0.8,1.3-0.6,1.5,0.5
		c0.3,2.3,0.4,4.5,0.7,6.8c0.1,0.6,0.1,1.1,0.3,1.7c0.1,0.2,0.1,0.5,0.4,0.5c0.3,0,0.4-0.2,0.5-0.5c0.4-1.1,1-2.1,1.5-3.1
		C41.7,16.4,42.4,16.1,44.4,16.4z"/>
	<path class="st21" d="M31.5,25.1c1.3,0.5,1.7,1.7,2.3,2.7c0.7,1.2,1.4,2.5,2.2,3.7c0.7,1,1,2.1,0.5,3.2c-0.1,0.3-0.4,0.3-0.6,0.5
		c-0.4,0.3-0.8,0.5-1.1,0.9c0.6-0.1,1.1-0.4,1.7-0.5c0.8,0,1.5-0.3,2.2-0.3c1.9,0.1,3.8-0.4,5.6,0.1c0,0.6,0,1.2,0,1.8
		c-0.3,0.9-1.1,1-1.8,1.1c-1,0.2-2,0.4-3.2,0.3c1.1,1.4,2.2,2.6,3.4,3.7c0.7,0.7,1.4,1.4,1.6,2.4c0,1.2,0,2.3,0.1,3.5
		c-1.3-0.1-2.4-0.5-3.5-1c-2.1-0.8-3.2,0.5-3.6,2.1c-0.4,1.5,0,3.1,0.1,4.6c0,0.6,0.1,1.1,0.1,1.7c0,1.1-0.3,1.2-1.4,0.8
		c-1.8-2.9-3-6-4.1-9.2c-0.5-1-0.8-2.1-1.1-3.1c-0.1-0.4-0.2-0.8-0.8-0.5c-1.1,1.1-2.2,2.2-3.3,3.2c-0.7,0.7-1.4,1-2.3,0.2
		c0.5-1.9,1.7-3.4,2.8-4.9c0.5-0.6,0.8-1.2,1.3-1.7c0.4-0.3,0.7-0.7,1.1-1c0.5-0.4,1.1-0.5,1.6-1.3c-1,0.3-1.6,0.8-2.2,1.1
		c-0.4,0.2-0.8,0.6-1.3,0.7c-0.1,0-0.2,0-0.3-0.1c-0.4-0.7-1.3-0.7-1.7-1.4c-0.4-1-1.1-1.7-1.6-2.6c-0.7-1.4-1.7-2.6-2.2-4.1
		c0-0.7,0.3-1.2,0.8-1.5C25.6,28.2,28.5,26.7,31.5,25.1z"/>
	<path class="st21" d="M8.4,51.3c-0.3-0.6-0.3-1.3,0-1.9c1-1.7,2-3.3,2.9-5c0.3-0.5,0.6-0.8,1.1-1c2.2,1.2,4.5,2.4,6.7,3.8
		c0.5,0.3,0.9,0.7,1.1,1.2c-0.3,1.3-1.2,2.3-1.7,3.5c-0.2,0.4-0.6,0.6-0.5,1.1c-0.2,0.9-0.9,1.3-1.5,1.8c-0.3,0.2-0.7,0.4-0.7,0.8
		c-0.2,0.1-0.3,0-0.5,0c-0.9-0.3-1.4-1.1-2.3-1.3c0.6,0.4,1.1,0.9,1.6,1.4c0.4,0.4,0.8,0.8,1.1,1.3c0.7,0.9,1.4,1.8,2,2.8
		c0.3,0.5,0.5,1.1,0.4,1.7c-0.8,0.6-1.4,0.1-2-0.4c-0.8-0.8-1.6-1.6-2.4-2.5c-0.4-0.2-0.5,0.1-0.6,0.4c-0.2,0.9-0.6,1.7-0.9,2.6
		c-0.8,2.5-1.6,5-3,7.1c0,0.1,0,0.1,0,0.2c-0.4,0-0.9,0-1.3,0c-0.6-0.4-0.5-1-0.4-1.6c0.2-1.1,0.2-2.2,0.1-3.3
		c-0.2-1.7-1.1-2.2-2.7-1.8c-0.8,0.2-1.7,0.5-2.5,0.8c-0.5,0.1-0.9,0.3-1.4,0c0-0.7,0-1.5,0-2.2c0.5-1.3,1.5-2.2,2.4-3.2
		c0.8-0.9,1.7-1.7,2.4-2.7c-0.5-0.4-1.1-0.2-1.6-0.3C3,54.4,1.8,54.3,1,53.2c0-0.3,0-0.6,0-0.9c0.3-0.3,0.3-0.9,1-0.8
		c0,0,0,0.1,0,0.1c1.7,0.1,3.5-0.1,5.2,0.3c0.4,0,0.7,0,1.1,0c0.5,0,0.9,0.3,1.5,0.4c-0.3-0.2-0.6-0.4-0.9-0.6
		C8.6,51.7,8.5,51.6,8.4,51.3z"/>
	<path class="st21" d="M44.4,16.4c-0.1,0.1-0.2,0.2-0.3,0.2c-1.9-0.4-2.6,0.8-3.1,2.3c-0.3,0.9-0.8,1.8-1.2,2.6
		c-0.2,0.4-0.4,1-0.9,1c-0.5-0.1-0.6-0.7-0.7-1.2c-0.3-1.8-0.5-3.6-0.7-5.5c-0.1-1.1-0.2-2.1-0.3-3.2c0-0.2,0-0.4-0.2-0.5
		c-0.3-0.2-0.4,0.1-0.6,0.2c-0.7,0.6-1.4,1.2-2.1,1.8c-0.1,0.1-0.1,0.1-0.2,0.2c-0.6,0.4-1.4,1-2,0.5c-0.5-0.4-0.4-1.3-0.1-2
		c0.2-0.1,0.1,0.5,0.3,0.2c0.9-1.5,2.4-2.5,3.6-3.7c0.4-0.6,1.1-0.9,1.7-1.3c-0.6,0-1.1,0.7-1.7,0.4c-2.4-1.8-2-4.7-3.1-7
		c-0.1-0.2-0.1-0.4-0.2-0.6c0.2-0.3,0.5-0.2,0.8-0.2c3.1,0,6.1-0.1,9.2,0c0.1,0,0.2,0.1,0.3,0.1c0.4,0.4,0.5,0.9,0.5,1.4
		c0-0.3-0.1-0.6,0.2-0.8c0.6,0.4,0.6,1.1,0.6,1.7C44.3,7.7,44.3,12,44.4,16.4z"/>
	<path class="st21" d="M15.6,68.8c0-0.1,0-0.1,0-0.2c1.7-0.9,3.4-1.5,5.3-1.9c0.7-0.2,1.4-0.3,2.1-0.5c0.8-0.2,1.6-0.1,2.4-0.1
		c-1.1-0.2-2.3-0.5-3.5-0.4c-0.3,0-0.6,0-0.9-0.3c1-0.2,1.1-0.6,0.7-1.6c-0.5-1.3-0.4-2.8,0-4.2c0.5,0.5,0,1,0.1,1.4
		c0.2-1.6,0.3-3.3,0.7-5c0.5-1.1,1.6-1.1,2.6-1c2.1,0.2,4.2,0.7,6.3,0.9c0.8,0.1,1.5,0.1,2.2,0.6c0.5,1.2,0.2,2.4,0,3.6
		c-0.1,1-0.3,2-0.3,3.1c0,1.4-0.5,2.7-1.6,3.6c0,0-0.1,0.1-0.1,0.1c-0.6-0.1-1.2-0.3-1.9-0.4c0.4,0.3,0.9,0.3,1.3,0.6
		c0.4,0.3,0.8,0.5,1.2,0.8c0.3,0.3,0.8,0.3,0.9,0.8c-4.4,0-8.7,0-13.1,0.1c-0.4,0-0.8,0-1.2,0C17.7,68.9,16.6,68.9,15.6,68.8z"/>
	<path class="st6" d="M42.7,0.9C39.3,0.9,36,1,32.7,1c-1.5,0.4-3,0.3-4.4,0.5C27.1,1.7,26.2,1,25.1,1c-0.4,0.4-1,0.3-1.5,0.3
		c-5.5,0-11.1,0-16.6,0C6.4,1.2,6.1,1.5,6.1,2.1c0,1-0.3,2-0.3,3.1c0,1.4-0.3,2.8,0.2,4.1c0.2,0.7,0.4,1.3,0.7,1.9
		C7,11.6,7.2,12,6.7,12.4c-0.8,0.3-1.6,0.5-2.4,0.8c-0.1,0-0.2,0.1-0.3,0.1C1.2,14,1.2,14,1.3,16.7C1.2,17.9,1.6,19,1,20.1
		c1,0.9,0.8,2.1,0.6,3.1c-0.4,2,0,3.9,0,5.9c-0.1,2.8,0,5.6,0,8.4c0,3-0.2,6.1,0.3,9.1c0.2,1.4,0.2,2.8,0,4.2c0,0.3,0,0.5,0.1,0.8
		c-0.3,0.3-0.6,0.5-1,0.8c0-3.4-0.1-6.7-0.1-10.1c0-12.8-0.1-25.7-0.1-38.5c0-2.1,0.8-3,3-3c12.6,0,25.3-0.1,37.9-0.1
		C42,0.7,42.3,0.6,42.7,0.9z"/>
	<path class="st6" d="M0.9,62.9c1.2-0.4,2.5-0.8,3.8-1.2C6.6,61.2,7.8,62,7.9,64C8,65.1,8,66.2,7.8,67.3c-0.1,0.5-0.1,1,0.1,1.5
		c-1.7,0-3.3,0.1-5,0c-1,0-1.9-0.9-1.9-2C0.9,65.5,0.9,64.2,0.9,62.9z"/>
	<path class="st7" d="M44.3,44.8c-1.5-2-3.4-3.8-5.1-5.7c-0.2-0.2-0.6-0.3-0.4-0.6c0.1-0.2,0.4-0.2,0.7-0.2c1.3,0,2.6-0.2,3.9-0.5
		c0.4-0.1,0.7-0.3,1-0.6C44.4,39.8,44.4,42.3,44.3,44.8z"/>
	<path class="st5" d="M1,53.2c1.6,1.1,3.6,0.9,5.6,1.3c-1.9,2.1-3.8,4.2-5.6,6.2C0.9,58.2,0.8,55.7,1,53.2z"/>
	<path class="st43" d="M44.3,35.5c-1.5,0.2-2.9,0.2-4.4,0.2c-0.4,0-0.9,0-1.3,0c-0.2-0.3-0.2-0.6-0.3-1c2-0.3,4-0.4,6,0.3
		C44.4,35.2,44.3,35.4,44.3,35.5z"/>
	<path class="st8" d="M43.7,1.6c0,0.3,0,0.7-0.1,1.2C43.2,2.2,43,1.6,42.9,1C43.4,1,43.6,1.2,43.7,1.6z"/>
	<path class="st21" d="M6.7,12.2c0.1-1-0.8-1.7-0.9-2.6c0-1.6,0.4-3.2,0.3-4.9c0.1-1.3,0-2.6,0.7-3.7C12.9,1,19,1,25.1,1
		c-0.3,3-0.7,6.1-0.8,9.1c-0.1,1.8-0.6,2.9-2.3,3.6c-0.7,0.2-1.4,0-2.1-0.1c-0.5-0.1-1.1-0.2-1.7,0.2c0.8,0.8,2.1,0.3,2.9,1.1
		c0.3,0.2,0.7,0.4,1,0.6c0.5,0.4,1,0.6,1.5,1c2.7,1.6,5.4,3.2,7.7,5.4c0.1,0.1,0.2,0,0.3,0c0.8,1.2,0.3,2.2-0.4,3.2
		c-0.7,0.1-1.5-0.1-2.2-0.1c-0.3-0.2-0.4-0.5-0.7-0.6c-2.1-1-4.2-2-6.4-3.5c0.5,2.7,0.8,5.2,1.2,7.6c0,0.6-0.6,0.7-0.9,1
		c-0.6,0.5-1,1-0.6,1.8c0.6,1.1,1.3,2.3,2,3.4c0.2,0.3,0.5,0.6,0.2,1c-0.4,0.3-0.3,0.7-0.2,1.1c0.2,1.2,0.1,2.3-0.1,3.4
		c-0.1,0.8-0.5,1-1.2,0.5c-0.4-0.3-0.9-0.7-1.2-1.2c-1.7-2.1-3.2-4.3-4.9-6.5c-1.4-1.8-3.3-2-5.2-0.8c-0.8,0.5-1.4,1.1-1.9,1.8
		C8,35.5,6.9,37.2,6,39c-0.4,0.8-0.8,1.5-1.3,2.1C4,42,3.6,41.9,2.9,41c-0.6-1.7,0-3.4,0.3-5.1c0.6-3.3,1.4-6.5,2.3-9.8
		c0.1-0.7,0.4-1.3,0.5-1.9c0.5-1.7,1.1-3.4,1.4-5.2c-0.5-0.2-0.7,0.4-1.1,0.3c-0.1-0.6-0.5-0.4-0.9-0.3c-1.5,0.3-2.9,0.7-4.4,1
		c0-1.2,0-2.4,0-3.5c0.3-0.7,1.1-0.7,1.7-1c0.7-0.3,1.4-0.4,2.1-0.7c0.8-0.3,1.7-0.4,2.4-0.7c0.6-0.2,1.3-0.3,1.9-0.5
		c0.6-0.1,1.3-0.1,1.9,0.1c0.5,0.1,0.9,0.1,1.4,0c0.2,0,0.5-0.1,0.5-0.4c0-0.2-0.3-0.3-0.4-0.3c-0.3-0.1-0.5-0.1-0.8-0.1
		c-0.8-0.2-1.7-0.1-2.5-0.1c-0.8,0-1.6,0-2.3-0.4C6.8,12.3,6.8,12.3,6.7,12.2z"/>
	<path class="st32" d="M33.6,56.6c-2.8-0.2-5.5-0.7-8.3-1.1c-0.9-0.1-1.8-0.3-2.5,0.6c-0.2-0.2-0.2-0.5-0.1-0.7
		c-0.2,0.2,0.2,0.7-0.4,0.7c0.1-2.1,0.6-2.6,2.7-2.2c2,0.3,4.1,0.7,6.2,0.7C32.7,54.7,33.4,55.3,33.6,56.6z"/>
	<path class="st32" d="M5.8,26.2C4.6,31.1,3.1,35.9,2.9,41c-0.6-1-0.8-2.1-0.7-3.2c0-2.5,0.4-4.9,1.1-7.3c0.5-1.7,0.7-3.5,1.3-5.2
		C4.9,25.8,5.3,26,5.8,26.2z"/>
	<path class="st31" d="M20.2,48.5c-2.1-2-4.9-3-7.3-4.5c-0.2-0.1-0.4-0.2-0.4-0.5c0.5-0.7,1.2-0.8,2-0.3c1.9,1.1,3.8,2.2,5.7,3.4
		c0.8,0.5,1.2,1.1,0.5,2C20.5,48.5,20.3,48.6,20.2,48.5z"/>
	<path class="st36" d="M27.6,42.2c-1,1.5-2.3,2.8-2.7,4.6c0,0.1-0.3,0.1-0.4,0.2c-0.9-0.3-1.1-0.9-0.8-1.7c0.7-1.6,1.8-3,2.9-4.3
		C27.1,41.3,27.3,41.8,27.6,42.2z"/>
	<path class="st35" d="M32.1,47c0.9,2.6,2,5.2,3.1,7.7c0.3,0.5,1.1,0.9,0.7,1.7c-1.3-0.9-1.9-2.3-2.5-3.6c-0.7-1.5-1.3-3.1-2-4.7
		c-0.1-0.2-0.1-0.5-0.1-0.8C31.6,47.1,31.9,47,32.1,47z"/>
	<path class="st37" d="M20.9,67c-1.8,0.4-3.4,1.4-5.3,1.7c-0.7-0.9,0.1-1.3,0.7-1.6c1.3-0.7,2.7-1.2,4.1-1.3
		C20.8,66,20.8,66.5,20.9,67z"/>
	<path class="st22" d="M6.3,19.4c0.1-0.2,0.2-0.6,0.4-0.6c0.3-0.1,0.7-0.5,1-0.2c0.3,0.3,0,0.6-0.1,0.9c-0.5,1.6-1,3.2-1.4,4.8
		c-0.9,0.3-1.2-0.1-1-1C5.6,22,6,20.7,6.3,19.4z"/>
	<path class="st36" d="M18,61.5c-0.6-1.7-1.6-3-2.7-4.4c0.3-0.3,0.5-0.6,1-0.8c1,1,1.7,2.2,2.4,3.4C19.1,60.6,19,61.2,18,61.5z"/>
	<path class="st42" d="M9.1,68.7c0.3-1.5,1.2-2.7,1.7-4.1c0.4-1,0.5-2.2,1.1-3.1c0.1,0.1,0.3,0.2,0.5,0.2
		C11.8,64.2,11.1,66.7,9.1,68.7z"/>
	<path class="st40" d="M7.2,52.3c-1.7-0.1-3.3-0.5-5-0.1c-0.3,0.1-0.3-0.3-0.3-0.5c1.2-0.5,2.4-0.5,3.7-0.4c0.9,0.1,1.8,0,2.7,0
		c0.2,0.1,0.3,0.2,0.5,0.2c-0.2,0.3-0.5,0.3-0.8,0.3C7.8,52.1,7.2,51.5,7.2,52.3z"/>
	<path class="st33" d="M32.1,47c-0.1,0.4-0.4,0.4-0.7,0.2c-0.7-1.1-0.8-2.5-1.4-3.7c0-0.3,0.1-0.7,0.4-0.7c0.4,0,0.4,0.4,0.5,0.7
		C31.4,44.7,31.8,45.9,32.1,47z"/>
	<path class="st26" d="M5.3,23.2c0,0.7,0.3,0.9,1,1c0.1,0.7-0.4,1.3-0.5,1.9c-0.9,0.5-1.2,0.1-1.2-0.7C4.7,24.7,4.8,23.9,5.3,23.2z"
		/>
	<path class="st28" d="M27.6,42.2c-0.6-0.2-0.8-0.7-1-1.2c0.3-0.4,0.6-0.8,1-1.2c0.1,0,0.2,0,0.2,0c0.5,0,0.9,0.2,1,0.8
		C28.4,41.1,28,41.7,27.6,42.2z"/>
	<path class="st29" d="M20.9,67c-0.8-0.2-0.4-0.8-0.5-1.3c0.2-0.2,0.5-0.2,0.7-0.2c0.3,0,0.7,0,1,0c0.6,0,0.5,0.8,1,1
		C22.4,66.8,21.6,67,20.9,67z"/>
	<path class="st38" d="M22.3,56.2c0.1-0.3,0.2-0.5,0.4-0.8c0,0.3,0.1,0.6,0.1,0.9c-0.3,1.7-0.3,3.4-0.9,5.3c0-0.8-0.1-1.3-0.1-1.7
		C21.7,58.5,22.3,57.4,22.3,56.2z"/>
	<path class="st39" d="M12.5,61.7c-0.3,0.1-0.5,0.2-0.5-0.2c0.3-1,0.6-2.1,1-3.1c0.1-0.2,0.1-0.4,0.4-0.3c0.3,0.1,0.3,0.3,0.3,0.6
		C13.2,59.6,13.1,60.7,12.5,61.7z"/>
	<path class="st23" d="M23.8,35.5c-0.7-1.5-1.6-2.9-2.4-4.3c0.7-0.5,0.7,0.2,1,0.5c0.7,1.4,1.5,2.7,2.2,4.1c-0.2,0.6-0.4,0.1-0.5,0
		C23.9,35.7,23.9,35.6,23.8,35.5z"/>
	<path class="st41" d="M20.2,48.5c0.2,0,0.3-0.3,0.5,0C19.8,50,19.1,51.6,18,53c-0.4-0.6,0.3-0.9,0.4-1.3
		C19,50.6,19.6,49.6,20.2,48.5z"/>
	<path class="st46" d="M33.1,68.8c-0.3-0.3-0.8-0.2-0.9-0.7c0.1-0.3,0.1-0.6,0.2-0.9c0.5,0,0.8,0.4,1.1,0.6c0.3,0.2,0.9,0.3,0.8,0.8
		C34.1,69.1,33.5,68.8,33.1,68.8z"/>
	<path class="st26" d="M16.3,56.4c-0.2,0.4-0.5,0.7-1,0.8c-0.3-0.4-0.6-0.8-1-1.2c0.2-0.4,0.6-0.4,0.9-0.4c0.1,0.1,0.3,0.1,0.4,0.2
		C16,55.9,16.2,56.1,16.3,56.4z"/>
	<path class="st44" d="M24,35.8c0.2,0,0.4,0.3,0.5,0c0.5,0.7,0.9,1.4,1.4,2.1c0.2,0.2,0.2,0.4,0,0.6C25,37.7,24.4,36.8,24,35.8z"/>
	<path class="st25" d="M32.4,67.2c0.3,0.4,0.7,0.8-0.2,0.9c-0.5-0.1-0.8-0.4-1.2-0.7c0.1-0.3,0.4-0.4,0.7-0.4c0,0,0-0.1,0-0.1
		C31.9,67,32.2,67.1,32.4,67.2z"/>
	<path class="st20" d="M22.3,31.7c-0.4-0.1-0.4-0.7-1-0.5c-0.6-0.9-0.1-1.5,0.6-2.1c0.4-0.3,0.8-0.5,1.1-0.8c1.7-1.8,3.6-3,6-3.6
		c0.8-0.3,1.5-0.4,2.2,0.2c0.1,0.1,0.1,0.1,0.2,0.2c-1.9,1.5-4.1,2.5-6.1,3.7c-0.8,0.5-1.6,1-2.4,1.6C22.6,30.7,22.2,31.1,22.3,31.7
		z"/>
	<path class="st31" d="M31.7,21.8c0,0.2-0.1,0.4-0.1,0.6c-2.4-2.4-5.3-4.1-8.1-5.8c0.3-0.5,0.7-0.8,1.2-1.2c2.4,1.2,4.6,2.8,6.5,4.7
		C31.7,20.6,31.7,21.2,31.7,21.8z"/>
	<path class="st10" d="M21.1,15.1c-0.7-0.6-1.7-0.4-2.5-0.6c-0.5-0.1-1-0.1-0.8-0.8c0.1-0.7,0.6-0.5,1-0.5c1.1,0,2.2,0.1,3.2,0.5
		c0,0.1,0,0.1,0,0.2C22,14.5,21.8,15,21.1,15.1z"/>
	<path class="st34" d="M36.2,9.6c-1.3,1.4-2.9,2.5-4,4.3c0-0.5-0.1-0.8-0.1-1c0.8-1.6,2.1-2.7,3.4-3.8C35.8,9.1,36,9.3,36.2,9.6z"/>
	<path class="st27" d="M24.7,15.4c-0.1,0.7-0.5,1-1.2,1.2c-0.5-0.3-1.1-0.4-1.5-0.9c0.1-0.6,0.4-1,1-1.2
		C23.8,14.5,24.2,15,24.7,15.4z"/>
	<path class="st24" d="M36.2,9.6c-0.4,0-0.6-0.2-0.7-0.5c0.2-0.2,0.3-0.3,0.5-0.5c0.5-0.3,0.9-0.6,1.5-0.7c0.3-0.1,0.7-0.5,0.9,0.1
		c0.2,0.4-0.3,0.4-0.6,0.6C37.2,8.8,36.6,9.1,36.2,9.6z"/>
	<path class="st14" d="M23,14.4c-0.3,0.4-0.5,1-1,1.2c-0.4-0.1-0.7-0.2-0.9-0.5c0.3-0.5,0.5-0.9,1-1.2C22.5,13.8,22.8,14.2,23,14.4z
		"/>
	<path class="st18" d="M38.4,34.8c0.5,0.2,0.6,0.6,0.3,1c-0.8,0-1.6,0.4-2.4,0.2c0-0.5,0.6-0.7,0.8-1c0.4,0,0.8-0.1,1.1-0.2
		C38.2,34.8,38.3,34.8,38.4,34.8z"/>
	<path class="st43" d="M38.2,34.8c-0.3,0.4-0.8,0.2-1.2,0.3c-0.4,0.3-0.8,0.3-1.2,0c0.2-0.3,0.5-0.2,0.8-0.2
		C37.1,34.9,37.6,34.5,38.2,34.8z"/>
	<path class="st1" d="M31.4,35.4c0,0.7-0.9,1.5-1.6,1.5c-0.8-0.1-1.2-0.7-1.3-1.5c-0.1-0.8,0.7-1.6,1.4-1.6
		C30.8,33.9,31.5,34.6,31.4,35.4z"/>
	<path class="st50" d="M33.8,33.8c0,0.7-0.5,1.1-1.1,1.1c-0.6,0-1-0.5-1-1.1c-0.1-0.8,0.5-1.1,1.1-1.1
		C33.4,32.7,33.7,33.1,33.8,33.8z"/>
	<path class="st11" d="M29,39.1c0.4-0.6,1.2-0.8,1.7-1.2c0.3-0.2,0.6-0.3,0.8,0.1c0.2,0.3,0.1,0.6-0.2,0.8c-0.5,0.3-1,0.6-1.6,0.8
		C29.3,39.8,28.8,39.9,29,39.1z"/>
	<path class="st12" d="M35.8,35c0.4,0,0.8,0,1.2,0c0.6,0.9-0.6,0.5-0.7,0.9c-0.5,0.2-0.9,0.4-1.4,0.6c-0.3,0.1-0.5,0.2-0.7-0.1
		c-0.2-0.3,0.1-0.5,0.3-0.7C34.9,35.5,35.3,35.3,35.8,35z"/>
	<path class="st15" d="M29,39.1c0,0.5,0.4,0.5,0.8,0.5c-0.3,0.3-0.6,0.6-1,1c-0.3-0.3-0.7-0.5-1-0.8C28.2,39.5,28.5,39.2,29,39.1z"
		/>
	<path class="st0" d="M13.6,53.1c-0.7-0.1-1.2-0.5-1-1.3c0.1-0.7,0.6-1.1,1.3-1.1c0.8,0,1.1,0.6,1.1,1.3
		C14.8,52.7,14.3,53.1,13.6,53.1z"/>
	<path class="st47" d="M11.4,51.5c-0.5-0.2-0.9-0.4-0.9-1c0.1-0.6,0.4-0.8,1-0.8c0.5,0,0.8,0.5,0.8,0.9
		C12.3,51.1,11.9,51.4,11.4,51.5z"/>
	<path class="st12" d="M15.3,55.5c-0.2,0.3-0.6,0.4-0.9,0.4c-0.6-0.4-1-0.9-1.6-1.2c-0.3-0.1-0.6-0.3-0.4-0.7
		c0.2-0.4,0.5-0.2,0.8-0.1C13.9,54.5,14.6,55,15.3,55.5z"/>
	<path class="st12" d="M7.9,51.6c0.3,0,0.6,0,1-0.1c0.4,0.2,0.7,0.4,1.1,0.6c0.2,0.1,0.4,0.3,0.3,0.6c-0.1,0.3-0.4,0.2-0.6,0.1
		c-0.4-0.2-0.9-0.4-1.3-0.5C7.6,52.1,7.6,52.1,7.9,51.6z"/>
	<path class="st17" d="M7.9,51.6c-0.4,0.6,0.4,0.4,0.5,0.7c-0.4,0-0.8,0-1.2,0c-0.1-0.3-0.5-0.2-0.5-0.6C7.1,51.5,7.5,51.6,7.9,51.6
		z"/>
	<path class="st51" d="M38.8,4.8c0.1-0.7,0.4-1.2,1.1-1.2c0.8,0,1.3,0.6,1.3,1.3c0,0.7-0.6,1.1-1.3,1.1C39.1,6,38.9,5.5,38.8,4.8z"
		/>
	<path class="st13" d="M44.1,6.5c0,0.3-0.1,0.5-0.4,0.5c-0.9,0-1.6,0.4-2.4,0.6c-0.3,0.1-0.6,0-0.7-0.3c-0.1-0.4,0.1-0.5,0.4-0.6
		c0.8-0.2,1.6-0.4,2.4-0.6C43.8,6,44.1,6,44.1,6.5z"/>
	<path class="st48" d="M37.6,6.5c-0.6,0-1-0.4-1-0.9c0-0.5,0.4-0.8,0.8-0.8C38,4.7,38.3,5,38.3,5.5C38.4,6.1,38.1,6.4,37.6,6.5z"/>
	<path class="st2" d="M27.8,63.2c0,1-0.6,1.5-1.4,1.5c-0.8,0-1.3-0.5-1.3-1.4c0-0.9,0.5-1.3,1.3-1.3C27.3,61.9,27.7,62.5,27.8,63.2z
		"/>
	<path class="st11" d="M23,66.5c-0.8,0.1-0.5-0.8-1-1c1.2-0.3,2.4,0.3,3.6,0.3c0.4,0,0.5,0.2,0.4,0.5c-0.1,0.3-0.3,0.5-0.6,0.4
		C24.7,66.4,23.9,66.5,23,66.5z"/>
	<path class="st49" d="M28.5,63.7c0-0.7,0.3-1,0.9-1c0.6,0,1.1,0.4,1,1.1c0,0.7-0.5,1-1.1,1C28.7,64.7,28.5,64.3,28.5,63.7z"/>
	<path class="st11" d="M31.7,67c-0.1,0.3-0.4,0.4-0.7,0.4c-0.5-0.2-1.1-0.3-1.6-0.5c-0.2-0.1-0.3-0.2-0.3-0.4c0-0.2,0.2-0.3,0.3-0.3
		C30.1,66.5,31.1,66.2,31.7,67z"/>
	<path class="st30" d="M4.8,15.1c-1.3,0.5-2.5,1-3.8,1.4c-0.2-2.7-0.2-2.7,2.4-3.5C3.7,13,4,13,4.3,12.9C4.8,13.6,4.6,14.4,4.8,15.1
		z"/>
	<path class="st19" d="M4.8,15.1c-1-0.6-0.3-1.5-0.5-2.2c0.8-0.4,1.6-0.7,2.4-0.7c0,0,0,0.1,0,0.1c0.9,0.5,0.8,1.3,0.5,2.1
		C6.5,15,5.6,14.8,4.8,15.1z"/>
	<path class="st45" d="M6.8,1C6.7,2.3,6.6,3.5,6.5,4.8c-0.3,1-0.3,1-0.9,0.5C5.4,4,5.8,2.8,5.8,1.5C5.7,0.7,6.3,1,6.8,1z"/>
	<path class="st37" d="M5.6,5.3C6.2,5.8,6.2,5,6.5,4.8c0.2,1.5-0.4,2.9-0.2,4.3c0,0.3-0.1,0.4-0.4,0.5C5.2,8.2,5.4,6.7,5.6,5.3z"/>
	<path class="st5" d="M29,24.7c-2.1,1-4.1,2.3-6,3.6c-0.4-0.1-0.4-0.4-0.5-0.7c-0.1-2.1-0.5-4.2-0.9-6.2c-0.1-0.3-0.2-0.8,0.1-1
		c0.4-0.3,0.6,0.2,0.9,0.4c1.8,1.1,3.6,2.2,5.6,3C28.6,23.9,29.3,23.9,29,24.7z"/>
	<path class="st4" d="M11.3,8.8c0-1.3,1-2.3,2.2-2.3c1.1,0,2.2,1,2.3,2.2c0.1,1.3-1,2.3-2.3,2.3C12.3,11,11.3,10.1,11.3,8.8z"/>
	<path class="st3" d="M18.3,10.8c-0.9,0-1.6-0.6-1.6-1.6c0-0.9,0.8-1.8,1.6-1.8c0.8,0,1.6,0.8,1.6,1.6C20,10.1,19.3,10.8,18.3,10.8z
		"/>
	<path class="st9" d="M11.8,12.7c0.5,0.2,1.6-0.6,1.6,0.7c0,1.2-1,0.7-1.7,0.7c-0.9,0-1.7-0.1-2.6-0.2c-0.3-0.9-0.1-1.3,0.9-1.3
		C10.6,12.6,11.2,12.5,11.8,12.7z"/>
	<path class="st16" d="M11.8,12.7c-0.4,0-0.7,0.1-1.1,0c-1-0.2-1.5,0.2-1.6,1.2c-0.6,0.3-1.3,0.4-1.9,0.5c-0.1,0-0.2-0.1-0.3-0.1
		c0.7-0.7,0.1-1.3-0.2-2C8.4,12.7,10.1,12.2,11.8,12.7z"/>
</g>
</svg>
