<?xml version="1.0" encoding="utf-8"?>
<!-- Generator: Adobe Illustrator 16.0.0, SVG Export Plug-In . SVG Version: 6.00 Build 0)  -->
<!DOCTYPE svg PUBLIC "-//W3C//DTD SVG 1.1//EN" "http://www.w3.org/Graphics/SVG/1.1/DTD/svg11.dtd">
<svg version="1.1" id="Layer_1" xmlns="http://www.w3.org/2000/svg" xmlns:xlink="http://www.w3.org/1999/xlink" x="0px" y="0px"
	 width="73.7px" height="71.5px" viewBox="0 0 73.7 71.5" style="enable-background:new 0 0 73.7 71.5;" xml:space="preserve">
<style type="text/css">
<![CDATA[
	.st0{fill-rule:evenodd;clip-rule:evenodd;fill:#18275B;}
	.st1{fill-rule:evenodd;clip-rule:evenodd;fill:#19285C;}
	.st2{fill-rule:evenodd;clip-rule:evenodd;fill:#1A295E;}
	.st3{fill-rule:evenodd;clip-rule:evenodd;fill:#1A2A5F;}
	.st4{fill-rule:evenodd;clip-rule:evenodd;fill:#1B2A5F;}
	.st5{fill-rule:evenodd;clip-rule:evenodd;fill:#1B2B60;}
	.st6{fill-rule:evenodd;clip-rule:evenodd;fill:#1C2B60;}
	.st7{fill-rule:evenodd;clip-rule:evenodd;fill:#1C2C60;}
	.st8{fill-rule:evenodd;clip-rule:evenodd;fill:#1D2C5D;}
	.st9{fill-rule:evenodd;clip-rule:evenodd;fill:#1D2C60;}
	.st10{fill-rule:evenodd;clip-rule:evenodd;fill:#1D2C61;}
	.st11{fill-rule:evenodd;clip-rule:evenodd;fill:#1D2D61;}
	.st12{fill-rule:evenodd;clip-rule:evenodd;fill:#1E2E62;}
	.st13{fill-rule:evenodd;clip-rule:evenodd;fill:#1F2E62;}
	.st14{fill-rule:evenodd;clip-rule:evenodd;fill:#1F2F62;}
	.st15{fill-rule:evenodd;clip-rule:evenodd;fill:#1F2F63;}
	.st16{fill-rule:evenodd;clip-rule:evenodd;}
	.st17{fill-rule:evenodd;clip-rule:evenodd;fill:#223162;}
]]>
</style>
<g>
	<path class="st15" d="M30.9,71.2c-6.5,0-12.9,0-19.4,0c-2.4,0-4.9,0-7.3,0c-1.8,0-2.8-1.2-2.8-3c0-1.2,0-2.3,0-3.5
		c0.1-0.1,0.2-0.1,0.3,0c0.5,0.4,1,0.4,1.6,0.2c1.1-0.4,2.2-0.6,3.2-1c2.4-1,3.6,0.2,4.1,2.8c0.2,0.9-0.1,1.8-0.2,2.7
		c0,0.4-0.4,1,0.3,1.2c0.6,0.2,1.2,0,1.6-0.6c0.5-0.8,1-1.6,1.3-2.4c0.8-2.1,1.6-4.1,2.2-6.2c0.3-1.1,0.7-1.1,1.4-0.3
		c0.6,0.7,1.3,1.3,1.9,2c0.6,0.6,1.2,0.8,1.9,0.2c0.7-0.5,0.4-1.2,0-1.7c-0.7-1.1-1.4-2.3-2.3-3.2c-0.5-0.6-0.7-1.2,0-1.7
		c1.3-0.9,2-2.2,2.8-3.5c0.6-1,1.1-2.1,1.6-3.1c0.4-0.7,0.3-1.4-0.4-1.9c-2-1.2-4-2.5-6.1-3.6c-0.5-0.3-1-0.2-1.5,0.1
		c-0.9,0.5-1.5,1.4-1.9,2.2c-0.7,1.3-1.5,2.6-2.3,3.9c-0.3,0.5-0.5,1-0.4,1.6c0.1,0.8-0.2,1-1,0.9c-1.3-0.2-2.6-0.1-3.8-0.1
		c-0.3,0-0.6,0-1,0.1c-0.7,0.2-1.4,0.6-1.5,1.3c-0.1,0.8,0.8,0.7,1.3,0.9c1,0.4,2.1,0.2,3.2,0.5c0.9,0.2,1.1,0.6,0.4,1.3
		c-1.9,1.9-3.6,4.1-5.5,6c-0.3,0.3-0.6,0.8-1,0.1c0-1.7,0.1-3.4,0.1-5.1C2,49.1,2,39.9,2,30.7c0-2.1-0.3-4.1-0.1-6.2
		c0.1-1.3-0.4-2.5-0.7-3.7c0-0.6,0.5-0.6,0.8-0.7c1.8-0.3,3.5-0.8,5.3-1.2c1.3-0.3,1.6,0,1.2,1.2C7.3,24,6.2,28,5.4,31.9
		c-0.5,2.4-1,4.9-1,7.4c0,0.9,0.2,1.7,0.5,2.5c0.5,1.1,1.2,1.2,1.9,0.2c0.9-1.1,1.4-2.4,2-3.7c0.9-1.8,2-3.5,3.5-4.8
		c0.1-0.1,0.3-0.3,0.4-0.4c2.1-1.8,4.8-1.6,6.5,0.6c1.5,1.9,2.9,3.9,4.4,5.8c0.4,0.6,0.9,1.2,1.4,1.6c0.3,0.2,0.6,0.5,1,0.3
		c0.3-0.2,0.3-0.5,0.3-0.8c0-1,0-2.1,0-3.1c0-0.4,0-0.8,0.3-1c0.5-0.2,0.7,0.3,0.9,0.6c0.7,1.3,1.7,2.3,3,3.1c0.8,0.4,0.6,1,0.1,1.5
		c-1.1,1.1-1.9,2.4-2.8,3.8c-0.2,0.3-0.4,0.7-0.6,1c-0.2,0.6-0.4,1.2,0.2,1.7c0.7,0.5,1.4,0.6,2.1,0c1-0.8,1.9-1.8,2.7-2.7
		c0.3-0.3,0.5-0.8,1-0.7c0.6,0.1,0.6,0.7,0.8,1.1c1.2,3.6,2.3,7.3,4.4,10.6c0.4,0.6,0.8,1.2,1.4,1.6c0.6,0.4,1,0.2,1.1-0.5
		c0.1-0.6,0-1.2-0.2-1.8c-0.3-1.2-0.3-2.4-0.3-3.6c0-0.9,0.3-1.7,0.7-2.5c0.6-1.1,1.6-1.6,2.9-1.3c1.6,0.4,3.2,0.9,4.7,1.4
		c0.2,0.1,0.4,0.2,0.7,0.3c0.5,0.1,1,0.4,1.3-0.1c0.3-0.4-0.1-0.8-0.4-1.2c-0.7-1.1-1.7-1.9-2.5-2.9c-1.1-1.3-1.1-1.5-0.2-2.8
		c0.5-0.8,0.9-1.7,1.3-2.6c0.2-0.5,0.3-1.1,1-1.1c0.6,0,0.8,0.5,1,1c1.1,2.2,2.4,4.3,3.6,6.4c0.4,0.6,0.8,1.6,1.4,1.5
		c0.8-0.2,0.4-1.2,0.4-1.9c0.1-1,0-2.1,0-3.1c0-1.5,0.8-2.3,2.3-2.4c0.9,0,1.8,0.1,2.7,0.4c0.7,0.3,1.3,0.6,2,0.9
		c0.5,0.2,1.2,0.8,1.6,0.2c0.4-0.5-0.2-1.1-0.6-1.6c-1.9-2.3-4.1-4.1-6.5-5.8c-0.6-0.4-1.5-0.7-1.5-1.5c0-0.8,1-0.7,1.6-1
		c0.5-0.3,1.1-0.5,1.6-0.8c0.7-0.4,1.2-1,0.9-1.9c-0.4-0.9-1.1-0.7-1.7-0.5c-1.4,0.3-2.7,0.6-4,1.2c-0.6,0.3-1.1,0.2-1.2-0.5
		c-0.4-2-2-3.3-3.2-4.8c-0.5-0.6-1.2-1.2-1.7-1.8c-0.6-0.7-1.3-0.7-2-0.1c-1.6,1.5-3.3,2.9-5,4.3c-0.5,0.5-0.7,1-0.5,1.7
		c0.3,1.2,1.1,2.1,1.9,3c0.6,0.6,1.2,1.3,1.7,2c0.6,0.8,0.4,1.2-0.6,1.3c-1.1,0.1-2.2,0-3.4,0.1c-0.6,0.1-0.8-0.3-0.6-0.8
		c0.4-1,0-1.8-0.5-2.6c-1-1.6-2-3.1-2.8-4.8c-0.4-0.8-1.1-1.4-1.7-2c-0.4-0.3-0.7-0.6-0.3-1.2c0.9-1.4,0.7-3.2-0.5-4.5
		c-1.8-1.9-4-3.1-6.2-4.5c-0.8-0.5-1.7-1-2.5-1.5c-0.8-0.5-0.8-0.8,0.1-1.2c1-0.5,1.4-1.3,1.5-2.4c0.1-3,0.6-6,0.7-9.1
		c0-0.2,0.1-0.5,0.3-0.6c2.8,0,5.6,0,8.4,0c0.9,1.5,1.2,3.3,1.8,4.9c0.2,0.6,0.4,1.2,1,1.6c0.8,0.5,0.6,1,0.1,1.6
		c-0.9,1-2,1.9-2.8,3c-0.4,0.5-0.6,1-0.7,1.6c-0.1,1,0.2,1.2,1.2,0.8c0.9-0.4,1.6-1.1,2.3-1.7c0.5-0.5,0.9-1.3,1.6-1
		c0.8,0.3,0.4,1.2,0.5,1.8c0.3,2.7,0.4,5.4,1,8.1c0.1,0.3,0,0.8,0.4,0.8c0.5,0.1,0.5-0.4,0.7-0.7c0.4-1.1,1-2.2,1.5-3.3
		c0.9-2.2,2.8-2.6,4.6-1.2c0.9,0.7,1.7,1.6,2.5,2.6c0.3,0.4,0.7,1.1,1.3,0.8c0.6-0.3,0.3-1,0.2-1.5c-0.8-3-2.3-5.6-3.7-8.3
		c-1-1.8-0.9-2,1.1-2c0.6,0,1.3,0,1.9,0c0.8-0.1,1.4-0.5,1.5-1.3c0.1-0.9-0.6-1-1.2-1.2c-1.2-0.3-2.5-0.4-3.8-0.4
		c-1.3,0-1.6-0.3-1.4-1.6c0.1-0.7,0.1-1.4-0.1-2.1c-0.1-0.4-0.2-0.8,0.1-1.1c4.1,0,8.2-0.1,12.3-0.1c3,0,6,0,9,0
		c0.7,0,1.4,0.1,2.1,0.3c1.7,0.5,2.1,1.2,2.1,3.7c0,2.1,0,4.2,0,6.3c0,2.9-0.1,5.7-0.2,8.6c-1-0.6-0.3-1.5-0.5-2.2
		c-0.5,0.3-0.9,0.8-1.4,1.1c-0.5,0.4-1,0.4-1.2-0.3c-0.3-0.8-0.9-1.3-1.7-1.6c-1.9-0.8-3.7-1.8-5.5-2.6c-0.6-0.3-1.2-0.5-1.8-0.5
		c-1-0.1-1.7,0.3-2.2,1.3c-1,2.2-2.1,4.5-3.2,6.7c-0.6,1.3-0.4,1.9,0.9,2.5c1.6,0.8,3.2,1.8,4.9,2.5c1,0.4,2,0.8,3.1,0.8
		c1.4,0,1.7,0.4,1.5,1.9c-0.2,1.5-0.2,3-0.1,4.5c0.1,1.2,0.8,1.7,1.8,1.5c0.7-0.1,1-0.7,1.1-1.3c0.3-1.1,0.3-2.2,0.6-3.3
		c0.3-1.2,0.5-1.3,1.6-0.6c0,0,0,0,0.1,0.1c1.2,0.9,1.2,0.9,2.1,0c0,2.5,0.2,4.9,0,7.4c-0.2,3.5,0,7.1,0,10.6
		c-3.4-1.1-6.8-1.6-10.3-2.1c-0.8-0.1-1.3,0.1-1.8,0.7c-0.8,1-1.4,2.1-1.5,3.5c-0.3,2-0.6,3.9-1,5.9c-0.2,1.1-0.4,2.2,0.3,3.2
		c0.5,0.7-0.1,0.9-0.7,1.1c-1.9,0.7-3.9,1.1-5.8,2c-1,0.5-1.7,1.1-2.1,2.2c-0.3,0.9-0.1,1.3,0.8,1.4c1,0.1,2-0.2,3-0.3
		c1-0.2,1.9-0.5,2.9-0.8c0.4-0.1,0.8-0.2,1.1,0.1c0.3,0.3,0.1,0.7,0,1c-0.9,1.8-1.5,3.8-2.4,5.6c-6,0-12,0-17.9,0
		c-0.7-0.4-1.4-0.9-2.1-1.4c-0.4-0.3-0.7-0.7-0.3-1.1c1-0.9,1.1-2.1,1.2-3.3c0.1-1.4,0.3-2.7,0.5-4c0-0.3,0-0.6,0.1-0.8
		c0.1-3.1-0.4-3.6-3.5-3.9c-1.9-0.2-3.9-0.4-5.8-0.6c-1.4-0.2-1.7,0.1-2.1,1.5c-0.5,2.2-0.7,4.3-0.9,6.5c-0.1,0.9,0.1,1.7,0.4,2.5
		c0.3,1,0.1,1.4-0.9,1.6c-1.4,0.3-2.8,0.8-4.1,1.2c-0.5,0.2-1.1,0.3-1.4,0.9c0.3,0.4,0.8,0.2,1.2,0.3c3.2,0,6.3,0,9.5,0
		C29.9,70.7,30.6,70.5,30.9,71.2z"/>
	<path class="st16" d="M28.1,0.7c0,3.5-0.6,7-0.8,10.5c-0.1,1.2-0.9,1.9-2.4,2.1c1.2,0.7,2.2,1.3,3.2,2c2.1,1.4,4.3,2.7,6.2,4.5
		c1.3,1.2,1.2,2.8,1.2,4.3c0,0.1,0,0.2-0.1,0.2c-1.5,0.9-0.1,1.3,0.4,1.8c1.3,1.3,1.8,3.2,2.9,4.6c0.5,0.6,0.8,1.3,1.3,2
		c0.6,0.9,0.8,1.8,0.2,2.8c1.4,0,2.7,0,4,0c0.2,0,0.4,0.1,0.5-0.1c0.1-0.3-0.1-0.4-0.3-0.6c-1-1.1-1.9-2.2-2.9-3.3
		c-0.3-0.3-0.4-0.6-0.6-1c-0.6-1.3-0.5-2.2,0.8-3.2c1.7-1.2,3.1-2.7,4.7-4.1c0.8-0.7,1.5-0.8,2.2,0.1c1.1,1.2,2.2,2.4,3.3,3.6
		c0.8,0.9,1.5,1.9,1.7,3.1c0.1,0.7,0.3,0.7,0.9,0.4c1.4-0.5,2.8-0.9,4.2-1.3c0.6-0.1,1.5-0.4,1.9,0.5c0.4,1.1,0.2,1.9-0.8,2.4
		C59,32.5,58,33,57,33.3c-0.7,0.2-0.7,0.4-0.1,0.8c1.9,1.3,3.7,2.7,5.4,4.3c1.1,1,2.2,2,2.8,3.4c0.2,0.4,0.5,0.8,0.2,1.2
		c-0.4,0.5-0.9,0.2-1.3,0c-1.1-0.5-2.2-1-3.3-1.5c-0.9-0.4-1.8-0.3-2.7-0.2c-0.8,0.2-1.4,0.8-1.4,1.7c0,1.4,0,2.9,0,4.3
		c0,0.4-0.1,0.8-0.1,1.2c-0.1,0.6-0.4,0.8-0.8,0.3c-0.4-0.5-0.9-0.9-1.2-1.5c-1.3-2.3-2.6-4.7-3.9-7c-0.1-0.3-0.2-0.7-0.6-0.7
		c-0.4,0-0.4,0.5-0.5,0.7c-0.5,1.3-1,2.5-1.9,3.6c-0.4,0.5-0.2,0.8,0.1,1.1c1,1.1,1.9,2.2,2.9,3.4c0.1,0.1,0.2,0.2,0.3,0.4
		c0.3,0.5,0.9,1,0.4,1.6c-0.4,0.5-1.2,0.3-1.7,0c-1.4-0.7-2.9-0.9-4.3-1.5c-3.2-1.3-4.2,0.9-4.4,3.1c-0.1,1.4,0.1,2.9,0.4,4.3
		c0.2,0.8,0.5,1.9-0.4,2.3c-1,0.4-1.6-0.5-2.1-1.2c-1.3-1.8-2.2-3.9-3-5.9c-0.8-2-1.5-4-2.1-6.1c-0.2-0.9-0.6-0.4-0.9-0.1
		c-0.8,1.1-1.8,2-2.8,3c-0.8,0.9-1.7,0.8-2.8,0.1c-1-0.6-0.6-1.4-0.2-2.1c0.9-1.8,2-3.4,3.4-4.9c0.5-0.5,0.6-0.7-0.2-1.1
		c-1.6-0.8-2.5-2.3-3.6-3.7c0,1.2,0,2.4,0,3.6c0,0.6,0.2,1.4-0.6,1.7c-0.7,0.2-1.2-0.4-1.6-1c-1.8-2.3-3.5-4.6-5.2-6.9
		c-1.9-2.5-4.4-2.7-6.7-0.5c-1.7,1.6-2.8,3.6-3.9,5.7c-0.5,1.1-1,2.2-1.8,3.1c-0.9,1-1.5,0.9-2.1-0.3C3.9,40.5,4,38.8,4.2,37
		c0.8-5.8,2.3-11.5,4.1-17c0.1-0.3,0.4-0.6,0.1-0.9c-0.3-0.3-0.6,0.1-0.9,0.1c-2,0.4-4,1.2-6.1,1.2c-0.3-1.9-0.1-3.9-0.1-5.8
		c0-0.7,0.6-0.8,1-1c1.7-0.7,3.4-1.2,5.1-1.7c0.8-0.2,1-0.6,0.6-1.3c-1.5-2.9-0.8-6-0.4-9C7.7,1,8,0.8,8.5,0.8
		c0.4,0,0.9,0.1,1.3-0.1C15.9,0.7,22,0.7,28.1,0.7z"/>
	<path class="st16" d="M55.7,71.2c-0.2-0.8,0.3-1.4,0.6-2c0.5-1.3,1.1-2.6,1.7-3.8c0.1-0.2,0.3-0.5,0.1-0.7c-0.2-0.3-0.5-0.1-0.8,0
		c-1.5,0.5-3,1-4.6,1.1c-1,0.1-2.1,0.4-2.8-0.6c-0.3-0.4,0.8-2.5,1.5-2.9c1.3-0.8,2.7-1.3,4.2-1.7c1-0.3,2-0.6,3-0.8
		c0.5-0.1,0.7-0.3,0.2-0.7c-0.9-0.8-0.7-1.8-0.5-2.7c0.4-2.6,0.9-5.3,1.4-7.9c0.3-1.3,1.1-2.3,2-3.2c0.2-0.2,0.4-0.2,0.7-0.2
		c3.4,0.6,6.8,1.3,10.2,1.9c0.5,0.1,0.4,0.6,0.7,0.7c0.6,0.6,0.1,1.4,0.2,2c0,1.6,0,3.2,0.1,4.8c-0.2,0.8-0.2,1.6-0.3,2.3
		c0,1.4-0.5,2.6-1.4,3.7c-0.5,0.5-0.4,0.9,0.2,1.2c0.6,0.3,1.1,0.6,1.5,1.2c0,1.7,0.2,3.4,0,5.1c-0.4,0.6-0.8,0.3-1.3,0.2
		c-0.6-0.2-1.2-0.7-1.9-0.9c-0.2,1,0,1.9-0.1,2.9c0,0.8-0.3,1.1-1.2,1.1c-1.1,0-2.1-0.1-3.2,0.1C62.4,71.2,59,71.2,55.7,71.2z"/>
	<path class="st16" d="M73.1,29.8c-0.6,0.4,0.3,1.4-0.6,1.5c-0.6,0.1-0.9-0.7-1.4-1c-0.4-0.3-0.8-0.6-1.3-0.9
		c-0.3,1.5-0.5,2.9-0.7,4.3c-0.3,1.5-0.8,1.8-2.2,1.7c-1.3-0.1-1.3-1.2-1.3-2c-0.1-1.6-0.2-3.1,0.2-4.7c0.2-0.9,0-1.3-1.1-1.3
		c-2.6,0.1-4.6-1.4-6.7-2.5c-0.6-0.3-1.3-0.7-1.9-1c-1.1-0.5-1.4-1.2-0.9-2.3c1.2-2.6,2.5-5.2,3.7-7.8c0.3-0.7,1-0.8,1.6-0.8
		c1.8-0.2,3.2,0.8,4.7,1.6c1.2,0.6,2.4,1.1,3.6,1.7c0.8,0.4,1.5,0.8,1.6,1.8c0.1,0.7,0.4,0.3,0.7,0.1c0.6-0.5,1.1-1.1,1.8-1.3
		c0.3,0.9-0.3,1.8,0.3,2.7c0.2,0.2,0.3,0.4,0.2,0.6c-0.7,2.3,0.5,4.6-0.2,6.9c-0.2,0.5,0.2,1,0.2,1.5C73.4,28.9,73.6,29.4,73.1,29.8
		z"/>
	<path class="st16" d="M47.8,0.7C48,2,48.5,3.2,48,4.6c-0.2,0.6,0.3,0.7,0.8,0.7c1.5,0,2.9,0.1,4.4,0.5c0.7,0.2,1.5,0.3,1.4,1.3
		c-0.1,1-0.5,1.8-1.7,1.8c-1,0-1.9,0-2.9,0c-0.7,0-1,0-0.5,0.8c1.5,2.7,3.1,5.4,4,8.4c0.2,0.6,0.3,1.2,0.4,1.9c0,0.4-0.1,0.8-0.5,1
		c-0.4,0.2-0.8-0.1-1-0.4c-0.9-0.9-1.7-1.8-2.5-2.7c-0.3-0.3-0.7-0.7-1.1-0.9c-1.7-0.9-2.9-0.5-3.7,1.3c-0.6,1.4-1.2,2.7-1.8,4
		c-0.1,0.3-0.2,0.7-0.6,0.6c-0.5,0-0.5-0.5-0.6-0.8c-0.5-2-0.7-4-0.8-6c-0.1-1.5-0.4-2.9-0.2-4.4c-0.7,0-0.9,0.5-1.2,0.8
		c-0.9,0.9-1.8,1.8-3,2.3c-1.1,0.4-1.3,0.1-1.4-1c0-1.5,1-2.4,1.8-3.3c0.3-0.4,0.7-0.7,1.1-1.1C39,8.6,40.2,8,38.5,7.2
		c-0.1-0.1-0.2-0.2-0.3-0.4c-0.6-2-1.2-4-1.8-6.1C40.2,0.6,44,0.6,47.8,0.7z"/>
	<path class="st16" d="M30.9,71.2c-0.3-0.4-0.8-0.2-1.2-0.2c-3.5,0-7,0-10.5,0c-0.4,0-0.9,0.2-1.1-0.2c-0.2-0.6,0.4-0.9,0.8-1.1
		c1.8-0.9,3.6-1.5,5.5-1.8c0.6-0.1,1-0.2,0.6-0.9c-1.1-2.1-0.3-4.2-0.1-6.2c0.1-1.2,0.4-2.4,0.6-3.6c0.2-1,0.7-1.6,1.8-1.5
		c2.9,0.3,5.8,0.6,8.8,1c0.8,0.1,1,0.8,1.2,1.5c0.5,1.6,0.3,3.2,0,4.8c-0.3,1.3-0.2,2.6-0.4,3.9c-0.1,0.8-0.3,1.6-1,1.9
		c-0.7,0.4-0.4,0.5,0,0.8c0.7,0.4,1.5,0.9,1.9,1.7C35.4,71.3,33.2,71.4,30.9,71.2z"/>
	<path class="st15" d="M9.8,0.7C9.8,0.8,9.7,0.8,9.8,0.7c-1.7-0.1-2,0.8-2.1,2.1c-0.1,2.5-0.6,5.1,0.6,7.5c0.7,1.3,0.6,1.4-0.9,1.8
		c-1.7,0.5-3.4,1-5.1,1.7c-0.7,0.3-1,0.6-1,1.4c0.1,1.7,0,3.4,0,5.1c-0.1,1,1,1.8,0.8,2.9c0,0.4,0.2,0.9,0.1,1.3
		c-0.3,1.7,0,3.5,0,5.2c0,7.4,0,14.8,0,22.2c0,1.7-0.1,3.3,0,5c0.1,2.3,0.1,4.6-0.2,6.9c0,0.4-0.2,0.7-0.5,1c-0.1,0-0.2,0-0.2,0
		c0-3.9-0.1-7.8-0.1-11.6c0-16.1,0-32.3-0.2-48.4c0-2.8,0.9-3.7,3.5-4C6.4,0.6,8.1,0.7,9.8,0.7z"/>
	<path class="st14" d="M65.8,71.2c0.9-0.4,1.9-0.2,2.8-0.2c1.1,0.1,1.4-0.4,1.3-1.4c-0.1-0.8-0.1-1.6-0.1-2.4c0-0.3-0.1-0.6,0.2-0.7
		c0.3-0.1,0.4,0.1,0.6,0.2c0.9,0.5,1.7,1.4,2.9,1.1c0.2,1.5-0.8,2.8-2.3,3.1C69.4,71.4,67.6,71.4,65.8,71.2z"/>
	<path class="st17" d="M73.4,62.9c0,0-0.1,0-0.1,0c-0.8-0.5-1.9-0.8-2.3-1.4c-0.4-0.8,0.9-1.3,1.3-2.1c0.6-1.3,0.7-2.7,0.9-4.1
		c0-0.3,0-0.6,0.2-0.8C73.4,57.3,73.4,60.1,73.4,62.9z"/>
	<path class="st16" d="M1.6,64.8c0-0.4,0.1-0.8,0.5-1c2-2.1,3.8-4.5,5.9-6.5c0.2-0.2,0.5-0.3,0.4-0.7c-0.1-0.4-0.5-0.2-0.7-0.2
		c-1.1-0.3-2.2,0-3.3-0.5c-0.6-0.3-1.7-0.3-1.6-1.1c0.2-0.8,1-1.6,2-1.7c1.6-0.1,3.2-0.1,4.8,0c0.6,0.1,1,0.2,0.7-0.6
		c-0.1-0.4-0.1-0.9,0.2-1.3c1-1.7,2-3.4,2.9-5.1c0.4-0.8,1.1-1.3,1.9-1.8c0.4-0.2,0.8-0.5,1.3-0.2c2.1,1.3,4.2,2.5,6.2,3.8
		c1.3,0.8,1.3,1.1,0.6,2.4c-0.8,1.4-1.6,2.9-2.4,4.3c-0.5,0.9-1.1,1.8-2.1,2.3c-0.8,0.4-0.6,0.8-0.1,1.4c1,1,1.7,2.3,2.5,3.5
		c0.3,0.6,0.8,1.3-0.1,1.9c-0.8,0.6-1.5,0.7-2.3-0.1c-0.9-0.9-1.9-1.7-2.9-2.4c-0.5,2.1-1.5,4.3-2.3,6.6c-0.4,1-1,1.8-1.4,2.8
		c-0.2,0.5-1.9,0.8-2.3,0.5c-0.4-0.3-0.2-0.7-0.1-1.1c0.2-1.6,0.7-3.1-0.1-4.7c-0.7-1.3-1.2-1.6-2.7-1.1c-1.3,0.4-2.6,0.9-4,1.3
		C2.6,65.5,1.7,66.1,1.6,64.8z"/>
	<path class="st13" d="M24.5,20.3c2.8,1.6,5.2,3.3,8.1,4.3c-0.4,0.7-1,0.8-1.6,1.1c-1.5,0.9-3,1.8-4.5,2.7c-0.6,0.4-0.8,0.4-0.9-0.5
		C25.3,25.5,24.9,23,24.5,20.3z"/>
	<path class="st12" d="M16.1,10.6c-1.3,0-2.4-1-2.3-2.2C13.7,7.2,14.8,6,16,6c1.2,0,2.4,1.1,2.4,2.4C18.4,9.6,17.4,10.6,16.1,10.6z"
		/>
	<path class="st11" d="M21.1,7.2c1,0,1.7,0.6,1.7,1.6c0,0.9-0.7,1.6-1.7,1.6c-1,0-1.6-0.6-1.6-1.5C19.4,7.8,20.1,7.2,21.1,7.2z"/>
	<path class="st11" d="M34.8,36.4c-0.1,0.8-0.6,1.3-1.5,1.3c-0.9,0-1.4-0.5-1.4-1.4c0-0.8,0.4-1.5,1.3-1.5
		C34.2,34.8,34.7,35.4,34.8,36.4z"/>
	<path class="st8" d="M44.4,39.4c1.8,0,1.8,0,1.4,1.6c-0.1,0.3-0.2,0.6-0.2,0.9c-0.1,0.5-0.3,0.6-0.7,0.2c-0.6-0.6-1.3-1.3-1.9-1.9
		c-0.2-0.2-0.4-0.3-0.3-0.6c0.1-0.3,0.4-0.2,0.6-0.2C43.6,39.4,44,39.4,44.4,39.4z"/>
	<path class="st7" d="M50.9,31.3c-0.1,0.7-0.5,1.2-1.2,1.3c-0.7,0.1-1.2-0.5-1.2-1.2c0-0.6,0.3-1.1,1.1-1.2
		C50.4,30.2,50.8,30.6,50.9,31.3z"/>
	<path class="st4" d="M36.2,33.6c0.8,0,1.2,0.4,1.1,1c0,0.6-0.5,1.1-1.1,1.1c-0.6,0-1.1-0.5-1.1-1.2C35.2,33.9,35.6,33.5,36.2,33.6z
		"/>
	<path class="st5" d="M48.5,33.1c0,0.5-0.3,0.9-0.8,0.9c-0.5,0.1-0.8-0.3-0.9-0.7c0-0.6,0.4-0.9,0.9-0.9
		C48.2,32.4,48.4,32.7,48.5,33.1z"/>
	<path class="st11" d="M66.5,59.1c-1,0-1.6-0.4-1.6-1.5c0-0.9,0.8-1.8,1.8-1.7c0.9,0.1,1.5,0.6,1.5,1.6
		C68.2,58.5,67.5,59.1,66.5,59.1z"/>
	<path class="st1" d="M64.1,56.7c-0.2,0.6-0.4,1.3-1.2,1.3c-0.7,0-1.3-0.3-1.3-1c0-0.6,0.3-1.3,1.1-1.3
		C63.4,55.7,63.8,56.1,64.1,56.7z"/>
	<path class="st9" d="M64.1,22.5c0.1-0.8,0.5-1.3,1.4-1.3c0.8,0,1.3,0.6,1.3,1.4c0,0.8-0.4,1.4-1.3,1.4C64.6,23.9,64,23.5,64.1,22.5
		z"/>
	<path class="st4" d="M67.7,19.7c0,0.6-0.3,1-1,0.9c-0.6-0.1-1-0.4-0.9-1c0-0.6,0.4-0.9,1-0.9C67.5,18.7,67.7,19.1,67.7,19.7z"/>
	<path class="st6" d="M43.9,5.3c-0.8,0-1.2-0.4-1.2-1.1c0-0.7,0.4-1.3,1.1-1.3c0.8,0,1.2,0.6,1.2,1.3C45.1,5,44.5,5.2,43.9,5.3z"/>
	<path class="st3" d="M42,4.9c0,0.5-0.3,0.8-0.8,0.8c-0.5,0-0.9-0.3-0.8-0.8c0-0.5,0.4-0.8,0.9-0.8C41.8,4.1,42,4.4,42,4.9z"/>
	<path class="st10" d="M29.7,67c-0.8,0-1.4-0.3-1.4-1.2c0-1,0.6-1.4,1.4-1.4c0.8,0,1.4,0.6,1.3,1.4S30.6,67,29.7,67z"/>
	<path class="st2" d="M32.8,65.1c0.5,0.2,1.1,0.3,1.1,1.1c0,0.6-0.4,0.9-1,1c-0.6,0.1-0.9-0.4-1-1C31.9,65.6,32.2,65.2,32.8,65.1z"
		/>
	<path class="st10" d="M16.6,52.5c0.4,0,0.8,0.5,0.8,1.1c0,0.6-0.3,1.3-1.1,1.3c-0.6,0-1.2-0.4-1.2-1.2
		C15.1,52.9,15.6,52.6,16.6,52.5z"/>
	<path class="st0" d="M13.8,51.4c0.5,0.1,1,0.3,1,0.9c0,0.5-0.4,0.9-0.9,0.9c-0.4,0-0.9-0.3-0.9-0.8C13,51.9,13.3,51.5,13.8,51.4z"
		/>
</g>
</svg>
