<?xml version="1.0" encoding="utf-8"?>
<!-- Generator: Adobe Illustrator 16.0.0, SVG Export Plug-In . SVG Version: 6.00 Build 0)  -->
<!DOCTYPE svg PUBLIC "-//W3C//DTD SVG 1.1//EN" "http://www.w3.org/Graphics/SVG/1.1/DTD/svg11.dtd">
<svg version="1.1" id="Layer_1" xmlns="http://www.w3.org/2000/svg" xmlns:xlink="http://www.w3.org/1999/xlink" x="0px" y="0px"
	 width="50.9px" height="78.7px" viewBox="0 0 50.9 78.7" style="enable-background:new 0 0 50.9 78.7;" xml:space="preserve">
<style type="text/css">
<![CDATA[
	.st0{fill-rule:evenodd;clip-rule:evenodd;fill:#D87B00;}
	.st1{fill-rule:evenodd;clip-rule:evenodd;fill:#D87C00;}
	.st2{fill-rule:evenodd;clip-rule:evenodd;fill:#A80A00;}
	.st3{fill-rule:evenodd;clip-rule:evenodd;fill:#AB0400;}
	.st4{fill-rule:evenodd;clip-rule:evenodd;fill:#AC0500;}
	.st5{fill-rule:evenodd;clip-rule:evenodd;fill:#AC0800;}
	.st6{fill-rule:evenodd;clip-rule:evenodd;fill:#AE0400;}
	.st7{fill-rule:evenodd;clip-rule:evenodd;fill:#AE0600;}
	.st8{fill-rule:evenodd;clip-rule:evenodd;fill:#AE0900;}
	.st9{fill-rule:evenodd;clip-rule:evenodd;fill:#AE0E00;}
	.st10{fill-rule:evenodd;clip-rule:evenodd;fill:#AE1300;}
	.st11{fill-rule:evenodd;clip-rule:evenodd;fill:#E8B204;}
	.st12{fill-rule:evenodd;clip-rule:evenodd;fill:#B10600;}
	.st13{fill-rule:evenodd;clip-rule:evenodd;fill:#B10800;}
	.st14{fill-rule:evenodd;clip-rule:evenodd;fill:#B20603;}
	.st15{fill-rule:evenodd;clip-rule:evenodd;fill:#B21100;}
	.st16{fill-rule:evenodd;clip-rule:evenodd;fill:#B30C00;}
	.st17{fill-rule:evenodd;clip-rule:evenodd;fill:#B41600;}
	.st18{fill-rule:evenodd;clip-rule:evenodd;fill:#B50B00;}
	.st19{fill-rule:evenodd;clip-rule:evenodd;fill:#EAB800;}
	.st20{fill-rule:evenodd;clip-rule:evenodd;fill:#EAB900;}
	.st21{fill-rule:evenodd;clip-rule:evenodd;fill:#EABA00;}
	.st22{fill-rule:evenodd;clip-rule:evenodd;fill:#EBBB00;}
	.st23{fill-rule:evenodd;clip-rule:evenodd;fill:#EBBC00;}
	.st24{fill-rule:evenodd;clip-rule:evenodd;fill:#EBBC01;}
	.st25{fill-rule:evenodd;clip-rule:evenodd;fill:#EBBC02;}
	.st26{fill-rule:evenodd;clip-rule:evenodd;fill:#EBBD03;}
	.st27{fill-rule:evenodd;clip-rule:evenodd;fill:#B82000;}
	.st28{fill-rule:evenodd;clip-rule:evenodd;fill:#BB1701;}
	.st29{fill-rule:evenodd;clip-rule:evenodd;fill:#8D0B00;}
	.st30{fill-rule:evenodd;clip-rule:evenodd;fill:#8E0600;}
	.st31{fill-rule:evenodd;clip-rule:evenodd;fill:#C02800;}
	.st32{fill-rule:evenodd;clip-rule:evenodd;fill:#C12900;}
	.st33{fill-rule:evenodd;clip-rule:evenodd;fill:#C32F00;}
	.st34{fill-rule:evenodd;clip-rule:evenodd;fill:#C33200;}
	.st35{fill-rule:evenodd;clip-rule:evenodd;fill:#C43400;}
	.st36{fill-rule:evenodd;clip-rule:evenodd;fill:#C43600;}
	.st37{fill-rule:evenodd;clip-rule:evenodd;fill:#C53700;}
	.st38{fill-rule:evenodd;clip-rule:evenodd;fill:#C53900;}
	.st39{fill-rule:evenodd;clip-rule:evenodd;fill:#C63A00;}
	.st40{fill-rule:evenodd;clip-rule:evenodd;fill:#C63C00;}
	.st41{fill-rule:evenodd;clip-rule:evenodd;fill:#C73D00;}
	.st42{fill-rule:evenodd;clip-rule:evenodd;fill:#C73E00;}
	.st43{fill-rule:evenodd;clip-rule:evenodd;fill:#C94600;}
	.st44{fill-rule:evenodd;clip-rule:evenodd;fill:#CA4A00;}
	.st45{fill-rule:evenodd;clip-rule:evenodd;fill:#CD5500;}
	.st46{fill-rule:evenodd;clip-rule:evenodd;fill:#CD5600;}
	.st47{fill-rule:evenodd;clip-rule:evenodd;fill:#CF5B00;}
	.st48{fill-rule:evenodd;clip-rule:evenodd;fill:#D05E00;}
	.st49{fill-rule:evenodd;clip-rule:evenodd;fill:#D05F00;}
	.st50{fill-rule:evenodd;clip-rule:evenodd;fill:#D06000;}
	.st51{fill-rule:evenodd;clip-rule:evenodd;fill:#D16300;}
]]>
</style>
<g>
	<path class="st23" d="M16.3,78.3c-2.6,0.1-5.1,0.1-7.7,0c-0.1-0.1-0.1-0.2,0-0.3c1.9-2.5,3-5.4,3.9-8.4c0.4-1,0.8-2,1.1-3
		c0.6-0.5,1-0.1,1.4,0.3c0.7,0.7,1.4,1.4,2.1,2.1c0.6,0.6,1.2,0.8,1.9,0.3c0.7-0.5,0.6-1.1,0.2-1.8c-0.7-1.2-1.5-2.3-2.3-3.4
		c-0.3-0.4-0.6-0.7-0.7-1.1c0-0.6,0.4-0.8,0.8-1.1c0.9-0.6,1.6-1.4,2-2.4c0.8-1.5,1.8-3,2.6-4.6c0.5-0.9,0.1-1.5-0.6-2
		c-2.1-1.3-4.2-2.5-6.3-3.7c-0.9-0.6-1.6,0-2.2,0.6c-0.5,0.4-0.9,0.9-1.2,1.5c-0.9,1.5-1.7,3.1-2.7,4.6c-0.3,0.4-0.5,0.8-0.5,1.3
		c0.1,1.2-0.6,1.3-1.5,1.3c-0.8,0-1.7,0-2.5,0c-0.7,0-1.4,0-2.1,0.1c-0.4,0.1-0.9,0.1-1.2-0.3c0-4.8,0-9.5,0-14.3
		c0.3-0.6,0.5-0.2,0.6,0.1c0.2,0.6,0.2,1.2,0.5,1.8C2.6,47.2,3,47.3,4,46.1c0.8-1,1.4-2.2,2-3.4c1.1-2.1,2.3-4.1,4.1-5.7
		c1.4-1.3,3.1-1.6,4.9-1.4c0.6,0.1,0.9,0.4,1.3,0.8c1.5,1.4,2.6,3.3,3.9,4.9c1,1.2,1.9,2.5,2.9,3.7c0.4,0.4,0.8,1.1,1.4,0.9
		c0.6-0.2,0.5-0.9,0.5-1.5c0-1.1,0.1-2.2-0.1-3.2c-0.1-0.4-0.1-0.8,0.4-1c0.4,0,0.6,0.3,0.7,0.7c0.6,1.1,1.2,2.1,2.1,2.9
		c0.6,0.5,1.7,0.7,1.6,1.8c-0.2,0.5-0.7,0.9-1,1.4c-1,1.4-2.1,2.7-2.9,4.2c-0.4,0.8-0.5,1.6,0.5,2.1c0.9,0.6,1.7,0.4,2.3-0.4
		c0.9-0.9,1.8-1.7,2.6-2.7c0.3-0.4,0.6-0.8,1.2-0.6c0.2,0.1,0.3,0.3,0.4,0.5c0.3,1,0.7,1.9,1,2.8c0.1,0.5,0.3,1,0.5,1.5
		c1,2.4,1.7,4.8,3.1,7.1c0.5,0.9,1.1,1.8,2,2.3c0.9,0.1,0.8-0.6,0.8-1.1c0-1.4-0.2-2.7-0.3-4.1c-0.1-0.9,0-1.7,0.2-2.5
		c0.6-2.4,2.1-3.4,4.5-2.7c1.5,0.4,3,0.9,4.5,1.4c0.5,0.2,1,0.3,1.3,0.8c0.4,1.8,0.2,3.7,0.2,5.5c0.1,4.8,0,9.5,0,14.3
		c0,1.9-0.9,3.1-2.7,3.1c-3.3,0.1-6.7,0-10,0c-0.1-0.1-0.2-0.1-0.3-0.2c-0.7-0.7-1.5-1.3-2.4-1.7c-0.4-0.2-0.9-0.5-1-1
		c0-0.2-0.1-0.3,0-0.5c1.1-1,1.2-2.4,1.3-3.8c0.1-1.7,0.5-3.3,0.7-5c0.1-0.9,0.1-1.7-0.3-2.5c-0.3-1.1-1-1.5-2.1-1.7
		c-2.5-0.3-5.1-0.5-7.6-0.9c-0.9-0.1-1.7-0.1-2.1,0.9c-0.3,1.5-0.5,2.9-0.7,4.4c-0.1,0.5-0.1,1-0.3,1.5C23,69.6,23,71,23.5,72.4
		c0.2,0.6,0.5,1.2-0.3,1.7c-0.4,0.2-0.8,0.3-1.3,0.4c-1.5,0.3-3,0.8-4.4,1.4c-1.2,0.5-1.3,0.8-1.1,2.1
		C16.4,78.1,16.4,78.2,16.3,78.3z"/>
	<path class="st1" d="M25.2,40.1c-0.4,0.3-0.1,0.7-0.1,1.1c0.1,1.4,0.2,2.9-0.1,4.3c-0.2,0.8-0.6,1.1-1.3,0.5
		c-1.5-1.1-2.4-2.8-3.5-4.2c-1.2-1.5-2.3-3.2-3.6-4.6c-1.7-1.9-4.3-1.9-6.2-0.2c-1.8,1.6-3,3.5-4.1,5.6c-0.7,1.4-1.3,2.8-2.4,4
		c-1.2,1.3-1.5,1.2-2.3-0.5c0-3.4,0.8-6.6,1.5-9.8c0.5-2.3,1.1-4.7,1.7-7c0.2-1,0.6-1.9,0.8-2.9c0.3-0.8,0.5-1.7,0.7-2.6
		c0-0.7,0.6-1.3,0.6-2.1c-0.6-0.1-0.8,0.5-1.2,0.4c-1.2-0.1-2.3,0.5-3.5,0.7c-0.5,0.1-1,0.4-1.5-0.1c-0.1-2.3-0.1-4.7,0-7
		c0.1-0.1,0.2,0,0.3,0.1c0.2,0.2,0.2,0.5,0.2,0.8c-0.1,1.4,0.2,1.5,1.5,0.9c0.9-0.4,1.9-0.5,2.8-0.9c1.8-0.8,3.8-0.8,5.7-0.7
		c0.3,0,0.5,0.1,0.8,0.1c0.4,0,1,0.2,1.1-0.4c0.1-0.7-0.5-0.7-1-0.7c-0.6,0-1.2,0-1.8-0.1c-1.3-0.3-2.7,0.1-3.9-0.5
		c-0.9-0.9-1.5-1.9-1.4-3.2C5.5,9.4,5.6,7.7,5.6,6C5.5,4.7,6,3.5,5.9,2.2c0-0.5,0-1,0.4-1.4c6.9,0,13.7,0,20.6,0
		c0.6,1.2,0.1,2.5,0,3.7c-0.2,2.6-0.5,5.1-0.6,7.7c-0.1,1.8-0.8,3.1-2.4,3.9c-0.2,0.1-0.4,0.1-0.5,0.1c-1.1-0.4-2.3-0.5-3.5-0.5
		c-0.3,0-0.7,0-0.7,0.4c0,0.4,0.4,0.3,0.7,0.4c0.9,0.1,1.8,0.3,2.6,0.8c0.8,0.6,1.8,0.9,2.7,1.5c2.8,1.6,5.5,3.3,8,5.3
		c0.5,0.4,0.8,1,1.5,1.1c0.9,1.7,0.7,2.2-0.9,3.2c-0.7,0.1-1.3-0.2-2-0.3c-1.1-0.7-2.4-1-3.6-1.6c-1.5-0.9-3-1.8-4.7-2.7
		c0,3,0.9,5.8,1,8.6c-0.1,0.5-0.5,0.6-0.8,0.9c-0.7,0.6-1.1,1.2-0.7,2.1c0.8,1.1,1.5,2.3,2.2,3.6C25.2,39.3,25.5,39.6,25.2,40.1z"/>
	<path class="st23" d="M33.6,28.3c0-0.1-0.1-0.3-0.1-0.3c1.9-0.5,1.1-1.7,0.8-2.8c-0.2-0.1-0.4-0.2-0.4-0.4
		c-0.1-1.5-1.2-2.4-2.3-3.2c-2-1.4-3.8-3-6-4.1c-0.6-0.5-1.5-0.7-1.8-1.5c-0.1-0.2-0.2-0.5,0.2-0.6c1.4-0.3,1.8-1.5,2-2.7
		c0.4-4,0.7-8.1,1-12.1c2.9,0,5.8,0,8.6,0c0.4,2.3,1.6,4.5,2,6.8c0.2,1.1,1.2,1.7,1.5,2.6c-0.1,0.4-0.4,0.7-0.7,1
		c-1,1-2.1,2-2.9,3.1c-0.3,0.4-0.5,0.9-0.5,1.4c0.1,1.2,0.5,1.4,1.5,0.8c1-0.6,1.9-1.4,2.7-2.2c0.4-0.4,0.8-0.8,1.3-0.6
		c0.6,0.2,0.4,0.8,0.4,1.3c0.1,2.7,0.5,5.4,0.8,8.1c0,0.2,0,0.4,0.1,0.6c0.2,0.5,0.1,1.3,0.6,1.3c0.6,0.1,0.6-0.7,0.8-1.1
		c0.5-0.9,1-1.9,1.4-2.9c1.2-2.8,3.6-3.1,5.6-0.8c0.1,0.1,0.2,0.3,0.3,0.4c0.3,1.2,0.2,2.4,0.1,3.6c-0.1,1.1,0.2,2.2,0.1,3.3
		c0,3.3-0.1,6.5-0.1,9.8c0,4.9,0,9.7,0,14.6c0,0.6,0.4,1.1,0,1.7c-2.5-3.2-5.2-6.1-8-9c-0.3-0.3-0.7-0.6-0.6-1.1
		c0.2-0.6,0.7-0.5,1.2-0.5c1.8-0.1,3.7-0.1,5.4-0.9c1-0.5,1.1-0.7,0.2-1.5c-1.3-1.3-2.9-1.1-4.5-1.1c-1.2,0-2.3,0-3.5,0
		c-0.9,0-1.4-0.2-1.2-1.2c0.1-0.6-0.1-1.2-0.4-1.7c-1.2-2.1-2.5-4.1-3.7-6.2c-0.3-0.6-0.7-1-1.3-1.4C33.9,28.9,33.7,28.7,33.6,28.3z
		"/>
	<path class="st1" d="M48.9,40.6c1.2,0.9,1.2,1.2-0.1,1.8c-1.8,0.9-3.7,1-5.6,1c-0.4,0-1-0.2-1.2,0.2c-0.2,0.6,0.4,0.6,0.7,0.9
		c1.8,2,3.6,3.9,5.4,5.9c0.5,0.6,1,1.1,1.5,1.7c0.5,0.4,0.8,0.9,0.7,1.6c0,0.6,0,1.1-0.1,1.7c-2-0.6-4-1.3-6-1.9
		c-2.1-0.6-3.7,0.4-4,2.6c-0.3,1.6,0,3.2,0.1,4.8c0.1,0.7,0.1,1.3,0.1,2c0,1.1-0.3,1.2-1.4,0.8c-2.1-3.1-3.1-6.6-4.5-10
		c-0.1-0.3-0.2-0.5-0.3-0.8c-0.6-1-0.7-2.2-1.1-3.2c-0.1-0.4-0.2-0.9-0.8-0.4c-0.4,0-0.6,0.2-0.8,0.5c-0.8,1.2-1.9,2-2.8,3
		c-0.8,0.8-1.6,1.1-2.6,0.3c0.7-2.1,1.9-3.9,3.3-5.6c0.5-0.6,0.8-1.2,1.3-1.7c0.4-0.4,0.8-0.8,1.3-1.3c0.4-0.6,1.4-0.5,1.8-1.4
		c-0.8,0-1.2,0.6-1.8,0.8c-0.7,0.4-1.4,1-2.2,1.4c-0.1,0-0.2,0-0.3-0.1c0-1.1-1.2-1-1.7-1.6c-0.5-1.1-1.3-2-1.9-3
		c-0.8-1.5-1.8-2.9-2.4-4.4c-0.2-1,0.3-1.7,1.1-2.2c1.4-0.9,2.8-1.8,4.2-2.5c1.3-0.7,2.5-1.4,3.7-2.2c0.5-0.3,0.9-0.7,1.5-0.6
		c1,0.2,1.4,1.1,1.8,1.8c1,2,2.3,3.8,3.4,5.7c0.4,0.7,0.7,1.5,0.5,2.3c-0.2,0.7,0.2,0.8,0.7,0.8c1.2,0,2.4,0,3.6,0
		c-0.5,1-1.3,0.5-2,0.6c-1,0-1.9-0.1-2.9,0.1c-0.7,0.2-1.2,0.7-1.8,1.1c0.6,0,1.1-0.4,1.6-0.4c0.7-0.2,1.4-0.3,2.1-0.3
		c1.9-0.4,3.9-0.2,5.8-0.3C47.7,40.2,48.3,40.5,48.9,40.6z"/>
	<path class="st1" d="M8.6,78c0,0.1,0,0.2,0,0.3c-0.4,0.1-0.8,0.1-1.2,0C7.2,78.1,7,78,7,77.7c-0.1-1,0.1-1.9,0.3-2.8
		c0.2-1.1,0.1-2.2-0.2-3.2c-0.4-1.4-1.3-1.9-2.7-1.5c-0.7,0.2-1.4,0.5-2,0.7c-0.4,0.1-0.8,0.3-1.3,0.1c-0.4-2.3-0.3-4.5,1.8-6.1
		c1-0.8,1.8-1.7,2.5-2.9c-0.9-0.2-1.7-0.2-2.4-0.3c-2-0.3-2-0.3-2.1-2.2c0-0.2,0-0.4,0-0.6c0.1-0.1,0.3-0.1,0.4-0.1
		c1.9,0,3.8-0.1,5.6,0.3c0.4,0,0.7,0,1.1,0c0.6,0,1,0.4,1.7,0.5c-0.4-0.4-0.8-0.6-1.2-0.7c-0.9-0.2-1.8,0-2.6-0.1
		c-0.6-0.1-1.3,0.2-1.6-0.6c1,0,1.9,0,2.9,0c0.3,0,0.7,0.1,0.6-0.3c-0.4-1.4,0.7-2.3,1.2-3.3c0.8-1.4,1.6-2.8,2.4-4.2
		c0.2-0.4,0.5-0.7,1-0.8c0.4,0,0.7,0,1,0.2c2.2,1.5,4.7,2.5,6.9,4c0.5,0.3,0.9,0.7,1.1,1.2c-0.3,1.5-1.5,2.5-2,3.8
		c-0.1,0.2-0.4,0.4-0.2,0.8c-0.3,1.1-1,1.8-1.9,2.4c-0.4,0.3-0.9,0.4-1,1c-0.6,0.2-1-0.4-1.5-0.5c-0.6-0.3-1-0.8-1.9-1.2
		c0.6,0.8,1.4,1.1,1.9,1.8c0.5,0.5,1,0.9,1.3,1.5c1.2,1.5,2.4,3.1,3.1,4.9c-0.8,0.7-1.5,0.6-2.2-0.1c-0.7-0.7-1.5-1.5-2.2-2.2
		c-0.3-0.3-0.6-0.7-1.1-0.5c-0.9,0.7-0.8,1.8-1.3,2.7C11.4,72.2,10.4,75.3,8.6,78z"/>
	<path class="st0" d="M50.3,20.7c-0.8-0.3-1.3-1.1-2.1-1.4c-1.5-0.6-2.5-0.2-3.2,1.2c-0.7,1.5-1.4,3-2.1,4.6
		c-0.2,0.3-0.3,0.7-0.7,0.7c-0.5,0-0.5-0.5-0.6-0.8c-0.6-2.4-0.7-4.8-1-7.3c-0.1-1.1-0.2-2.1-0.3-3.2c0-0.2,0.2-0.5-0.1-0.6
		c-0.3-0.1-0.5,0.1-0.6,0.3c-0.8,0.8-1.6,1.6-2.5,2.2c-0.2,0.1-0.3,0.2-0.5,0.3c-0.6,0.3-1.2,0.7-1.8,0.4c-0.7-0.3-0.2-1.1-0.3-1.6
		c1.4-1.2,2.5-2.7,3.9-4c0.4-0.4,0.8-0.9,1.3-1.3c0.4-0.3,0.8-0.4,1.5-0.8c-0.8,0.1-1.3,0.3-1.7,0.6c-0.2,0.1-0.4,0.2-0.6,0.1
		c-2.2-2.4-2.3-5.7-3.4-8.6c-0.2-0.4-0.1-0.7,0.1-1c3.7,0,7.4,0,11,0c0.5,0.4,0.6,1,0.8,1.6c0,0.1,0,0.3,0.1,0.4
		c0-0.2,0.1-0.3,0.3-0.3c0.9,0.9,1,2,0.8,3.2c-0.1,0.7,0,1.1,0.8,1.1c0.3,0,0.9-0.1,0.9,0.6c-1.2,0.6-2.5,0.2-3.8,0.6
		c-0.5,0.2-1.1,0.2-1.8,0.8c0.9-0.1,1.5-0.4,2.2-0.5c0.6-0.1,1.2-0.1,1.8,0c0.7,0,1.2-0.2,1.6-0.8c0.1-0.1,0.2-0.2,0.3-0.1
		c0.2,1.2,0,2.4,0,3.6c-0.3,0.3-0.8,0.3-1.1,0.6c-0.2,0.7,0.4,2.2,0.9,2.4c0,0,0.1-0.1,0.2-0.2C50.7,16,50.5,18.3,50.3,20.7z"/>
	<path class="st1" d="M23,73.9c0.7-0.4,0.4-0.9,0.2-1.3c-0.5-1.5-0.6-2.9-0.2-4.4c0.4,0.5,0.3,1,0.1,1.3c0.3-1.9,0.4-3.9,0.9-5.9
		c0.5-0.8,1.3-1,2.1-1c2.8,0,5.5,0.7,8.3,1c0.6,0.1,1.2,0.2,1.8,0.3c1,1.4,0.3,2.9,0.1,4.2c-0.2,1.5-0.3,3-0.5,4.5
		c-0.1,1-0.3,1.9-1.2,2.6c-0.2,0.2-0.1,0.3-0.1,0.5c-0.1,0.1-0.3,0.2-0.5,0.1c-0.7-0.3-1.4-0.4-2.3-0.5c0.5,0.3,1,0.3,1.4,0.6
		c0.6,0.4,1.2,0.7,1.8,1c0.8,0.8,1.9,1,2.9,1.3c0,0,0,0.1,0.1,0.1c-4.9,0-9.8,0.1-14.7,0.1c-2.3,0-4.6-0.1-6.9-0.2
		c0-0.1,0-0.2,0-0.2c0.9-1.1,2.1-1.6,3.4-1.9c0.9-0.2,1.7-0.5,2.6-0.7c0.8-0.2,1.6-0.3,2.4-0.5c0.5-0.1,1-0.1,1.4,0
		c0.4,0.1,0.9,0.2,1.3-0.1c-0.3-0.6-0.9-0.1-1.3-0.3c-0.1,0-0.2,0-0.4-0.1c-0.7-0.2-1.5,0-2.3-0.2C23.3,74.2,23.1,74.1,23,73.9z"/>
	<path class="st23" d="M5.3,11.3c0.2,1,0.8,1.9,1.2,2.8c-0.4,0.5-1.1,0.6-1.6,0.8c-1.3,0.1-2.5,1-3.9,0.9c-0.1,0-0.1,0-0.2,0
		c0-4.2-0.1-8.4-0.1-12.5c0-1.4,1.2-2.5,2.7-2.5c0.7,0,1.4,0,2.1,0.1C5.6,0.9,5.6,1,5.6,1.1c0,1.4-0.3,2.8-0.3,4.2
		C5,6.9,5.1,8.4,5.2,10C5.3,10.4,5.3,10.9,5.3,11.3z"/>
	<path class="st26" d="M0.9,58.8L0.9,58.8c-0.1,0-0.1,0-0.1,0c0-5.8-0.1-11.6-0.1-17.4c0-5.8,0-11.6,0-17.4c0-0.4,0-0.8,0.1-1.2
		c1.4-0.1,2.8-0.6,4.1-0.9c0.3-0.1,0.8-0.5,0.9,0.2c0.3,0.4,0,0.8,0,1.2C5.5,24.2,5.3,25.1,5,26c-0.3,1.1-0.7,2.1-1,3.2
		c-0.9,4.4-2.4,8.7-2.7,13.2c0,0.4,0,0.9-0.4,1.2c0,4.9,0,9.8,0,14.7C1.1,58.5,1.1,58.7,0.9,58.8z"/>
	<path class="st25" d="M0.8,59.3c0.4,1.8,0.4,1.8,3.2,2.1c0.6,0.1,1.6-0.4,1.9,0.3c0.2,0.5-0.7,0.9-1.1,1.4
		c-0.7,0.9-1.5,1.6-2.3,2.4c-1,1-1.8,2.1-1.5,3.7c0.1,0.5,0,1,0,1.5c0.3,1.2,0.9,2.3,0.4,3.6c-0.3,1,0.2,1.9,0.8,2.7
		c0.3,0.4,0.6,0.4,1.1,0.3c1.2-0.3,2.4,0.4,3.7,0.2c0.1,0,0.2,0.1,0.3,0.2c0.1,0.2,0.2,0.3,0.2,0.5c-1.5,0-2.9,0.1-4.4,0.1
		c-1.1,0-2.2-1.2-2.2-2.4C0.8,70.4,0.8,64.9,0.8,59.3z"/>
	<path class="st24" d="M50.1,7.2C49.8,6.8,49.4,6.9,49,7c-1,0.1-1.4-0.2-1-1.2c0.4-1.2,0-2.3-0.5-3.4c-0.5-0.5-0.7-1-0.5-1.7
		c2.5-0.1,3.5,0.9,3.5,3.4c0,1,0.1,2.1-0.1,3.1C50.3,7.2,50.2,7.2,50.1,7.2L50.1,7.2z"/>
	<path class="st11" d="M49.2,11.3c0.2-0.8,0.8-0.4,1.3-0.5c0.2,0.8,0.2,1.6-0.1,2.4C49.4,12.9,49.2,12.1,49.2,11.3z"/>
	<path class="st2" d="M49.2,11.3c0.4,0.6,0.6,1.4,1.2,1.9c0,0.2,0.1,0.3,0.1,0.5c0,0.3-0.1,0.5-0.2,1c-0.6-1.1-1-1.9-1.5-2.8
		C48.6,11.6,48.7,11.3,49.2,11.3z"/>
	<path class="st14" d="M5.5,0.9c0-0.1,0-0.1,0-0.2c0.3,0,0.5,0,0.8,0c0,0.5,0,0.9,0,1.4C6,2.7,6.3,3.3,6.1,3.8
		C5.9,4.1,5.8,4.4,5.4,4.3C5,4.2,5.1,3.8,5.2,3.6C5.6,2.7,5.2,1.8,5.5,0.9z"/>
	<path class="st28" d="M47.1,0.7c0.2,0.5,0.1,1.2,0.5,1.7c0,0.2-0.1,0.3-0.1,0.5c-0.1,0-0.1,0-0.2,0.1c-0.2-0.7-0.5-1.5-0.7-2.2
		C46.7,0.7,46.9,0.7,47.1,0.7z"/>
	<path class="st50" d="M1,43.6C1.1,40,1.8,36.5,2.8,33c0.4-1.3,0.3-2.8,1-4c0.5,0.2,1,0.1,1.5,0.3c-1.1,4.4-2.3,8.8-3,13.3
		C2,43.8,2.1,45,1.7,46.1C1.1,45.4,1.4,44.4,1,43.6z"/>
	<path class="st50" d="M36.3,63.8c-0.4,0.7-1,0.2-1.4,0.1c-2.9-0.3-5.6-1-8.5-1.1c-0.8,0-1.5,0.2-2,0.8c-0.5-0.4-0.1-1-0.3-1.4
		c0.1-1,0.8-1.3,1.7-1.2c2.6,0.3,5.1,0.6,7.7,0.8c0.4,0,0.7,0.1,1.1,0.1C35.6,62,36.1,62.5,36.3,63.8z"/>
	<path class="st50" d="M21.4,55c-1.5-1.5-3.3-2.4-5.1-3.4c-1.3-0.7-2.5-1.4-3.8-2.2c1-1.1,1.4-1.1,2.6-0.4c1.9,1.2,3.9,2.3,5.9,3.4
		c1.2,0.7,1.4,1.2,0.9,2.5C21.7,54.8,21.5,55.1,21.4,55z"/>
	<path class="st50" d="M29.8,47.8c-1.3,1.6-2.6,3.3-3.2,5.3c0,0.1-0.3,0.1-0.4,0.2c-1.1-0.6-1.3-1.2-0.7-2.3
		c0.8-1.6,1.9-3.1,3.1-4.5C29.2,46.7,29.4,47.3,29.8,47.8z"/>
	<path class="st50" d="M22.3,75.6c-0.9,0.5-2,0.6-3,0.9c-1.1,0.3-2,1.1-3,1.5c-0.6-1.4-0.6-1.7,0.8-2.3c1.5-0.7,3.1-1.3,4.8-1.6
		C22,74.6,21.9,75.2,22.3,75.6z"/>
	<path class="st50" d="M34.8,53.8c0.9,2.2,1.8,4.4,2.6,6.6c0.4,1.1,1.1,2,1.8,3c0.2,0.2,0.5,0.4-0.1,0.5c-1.7-1.4-2.7-3.4-3.4-5.4
		c-0.4-1.1-0.9-2.2-1.4-3.3c-0.1-0.3-0.3-0.6-0.3-0.9C34.3,54,34.5,53.8,34.8,53.8z"/>
	<path class="st50" d="M19.2,69.4c-0.2,0-0.4-0.1-0.5-0.3c-0.7-1.7-1.8-3.1-2.9-4.5c0.3-0.4,0.7-0.7,1.2-0.7c1,1.2,1.9,2.5,2.6,3.8
		C20.1,68.4,20,69,19.2,69.4z"/>
	<path class="st48" d="M8.6,78c0-0.1-0.2-0.2-0.1-0.3c1.8-2.6,2.5-5.7,3.7-8.6c0.2,0.1,0.3,0.4,0.5,0.5c0.3,0.9-0.5,1.6-0.7,2.3
		C11.1,74.1,10.5,76.4,8.6,78z"/>
	<path class="st50" d="M0.9,58.8c0-0.1,0-0.3,0.1-0.4c1.1-0.2,2.2-0.4,3.3-0.3c0.5,0.5,1.1,0.1,1.7,0.2c0.3,0.3,1,0.3,1,0.9
		C5.2,59,3.4,59.1,1.7,59C1.4,59,1.1,59,0.9,58.8z"/>
	<path class="st27" d="M24,62.2c0.5,0.4,0.1,1,0.3,1.4c-0.3,2-0.5,4-1.2,6c0-0.5-0.1-1-0.1-1.5C23.4,66.2,23.7,64.2,24,62.2z"/>
	<path class="st43" d="M29.8,47.8c-0.8,0-0.8-0.8-1.2-1.2c0.2-0.5,0.5-0.9,1-1.2c0.1,0,0.2,0,0.2,0c0.6,0,1,0.2,1.2,0.7
		C30.6,46.6,30.2,47.2,29.8,47.8z"/>
	<path class="st44" d="M22.3,75.6c-1.2-0.1-0.7-0.9-0.5-1.4c0.4-0.3,0.8-0.3,1.2-0.3c0.2,0,0.3,0,0.5,0c0.4,0.4,0.4,1.2,1.2,1.2
		C24,75.5,23.1,75.5,22.3,75.6z"/>
	<path class="st47" d="M37.9,78.2c-1.2,0.2-2.3-0.2-3.1-1.2c0.1-0.4,0.3-0.6,0.7-0.7C36.4,76.8,37.3,77.3,37.9,78.2z"/>
	<path class="st9" d="M23.8,36.3c0.8,1.4,1.6,2.9,2.4,4.3c0.2,0.1,0.2,0.3,0,0.4c-0.2,0.1-0.3-0.1-0.4-0.2c-0.2-0.2-0.3-0.5-0.5-0.7
		c-0.8-1.6-1.7-3.1-2.7-4.5c0.2-0.6,0.5-0.3,0.7-0.1C23.5,35.7,23.6,36,23.8,36.3z"/>
	<path class="st39" d="M17,63.8c-0.4,0.3-0.7,0.7-1.2,0.7c-0.4-0.5-0.8-1-1.2-1.4c0-0.3,0.1-0.6,0.2-0.9c0.6,0,0.9,0.5,1.4,0.7
		C16.5,63.2,16.8,63.5,17,63.8z"/>
	<path class="st15" d="M33.4,49.7c0.6,1.1,0.6,2.3,1.2,3.4c-0.5,0.6-0.7-0.1-1-0.2c-0.3-1-0.8-1.9-0.9-2.9
		C32.9,49.9,33.2,49.9,33.4,49.7z"/>
	<path class="st10" d="M12.7,69.6c-0.6,0.3-0.4-0.2-0.5-0.5c0.3-0.8,0.5-1.6,0.8-2.3c0.1-0.2,0.2-1,0.7-0.3
		C13.7,67.6,13.1,68.6,12.7,69.6z"/>
	<path class="st17" d="M21.4,55c0.2,0.1,0.3-0.8,0.5,0c-0.9,1.5-1.8,3-2.7,4.5c-0.4-0.3-0.1-0.5,0-0.8C19.9,57.4,20.6,56.2,21.4,55z
		"/>
	<path class="st45" d="M25.7,40.8c0.2,0.1,0.5,0.3,0.4-0.2c0.6,1,1.7,1.8,1.7,3.1C26.8,42.9,26.2,41.9,25.7,40.8z"/>
	<path class="st36" d="M35.5,76.4c-0.2,0.3-0.4,0.5-0.7,0.7c-0.6-0.2-1.2-0.6-1.7-1c0.3-0.3,0.6-0.4,1-0.5c0.1,0,0.3,0,0.4,0
		C34.9,75.9,35.2,76.1,35.5,76.4z"/>
	<path class="st29" d="M33.4,49.7c-0.1,0.3,0.2,0.7-0.2,0.8c-0.1,0-0.3-0.3-0.5-0.5c-0.1-0.2-0.2-0.3-0.3-0.5c0-0.3,0.1-0.7,0.5-0.9
		C33.2,48.8,33.3,49.3,33.4,49.7z"/>
	<path class="st38" d="M33.6,52.8c0.4-0.2,0.6,0.5,1,0.2c0.3,0.2,0.2,0.5,0.2,0.7c0,0.5-0.4,0.5-0.7,0.5
		C33.9,53.8,33.7,53.3,33.6,52.8z"/>
	<path class="st23" d="M24.2,32.4c-0.3-1.9-0.6-3.8-0.9-5.7c-0.1-0.9-0.2-1.9-0.3-2.8c0-0.2-0.2-0.5,0.1-0.6
		c0.2-0.1,0.3,0.1,0.5,0.2c2.4,1.6,4.8,3.2,7.7,4c0.3,0.1,0.4,0.3,0.4,0.6c-0.7,1-1.9,1.2-2.9,1.9c-1.1,0.8-2.4,1.5-3.7,2.2
		C24.9,32.3,24.6,32.5,24.2,32.4z"/>
	<path class="st49" d="M24.2,32.4c2.5-1.5,4.8-3.1,7.4-4.3c0.7-0.5,1.3,0.2,1.9,0.3c0.2,0.2,0.3,0.3,0.5,0.5
		c-2.9,2.1-6.2,3.4-9.2,5.4c-0.8,0.5-1.2,1.1-1.1,2c-0.5,0-0.4-1.1-1.2-0.7c-0.6-1.1,0-1.9,0.8-2.5C23.6,32.8,23.9,32.6,24.2,32.4z"
		/>
	<path class="st23" d="M16.3,10.4c0.3,1.3-1.4,2.6-2.6,2.6c-1.3,0-2.5-1.2-2.5-2.7c0-1.4,1.1-2.5,2.5-2.5
		C15.3,7.8,16.3,8.9,16.3,10.4z"/>
	<path class="st49" d="M25.7,17.3c2.7,1.4,5.1,3.3,7.4,5.2c0.9,0.7,1,1.8,1.2,2.8c0,0.2-0.1,0.5-0.3,0.2c-2.7-2.5-5.8-4.4-8.9-6.3
		C25,19.1,25,19,25,19C24.6,18.2,25.2,17.8,25.7,17.3z"/>
	<path class="st46" d="M0.9,15.8c1.2-0.5,2.5-1,3.9-1.2c1.3,0.5,0.9,1.5,0.7,2.4c-1.3,0.4-2.5,0.8-3.8,1.3C1.1,18.6,1,18.3,1,17.7
		C1,17.1,1,16.5,0.9,15.8z"/>
	<path class="st22" d="M21.1,10.8c0,1.1-0.8,1.9-1.9,1.9c-0.9,0-1.9-1-1.9-1.9c0-0.9,1.1-1.9,1.9-1.9C20.3,8.9,21.1,9.7,21.1,10.8z"
		/>
	<path class="st36" d="M5.5,17c-0.2-0.1-0.3-0.3-0.2-0.5c0.4-0.8,0-1.3-0.5-1.9c0.5-0.3,1.1-0.5,1.7-0.5c1.3,0.4,2.8,0.1,4.1,0.5
		c-0.1,0.2-0.4,0.2-0.6,0.3c-0.2,0.1-0.6-0.2-0.6,0.3c0,0.4,0.3,0.5,0.7,0.6c0.5,0.1,1.2-0.3,1.5,0.5C9.5,16.2,7.5,16.4,5.5,17z"/>
	<path class="st18" d="M11.5,16.3c-0.2-0.3-0.6-0.3-0.9-0.2c-1.1,0.2-1.8-0.1-1.7-1.5c0.5,0,1.1,0,1.7,0c0.7,0,1.4,0,2,0.1
		c0.7,0,1.2,0.3,1,1.1c-0.1,0.8-0.7,0.9-1.3,0.7C12.1,16.4,11.8,16.4,11.5,16.3z"/>
	<path class="st7" d="M22.3,17.5c-0.9-0.5-1.8-0.7-2.7-0.7c-0.4,0-1,0.1-1-0.7c0-0.7,0.5-0.9,1.1-0.8c1.2,0.1,2.5-0.1,3.6,0.7
		c-0.1,0.4-0.4,0.8-0.5,1.3C22.8,17.6,22.6,17.7,22.3,17.5z"/>
	<path class="st34" d="M22.3,17.5c0.5-0.3,0.1-1.3,1-1.4c0.1,0,0.3,0,0.4,0c0.6,0.4,1.3,0.8,1.9,1.2c-0.1,0.6-0.7,1-0.7,1.7
		C24.1,18.5,23.1,18.1,22.3,17.5z"/>
	<path class="st33" d="M5.3,29.3c-0.5,0.2-1.1,0.6-1.5-0.3c0.1-1.1,0.5-2.1,1-3.1c0.3,0.3,0.7,0.6,1.2,0.5
		C5.8,27.4,5.5,28.3,5.3,29.3z"/>
	<path class="st4" d="M6,26.4c-0.7,0.6-1.1,0.4-1.2-0.5C5,25,5.3,24.1,5.5,23.3c0.5-0.1,0.9,0.1,1.2,0.5C6.6,24.7,6.3,25.5,6,26.4z"
		/>
	<path class="st40" d="M5.5,0.9c0.1,1.1,0,2.1-0.2,3.2c1.1-0.4,0.4-1.5,0.9-2C6.2,3.4,6.1,4.7,6,6C5.8,6.4,5.9,6.9,5.9,7.4
		c0,0.3-0.2,0.4-0.5,0.4c-0.3,0-0.5-0.1-0.5-0.4C5,6.7,4.8,6,5,5.3C5.1,3.8,5.1,2.4,5.5,0.9z"/>
	<path class="st51" d="M5,5.3c0,0.6,0,1.1,0,1.7c0,0.3-0.1,0.6,0.3,0.7c0.4,0,0.4-0.3,0.4-0.6c0-0.3-0.1-0.7,0.2-1
		c-0.1,1.5-0.2,2.9-0.2,4.4c0,0.4-0.2,0.7-0.5,0.9C4.5,9.3,4.7,7.3,5,5.3z"/>
	<path class="st30" d="M6.7,23.8c-0.4-0.1-0.9-0.1-1.2-0.5c-0.1-0.4,0.2-0.8,0.3-1.1c0.1-0.2,0.2-0.4,0.3-0.5
		c0.3-0.3,0.9-0.5,1.2-0.4c0.4,0.2-0.1,0.7-0.1,1.1C7.2,22.9,6.6,23.2,6.7,23.8z"/>
	<path class="st49" d="M48.9,40.6c-1.4,0-2.8,0-4.2,0c-1.2,0-2.5,0-3.7,0.2c0.1-0.6,0.7-0.8,1-1.2c0.7-0.1,1.5,0.2,2.2-0.2
		c0.7,0,1.4,0,2.2,0C47.4,39.4,48.3,39.8,48.9,40.6z"/>
	<path class="st49" d="M38.6,11.8c-1,1.3-2.4,2.2-3.3,3.6c-0.2,0.3-0.5,0.4-0.8,0.2c0-1,0.7-1.6,1.3-2.3c0.7-0.8,1.5-1.5,2.3-2.3
		C38.5,11.1,38.8,11.3,38.6,11.8z"/>
	<path class="st35" d="M38.6,11.8c-0.2-0.3-0.3-0.5-0.5-0.8c0.2-0.2,0.5-0.5,0.7-0.7c0.2-0.1,0.3-0.2,0.5-0.2
		c0.3,0.1,0.5,0.2,0.5,0.5C39.5,11.1,39.1,11.5,38.6,11.8z"/>
	<path class="st22" d="M34,40.4c0,0.6-1.2,1.6-1.9,1.6c-0.7,0-1.7-1.2-1.6-1.9c0.1-0.9,1-1.7,2-1.6C33.2,38.5,34.1,39.7,34,40.4z"/>
	<path class="st20" d="M36.7,38.2c-0.2,0.9-0.6,1.5-1.3,1.5c-0.7,0-1.3-0.6-1.3-1.3c0-0.6,0.4-1.2,1.2-1.2
		C36.1,37.2,36.4,37.7,36.7,38.2z"/>
	<path class="st41" d="M42,39.6c0,0.7-0.5,0.9-1,1.2c-0.7,0.1-1.4,0.1-2.2,0.2c0-0.4,0.4-0.8,0-1.2C39.9,39.4,41,39.7,42,39.6z"/>
	<path class="st12" d="M31.9,43.9c0.5-0.3,0.9-0.6,1.4-0.9c0.3-0.2,0.6-0.2,0.8,0.1c0.3,0.4,0.3,0.7-0.1,0.9c-0.6,0.3-1.2,0.6-1.8,1
		C31.3,44.8,31.5,44.4,31.9,43.9z"/>
	<path class="st31" d="M31.9,43.9c-0.2,0.4-0.3,0.8,0.3,1c-0.4,0.4-0.8,0.8-1.2,1.2c-0.4-0.2-0.8-0.5-1.2-0.7
		C30.4,44.7,31.1,44.3,31.9,43.9z"/>
	<path class="st3" d="M38.9,39.8c0.3,0.1,0.6-0.1,0.7,0.3c0.1,0.5-0.5,0.6-0.7,0.9c-0.4,0.2-0.7,0.3-1.1,0.5
		c-0.3,0.1-0.6,0.3-0.8-0.1c-0.3-0.4,0.1-0.5,0.4-0.7C37.8,40.4,38.4,40.1,38.9,39.8z"/>
	<path class="st23" d="M7.2,77.8c-1.5,0.5-3-0.6-4.5,0.1c-0.5,0.2-0.6-0.4-0.8-0.7c-0.8-1.1-1.4-2.2-0.6-3.5
		c0.1-0.2,0.2-0.5,0.1-0.7C0.7,72.3,1,71.5,1,70.8c1-0.3,2.1-0.6,3.1-1c1.9-0.6,3,0.1,3.4,2c0.4,1.6,0.1,3.1-0.1,4.6
		C7.3,76.9,7.3,77.3,7.2,77.8z"/>
	<path class="st21" d="M15.4,58.7c-0.2,0.8-0.4,1.6-1.3,1.5c-0.8,0-1.4-0.5-1.4-1.5c0.1-0.9,0.6-1.4,1.5-1.4
		C15.1,57.4,15.2,58.1,15.4,58.7z"/>
	<path class="st19" d="M11.6,58.3c-0.7-0.1-1-0.4-1.1-1c0-0.6,0.2-1.1,0.8-1.1c0.6,0,1.1,0.3,1.1,1C12.5,57.9,12.1,58.2,11.6,58.3z"
		/>
	<path class="st16" d="M14.9,62.2c0.3,0.4,0.3,0.7-0.2,0.9c-0.6-0.4-1.1-1-1.8-1.3c-0.3-0.1-0.4-0.4-0.2-0.8c0.2-0.4,0.5-0.3,0.8,0
		C13.9,61.4,14.4,61.8,14.9,62.2z"/>
	<path class="st5" d="M8.9,58.6c0.4,0.5,1.6,0.5,1.3,1.1c-0.4,0.8-1-0.3-1.6-0.3c-0.1,0-0.2,0-0.3-0.1c-0.3-0.1-0.5-0.4-0.3-0.7
		C8.1,58.3,8.5,58.4,8.9,58.6z"/>
	<path class="st37" d="M8.9,58.6c-0.4,0.1-1.2-0.3-0.7,0.7c-0.4,0-0.8,0-1.2,0c-0.3-0.3-0.8-0.5-1-0.9C7,58.5,8,58,8.9,58.6z"/>
	<path class="st21" d="M43.6,4.5c0.8,0.1,1.3,0.6,1.3,1.5c0,1-0.7,1.2-1.4,1.2c-0.9,0-1.2-0.6-1.2-1.4C42.2,5,42.7,4.6,43.6,4.5z"/>
	<path class="st42" d="M50.1,7.2C50.3,8.1,50,8.5,49,8.4c-0.8-0.1-1.6,0-2.5,0c-0.1-0.2-0.3-0.5-0.5-0.7C47.4,7,48.8,7.2,50.1,7.2
		C50.1,7.2,50.1,7.2,50.1,7.2z"/>
	<path class="st19" d="M41.8,6.8c0,0.8-0.6,0.9-1.1,1c-0.6,0-1-0.4-1-1c0-0.6,0.5-1,1.1-1C41.4,5.7,41.7,6.2,41.8,6.8z"/>
	<path class="st13" d="M46.1,7.7c0.5,0,0.9,0.1,0.5,0.7C46,8.6,45.4,8.8,44.9,9c-0.4,0.1-0.5-0.1-0.6-0.4c-0.1-0.3,0.1-0.5,0.3-0.5
		C45.1,7.9,45.6,7.8,46.1,7.7z"/>
	<path class="st8" d="M39.9,10.6c-0.2-0.2-0.4-0.4-0.5-0.5c0.7-0.6,2-1.1,2.2-0.6C41.8,10.3,40.3,10,39.9,10.6z"/>
	<path class="st21" d="M26.9,71.5c-0.2-1,0.6-1.5,1.4-1.6c0.7-0.2,1.7,0.9,1.7,1.7c0,0.8-0.9,1.7-1.6,1.6
		C27.4,73.1,26.8,72.7,26.9,71.5z"/>
	<path class="st20" d="M31.6,70.8c0.6,0.2,1.3,0.4,1.2,1.2c-0.1,0.7-0.6,1.1-1.3,1.1c-0.9,0-1-0.7-1-1.3C30.5,71.1,31,71,31.6,70.8z
		"/>
	<path class="st32" d="M24.7,75.1c-1.1,0.3-1.1-0.5-1.2-1.2c0.8,0.1,1.6-0.2,2.4,0.2c-0.1,0.5,0.6,0.5,0.4,1
		C25.8,75.1,25.3,75.1,24.7,75.1z"/>
	<path class="st8" d="M34.1,75.6c-0.2,0.4-0.5,0.5-1,0.5c-0.5-0.2-1.1-0.3-1.6-0.4c-0.2-0.1-0.4-0.2-0.3-0.4c0-0.2,0.2-0.4,0.4-0.3
		C32.4,75.1,33.4,74.8,34.1,75.6z"/>
	<path class="st6" d="M26.4,75.2c0-0.4-1.4-0.2-0.4-1c0.1,0,0.2,0,0.2,0c0.4,0.2,0.9,0.1,1.3,0.1c0.6,0.1,0.6,0.4,0.4,0.8
		C27.3,75,26.9,75.7,26.4,75.2z"/>
	<path class="st32" d="M27.8,75.1c0.1-0.5-0.2-0.7-0.7-0.7c-0.3,0-0.7,0.1-1-0.2c0.4,0,0.9,0,1.3,0C28.2,74.2,28.2,74.6,27.8,75.1z"
		/>
</g>
</svg>
