<?xml version="1.0" encoding="utf-8"?>
<!-- Generator: Adobe Illustrator 16.0.0, SVG Export Plug-In . SVG Version: 6.00 Build 0)  -->
<!DOCTYPE svg PUBLIC "-//W3C//DTD SVG 1.1//EN" "http://www.w3.org/Graphics/SVG/1.1/DTD/svg11.dtd">
<svg version="1.1" id="Layer_1" xmlns="http://www.w3.org/2000/svg" xmlns:xlink="http://www.w3.org/1999/xlink" x="0px" y="0px"
	 width="494.2px" height="481px" viewBox="0 0 494.2 481" style="enable-background:new 0 0 494.2 481;" xml:space="preserve">
<style type="text/css">
<![CDATA[
	.st0{fill-rule:evenodd;clip-rule:evenodd;fill:#D7DDDF;}
	.st1{fill-rule:evenodd;clip-rule:evenodd;fill:#D9DEDF;}
	.st2{fill-rule:evenodd;clip-rule:evenodd;fill:#D9DFE0;}
	.st3{fill-rule:evenodd;clip-rule:evenodd;fill:#A0A3A7;}
	.st4{fill-rule:evenodd;clip-rule:evenodd;fill:#737476;}
	.st5{fill-rule:evenodd;clip-rule:evenodd;fill:#0A73B9;}
	.st6{fill-rule:evenodd;clip-rule:evenodd;fill:#DAE0E1;}
	.st7{fill-rule:evenodd;clip-rule:evenodd;fill:#49484A;}
	.st8{fill-rule:evenodd;clip-rule:evenodd;fill:#ADB1B5;}
	.st9{fill-rule:evenodd;clip-rule:evenodd;fill:#AEB2B6;}
	.st10{fill-rule:evenodd;clip-rule:evenodd;fill:#AEC0C9;}
	.st11{fill-rule:evenodd;clip-rule:evenodd;fill:#E6E7E4;}
	.st12{fill-rule:evenodd;clip-rule:evenodd;fill:#E92028;}
	.st13{fill-rule:evenodd;clip-rule:evenodd;fill:#E9EBE8;}
	.st14{fill-rule:evenodd;clip-rule:evenodd;fill:#B0B4B8;}
	.st15{fill-rule:evenodd;clip-rule:evenodd;fill:#B0C3CB;}
	.st16{fill-rule:evenodd;clip-rule:evenodd;fill:#B0C3CC;}
	.st17{fill-rule:evenodd;clip-rule:evenodd;fill:#B1B5B9;}
	.st18{fill-rule:evenodd;clip-rule:evenodd;fill:#B2B6BA;}
	.st19{fill-rule:evenodd;clip-rule:evenodd;fill:#EAE8E5;}
	.st20{fill-rule:evenodd;clip-rule:evenodd;fill:#EAECE9;}
	.st21{fill-rule:evenodd;clip-rule:evenodd;fill:#EBEDEA;}
	.st22{fill-rule:evenodd;clip-rule:evenodd;fill:#ECEEEB;}
	.st23{fill-rule:evenodd;clip-rule:evenodd;fill:#8B8B8B;}
	.st24{fill-rule:evenodd;clip-rule:evenodd;fill:#BACBC9;}
	.st25{fill:#FEFEFE;}
	.st26{fill-rule:evenodd;clip-rule:evenodd;fill:#229046;}
	.st27{fill-rule:evenodd;clip-rule:evenodd;fill:#F19325;}
	.st28{fill-rule:evenodd;clip-rule:evenodd;fill:#F39525;}
	.st29{fill-rule:evenodd;clip-rule:evenodd;fill:#F39526;}
	.st30{fill-rule:evenodd;clip-rule:evenodd;fill:#252122;}
	.st31{fill-rule:evenodd;clip-rule:evenodd;fill:#252223;}
	.st32{fill-rule:evenodd;clip-rule:evenodd;fill:#252323;}
	.st33{fill-rule:evenodd;clip-rule:evenodd;fill:#262122;}
	.st34{fill-rule:evenodd;clip-rule:evenodd;fill:#262223;}
	.st35{fill-rule:evenodd;clip-rule:evenodd;fill:#262524;}
	.st36{fill-rule:evenodd;clip-rule:evenodd;fill:#5A5B5C;}
	.st37{fill-rule:evenodd;clip-rule:evenodd;fill:#282122;}
	.st38{fill-rule:evenodd;clip-rule:evenodd;fill:#282123;}
	.st39{fill-rule:evenodd;clip-rule:evenodd;fill:#282526;}
	.st40{fill-rule:evenodd;clip-rule:evenodd;fill:#292526;}
	.st41{fill-rule:evenodd;clip-rule:evenodd;fill:#F7F7F7;}
	.st42{fill-rule:evenodd;clip-rule:evenodd;fill:#F7F7F8;}
	.st43{fill-rule:evenodd;clip-rule:evenodd;fill:#F8F8F8;}
	.st44{fill-rule:evenodd;clip-rule:evenodd;fill:#F9F4F4;}
	.st45{fill-rule:evenodd;clip-rule:evenodd;fill:#F9F5E8;}
	.st46{fill-rule:evenodd;clip-rule:evenodd;fill:#F9F7F7;}
	.st47{fill-rule:evenodd;clip-rule:evenodd;fill:#F9F8F5;}
	.st48{fill-rule:evenodd;clip-rule:evenodd;fill:#F9F9F9;}
	.st49{fill-rule:evenodd;clip-rule:evenodd;fill:#2A2627;}
	.st50{fill-rule:evenodd;clip-rule:evenodd;fill:#961D20;}
	.st51{fill-rule:evenodd;clip-rule:evenodd;fill:#2B2829;}
	.st52{fill-rule:evenodd;clip-rule:evenodd;fill:#971D20;}
	.st53{fill-rule:evenodd;clip-rule:evenodd;fill:#971E21;}
	.st54{fill-rule:evenodd;clip-rule:evenodd;fill:#972020;}
	.st55{fill-rule:evenodd;clip-rule:evenodd;fill:#981F20;}
	.st56{fill-rule:evenodd;clip-rule:evenodd;fill:#982020;}
	.st57{fill-rule:evenodd;clip-rule:evenodd;fill:#982220;}
	.st58{fill-rule:evenodd;clip-rule:evenodd;fill:#C7CED3;}
	.st59{fill-rule:evenodd;clip-rule:evenodd;fill:#C7CFD4;}
	.st60{fill-rule:evenodd;clip-rule:evenodd;fill:#2D2A2B;}
	.st61{fill-rule:evenodd;clip-rule:evenodd;fill:#FBBE14;}
	.st62{fill-rule:evenodd;clip-rule:evenodd;fill:#FBFCFC;}
	.st63{fill-rule:evenodd;clip-rule:evenodd;fill:#C8D0D5;}
	.st64{fill-rule:evenodd;clip-rule:evenodd;fill:#FCFCFC;}
	.st65{fill-rule:evenodd;clip-rule:evenodd;fill:#FDFDFD;}
	.st66{fill-rule:evenodd;clip-rule:evenodd;fill:#9B1F22;}
	.st67{fill-rule:evenodd;clip-rule:evenodd;fill:#9B9EA2;}
	.st68{fill-rule:evenodd;clip-rule:evenodd;fill:#9DA0A4;}
	.st69{fill-rule:evenodd;clip-rule:evenodd;fill:#302729;}
	.st70{fill-rule:evenodd;clip-rule:evenodd;fill:#373536;}
	.st71{fill-rule:evenodd;clip-rule:evenodd;fill:#6D6F71;}
	.st72{fill-rule:evenodd;clip-rule:evenodd;fill:#6D7072;}
	.st73{fill-rule:evenodd;clip-rule:evenodd;fill:#6E7071;}
	.st74{fill-rule:evenodd;clip-rule:evenodd;fill:#6E7173;}
]]>
</style>
<g>
	<path class="st25" d="M374,481c0-2.6,2.3-2.9,3.9-3.8c9-5,18.7-8.7,27.8-13.5c5-2.6,5-2.9,2.8-8c-4.2-9.8-9.4-19.1-13.9-28.7
		c-1.8-3.8-3.8-4.2-7.4-2.3c-9,4.7-18.1,9.2-27.3,13.3c-6.2,2.8-6.3,3.5-3.2,9.8c4.6,9.2,9.2,18.4,13.8,27.7
		c0.8,1.7,2.3,3.4,1.4,5.6"/>
	<path class="st12" d="M372,481c-6.1-12.3-12.1-24.7-18.3-37c-1.3-2.5-0.8-3.9,1.7-5.1c11.4-5.4,22.7-10.9,34-16.6
		c2.8-1.4,4.1-0.8,5.4,1.9c5.3,11.2,10.7,22.4,16.3,33.5c1.6,3.1,0.6,4.3-2.2,5.6c-10.6,5-21.2,10.3-31.8,15.5
		c-1.1,0.6-2.6,0.7-3.1,2.1C373.3,481,372.6,481,372,481z"/>
	<path class="st26" d="M129.9,405.1c-3.2,3.4-6.5,1.1-9.7,0.2c-5.2-1.7-8.5-6.1-13.4-9.2c0.4,2.2,1,4,1.5,5.7
		c3.2,9.6,1.6,9,11.8,7.3c3,9.3,4.3,18.9,4.8,28.7c0.2,3.2-0.7,5.6-3.9,6.6c-3.1,1-5-1-6.6-3.2c-5.1-6.9-10.2-13.9-15.2-20.9
		c-1.1-1.5-1.9-3.2-4.2-2.6c-0.3,0-0.7,0-1,0c-2.4-0.5-5.1-0.3-5.7,2.3c-0.6,2.6,2.9,1.9,4.2,3.2c-0.2,6.3-2.2,11.4-8.6,13.9
		c-4.6,1.8-6.1,1-6.8-3.9c-1.6-10.9-2-21.9-2.1-32.9c-0.1-4.8,0-9.7,0.2-14.5c0.2-3.9-0.8-5.5-5.1-4.5c-4.4,1-8.9,1.1-13.3-0.2
		c-4-1.2-4.5-2.9-1.6-5.9c4-4.1,9-6.1,14.5-7.3c1.8-0.4,3.6-0.7,5.8-1.5c-10-0.8-11.7-7.6-12.5-15.5c-0.7-6.8-1.9-13.5-3.1-20.2
		c-0.6-3.4,0.7-5.5,3.1-7.8c7.8-7.4,15.9-5.9,24.4-1.8c2.5,0,5-0.4,7.4,0.8c2.7,1.2,5.6,2,8.4,3.2c3,1.3,5.9,3.1,5.8,6.8
		c-0.1,3.7-2.6,5.9-5.7,7.6c-1.5,0.8-4.1,0.7-4.1,3c0,3.3,0.7,6.6,2.2,9.6c0.7,1.4,2.3,0.9,3.6,0.7c7.8-0.9,7.8-0.9,9.1,6.6
		c0.4,6.8-5.2,9.4-9.4,12.9c-2.8,1.5-5.7,2.7-9.1,2.5c5.5,2.8,9.7,7.2,14.5,10.8c2.5,1.9,4.7,2.3,6.6-0.7c2.3-0.9,3.3,1.1,4.7,2.1
		c1.7,1.8,3.4,3.5,5.2,5.2c0.5,0.5,1,1,1.4,1.5c1.4,2.2,3.5,3.9,4.1,6.6C132.3,402.5,131.6,404,129.9,405.1z"/>
	<path class="st16" d="M310.9,47.9c2.6-3.6-2.5-5.8-1.8-9.1c1.7-3.8,1-7.8,1.2-11.7c0.2-4.6,0.9-9.2,1.3-13.8c0.4-5,3-7.3,8.1-7.7
		c5-0.4,10,0.5,14.9,1.1c7.5,0.9,15.3-0.1,22.5,3.2c3.5,6.2,0.5,12.7,0.6,19c0.1,3.7-0.8,7.6-0.8,11.4c0,4.6-3.2,7.8-4.9,11.6
		c-3.2,1.3-6.3-1.9-10.1,0.1c6.4,2.8,12.4,5.6,18,8.9c5.3,3,9.6,7.6,15.3,9.9c0.9,2.5,2.3,5.1-0.2,7.3c-2.3,2-4.8,0.1-7-0.8
		c-5.9-2.4-11.7-5.2-17.8-8.1c2.2,4.6-1.2,9.9,2.8,13.9c0.8,2.4-0.2,4.9,0.9,7.3c1.3,8.3,2.4,16.7,2.4,25.2c0,2.5-0.2,5.3-3,6.3
		c-2.7,0.9-4.2-1.4-5.7-3.1c-4.3-5-8-10.6-11.9-15.9c-2.2-3-4.8-5-8.8-4.1c-5.4,1.4-9.3,4.6-10.7,10.2c-3.4,3.9-5.3,8.7-8.1,12.8
		c-1.1,1.6-2.6,3.1-4.9,2.8c-2.2-0.4-2.7-2.1-2.8-4.1c1.3-16.1,5.8-31.5,10.1-47c0.4-1.8,1-3.4,1.5-5.1c0.7-2-0.6-2.2-2-2.4
		c-1-3.5-3.4-1.2-4.8-0.8c-4.3,1.1-8.5,2.6-13,2.8c-3.3,0.1-5.9-0.8-7-4.2c12.4-7.8,25.9-12.5,40.8-12.9
		C321.3,47.9,315.6,50.6,310.9,47.9z"/>
	<path class="st61" d="M416,398.4c-3.5-0.1-3.5-4.1-5.9-5.4c-3.7-3.6-4.8-8.7-7.8-12.7c-2-4.1-4-8.1-7.1-11.6
		c-5.2-2.5-6.6-2.3-10.6,2.1c-2.3,3.3-3.3,7.1-5.1,10.6c-1.1,2.1-1.8,4.7-4.7,5.2c-3.8-0.4-4.2-3.3-4.3-6.2
		c-0.3-6.6,0.8-13.1,1.7-19.6c1.2-8.5,2.8-16.9,4.2-25.4c1.1-7,0.9-7.1-6.3-7.2c-0.8,0-1.6,0-2.5-0.1c-0.5,0-1.1-0.1-1.6-0.2
		c-2-0.5-4.2-0.8-6.2-1.4c-6.5-3.4-6.6-6-0.6-10.3c1.8-0.9,3.6-1.9,5.7-2c3.8,0.6,7.6,0,11.4,0.7c3.6,0.6,7.2,1,10.6,2.4
		c-2.5-2.1-5.7-2.9-8.4-4.6c-6.3-2.5-9.3-7.1-9.1-13.9c0.2-5.3,0.2-10.6-0.3-16c0.2-3.1,0.3-6.3,0.4-9.4c0.1-2.6,0.7-4.9,3.5-6
		c7.3,0.8,12.9,5.6,19.6,7.9c3.4,1.2,6.5,3.2,9.9,4.6c4.1,1.7,6.8,4.6,7.6,9.1c0.1,10.7,0.3,21.4-0.1,32.1c-1.4,5-5.1,3.4-8.6,2.7
		c4,2.7,7.7,5.4,10.4,9.2c5.9,6.7,12.4,12.8,17.6,20.1c1.6,2.3,3.4,4.5,2.5,7.6c-3.8,2.7-5.6-2.2-8.7-2.3
		c-4.9-2.7-7.7-8.1-12.7-10.8c1,5.3,2.3,10.6,3,15.9c1.4,8.5,2.9,17,3.7,25.5C417.6,392.4,418.2,395.7,416,398.4z"/>
	<path class="st12" d="M88.9,218.8c-2.6,1.9-3.2,5.2-5.2,7.5c-1.2,1.5-1.8,4.1-4.6,3.6c-2.1-2.1-1.5-4.6-1.1-7
		c1.9-10,3.4-20,5.5-29.9c1.2-4.5,2.4-8.9,3.4-13.6c-4.6,3.1-6.9,8.6-12.4,10.4c-2.7,0.3-4.5,3.9-7.7,2.1c-1.9-2.7,0.1-4.7,1.5-6.6
		c5.8-8,12.8-15,19.8-21.9c2.4-2.4,4.8-4.8,8.7-7c-3.9,0.4-7,1.3-8.5-2.3c-0.1-8.5,0.1-17.1,0.2-25.6c0.3-2.5,0.9-4.9,1.2-7.3
		c0.8-3.3,2.7-5.8,5.6-7.3c9.2-4.6,18.7-8.8,28.3-12.6c0.8-0.3,1.6-0.3,2.5-0.1c2.6,1,3.1,3.2,3.2,5.6c0.1,6.4,0.4,12.8-0.2,19.1
		c-0.3,1.5-0.8,2.9-0.8,4.4c0.4,7.7-3,13.3-9.9,16.8c-2.6,1.3-5.9,1-8.9,4.2c8.6-2.6,16.4-1.5,24.1-1.6c0.8,0.1,1.5,0.2,2.2,0.5
		c5.8,4.5,6,5.8,1.5,10.1c-0.4,0.3-0.9,0.4-1.4,0.6c-1.7,0.3-3.4,0.6-5.1,1.1c-0.5,0.1-1,0.2-1.5,0.2c-1.6,0.1-3.3,0-4.9,0.1
		c-5,0.1-5.1,0.3-4.4,5.5c1,12.3,2.3,24.5,2.9,36.8c-0.2,3.7-0.4,7.5-0.9,11.2c-0.3,2.5-0.9,5.6-4.9,4.1c-2.4-2.1-2.6-5.2-3.7-7.9
		c-1.4-3.5-2.2-7.2-5-10c-5.4-3-7.4-2.4-10.8,3c-1.2,1.7-2.2,3.4-3.1,5.2C92.6,213.1,91.7,216.5,88.9,218.8z"/>
	<path class="st61" d="M18.8,291.9c-1.6-10.5-4.8-20.7-7.5-31c-1-3.8-0.3-5.9,3.8-6.9c11.5-2.7,22.9-5.5,34.3-8.6
		c3.7-1,5.1,0.1,5.9,3.6c2.8,11.6,5.6,23.2,8.8,34.8c1.1,3.9-0.3,5.1-3.6,6c-8.6,2.2-17.5,3.7-25.9,7c-3.1,2.5-7,2.7-10.7,2.9
		C20.5,299.9,18.8,297.1,18.8,291.9z"/>
	<path class="st26" d="M461.2,366.9c0.8,0.6,1.8,1.2,2.7,1.9c9.4,7.9,18.8,16,28.3,23.7c2.6,2.1,2.4,3.6,0.4,5.9
		c-7.9,9.2-15.7,18.5-23.4,27.9c-2.3,2.9-4.2,3-7,0.5c-9.2-7.9-18.5-15.7-27.9-23.4c-2.2-1.9-2.6-3.4-0.6-5.8
		c8.2-9.6,16.3-19.4,24.4-29C458.9,367.8,459.7,366.9,461.2,366.9z"/>
	<path class="st5" d="M18.8,291.9c0.5,1.2,1.1,2.4,1.5,3.6c1,2.9,2.7,3.7,5.7,2.9c2.8-0.8,5.7-1.8,8.7-1.6c5.6,3,11.8,4.4,17.8,6.3
		c3.2,1,4.1,2.6,3,5.9c-4,11.6-7.8,23.3-11.6,35c-0.9,2.8-2.4,3.7-5.2,2.8c-12-4-23.9-8-35.9-11.9c-2.7-0.9-3.3-2.4-2.4-4.9
		c4-11.8,8-23.6,11.8-35.4C13.5,290.6,15.9,291,18.8,291.9z"/>
	<path class="st71" d="M403.4,380c2.8,4.1,5.1,8.4,6.8,13c-0.1,0.7-0.1,1.3-0.2,2c-0.6,10.1-0.6,10.1-11,10.1
		c-84.2,0-168.4,0-252.6,0c-5.5,0-11,0.8-16.4,0c1-1.6,1.2-3.3,1.2-5.2c0.5-1.5-1-4.4,2.6-3.7c1.6,1.8,3.6,2.2,5.8,2.2
		c10.6-0.1,21.2,0.3,31.8-0.3c12.9,0.5,25.8,0.4,38.7,0c12.7,0.4,25.5,0.6,38.2-0.1c10.5,0.8,21,0.4,31.4,0.4c5.1,0,5.7-0.7,5.8-5.8
		c0.1-7,0-14,0.1-21c0-2.3-0.3-4.7,1.4-6.7c3.4,0.7,2.5,3.5,2.6,5.6c0.2,7.3,0,14.6,0.1,22c0.1,5.4,0.5,5.8,5.6,5.9
		c7.7,0.1,15.3-0.1,23,0.1c3.9,0.1,5.4-1.5,5.3-5.3c-0.1-7.5-0.2-15,0.1-22.5c0.1-2.1-0.6-4.9,2.5-5.8c1.9,1.9,1.5,4.3,1.6,6.6
		c0.1,7.1,0.1,14.3,0,21.4c0,4,1.5,5.7,5.6,5.6c7.8-0.1,15.6,0,23.4-0.1c5.1-0.1,5.7-0.7,5.8-5.8c0.1-7,0-13.9,0.1-20.9
		c0-2.3-0.3-4.7,1.3-6.7c3.5,0.5,2.6,3.4,2.6,5.4c0.3,7.5,0.2,15,0.1,22.4c-0.1,4,1.4,5.7,5.5,5.6c8-0.2,16-0.2,23.9,0
		c4.1,0.1,5.7-1.6,5.5-5.6c-0.2-2.6-0.1-5.3,0-8C401.6,383.1,401.5,381.1,403.4,380z"/>
	<path class="st73" d="M352.8,90.1c-1.1-2.4-1.4-4.7,0.3-7c17.1,1.1,34.3,0.7,51.4,0.6c3.7,0,5.4,0.8,5.4,5
		c-0.1,60.5-0.1,120.9-0.1,181.4c0,0.3-0.1,0.7-0.1,1c-3.3,1.3-5.6-0.1-7.2-2.9c-0.1-6-1.4-11.9-1-17.9c0.2-3.8-1.8-4.9-5.2-4.9
		c-7.3,0-14.6,0.1-21.9,0c-2.3,0-4.7,0.4-6.5-1.6c1.1-2.9,3.8-2.3,5.9-2.4c7.3-0.2,14.6,0,21.9-0.1c5.3-0.1,5.7-0.5,5.8-5.7
		c0.1-9.9-0.1-19.9,0.1-29.8c-0.2-13.2-0.2-26.5,0-39.7c-0.2-9.8,0-19.6-0.1-29.5c0-7-0.2-7.1-7.4-7.2c-7.7,0-15.3,0.1-23-0.1
		c-2.2,0-4.8,0.6-6.1-2.2c1.7-2.2,4.2-1.8,6.4-1.8c7.7-0.1,15.3,0,23,0c6.5,0,6.4-0.1,7.3-6.5c1.2-8,0.6-15.9,0.7-23.9
		c0-1.5-0.1-3-1-4.3c-1.5-1.8-3.6-1.4-5.5-1.4c-7.8,0-15.5,0-23.3,0c-3,0-5.5,0.6-7.7,2.7C361.3,88.5,357.1,89.1,352.8,90.1z"/>
	<path class="st71" d="M311.8,72.8c-3.1,13.3-6.9,26.5-9.3,40c-0.5,2.7,0.6,5.7-1.4,8c-4.9-4.3-3.6-9.9-2.7-15.2
		c0.6-3.6,1.9-7.1,2.7-10.6c1.1-5,0.7-5.5-4.3-5.7c-3.5-0.1-7,0.3-10.5,0.4c-10.3-0.5-20.6-0.1-31-0.2c-3.4,0-4.8,1.4-4.8,4.7
		c0.1,5.5,0.1,11,0,16.5c0,2.1,0.2,4.4-1.4,6.2c-3.2-0.4-2.5-3-2.6-4.9c-0.3-5.8-0.2-11.6-0.1-17.4c0-3.5-1.3-5.1-5-5.1
		c-8.3,0.1-16.6,0.1-24.9,0c-3.5,0-5.2,1.3-5.1,5c0.1,4.5,0.2,9-0.1,13.4c-0.1,2,0.4,4.5-2.5,5.2c-2.1-2.6-1.2-5.7-1.5-8.6
		c-0.4-4.6,1.9-10.3-1.2-13.5c-3.3-3.4-9.2-1.1-13.9-1.3c-4.5-0.2-9,0.1-13.5-0.1c-3.9-0.1-5.3,1.6-5.3,5.4c0.1,8.3,0.1,16.7,0,25
		c0,2.3,0.7,5.1-2.5,6.3c-1.8-1.9-1.5-4.3-1.5-6.6c-0.1-8.2-0.1-16.3,0-24.5c0.1-4.1-1.6-5.6-5.6-5.5c-10.5,0.2-21-0.2-31.4,0.3
		c-10.3-0.7-20.6-0.3-31-0.3c-5.2,0-5.7,0.7-5.9,5.8c-0.1,2.5,0.2,5-0.8,7.4c-1.2,1.8-2.7,2.7-4.7,1.3c-1.3-5.8-0.3-11.6-0.6-17.4
		c-0.1-2.2,1.2-2.9,3.2-2.8c1.3,0.1,2.7,0,4,0c58.5,0,117,0,175.4,0c9.3,0,18.6-0.5,28-0.3c4.4,0.1,6.4-1.3,7-5.5
		c0.2-1.7,0.6-3.6,2-5C309.9,72.2,310.8,72.1,311.8,72.8z"/>
	<path class="st28" d="M403.3,268.6c2.1,0.8,4,2.4,6.4,2.5c1.6,2.1,4,2.9,6.3,3.8c5.5,2.1,8,5.9,7.9,11.9
		c-0.2,7.2-0.2,14.3,0.2,21.5c0.3,5.4-1.5,8.9-6.4,11.1c-1.9,0.9-3.6,2.3-5.5,3.4c-0.8,0.8-1.6,0.8-2.4,0.1
		c-0.5-8.2-0.1-16.3-0.2-24.5c0.1-2.6,1.9-1.6,3.2-1.5c8.2,1.1,9.5-0.3,8.5-9.1c-3.4,2.2-6.9,3.2-10.8,1.9c-0.7-0.4-1-1.1-1.4-1.7
		c-1.6-3.7-4.4-5.7-8.2-7.3c-9.1-3.9-17.9-8.3-26.9-12.5c3-4.7,11-7.8,17.1-6.1C395.6,263.3,399.9,265.2,403.3,268.6z"/>
	<path class="st4" d="M88.9,218.8c0.8-3.4,2.9-6.1,4.7-9c2.2,1.4,1.9,3.7,1.9,5.8c0,9.4,0.2,18.8-0.1,28.2c0.2,12.7,0.2,25.3,0,38
		c-0.1,13.2,0.8,26.4-0.5,39.5c-0.3,0.6-0.7,1.1-1.2,1.6c-2.2-0.6-4.4-1.1-6.6-1.7c2.1-0.2,2.1-1.7,2.1-3.2
		c0-32.6-0.1-65.2-0.1-97.7C89.2,219.8,89,219.3,88.9,218.8z"/>
	<path class="st50" d="M90,104c1.5,0.1,2.8-0.5,4-1.2c6.9-6.9,19.7-9.3,27.2-5c1.6,0.9,3.7,1.7,3.8,4.1c-7.7,3.4-15.4,6.9-23.1,10.2
		c-4.6,2-9.2,3.9-11.2,9.1c-4.9,2.9-8.5-1-12.6-2.2c-0.9-5.8,1.6-9.7,6.9-11.9C86.9,106.3,88.8,105.7,90,104z"/>
	<path class="st71" d="M357.1,9.9c-9.8-0.8-19.7-1.6-29.5-2.4c-2.6-0.2-5.3-0.5-7.9-0.6c-4.3-0.2-6.4,2-6.7,6.2
		c-0.6,7.4-1.3,14.8-1.9,22.2c-0.1,1.4,0.4,3.2-1.8,3.5c-1.2-11.4,0.7-22.6,2-33.8c0.4-3.2,2.4-5.2,5.7-5
		c11.4,0.7,22.9,1.5,34.3,2.5C355.4,2.9,356.7,6.2,357.1,9.9z"/>
	<path class="st53" d="M85,192c-1.8,10.2-3.5,20.4-5.4,30.6c-0.5,2.5-0.5,4.9-0.4,7.4c-3.6,1.2-6,0.1-6.3-3.9
		C72,214.3,72.2,202.6,75,191C78.6,189,81.8,190.2,85,192z"/>
	<path class="st28" d="M416,398.4c0.6-12.1-2.6-23.7-3.9-35.6c3.6-1.3,7.2-2,10.8,0c2.1,10.5,1.4,21,0.5,31.5
		C423,398.6,419.8,399.3,416,398.4z"/>
	<path class="st52" d="M90,128c-0.3,8.1,0.8,16.2-0.8,24.2c-0.2,0.9,0.4,1.9,0.7,2.8c-1.2,0.9-2.2,0.4-3.3-0.3
		c-1-1.6-2.9-2.1-4.4-3.1c-3.6-2.5-6.2-5.8-6-10.2c0.2-5.9,1.1-11.7,1.7-17.6C81.2,127.6,86.4,125.5,90,128z"/>
	<path class="st72" d="M310.9,47.9c4.9-0.8,9.9,0.3,14.8,0.4c1.4,0,3.1,0.6,3,2.6c-0.1,1.7-1.5,2.1-2.9,2c-13.7-0.7-26,4-37.7,10.6
		c-1,0.5-1.9,0.5-2.9,0.3c-1.6-3.8,0.2-5.8,3.4-7.5C295.7,52.5,303.5,50.6,310.9,47.9z"/>
	<path class="st53" d="M89.1,164.2c-6.8,7.1-14,14-19.8,22c-1.3,1.8-2.4,3.6-2.3,5.8c-5.9-1.5-6.8-3.3-3.8-8.2
		c5.7-9.2,12.5-17.5,20.6-24.8C85.8,160.5,87.3,162.5,89.1,164.2z"/>
	<path class="st29" d="M432,361c-2.9-8.5-9.6-14.3-15.3-20.8c-1.9-2.1-3.8-4.1-5.7-6.2c1.7-1.8,2.9-4.4,6.1-4.1
		c7.7,6.4,13.8,14.2,18.6,23C438.6,358.3,438.1,359.3,432,361z"/>
	<path class="st74" d="M375.2,70.9c-0.5,2.5-1.6,1.2-2.6,0.4c-6.9-5.1-14-10.1-21.7-13.9c-2.7-1.3-5.3-2.7-8.3-3.2
		c-1.4-0.2-2.7-0.4-2.6-2.3c0.2-2.3,1.9-1.8,3.4-1.9c3,0,5.9,0.6,8.6,1.9c6.2,4.4,12.4,8.8,18.6,13.3
		C372.5,66.7,374.5,68.3,375.2,70.9z"/>
	<path class="st32" d="M120.2,409.1c-5.8,4.4-9.8,3.3-11.8-3.3c-1.2-3.9-2.3-7.9-3.1-12.1c5.3,3.5,10.5,7.1,15,11.5
		C119.4,406.5,119.7,407.8,120.2,409.1z"/>
	<path class="st55" d="M422.9,362.8c-3.6,0-7.2,0-10.8,0c-1.1-5.8-2.1-11.5-3.4-18.4c5.8,5,10.9,8.9,14.5,14.3
		C423.2,360,423.1,361.4,422.9,362.8z"/>
	<path class="st56" d="M417.1,329.9c-2.3,1-3.2,4-6.1,4.1c-2.4-3.2-5.2-5.9-8.8-7.8c-1.5-0.8-3.6-1.4-2.8-3.3c0.9-2.3,2.8-0.6,4.1,0
		c1.9,0.8,3.7,1.6,5.5,0c0.3-0.4,0.6-0.5,1-0.2c0.7,0,1.5,0,2.2,0C413.8,325.1,415.5,327.5,417.1,329.9z"/>
	<path class="st37" d="M85,192c-3.3-0.3-6.7-0.7-10-1c-0.1-0.4-0.2-0.7-0.4-1.1c4.5-4.6,9.1-9.1,13.6-13.7c0.3,0.2,0.6,0.4,0.9,0.5
		C87.8,181.8,86.4,186.9,85,192z"/>
	<path class="st33" d="M90,128c-2.1,0-4.3-0.1-6.4,0.1c-3.1,0.2-5.1-1-5.7-4.2c0.1-1.7,0.1-3.3,0.2-5c0.8-0.2,1.1-2.3,2.2-1
		c2.9,3.3,6.7,3,10.5,3.3C90.5,123.4,90.3,125.7,90,128z"/>
	<path class="st38" d="M89.1,164.2c-3.6,0.1-4.4-2.5-5.3-5.1c0.9-1.4,1.9-2.8,2.8-4.3c1.2-0.7,2.2,0.4,3.3,0.3c2,1.7,4,0.8,6-0.1
		c0.9-0.4,1.9-1,2.6,0.1c0.8,1.3-0.1,2.3-1.2,2.8C94,159.2,91.7,161.8,89.1,164.2z"/>
	<path class="st35" d="M92.5,423.3c-2.6,0.8-5,0.3-6.2-2.2c-0.8-1.6,0.8-2.5,2.1-3.4c2.3-1.6,4.5-3,6.6,0.1
		C94.2,419.6,93.3,421.4,92.5,423.3z"/>
	<path class="st60" d="M311.8,72.8c-1,0-1.9,0.1-2.9,0.1c-0.5-2.4,0.9-4.6,1.1-6.9c1-0.9,1.8-2.8,3.4-1.8c1.2,0.8,0.5,2.4,0.1,3.6
		C313,69.5,312.4,71.2,311.8,72.8z"/>
	<path class="st30" d="M93.8,322.9c0.1-0.3,0.1-0.7,0.2-1c2-1.7,4.4-1.4,6.7-1.5c7.3-0.1,14.6,0.1,22-0.1c5.1-0.1,5.7-0.7,5.8-5.9
		c0.1-8.3,0.1-16.6,0-25c-0.1-5.3-0.7-5.9-6.2-6c-7.2-0.1-14.3,0-21.5,0c-2.3,0-4.7,0.2-6.7-1.3c0-12.8,0-25.5,0-38.3
		c2-1.7,4.4-1.4,6.7-1.4c7.3-0.1,14.6,0.1,21.9-0.1c5.1-0.1,5.8-0.8,5.9-5.8c0.1-6.8-0.2-13.6,0.1-20.4c0.3-5.4-0.7-9.5-6.6-11
		c-2.2-5.9-0.7-12.1-1.7-18.1c-1.1-6.6-1-13.5-1.5-20.2c1-1.1,2.3-1.3,3.6-1.2c3.8,0.4,6.1-1.3,7.5-4.7c0.4,0,0.7,0,1.1,0
		c1.9,1.9,1.6,4.3,1.6,6.6c0,62.7,0,125.4,0,188.1c0,1.8,0,3.7-0.7,5.4c-0.3,0.6-0.7,1-1.3,1.3c-5.7-1.5-11.9,0.1-17.5-2.2
		c-2-2,0.4-6-2.6-6.9c-2.1-0.6-4.8,1.4-7.2,1.2c-7.3-0.6-3.8-7.5-5.9-11.1c-1.3-2.2-0.1-4.2,2.8-4.3c4.4-0.2,6.9-3.4,7.4-6.9
		c0.5-3.7-3.3-5.2-6.5-6.4C98.7,325,96.3,323.9,93.8,322.9z"/>
	<path class="st43" d="M113.1,360.2c5.7,0.6,11.6-1.9,17,1.7c2.6,1.1,3.8,3.3,4.1,5.9c0.8,8.5,0.6,17,0.1,25.4
		c-0.1,1-0.5,1.9-1.4,2.5c-1.3,1.1,0,3.2-1.7,4.1c-1.4-1.9-2.8-3.9-4.2-5.8c-0.9-1.8-1.4-3.7-1-5.7c0.4-1.6,0.6-3.2,0.7-4.9
		c0.2-3.3-1.2-5.2-4.5-5.9c-5.1-1.2-10.3-2.1-15.5-2.7c-1.3-0.6-2.3-1.4-2.4-3c1.1-2.6,3.9-3.4,5.6-5.3
		C111.5,364.7,113.2,363,113.1,360.2z"/>
	<path class="st31" d="M104.2,371.9c0.7,0.7,1.4,1.4,2,2.1c2.9,2.1,5.7,4.2,8.4,6.5c1.1,1.4,3,2.3,2.5,4.6c-0.4,4.4-2.8,5-6.1,2.9
		c-5.9-3.9-10.6-9.6-17.4-12.2c-0.6-0.2-1.1-0.9-0.8-1.6c0.3-1,1.2-1.4,2-1C98.2,374.9,101,372.4,104.2,371.9z"/>
	<path class="st2" d="M117.1,385c-1-1.3-2.1-2.7-3.1-4c4.3-2.5,8.4-0.6,12.2,1.2c2.3,1.1,1.5,3.7,0.9,5.8c0,2-0.1,4.1-0.1,6.1
		c-0.3-0.4-0.6-0.7-1-1.1c-0.8-2.5-2.5-4.1-4.9-5.1C119.7,387,118.4,386,117.1,385z"/>
	<path class="st24" d="M121.1,387.9c3.8-0.4,5.4,1.4,4.9,5.1C124,391.6,122.4,389.9,121.1,387.9z"/>
	<path class="st30" d="M365,127c1.4,1.8,3.4,1,5.1,1c9.6,0.1,19.3,0.2,28.9,0c3.3-0.1,4.3,1,4.2,4.3c-0.2,11.3-0.1,22.6-0.2,33.9
		c-2,1.6-4.4,1.3-6.7,1.4c-7.3,0.1-14.6,0.1-22,0c-3.9,0-5.8,1.3-5.8,5.5c0.1,8.7,0.1,17.3,0,26c-0.1,4.2,1.9,5.5,5.8,5.5
		c7.3-0.1,14.6-0.1,22,0c2.3,0,4.7-0.2,6.7,1.4c0,11,0,21.9,0.2,32.9c0.1,3.2-0.9,4.3-4.2,4.3c-8.6-0.2-17.3-0.1-25.9,0
		c-1.7,0-3.7-0.8-5.1,1c1.2,9.9,0.2,19.9,0.5,29.8c0.1,3.1-0.4,6.4,1.8,9.1c1.2,4.9,0.7,9.9,0.4,14.8c-0.5,7.4,2.4,12.1,9.3,14.5
		c-2.8,2.8-10.1,3.6-14.6,1.6c-1.5-2.8-1-5.9-1-8.8c0-54.9,0-109.8,0-164.6c0-9.7,0-9.6-9.6-9.7c-9.3-0.1-18.6,0.5-27.9-0.4
		c-2.5-1.1-5.5-0.3-7.9-2c-0.2-0.7,0-1.5,0.7-1.6c5-1,5-4.7,4.9-8.7c-0.1-4.3-0.1-8.6,0-12.9c-0.1-2.4-0.3-4.9,1.4-7
		c4.2-2.3,7.3-0.6,9.9,2.8c4.3,5.7,8.5,11.5,12.8,17.2c1.1,1.5,2.1,3.8,4.6,3.1c2.6-0.8,1.7-3.2,1.7-5.1c0.1-8.7-1.4-17.2-2.1-25.9
		c2.5-4.1,6.4-1.6,9.6-1.8c2.3-0.2,1.2,2.5,1.8,3.8c1.1,1.2,1.2,2.7,1.2,4.2c-0.1,9.9,0.3,19.9-0.2,29.8
		C365.1,126.4,365,126.7,365,127z"/>
	<path class="st65" d="M325.9,105c0,5.8-0.3,11.6,0.2,17.3c0.3,4-0.7,5.4-4.7,4.8c-0.9-0.1-1.9,0.4-2.8,0.6c-1,1.4-2.5,1.5-4,1.5
		c-7.7,0.1-15.3,0.1-23,0c-3.9,0-6-2-6.1-5.8c-0.3-10.1-0.2-20.3,0-30.4c0-1.5,0.3-3,1.6-4c4.8-2,9.8-0.7,14.7-0.8
		c2.1-0.1,2.1,1.6,1.6,3.3c-1,3.7-1.5,7.5-2.9,11.1c-2.4,6.3-2.1,12.3,0.6,18.4c2.4,3.8,3.8,3.8,6.5-0.3c2.7-4.3,4.1-9.4,8.5-12.6
		C319.4,103.9,321.5,103.2,325.9,105z"/>
	<path class="st62" d="M335,38.8c-0.4,3.5-2.2,5.9-6,6c-3.9,0.1-5.7-2.6-5.6-6.1c0.1-3.4,2.2-5.7,5.7-5.5
		C332.4,33.4,334.8,35,335,38.8z"/>
	<path class="st42" d="M341.5,35.9c2.5,0.1,4.2,1.4,4.3,3.9c0.1,2.8-1.7,4.1-4.4,4.2c-2.6,0-4.2-1.3-4.3-3.8
		C337,37.3,338.9,36.1,341.5,35.9z"/>
	<path class="st3" d="M325.9,105c-3.9-1-6.7,1.5-9.9,3c0.2-6.4,4.9-8.4,9.9-10.1C325.9,100.3,325.9,102.7,325.9,105z"/>
	<path class="st30" d="M136.7,159.8c5.1-3.3,2.5-5.8-0.8-8.3c-2-5-0.4-10.2-0.4-15.2c0-1.9,2-2.9,3.9-3.4c1.6-0.4,3.3-0.5,5-0.5
		c37,0,73.9,0,110.9,0c1.8,0,3.7,0,5.4,0.6c0.5,0.2,1,0.5,1.4,1c-3.5,4.1-2.4,8.4-0.9,12.9c1.1,3.3,1.7,6.8,2.6,10.1
		c0.6,2.7,1.2,5.5,2,8.2c2.3,9.5,4.8,19,7,28.5c0.9,3.9,2.6,5.1,6.7,4.1c9.3-2.3,9.2-2.1,7.1-11.5c-1.4-6.1-4.3-11.9-4.1-18.4
		c2.6-3.1,4.8-1.7,6.7,0.8c1.3,1.7,1.7,3.9,2.4,5.9c1.1,4.4,2.1,8.7,3.3,13.1c1.4,5.1,2.9,5.7,9.1,4c4.9-1.4,5.3-2.2,4-7.6
		c-0.1-0.3-0.2-0.6-0.3-1c-1.1-3.9-2.1-7.8-3-11.7c-0.5-4.8-2.5-8.5-7.3-10.3c-2.2-0.8-2.8-2.6-1.2-4.3c3.5-3.7,3-7.8,1.6-12
		c-0.3-2.2-1.2-4.3-1.9-6.4c-0.5-1.6-1.3-3.4,0.3-4.9c2.5-1.1,5-1.1,7.5,0c3.2,4.9,3.6,10.8,5.3,16.2c2.5,10.8,5.3,21.6,8.1,32.4
		c1.3,5.2,1.9,5.5,6.9,4.3c7.6-1.9,15.2-3.5,22.4-6.6c5.8-3.6,6.7-5.6,5.5-12.3c-1.7-9.1-4.6-17.9-6.5-26.9
		c-0.5-2.5-1.6-5.2,1.2-7.3c4.9-0.6,9.9-2.5,14.2,1.8c0.6,1.4,0.5,2.9,0.5,4.4c0,26.1,0,52.2,0,78.3c0,1.3,0,2.7-0.4,4
		c-0.2,0.6-0.5,1.2-1,1.6c-3.8,1.9-7.8,0.9-11.7,1.1c-3.9,0.7-8.1-1.4-11.7,1.4c0,17.1-1.8,34.2-1.2,51.4c0.2,6,0.7,6.6,6.3,7.3
		c3,0,6-0.2,9,0c3.4,0.1,7,0,9.7,2.7c1.5,9.9,1.9,19.8-0.3,29.7c-0.2,0.2-0.4,0.5-0.7,0.7c-5.5,3.6-5.4,4.4,0.7,8.2
		c0.9,1.5,1.2,3.1,1.2,4.8c0.1,7.2,0.2,14.3,0,21.5c-0.2,5.5-1.8,7.1-7.2,7.5c-1.2,0.1-2.3,0.1-3.5,0.1c-68.3,0-136.5,0-204.8,0
		c-3.5,0-7.5,0.9-9.9-3.1c-0.8-2.1-0.6-4.3-0.6-6.4c0-42.1,0-84.2,0-126.3c0-2.6-0.6-5.3,1.8-7.9c3.9,3.8,3.8,8.9,5.2,13.5
		c0.7,2.7,2.5,3.2,5,2.5c4.5-1.3,9.1-2.2,13.5-3.7c3.3-0.6,6.5-1.3,9.6-2.6c5.8-2.4,7.8-5.9,6.7-12.1c-0.6-3.3-1.5-6.4-2.4-9.6
		c-0.8-3.7-1.9-7.1-5.5-9.1c-0.6-0.3-1.2-0.6-1.8-0.8c-3.4-1-5-2.2-1.8-5.6c3.1-3.3,2.2-7.4,1-11.2c-1.1-3.6-2.8-7-5.8-9.6
		c-3.1-2.5-6.6-2.9-10.4-2.4c-2.6,0.4-5.2,1-7.8,1.5c-2,0.4-4.4,1.7-6.1-0.3C135.1,164.5,135.4,162,136.7,159.8z"/>
	<path class="st30" d="M132.8,395.8c0.4-8.2-0.8-16.4,0.2-24.6c0.4-3.4-1.2-6.4-2.9-9.2c0.4,0,0.8,0,1.2-0.1
		c1.6-0.8,3.3-0.6,4.9-0.6c72.8,0.1,145.5,0,218.3,0c10,0,10,0,10-9.8c0-6.2-0.1-12.3,0-18.5c0-2.1-0.2-4.4,1.6-6.1
		c0.4,0,0.8,0,1.1,0c1.5,1.8,1.3,4,1.3,6.1c0,5.9,0.2,11.9-0.1,17.8c-0.2,4.5,0.7,8.1,5.2,10c-0.3,6.9-1.9,13.7-1.3,20.6
		c0.2,2.2-0.1,5,3.7,4.3c5.7-1.7,11-4,13.2-10.3c2-2.9,1.9-7.5,6.7-7.9c3.7,3.4,5.2,8.1,7.5,12.4c-0.1,5.3-0.3,10.7-0.2,16
		c0.1,3.1-1.1,4.1-4.1,4c-10-0.1-20-0.1-30,0c-3,0-4.1-0.9-4-4c0.2-8.8,0.1-17.7,0-26.5c0-1.6,0.7-3.4-1-4.6
		c-6.6,1.3-13.2,0.5-19.8,0.5c-6.1,0-12.2,0.7-18.3-0.5c-1.5,1.5-0.9,3.5-0.9,5.2c-0.1,8.5-0.2,17,0,25.5c0.1,3.2-0.8,4.4-4.2,4.4
		c-9.7-0.2-19.3-0.2-29,0c-3,0.1-4.1-0.9-4-4c0.2-8.3,0.1-16.6,0-25c0-2.1,0.9-4.4-1-6.1c-9.1,1.2-18.3,0.4-27.4,0.5
		c-10.1,0.2-10.1,0-10.1,10.1c0,5.7,0,11.3,0,17c0,2.1,0.2,4.4-1.3,6.2c-0.7,1.2-1.9,1.2-3.1,1.2c-10.8,0-21.6,0-32.5,0
		c-1,0-2-0.2-2.7-1c-1.8-1.9-1.5-4.3-1.5-6.6c-0.1-6.8,0-13.7-0.1-20.5c-0.1-5.5-0.7-6.2-5.9-6.2c-8-0.1-16-0.1-24,0
		c-5.1,0.1-5.8,0.7-5.9,5.8c-0.1,7,0,14-0.1,21c0,2.3,0.4,4.7-1.5,6.6c-1.3,1.5-3.1,1-4.7,1c-9.6,0-19.2-0.2-28.8,0.1
		C134.1,400.2,132.7,399.1,132.8,395.8z"/>
	<path class="st43" d="M366,327c0,10.3-0.1,20.6,0.1,30.9c0.1,3.7-1.3,4.9-4.9,4.9c-75.2-0.1-150.4-0.1-225.6,0
		c-1.5,0-3-0.1-4.3-0.9c-0.1-2.2-0.2-4.3-0.2-6.5c0-64.8,0-129.6,0-194.4c1.6-0.7,3.2-1.2,4.9-0.9c0.7,4.7,1.9,9.3,1.7,14
		c-0.4,6.4,1,12.8,0.8,19.2c-0.8,10.4-1.7,20.9-1.7,31.3c-0.2,42-0.1,84-0.1,126c0,1.8-0.2,3.7,0.2,5.5c1,2.1,3,1.8,4.8,1.8
		c71.2,0,142.3,0,213.5,0.1c4.4,0,5.3-1.6,5.3-5.6c-0.2-8.8,0.1-17.7,0.1-26.5C362.3,326,364.2,326.1,366,327z"/>
	<path class="st22" d="M360,135c-4.6-2.1-9.4-0.5-14-1c-5.5,2.9-11.4,1-17.1,1.4c-2.6-0.3-5.2-0.5-7.8,0c-5.8-0.2-11.7,1.4-17.3-1.2
		c-2.6,0-5.2-0.1-7.7-0.1c-0.6,0.3,0.2,0.2-0.4,0.3c-11.3,2.1-22.5,2.3-33.7-0.2c-38,0-75.9-0.1-113.9-0.1c-11,0-11,0-11.5,11.1
		c-0.1,2.2-0.4,4.3-0.6,6.5c-0.5-0.2-1-0.4-1.5-0.6c-1.7-0.7-3.8-0.8-4.4-3c-0.7-4.3-0.4-8.6-0.3-12.9c0.1-6,1.4-7.3,7.4-7.4
		c17.6-0.1,35.2-0.1,52.8-0.1c6.5,0,12.9,0,19.4,0c13,0,26,0.2,39,0c25.3-0.5,50.5,1.6,75.8,1c0.7,0,1.3,0.1,2,0.3
		c11,0,22-0.1,32.9-0.1c6.6,0,7.1,0.5,7.1,7.1c0,57.6,0,115.2,0,172.8c0,1.8,0.1,3.7,0.1,5.5c0.1,1.1-0.4,1.5-1.4,1.3
		c-1.4,0.5-2.9,1.1-4.3,1.6c-0.1-10-0.2-20-0.3-30c-2.6-4.1-1.4-8.4-1.1-12.7c0.1-0.6,0.1-38.9,0-39.5c-0.5-4-1.3-8.1,0.9-12l0,0.1
		c1.2-0.9,0.7-2.1,0.7-3.2c0-27.2,0-54.5,0-81.7C360.5,136.9,360.6,135.9,360,135z"/>
	<path class="st64" d="M370.3,282.8c-2.1,0.2-3.2-0.8-3.2-2.8c0-11.6,0.1-23.2,0.2-34.9c0-0.4,0.5-0.8,0.7-1.3
		c10.5,0,20.9-0.1,31.4-0.1c1.7,0,3.8-0.6,3.8,2.4c0,7.5,0.1,14.9,0.1,22.4c-2.1-0.9-4.5-1.4-6.4-2.7c-8.3-5.6-15.7-2.7-22.9,2.2
		c-2.6,0.6-3.1,2.5-3.2,4.9C370.7,276.3,371.4,279.6,370.3,282.8z"/>
	<path class="st41" d="M373.6,361c-5,0.7-6.7-1.4-6.5-6.5c0.4-9.1,0.1-18.3,0.1-27.5c15.1,0.2,12-1,10.1,12.1
		C376.1,346.4,374.8,353.7,373.6,361z"/>
	<path class="st27" d="M390.2,375.8c-2.9,7.5-6.4,10-14.2,10.1c3.2-5,4.2-11.1,8-15.9C385.5,372.4,390.3,371.6,390.2,375.8z"/>
	<path class="st47" d="M385.7,308.9c-2.2-0.2-3.9-2-3.8-5.4c0.1-3.2,2-4.7,5.1-4.7c2.9,0,5.1,1.5,4.9,4.3
		C391.7,305.9,391,309.2,385.7,308.9z"/>
	<path class="st57" d="M364.6,315.4c0.5-0.4,1-0.9,1.4-1.3c4.6-0.8,9.4-0.5,13.9-1.9c2.4,1,4.8,2.1,7.2,3.2c1.6,0.7,3.2,1.9,2.4,3.7
		c-1,2.3-2.5,0.2-3.6-0.3c-4.9-2.3-10.2-2.6-15.5-2.7C368.5,316,366.5,316.4,364.6,315.4z"/>
	<path class="st54" d="M390.2,375.8c-1-3.1-6.6-1.3-6.2-5.8c4.2-5.1,5.6-5.3,11.9-2.3C392.7,369.4,392.2,373.2,390.2,375.8z"/>
	<path class="st45" d="M396.6,304.2c2.3,0.4,3.6,1.7,3.5,4.1c-0.1,2.5-1.6,3.6-3.9,3.6c-2.3-0.1-3.5-1.5-3.4-4
		C392.8,305.2,394.5,304.5,396.6,304.2z"/>
	<path class="st28" d="M410,322.7c-0.3,0.1-0.7,0.1-1,0.2c0-11.7,0-23.3,0-35c0.4,0.5,0.8,0.9,1.2,1.4c1.6,2.5,1.6,5-0.1,7.4
		C410.1,305.4,410,314.1,410,322.7z"/>
	<path class="st30" d="M190,128.8c-17.6,0.1-35.3,0.4-52.9,0c-5.3-0.1-6.6,1.6-6.2,6.5c0.4,4.5,0,9,0,13.5c-1.2,0.4-1.5-0.5-1.9-1.3
		c-1-4.7-0.3-9.4-0.5-14.2c-0.1-2.1,0.3-4.3-0.8-6.2c0.1-6.6,0.2-13.2,0.3-19.7c0-2.4-0.1-4.7-3-5.5c-6.6-6-13.9-6.8-21.9-2.8
		c-2.9,1.5-6.1,2.5-9.2,3.7c0-3.7,0-7.3,0-11c0-2.1,0.7-3.7,3-3.7c11.3,0,22.6,0.1,33.9,0.2c0.4,0,0.8,0.5,1.2,0.8
		c1.8,1.9,1.4,4.4,1.4,6.7c0.1,8.2-0.1,16.3,0.1,24.5c0.1,5.3,0.9,6.1,6.1,6.2c10.5,0,21,0.3,31.4-0.3c1.6-3.5,0.6-7.2,0.7-10.8
		c0.2-7.7,0.2-15.3,0-23c-0.1-3.3,1-4.3,4.3-4.3c9.5,0.2,19,0.2,28.5,0c3.7-0.1,4.4,1.4,4.3,4.7c-0.1,6.8,0.1,13.6,0.2,20.5
		c2.2,4.7,2,9.4,0.1,14.1c-5.8,1.6-11.8,0.7-17.6,0.6c-3.1-0.1-6.2-0.2-9.3-0.3c-1.7-0.1-3.4,0.1-5.1-0.1c-0.8,0-0.3,0.6-0.2,0.5
		c1.3-0.8,2.8-0.2,4.2-0.4c2.7,0,5.5-0.1,8.2,0.1C190.1,127.8,190.3,128.2,190,128.8z"/>
	<path class="st48" d="M122,205.2c7.5-0.1,7.8,0.2,7.8,7.8c0,8.7,0,17.3,0.2,26c0.1,3.8-1.4,4.9-5,4.9c-10.3-0.1-20.7,0-31,0
		c-0.1-11.4-0.3-22.7-0.4-34.1c1-1.6,2-3.3,3-4.9c0.6-0.5,1.3-0.8,2-0.7c3.8,0.2,6.5,1.7,7.7,5.6c1.6,5.3,5.9,7.6,10.7,9.2
		c3.3,1.9,3.6-0.7,3.9-2.8C121.4,212.6,121.6,208.9,122,205.2z"/>
	<path class="st68" d="M137,193c-1.5-10.9-0.6-21.9-1.1-32.9c0.3-0.1,0.5-0.2,0.8-0.2c0.5,6.9,0.5,6.7,7.4,5.2
		c6.2-1.3,12.6-3.7,18.1,1.8c-3.2,3.8-7.5,6.7-10,11.2c-6.7-2.1-4.3,3.2-4.9,6.1c-1.9,2.5-3.9,4.7-5.9,7.1
		C140.3,192.6,139.2,194.4,137,193z"/>
	<path class="st53" d="M117.1,219.1c-6.4,0.1-9.3-1.9-12-9.3c-1.1-3.1-2.6-4.6-5.8-4.6c2.8-2.5,7-1.8,9.7-4.3
		c4,2.6,4.2,7.2,5.8,11.1C115.8,214.3,116.3,216.7,117.1,219.1z"/>
	<path class="st19" d="M127.7,127.1c2.5-0.1,2.3,1.7,2.2,3.3c0,5.9-0.1,11.8-0.1,17.6c-4.3,2.3-8.2,1.1-12-1.3c0-0.3,0-0.9,0.1-0.9
		c8.1-3.1,9.3-9.8,9.2-17.3C127.2,128,127.6,127.5,127.7,127.1z"/>
	<path class="st66" d="M117.9,146.7c4-0.1,7.9,1.8,12,1.3c0.4,0.2,0.7,0.5,1.1,0.7c1.1,0.7,2.3,1.4,3.4,2.2
		c-5.1,0-10.2,0.1-15.3-0.1c-2.7-0.1-5.2,0.5-7.6,1.7c-0.9,0.4-2.5,1.7-3.3-0.2c-0.6-1.4,0.2-2.7,1.4-3.4
		C112.1,147.6,114.7,146.2,117.9,146.7z"/>
	<path class="st46" d="M106.6,137c0.2-2.8,1.3-5,4.7-5.1c3-0.1,4.6,1.6,4.8,4.5c0.2,3.1-1,5.3-4.4,5.5
		C108.5,142.3,106.9,140.4,106.6,137z"/>
	<path class="st11" d="M129.8,161c0.7,4.4-0.8,6.6-5.6,5.9c-1.8-0.3-3.7,0-5.5,0c-1.9-5.9-1.7-6.1,4.2-6.1
		C125.3,160.8,127.6,160.9,129.8,161z"/>
	<path class="st69" d="M109,201c-1.6,5.1-6.2,3.5-9.7,4.3c-0.9-0.1-1.7-0.2-2.6-0.3C99.5,198.3,103.5,197,109,201z"/>
	<path class="st44" d="M102.4,144.5c-2.3-0.1-3.5-1.4-3.5-3.8c0-2.1,1.1-3.5,3.2-3.7c2.4-0.2,3.7,1.2,3.9,3.5
		C106.1,142.9,104.9,144.2,102.4,144.5z"/>
	<path class="st65" d="M171,398.9c0-10.1,0.1-20.3-0.1-30.4c-0.1-3.5,1-4.7,4.5-4.6c10,0.2,20,0.2,29.9,0c3.4-0.1,4.7,1,4.7,4.6
		c-0.2,10.1-0.1,20.3-0.1,30.4c-2.3,1.3-4.8,0.9-7.3,0.9c-8.8,0-17.6,0-26.3,0C174.5,399.8,172.6,400.1,171,398.9z"/>
	<path class="st65" d="M248.2,398.8c0-10,0.1-20-0.1-29.9c-0.1-3.6,1-5,4.8-5c10,0.2,20,0.1,29.9,0.1c1.4,0,3-0.5,4.2,1
		c0,10.5,0.1,20.9,0.1,31.4c0,1.6-0.2,3.1-2.2,3.2C272.6,399.6,260.4,400.9,248.2,398.8z"/>
	<path class="st65" d="M326,365c0.7-0.8,1.6-1,2.7-1c11.1,0,22.2,0,33.3,0c0.7,0,1.5,0.6,2.2,0.9c0,10.1-0.1,20.3,0.1,30.4
		c0.1,3.3-1.1,4.5-4.2,4.5c-10.1,0-20.3,0-30.4,0c-2.7,0-3.7-1.2-3.6-3.9C326.1,385.6,326,375.3,326,365z"/>
	<path class="st65" d="M403,205.8c-10.3,0-20.6-0.1-30.9,0.1c-4.1,0.1-5.1-1.6-5.1-5.3c0.2-10,0.1-20,0-29.9c0-3.4,1-4.8,4.6-4.7
		c10.5,0.2,21,0.1,31.4,0.2C403,179.4,403,192.6,403,205.8z"/>
	<path class="st65" d="M402.9,89c1.5,9.2,0.5,18.5,0.5,27.7c0,0.5-0.2,1-0.2,1.5c-0.7,8.9-0.7,8.9-9.8,8.9c-9.5,0-18.9-0.1-28.4-0.1
		l0.1-0.2c-1.3-10.3-0.2-20.6-0.6-30.8c-0.1-2.2,1.3-2.9,3.2-3c1.7-0.1,3.3,0.3,5,0.6c2.4,0.4,4.4,0.3,4.8-2.7
		c0.2-1.4,0.9-2.5,2.6-2.4C387.6,88.8,395.3,87.8,402.9,89z"/>
	<path class="st58" d="M402.9,89c-7,0-13.9,0-20.9-0.1c-2.3,0-3.7,0.1-3,3.2c0.6,3.1-1.3,4.1-4.3,3.6c-9.6-1.5-9.6-1.5-9.6,8.2
		c0,7.6,0,15.3,0.1,22.9c-1.2-0.5-1.1-1.6-1.1-2.5c0-10.7,0.1-21.5,0.2-32.2c0.6-3.2,2.3-4.2,5.8-4.1c9.3,0.3,18.6,0,27.9,0
		C399.5,88,401.5,87.2,402.9,89z"/>
	<path class="st30" d="M326,128.8c-29,0.1-58,0.1-87,0.2c-10,0-20-0.1-30-0.1c-0.3-0.7,0-1.2,0.7-1.5c3.9-1.5,7.9-0.7,11.9-0.7
		c7.8-0.2,15.7,0,23.5-0.1c1.5-0.1,3.1-0.4,4.4,0.8c11.4,0.5,22.7-0.1,34.1,0.3c-11.5-0.6-23,0.5-34.5-0.6c-2.2-3.2-2.1-6.5-0.2-9.9
		c0.1-8.4,0.2-16.9,0.3-25.3c0-1.8-0.3-3.8,2.6-3.8c11.3,0.1,22.5,0,33.8,0.1c0.6,0,1.1,0.6,1.7,0.9c0,11,0.1,22-0.2,32.9
		c-0.1,4.5,0.8,6,5.8,5.7c8.6-0.6,17.3,0,25.9,0.1C321,128.4,323.7,127.1,326,128.8z"/>
	<path class="st65" d="M171.1,126c-1.2,2.3-3.4,1.8-5.3,1.7c-9.3-0.4-18.6-0.6-27.9,0.1c-4.5,0.3-6.1-1.1-6-5.9
		c0.4-10.9,0.1-21.9,0.1-32.9c1.4-1.4,3.1-0.9,4.7-1c9.8,0,19.6,0.1,29.4-0.1c3.6-0.1,4.9,0.7,4.8,4.6
		C170.8,103.8,171,114.9,171.1,126z"/>
	<path class="st65" d="M248.7,126.7c-0.9,0.4-1.8,0.8-2.6,1.1c-10.5-0.9-21-0.1-31.6-0.4c-1.8,0-3.6,0.5-5.3-0.5
		c0-4.6-0.1-9.2-0.1-13.8c1.6-6.5,0.6-13.2,0.6-19.7c0-3.9,0.7-5.5,5.1-5.4c9.4,0.4,18.9,0.3,28.3,0c3.8-0.1,5.1,0.8,5.1,4.9
		c0,8.1-1,16.2,0.6,24.2C248.8,120.3,248.8,123.5,248.7,126.7L248.7,126.7z"/>
	<path class="st55" d="M410.1,296.8c0-2.5,0.1-4.9,0.1-7.4c4.4,0,8.6-0.4,12.5-4.7c-0.2,5.1,2.1,9.9-1.5,12.8
		C418.2,299.9,413.6,299.7,410.1,296.8z"/>
	<path class="st48" d="M94,282.2c10.3,0,20.6,0,30.9-0.1c3.5-0.1,5.1,0.9,5.1,4.8c-0.2,10.1-0.3,20.3-0.1,30.4
		c0.1,3.4-0.9,4.8-4.5,4.7c-10.5-0.2-21-0.1-31.4-0.1C93.5,308.7,93.5,295.4,94,282.2z"/>
	<path class="st22" d="M127,388c0.7-3.8-1.1-5.6-4.7-5.9c-2.8-0.2-5.5-1.6-8.3-1.1c-2.6-2.3-6.5-3.2-7.7-7
		c6.5-0.4,12.7,1.5,18.9,3.1C128.5,377.9,129.1,382.1,127,388z"/>
	<path class="st6" d="M277.1,226c-0.9-3,1-3.6,3.2-3.5c4.8,0.3,9.6,0.4,14.5,0c2.9-0.3,4,1.3,4.3,4.2c0.9,7.2,2,14.5,3.8,21.7
		c1-7.2,2.2-14.4,2.9-21.7c0.3-3.2,1.5-4.5,4.7-4.2c4.5,0.5,9,0.5,13.5,0c3-0.3,4.1,0.9,4.1,4c-0.1,18.7-0.1,37.3,0,56
		c0,2.7-0.7,4.1-3.7,3.8c-1.1-0.1-2.3,0.2-3.5,0.3c-7,0.7-8-0.5-7.9-7.6c0.2-8.1,0-16.3-0.8-24.5c-1.3,9.1-2.8,18.2-3.9,27.3
		c-0.4,3.3-1.3,4.9-4.7,4.8c-3.4-0.1-6.2-0.3-6.8-4.7c-1.2-9.2-2.7-18.4-4-27.7c-0.9-1.4-1.9-2.7-2.4-4.3c1.6-9.3-4.5-15-10-20.9
		C279.4,227.9,278,227.1,277.1,226z"/>
	<path class="st0" d="M253.7,161c5.2,12.2,10.4,24.4,15.7,36.5c1.4,3.3,0.5,4.5-2.6,5c-1.1,0.2-2.3,0.5-3.4,0.7
		c-3,0.6-6.1,2.9-9.1,1.7c-2.9-1.2-2.5-5.1-3.6-7.7c-0.8-1.8-1.9-2.7-3.9-2.2c-2.1,0.6-2.9,1.9-2.5,4.1c0.5,2.9,2.2,6.4-0.6,8.4
		c-3.9,2.9-9,3.1-13.7,4c-1.6,0.3-2-1.4-2.2-2.8c-0.8-6.6-1.9-13.1-2-19.8c-0.3-2.8,1.9-3.1,3.7-3.4c4-0.8,7.9-1.8,11.9-2.6
		c3.1-0.7,2.8-2.7,1.9-4.9c-1.3-3.4-2.6-6.8-3.6-10.2c-0.6-2-1.3-4.1-0.5-6.3C243.9,158.1,248.8,158.9,253.7,161z"/>
	<path class="st17" d="M137,193c3.3-0.1,3.6-3.6,5.6-5.1c1.5-1.2,1.9-3.6,4.2-3.9c0.6,0.3,0.9,0.9,1.3,1.5c0.8,1.2,0.7,3.9,3.1,2.8
		c1.9-0.9,0.9-2.9,0.7-4.5c-0.3-1.9-1.5-3.8,0-5.7c1.3-5.7,5.5-8.7,10.3-11.2c3.7,3.1,5.3,7.4,6.4,11.9c1.2,4.9,0.8,9.5-4.1,12.6
		c2,1.1,4.3,0.6,5.6,2.3c-0.8,6.5-5.2,10.7-9.9,14.6c-2.1-0.6-2.2-2.7-3.2-4.2c-0.6-1-1.2-2.2-2.6-1.8c-1.2,0.4-0.9,1.6-0.8,2.6
		c0.1,1.2,0.2,2.3-0.3,3.4c-4.1,5.2-5.8,11.5-8.5,17.4c-0.9,1.9-1.3,4.2-3.1,5.5c-1.4-4.7-2.8-9.4-4.2-14.2c-0.3,0-0.6,0-0.9,0.1
		c0,46.3,0,92.6,0,138.9c-1.5-1.5-0.8-3.5-0.8-5.2c0-49.8,0.1-99.6,0.1-149.5C136,198.5,136.1,195.7,137,193z"/>
	<path class="st68" d="M332,296.1c10.8-3.8,21.1,1.6,21.5,11.2c0.1,2.7-0.1,6-4,5.2c-3.3-0.7-9.1,3.5-9.3-4.2c0-1.5,0.2-3.4-1.9-3.4
		c-2.4,0-2.2,2-2.3,3.7c-0.2,2.6,1,4.5,3.1,5.9c1.9,1.3,4,2.4,5.9,3.7c8.7,5.8,11.2,12.6,8.9,22.8c-1.5,6.5-6.3,8.6-12,9.6
		c-11.5,1.9-20.4-5.9-18.9-16.4c0.5-3.4,2.1-4.6,5.3-4.2c1.3,0.2,2.7,0.4,4,0.3c3.2-0.3,4.2,1.2,3.9,4.1c-0.1,1.3,0,2.7,0,4
		c0,1.5,0.4,2.7,2.1,2.8c1.6,0.1,2.5-0.8,2.8-2.3c0.8-4.2-0.4-7.5-3.9-10c-2.7-1.9-5.9-3.2-8-5.9C330,314,331.6,305.1,332,296.1z"/>
	<path class="st6" d="M273.8,315c0.5,2.9,1,5.8,1.5,8.8c0.3,0,0.7,0,1,0.1c0.6-6.5,1.3-13,1.7-19.5c0.6-7.9,4.9-10.6,12.6-7.8
		c3.1,1.1,2.6,3.5,2.3,5.8c-1.4,10.9-2.9,21.7-4.3,32.6c-0.4,3-1,5.9-1.1,8.9c-0.2,4.5-2.3,6.1-6.7,5.8c-4-0.3-7.9,0-11.9-0.1
		c-2,0-3.6-0.4-3.9-2.9c-0.9-7.2-1.9-14.5-2.9-21.7c2.4-3.5,6-5.8,8.6-9.1C271.5,314.9,272.6,314.5,273.8,315z"/>
	<path class="st48" d="M257,279c-0.7-1.8-0.5-4.5-3.8-4.1c-3.1,0.3-3.1,2.4-3.1,4.7c0,0.8-0.2,1.6-0.3,2.5c-6.7,3-11.1-1.5-15.8-5
		c1.4-10.7,2.7-21.3,4.1-32c4.2-3,8.8-3.9,13.8-2.5c2.2,2.5,1.1,5.3,0.9,8c-0.2,3.4-1.8,6.9,0.2,11.4c1.6-4.6,0.1-8.4,0.6-12
		c0.7-6.2,2.8-7.1,7.9-3.5c10,7,10.3,24.5,0.4,31.8C260.4,279.4,258.9,280.4,257,279z"/>
	<path class="st6" d="M212.8,233.3c-4-2.3-4.6,0.5-4.7,3.3c-0.2,6.1-0.3,12.2-0.4,18.3c-3.6-2.6-2-5.9-1.7-9c-4.8,14.2-4,28,4,41.1
		c-10.2,1.5-17.5-4.3-18.3-14.4c-0.9-11.6-0.9-23.2,0-34.8c0.8-10.9,7-16.6,18.1-16.6c3.7,0,7.2,0.5,10.4,2.6
		C218.5,227.5,215.1,229.9,212.8,233.3z"/>
	<path class="st22" d="M257,279c7.3-1.5,12.8-11.8,10.7-20.3c-1.1-4.6-3.2-8.8-7.3-11.5c-4.5-3-5.1-2.6-5.5,2.9
		c-3.5-1.5-1.8-4.5-1.8-6.8c0.1-3.4-1.3,1.1-1.2-0.3c-4.8-0.4-9.2,1.5-13.8,2c0.7-6.4,1.4-12.8,2.1-19.3c0.2-2.2,1.4-3.4,3.6-3.2
		c6,0.4,11.9,0.4,17.9,0c2.1-0.1,3.2,0.8,3.6,3.1c2.8,19,5.7,38,8.6,57.1c0.4,2.9-0.7,4-3.6,3.7c-2.1-0.2-4.3-0.2-6.5-0.2
		C256.7,286.1,256.7,286.1,257,279z"/>
	<path class="st22" d="M210.1,287c-0.9-0.3-2.4-0.3-2.7-0.9c-5.9-13.4-8.1-27.1-2.4-41.2c0.2-0.4,0.6-0.7,1.2-1.4
		c1.9,3.8-0.6,8,1.5,11.4c0.1,5.8,0.2,11.6,0.2,17.4c0,2,0.3,3.8,2.7,4c2.6,0.1,2.8-1.9,2.8-3.8c0-4.3,2-8.7-3-12.4
		c-2.9-2.2,0.7-8.1,4.7-8.1c3.5,0,7,0.2,10.5-0.1c3.7-0.3,4.5,1.2,4.4,4.6c-0.2,8.1,0,16.3-0.1,24.4c0,1.9,1.3,5.4-1.8,5.2
		c-3.2-0.2-7.5,2.6-9.7-2.2c-0.2-0.4-0.6-0.8-1-1.3C214.8,283.9,213.7,287.7,210.1,287z"/>
	<path class="st68" d="M160,304.9c-4.4-0.1-3.9,2.7-3.4,5.6c0.5,2.7,2.7,3.9,4.5,5.5c0.4,10.3,4.6,19.3,9.6,28
		c0.4,0.7,1.1,1.3,1.3,2.1c-6,5.9-13.1,5.7-20.4,3.2c-6.8-2.3-7.4-8.4-8.2-14.2c-0.4-2.8,0.8-4.9,4.2-4.6c1.3,0.1,2.7,0.1,4,0
		c3.8-0.5,5.6,0.9,5.2,5c-0.2,1.8-0.8,4.1,1.2,5.5c0.9,0.6,2,0.4,2.7-0.5c1.5-2.1,1.2-4.3,0.4-6.7c-1.5-4.2-5.3-5.9-8.5-8.1
		c-3.8-2.6-7.1-5.5-8.6-10c-3.9-11.7,1.6-19.8,13.9-20.3C158.4,298.4,158.2,301.9,160,304.9z"/>
	<path class="st17" d="M299,145c2.6,5.4,1.9,10.2-3.8,14.3c7.2,1.3,10.2,5.5,10.6,11.7c-1.8,1.4-3.5,0.6-5-0.3
		c-10.8-6.4-22.5-10.3-34.8-12.3c-1.2-0.2-2.2-0.6-3.2-1.3c-1.6-5.7-3.3-11.4-4.8-17.1c-0.8-3.1,0.1-5.3,3.9-4.9
		c11.2,1.3,22.1,3.7,32.6,7.8C296.1,143.3,297.8,143.8,299,145z"/>
	<path class="st22" d="M277.1,226c9,3.2,16.2,15.5,13.9,24c0.9,1.4,1.1,2.8,0.2,4.2c0,9.5-0.1,18.9,0,28.4c0,2.8-0.7,3.6-3.6,3.7
		c-10.8,0.2-10.8,0.3-10.8-10.5C276.9,259.2,277,242.6,277.1,226z"/>
	<path class="st68" d="M327.8,134.2c6.1-0.7,12.2-0.3,18.2-0.2c0,8.6,3.9,16.3,5.4,24.6c0.6,3.3,1.5,6.4,2.2,9.7
		c1.3,6.5-0.3,9.6-6.6,12.6c-4.1-3.3-7.4-7.6-11.8-10.5c-2.8-10.4-5.2-21-7.8-31.4C326.9,137.3,326.6,135.6,327.8,134.2z"/>
	<path class="st17" d="M336.1,171c5.6,1.1,8.1,5.6,10.8,9.9c-8.5,4-17.8,5.2-26.7,7.9c-2.1,0.6-3-0.6-3.4-2.5
		c-2.9-12.1-5.8-24.2-8.8-36.3c1.5-1.4,3.2-0.7,4.6,0c5.5,3,11,6.2,15.7,10.4c1.5,2.4,2.3,5.1,2.9,7.8
		C331.8,171.3,333.4,172,336.1,171z"/>
	<path class="st63" d="M283.2,168c2.1,7.9,3.9,15.8,6.3,23.6c1.2,4-0.1,5.2-3.8,6.1c-12.2,2.9-12.2,3-15.3-9.3
		c-1.9-7.7-3.7-15.5-5.6-23.2c-0.2-2.3,1.7-2.4,2.9-2.3C273.3,163.3,278.8,164.1,283.2,168z"/>
	<path class="st17" d="M176.9,182.1c-0.7-2-1.4-4-2-6.1c-2.5-8.8-0.3-16,6.4-20.7c7.7-5.3,18.8-5.9,25.3-1.2c2.7,2,5.2,4.2,5.4,7.9
		c-4.6,2.9-9.3,5.6-14.8,6.4c-2.2-0.3-2.3-4.6-4.8-3.1c-1.8,1.1,0.1,3.7,0.2,5.6c0,0.7,0,1.3-0.3,1.9
		C186.1,174.1,182.4,179.5,176.9,182.1z"/>
	<path class="st6" d="M218.9,308c0,1.3,0.1,2.6,0,3.9c-0.2,3.5,1.1,5.4,4.8,5c5.2-0.5,3.7,3.5,4,6.1c0.3,3-1.2,4.8-4.4,4.3
		c-1.5-0.2-2.9-0.3-4.2,0.7c-1.2,2.3-0.3,4.8-0.6,7.2c-0.1,0.9,0.4,2.1-0.7,2.7c-1.2,0.7-2.2-0.3-3-1c-3.3-3.2-6.8-6.2-9.6-9.9
		c-0.1-8.9-0.2-17.8-0.3-26.8c0-1.6-0.4-4,1.9-3.9c6.8,0.6,13.7-1.2,20.5,0.5c-1.5,1.8-3.6,1.2-5.5,1.4c-2,0.2-4.7-0.6-5.2,2.4
		C216.2,303.4,215.4,306.4,218.9,308z"/>
	<path class="st6" d="M220.8,194c2.4,7.6,2.6,14.8-4.2,20.5c-7.2,6.1-15.5,7-24.3,4.4c-1.4-0.4-2.7-1.2-3.4-2.7
		c-0.5-6.3,5.5-12.5,11.3-11.8c1.2,0.6,1.8,2.8,3.5,1.9c1.4-0.7,0.6-2.3,0.5-3.5c-0.2-1.5-0.3-2.9,0.7-4.2c2.9-2.6,6.4-4.1,9.9-5.7
		C216.9,191.9,219.3,191.1,220.8,194z"/>
	<path class="st16" d="M335,224c4.2-2.4,8.6-0.8,12.9-0.9c2.3,4.6,3.3,9.6,3.4,14.7c0,2.8-0.5,5.6,0.7,8.3c0.4,0.8,0.7,1.6,0.9,2.4
		c0.7,3.5,0.6,6.9,0.1,10.4c-1,5.1-0.8,10.1,0,15.2c0.5,4.2,0.5,8.2-2.1,11.9c-3,0-6,0-9,0c-1.8-5,0.3-9.9,0.8-14.7
		c1.6-13.2-0.8-25.9-4.6-38.4C337.3,229.8,336.8,226.7,335,224z"/>
	<path class="st59" d="M335,224c1.7,0,2.2,1.3,2.7,2.6c4.2,11.4,7,23.2,7.1,35.3c0.1,8-0.9,16.1-2.9,24c-7.5,0.5-7.6,0.4-7.5-7.1
		C334.6,260.6,334.8,242.3,335,224z"/>
	<path class="st16" d="M192.8,330c0.1,1.6,0.3,3.3,0.3,4.9c0,2.9,1.2,4.5,4.2,3.8c3.6-0.8,4.3,1.1,4.4,4.1c0.1,3,0.6,6.3-3.8,6.6
		c-3.6,0.3-7.3,0.2-10.9-0.4c-4.7-3.8-7.8-8.1-7.6-14.7c0.3-9.8,0.6-19.5-0.2-29.3c-0.5-9.5,1.8-11,12-8.1c-7,3.4-7,3.4-5.9,11.8
		C186.2,316.4,188.6,323.5,192.8,330z"/>
	<path class="st16" d="M160,208c3.6-4.6,7.5-9,10.1-14.3c3.7,2,5.2,5.4,5.7,9.3c-6.5,7.8-12,16.2-14.5,26.2
		c-5.2,1.5-10.3,3-15.5,4.5c-2.1,0.6-4.1,0.7-3.9-2.4c3.1-8,4.7-16.8,11.1-23.2c2.7,1.1,2.2,3.8,3.1,5.9c0.4,1,0.3,2.7,1.9,2.5
		c1.7-0.2,1.6-1.9,1.5-3.2C159.3,211.4,158.4,209.5,160,208z"/>
	<path class="st63" d="M199.9,205c-6.9,0.5-8.8,5.9-11,11.1c-3.8-2.2-4.9-6-5.9-9.9c-1.1-4.3-2.1-8.6-3.2-12.9
		c1.6-5.3,9.6-11.5,14.7-11.2C197.4,189.5,200.5,196.8,199.9,205z"/>
	<path class="st63" d="M220.8,194c-3.2-2.3-5.7,0-8.3,1.2c-2.5,1.2-5,2.5-7.5,3.8c-1-0.3-1.8-1-2.1-1.9c-1.8-6.1-4.4-12-3.8-18.6
		c4.1-4.9,9.4-7.2,15.6-7.4C217.6,178.5,219.1,186.2,220.8,194z"/>
	<path class="st22" d="M233.1,332c-0.5-7.3-0.5-14.7,0-22c2.3-0.7,3.7,0.9,5.4,1.8c4.5,2.4,4.7,2.3,6.5-2.4c0.3-0.8,0.6-1.5,1.7-1.5
		c0,1.2,0.2,2.4,0,3.5c-0.7,4.2,0.5,6.3,5.2,5.5c4.2-0.7,3.5,2.8,3.3,4.9c-0.2,2.1,1.3,6-3.5,5.2c-1.7-0.3-3.3-0.2-4.7,0.9
		c-0.1,0.1-0.2,0.2-0.3,0.4c-1.1,2.1,1.3,5.8-2.5,6.5C240.3,335.6,236.1,335.6,233.1,332z"/>
	<path class="st63" d="M205.1,327c5.2,2.1,7.5,7.5,12.2,10.4c1.7-3.1-0.8-6.7,1.7-9.4c-0.1,1.2-0.1,2.3-0.2,3.5
		c-0.1,6.7-0.1,6.7,6.6,7c2,0.1,3.8,0.7,3.4,3.2c-0.4,2.6,1.9,6.6-2.5,7.5c-6.5,1.3-13.2,0.1-19.8,0.1c-1.9,0-1.8-1.7-1.7-3
		C204.9,339.9,205,333.4,205.1,327z"/>
	<path class="st68" d="M327.8,161c-6.6-3.7-11.9-9.6-19.8-11c-1.4-5.3-2.9-10.6-4.3-15.8c6-0.1,12.1-0.2,18.1-0.2
		c3.5,8.1,5,16.8,6.7,25.4C328.7,159.9,328.3,160.5,327.8,161z"/>
	<path class="st63" d="M242,184.2c-4,0.9-8.1,2-12.2,2.7c-1.7,0.3-3.2,0.5-4,2.2c-1.8-8.3-2.8-16.7-2.9-25.2c4.2-3.4,8.9-4.1,14-2.4
		c2.1,4.2,2.9,8.7,3.4,13.3C240.6,178.1,241.6,181.1,242,184.2z"/>
	<path class="st1" d="M233.1,332c1.1,0.3,2.1,0.7,3.2,1c4.9,1.3,9.9,2.6,10.7-5c-0.1,1.8,0,3.7-0.3,5.4c-0.8,4.9,1.5,6.1,5.7,5
		c3-0.7,4.8,0.5,4.4,3.4c-0.4,2.7,2.7,7.4-3.3,7.6c-5.8,0.2-11.6,0-17.5,0.1c-2.6,0-3.5-1.1-3.4-3.6C233,341.3,233,336.6,233.1,332z
		"/>
	<path class="st21" d="M273.8,315c-4.5,2.6-6.6,8.1-11.7,10c-1.4-8.3-2.8-16.7-4.2-25c-0.5-2.7,0.4-3.9,3.4-3.9
		c10.9,0,10.9-0.1,11.9,11C273.4,309.7,273.6,312.3,273.8,315z"/>
	<path class="st16" d="M283.2,168c-4.1-1.2-8.2-2.4-12.3-3.6c-2-0.6-4.2-1.2-6,0.7c-1.1-2.6-1.9-5.3-2-8.1
		c13.6,0.7,25.8,5.4,37.5,11.9c1.8,1,3.4,2.2,5.5,2c1,4,2,8,3,12c-3.1,0.7-5.2-1.5-7.5-3c-3.3-2.1-6.5-4.5-10.6-4.8
		c-0.7-1.8-1.3-3.7-2.2-5.5C287.5,167.1,285.8,166.1,283.2,168z"/>
	<path class="st16" d="M236.9,162c-4.8-0.4-9.3,1-13.9,2c-1.2-2.2-1.2-4.5-1.1-6.9c-1.3-3.9,0.4-5.9,4.1-6.7
		c5.8-1.2,11.7-2.2,17.7-1.9c1.8,0.1,3.7,0.1,5.1,1.5c1.6,3.7,3.2,7.4,4.8,11c-3.3,0-6.6,0-10,0c-1.7,0-3.4-0.2-3.8,2.1
		C238.6,163.5,237.9,162.3,236.9,162z"/>
	<path class="st43" d="M246.8,308c-2.6,8.6-2.8,8.7-11,3.4c-0.8-0.5-1.7-1-2.6-1.4c-0.1-3.5-0.1-7-0.4-10.4
		c-0.2-2.6,0.9-3.5,3.5-3.5c5.1,0.1,10.3,0.1,15.4,0c2.7-0.1,4.6,0.4,4.3,3.8c-0.3,3,0.8,6.6-4.1,7.1
		C250.2,307.1,248.2,306.3,246.8,308z"/>
	<path class="st22" d="M212.8,233.3c0.3-4.9,4.3-6.8,7.5-9.5c6.8,2.6,12.8,14,9.3,20c-2.8,4.9-9,1.9-13.7,2.4
		c-3.2,0.3-3.1-2.6-3.1-5C212.9,238.6,212.8,235.9,212.8,233.3z"/>
	<path class="st59" d="M161.3,229.2c-2.6-2.1-0.2-3.8,0.5-5.6c2.4-6.1,5.8-11.7,9.6-17.1c1.1-1.6,2.3-3.3,4.5-3.5
		c0.7,2.2,1.5,4.4,2,6.6c2.6,11.9,0.7,15.2-11.2,18.5C164.8,228.6,163,228.8,161.3,229.2z"/>
	<path class="st17" d="M172,346c-1.7,0-2.5-1.1-3.3-2.5c-4.3-7.7-7-15.9-9.2-24.3c-0.5-1.7-0.6-2.9,1.6-3.2
		c9.7,4.4,14.9,11.6,14,22.6C174.8,341.3,174.5,344.1,172,346z"/>
	<path class="st16" d="M310,316.9c7.7,0.3,8.2,0.7,8.2,6.5c0,2.7-0.8,3.9-3.6,3.8c-2.5-0.1-4.5,1-4.9,3.8c1.2,7.6-3.4,12.7-7.8,17.9
		c-6.5,1.2-6.7,1-5.8-8c4.7-6.2,8.4-12.9,11.1-20.2C307.9,319.2,308.2,317.5,310,316.9z"/>
	<path class="st63" d="M290.8,175.2c2.5-2.5,4.6-0.2,6.6,0.9c3.9,2.1,7.6,4.6,11.4,6.9c1,2.6,3.2,5.8,0.5,7.7
		c-3.6,2.5-8.1,3.8-12.7,3.1c-1.5-0.2-1.9-1.9-2.2-3.1C293.2,185.5,292,180.3,290.8,175.2z"/>
	<path class="st6" d="M296.1,330c-0.1-10-0.2-20-0.3-30c0-1.1-0.3-2.4,0.8-3.2c3-0.6,6-0.2,8.9-0.2c1.9,1.1,1.7,3.1,1.7,4.8
		c0,9.3-2.6,17.9-6.7,26C299.8,329.1,298.7,331.1,296.1,330z"/>
	<path class="st63" d="M192.8,330c-2.3,0-2.8-2-3.7-3.6c-4-7.4-5.2-15.5-6.2-23.7c-0.5-4,0.4-6.5,5.2-5.7c1,0.2,2,0,3-0.1
		c2.4,1.1,2,3.3,2,5.2C193.1,311.4,192.9,320.7,192.8,330z"/>
	<path class="st63" d="M296.1,330c2.6-0.1,3.1-2.3,3.8-4c4.1-9.1,6.8-18.6,5.9-28.7c2.3-1,5.1-1.8,6.5,0.5c1.8,2.8,1.8,6.2-0.5,9.1
		c-0.7,0.4-1.4,0.8-2.2,1.2c-0.3,3-0.9,6,0.3,8.9l0,0c-2.5,7.1-5.6,13.9-9.7,20.3c-1.1,1.7-1.9,3.5-4.2,3.7
		C296.1,337.3,296.1,333.6,296.1,330z"/>
	<path class="st17" d="M248.9,150c-7.6-0.2-15.2,0.2-22.7,1.8c-3.6,0.7-4.3,2.4-4.2,5.3c-0.1-0.1-0.2-0.3-0.3-0.4
		c-2.1-11.2-2.1-11.3,9.1-14c1.3-0.3,2.6-0.6,3.9-0.9C245.3,139,245.3,139,248.9,150z"/>
	<path class="st14" d="M160,304.9c-4.7-2.4-3.3-6.1-2-9.7c10.2-0.2,16.3,4.8,16.2,13.3c0,2.9-1.1,4.4-4.1,4.1c-1.3-0.1-2.7,0-4,0.1
		c-3.9,0.2-6.2-1.1-5.4-5.5C160.8,306.5,160.2,305.7,160,304.9z"/>
	<path class="st68" d="M299,145c-4.5,0.2-8.1-2.6-12.3-3.6c-6.9-1.7-13.7-3.7-20.8-4.4c-1.5-0.2-2.9-0.7-3.9-2
		c0.1-0.3,0.1-0.6-0.1-0.9c11.4,0,22.8,0,34.1,0C296,137.9,299.7,140.9,299,145z"/>
	<path class="st17" d="M332,296.1c2.2,9.3,0.3,18.2-3,26.9c-7.9-4.2-6.4-11.6-5.9-18.4C323.5,299.5,327,296.8,332,296.1z"/>
	<path class="st15" d="M193.8,182c-5.6,2.6-9.9,6.9-14,11.3c-1.5-3.6-2.8-7.3-2.9-11.2c4.5-3.8,7.6-9.7,14.8-9.1
		C194.6,175.5,195.7,178.4,193.8,182z"/>
	<path class="st16" d="M214.8,171c-5.2,1.9-10.3,4.2-15.1,7c-3.4-2.7-4.6-6-2.6-10.1c5.1-1.8,9.5-5.1,15-6
		C213.1,164.9,215,167.7,214.8,171z"/>
	<path class="st18" d="M350.9,247c-0.2-0.3-0.6-0.5-0.6-0.8c0.2-7.8-1.5-15.4-2.3-23.2c3.9-0.1,7.9-0.2,11.8-0.3
		c0.1,4,0.3,7.9,0.4,11.9c-0.2,0.5-0.6,0.9-1.1,1.1c-6.2,1.2-6.2,1.2-6.9,7.6C352.1,244.7,352.1,246.1,350.9,247z"/>
	<path class="st13" d="M218.9,308c-0.6,0.5-1.6,1.6-1.8,1.5c-3.5-2.3-1.7-5.9-2.1-8.9c-0.3-2,0.3-3.5,2.9-3.5
		c3.1,0.1,6.2-0.1,9.4-0.1c2.1,7.9,1.2,9.3-6.2,10.1C220.3,307.1,219.6,307.6,218.9,308z"/>
	<path class="st20" d="M234,277c5.4,1.2,9.6,6.3,15.8,5c0.9,3.8-1.2,4.7-4.4,4.5c-1.8-0.1-3.6-0.3-5.4-0.3
		C231.4,286.1,231.1,285.7,234,277z"/>
	<path class="st14" d="M351,285.9c-0.2-4,1.6-7.9,1-12c2.1-1.8,4.5-1.3,6.9-0.8c0.5,0.2,0.9,0.5,1.2,1c0,4.3-0.1,8.5-0.1,12.8
		C357,286.6,354,286.2,351,285.9z"/>
	<path class="st10" d="M312,306.8c0-1.3-0.1-2.7,0-4c0.7-4.9-1.3-6.7-6.1-5.6c-3.1-0.1-6.2-0.3-9.2-0.4c6.5-1.1,13.1-0.7,19.6,0.1
		c3.3,0.4,3.8,3.3,3.5,6.1c-0.3,2.8-1.5,4.6-4.8,4C314,306.8,312.9,306.9,312,306.8z"/>
	<path class="st67" d="M314,339c2.8-0.5,5.7-1.8,6.1,3c0.5,6.9,0,7.9-5.3,7.8c-2,0-4,0.5-5.8-0.8C309.4,345.1,312,342.2,314,339z"/>
	<path class="st14" d="M314,339c-0.1,4.2-3,6.9-5.1,10c-2.3,0-4.6-0.1-6.9-0.1c-0.1-1.4,0.2-2.6,1.2-3.7c3.8-4,6.4-8.5,6.6-14.2
		C310.5,334,307.8,338.9,314,339z"/>
	<path class="st8" d="M179.1,305c1.8,2.9,0.6,6.2,0.8,9.3c0.2,2.8,0.2,5.7,0,8.5c-0.8,9.6-0.1,18.8,7,26.2c-6.9,1.9-8.1,1-8-5.8
		C179.1,330.4,179.1,317.7,179.1,305z"/>
	<path class="st18" d="M360,135c1.4,1.3,0.9,3.1,0.9,4.7c0,26.2,0,52.5,0,78.7c0,1.5,0.8,3.4-1.2,4.5c0.1-25,0.1-49.9,0.2-74.9
		C360,143.6,360,139.3,360,135z"/>
	<path class="st16" d="M310.1,316.9c-1.9-2.9-1.5-5.9-0.3-8.9C309.9,311,310,314,310.1,316.9z"/>
	<path class="st23" d="M291.2,254.2c-0.1-1.4-0.2-2.8-0.2-4.2c1.8,0.9,2.2,2.4,1.8,4.2C292.3,254.1,291.7,254.1,291.2,254.2z"/>
	<path class="st34" d="M327.8,161c-1.7-9.1-4.9-17.8-5.9-27.1c2-0.4,4-0.4,5.9,0.3c2.5,10.8,5.1,21.6,7.6,32.4
		c0.3,1.4,0.5,2.9,0.7,4.4c-0.8,1.5-1.9,2.8-3.9,2.3c-1.7-0.4-1.3-2.1-1.7-3.3C329.6,167,328.7,164,327.8,161z"/>
	<path class="st9" d="M352,259.1c0-3.7,0-7.5,0-11.2c0.6-0.9,1.5-1.4,2.4-1.6c3.4-0.7,4.4-2.8,4.2-6.1c-0.1-1.8-0.2-3.6,1.2-5.1
		c0.1-0.2,0.3-0.3,0.4-0.5c1.7,2.6,1.3,5.6,0.7,8.2c-1.8,8.9,0.1,17.7,0,26.5c0,1.6,0.3,3.3-0.8,4.8c-0.2-0.1-0.3-0.3-0.4-0.4
		c-1.4-1.8-1.1-4-1.1-6.1c0.1-3.4-0.2-6.3-4.5-6.7C353.2,260.8,352.4,260.1,352,259.1z"/>
	<path class="st70" d="M209,128c0,0.3,0,0.5,0,0.8c-6.3,0-12.7,0-19,0c0-0.2,0-0.5,0-0.7C196.3,127.1,202.7,127.1,209,128z"/>
	<path class="st36" d="M209,128c-6.4,0-12.7,0-19.1,0c-3-0.1-5.9-0.1-8.9-0.2c-0.4-0.2-0.5-0.4-0.4-0.5c0.1-0.2,0.2-0.3,0.4-0.3
		c9.4-0.1,18.8-0.1,28.2-0.2c10.5,0.1,21.1,0.2,31.6,0.3c1.8,0,3.6-0.4,5.3,0.7C233.7,127.9,221.4,128,209,128z"/>
	<path class="st7" d="M181,127.1c0,0.3,0,0.5,0,0.8c-1.7,0-3.5,0.5-5.3-0.4C177.5,126.6,179.3,127.1,181,127.1z"/>
	<path class="st49" d="M151.9,178.1c0.5,2.1,0.8,4.2,1.4,6.3c0.7,2.6,1.1,5.1-2.2,6c-3.6,1-2.6-2.6-3.7-4c-0.4-0.6-0.4-1.6-0.5-2.4
		c-0.2-0.9-0.5-1.9-0.6-2.8c-0.1-1.6-1.8-3.6,0.2-4.9C148.8,174.9,150.4,176.5,151.9,178.1z"/>
	<path class="st36" d="M248.8,126.7c12.1,0,24.1,0,36.2,0c0,0.4,0,0.7,0,1.1c-11.5,0-23.1,0-34.6,0
		C249.8,127.8,249.3,127.1,248.8,126.7C248.7,126.7,248.8,126.7,248.8,126.7z"/>
	<path class="st40" d="M236.9,162c1.7-1.5,2,0.8,3,1.1c0.8,5.6,3.3,10.6,5.3,15.8c1.5,3.8,0.6,5.2-3.2,5.3c-1-0.1-1.8-0.4-2-1.7
		C239,175.7,237.9,168.8,236.9,162z"/>
	<path class="st39" d="M160,208c0.3,2.1,0.6,4.2,0.9,6.3c0.3,2.4-0.9,3.8-3,4.3c-2.6,0.6-2.3-1.8-2.8-3.1c-0.9-2.4-1.5-5-2.2-7.5
		c-0.2-1.3-0.5-2.6-0.7-3.9c-0.3-1.5-0.8-3,1.2-3.7c1.9-0.7,3.3,0,4.2,1.6C158.6,204,159.2,206,160,208z"/>
	<path class="st51" d="M251.9,243c0.5-1,0.9-1.9,1.6-3.4c0.8,3.8,0,7.3,1.3,10.5c0.2,3.3,0.4,6.6,0.6,9.9c0,1,1.2,2.5-0.4,3
		c-1.5,0.5-3.3,0.7-4.8-0.2c-1.4-0.8-0.5-2.1-0.3-3.1C251.2,254.1,252.1,248.6,251.9,243z"/>
	<path class="st49" d="M284.8,152.2c0.2,2.6-0.8,4-2.8,4.5c-2.3,0.5-2.1-1.6-2.5-2.8c-0.8-2.5-1.5-5-2.1-7.6c-0.3-1.4-1.7-3.4,0.9-4
		c2-0.5,3.7,0.5,4.4,2.4C283.6,147.2,284.2,149.9,284.8,152.2z"/>
	<path class="st34" d="M197.1,168c0.1,3.6,1.1,6.9,2.6,10.1c1.2,7.1,2.7,14.2,5.4,20.9c0.1,1.3,0.3,2.6,0.4,3.9c0.2,1.9,1.5,4-1,5.2
		c-3,1.4-3.4-1.6-4.6-3.1c-2-7.7-4.1-15.3-6.1-23c0.1-3.2-1.1-6.1-2.1-9c-0.3-1.9-0.7-3.9-1-5.8c-0.3-1.7-0.7-3.5,1.4-4.1
		c2.3-0.7,3.2,0.9,3.9,2.7C196.3,166.5,196.7,167.2,197.1,168z"/>
	<path class="st34" d="M352,259.1c8,1.3,8,1.3,8,10.1c0,1.5-0.2,3-0.2,4.5c-2.6,0.1-5.1,0.2-7.7,0.2C350.4,269,350.3,264,352,259.1z
		"/>
	<path class="st51" d="M359.8,235.1c0.1,0.8,0.3,1.6,0.3,2.4c0.4,8.9,0.4,8.9-8.2,10.3c-0.4-0.3-0.7-0.6-1.1-0.9c0-0.7,0-1.3,0-2
		C350.7,235.7,350.7,235.7,359.8,235.1z"/>
</g>
</svg>
