<?xml version="1.0" encoding="utf-8"?>
<!-- Generator: Adobe Illustrator 16.0.0, SVG Export Plug-In . SVG Version: 6.00 Build 0)  -->
<!DOCTYPE svg PUBLIC "-//W3C//DTD SVG 1.1//EN" "http://www.w3.org/Graphics/SVG/1.1/DTD/svg11.dtd">
<svg version="1.1" id="Layer_1" xmlns="http://www.w3.org/2000/svg" xmlns:xlink="http://www.w3.org/1999/xlink" x="0px" y="0px"
	 width="49.4px" height="76.8px" viewBox="0 0 49.4 76.8" style="enable-background:new 0 0 49.4 76.8;" xml:space="preserve">
<style type="text/css">
<![CDATA[
	.st0{fill-rule:evenodd;clip-rule:evenodd;fill:#3A1171;}
	.st1{fill-rule:evenodd;clip-rule:evenodd;fill:#3C1272;}
	.st2{fill-rule:evenodd;clip-rule:evenodd;fill:#3D1273;}
	.st3{fill-rule:evenodd;clip-rule:evenodd;fill:#3E1374;}
	.st4{fill-rule:evenodd;clip-rule:evenodd;fill:#3F1374;}
	.st5{fill-rule:evenodd;clip-rule:evenodd;fill:#3F1375;}
	.st6{fill-rule:evenodd;clip-rule:evenodd;fill:#3F1475;}
	.st7{fill-rule:evenodd;clip-rule:evenodd;fill:#401476;}
	.st8{fill-rule:evenodd;clip-rule:evenodd;fill:#421577;}
	.st9{fill-rule:evenodd;clip-rule:evenodd;fill:#421677;}
	.st10{fill-rule:evenodd;clip-rule:evenodd;fill:#431677;}
	.st11{fill-rule:evenodd;clip-rule:evenodd;fill:#431678;}
	.st12{fill-rule:evenodd;clip-rule:evenodd;fill:#441A76;}
	.st13{fill-rule:evenodd;clip-rule:evenodd;}
]]>
</style>
<g>
	<path class="st13" d="M49,39.6c0,0.6,0,1.1,0,1.7c-1,0.9-2.3,0.9-3.6,1c-0.8,0.1-1.6,0.1-2.5,0.4c2.2,2.3,4.4,4.4,6.1,7
		c0.1,1.3,0.2,2.5,0.2,3.8c-1.3,0-2.4-0.6-3.6-0.8c-0.3-0.1-0.6-0.2-0.9-0.3c-2.3-0.7-3.7,0.2-4,2.6c-0.1,1.2-0.2,2.5,0.2,3.7
		c0.2,0.8,0.3,1.7,0.2,2.5c-0.1,1.1-1,1.6-2,1c-0.6-0.4-1.2-1-1.6-1.6c-1.1-1.8-2.1-3.8-2.8-5.8c-0.7-1.8-1.4-3.6-1.9-5.5
		c-0.2-0.8-0.5-0.6-0.9-0.1c-0.8,0.9-1.6,1.7-2.5,2.6c-1,0.9-2.2,0.9-3.3,0.1c-0.8-0.7-0.9-1.7-0.2-2.9c0.9-1.5,2-2.9,3-4.3
		c0.5-0.6,0.5-1-0.2-1.4c-1.1-0.7-1.9-1.8-2.7-3.1c-0.1,1.2,0,2.3-0.1,3.4c-0.1,0.6-0.1,1.4-0.8,1.6c-0.7,0.3-1.2-0.3-1.6-0.7
		c-1.8-1.9-3.2-4.1-4.8-6.1c-0.4-0.6-0.9-1.2-1.3-1.7c-1.5-1.7-3.5-2-5.4-0.8c-1.3,0.8-2.1,2-2.9,3.3c-0.9,1.5-1.8,2.9-2.5,4.5
		c-0.3,0.7-0.7,1.3-1.1,1.8c-1.1,1.3-2.2,1.2-2.9-0.4c-0.7-1.7-0.7-3.4-0.5-5.2c0.8-5.6,2.2-11.1,4-16.5c0.2-0.5,0.4-1.1,0.4-1.7
		c-1.4,0.2-2.7,0.6-4.1,0.9c-0.5,0.1-1,0.3-1.4-0.2c0-2,0-4,0-6c0-0.7,0.2-1.1,0.9-1.3c1.4-0.4,2.8-0.9,4.2-1.4
		c0.5-0.2,0.9-0.3,0.6-1C5,9.5,5.5,6.5,5.8,3.5c0.1-0.8-0.2-1.7,0.6-2.3l0,0C7.8,1,9.1,1.1,10.4,1.1c5.4,0,10.7,0,16.1,0
		c0.9,0,1.3,0.3,1.2,1.2c-0.4,3.1-0.5,6.3-0.8,9.4c-0.2,1.8-0.2,1.8-1.8,3.5c1.5,0.9,3,1.8,4.5,2.8c1.6,1.1,3.2,2.1,4.5,3.6
		c1.2,1.3,1.6,3.7,0.9,5.3c-0.1,0.3-0.2,0.4,0.1,0.6c1.8,1.6,2.6,3.8,3.8,5.8c0.8,1.2,1.7,2.4,1.7,4c0,0.6,0.6,0.6,1,0.5
		c1.1-0.1,2.2-0.2,3.3-0.2c0.9,0,1.8,0.1,2.7,0.3C48.4,38.1,49.1,38.5,49,39.6z"/>
	<path class="st11" d="M1,22c1.8-0.1,3.4-0.6,5.1-1.1c0.2-0.1,0.4-0.3,0.7,0c0.2,0.2,0,0.4-0.1,0.7c-1.7,4.9-3,10-4,15.1
		c-0.4,2.3-0.9,4.7-0.3,7.1c0.2,0.8,0.4,1.8,1.3,2c1,0.2,1.5-0.8,1.9-1.5c1-1.7,2-3.6,3-5.3c0.8-1.3,1.7-2.6,3-3.5
		c2.2-1.5,4.3-1.3,6,0.7c1.7,2.1,3.2,4.3,4.8,6.4c0.5,0.6,1,1.2,1.5,1.7c0.9,0.9,1.5,0.7,1.6-0.6c0.1-1.2,0.1-2.4,0.1-3.6
		c0-0.3,0-0.5,0-1.2c0.4,0.6,0.7,0.9,0.9,1.3c0.7,1.2,1.5,2.2,2.7,2.8c0.6,0.3,0.8,0.6,0.2,1.2c-1.4,1.5-2.5,3.1-3.5,4.8
		c-0.4,0.7-0.8,1.6,0,2.3c1,0.8,2.1,0.9,2.9,0.1c1.1-1,2.1-2,3-3.1c0.2-0.2,0.3-0.6,0.6-0.4c0.3,0.1,0.3,0.4,0.3,0.6
		c0.8,3,2,5.8,3.1,8.6c0.7,1.6,1.5,3.3,2.9,4.5c0.4,0.4,0.8,0.7,1.4,0.5c0.6-0.2,0.5-0.8,0.5-1.2c0-1.7-0.6-3.4-0.5-5.1
		c0.1-0.8,0.2-1.6,0.5-2.3c0.8-1.6,1.6-2.1,3.2-1.6c1.7,0.5,3.4,1.1,5.1,1.6c0,1.7,0.1,3.3,0.1,5c0,3.2,0.1,6.3,0,9.5
		c0,1.8,0,3.6,0,5.4c0,1.8-1.1,3.1-2.9,3.2c-2.8,0.1-5.6,0-8.4,0c0-0.5-0.3-0.9-0.7-1.1c-0.8-0.5-1.6-1-2.3-1.6
		c-0.4-0.3-0.7-0.8-0.3-1.2c0.9-0.9,1-2.1,1.1-3.2c0.1-1.7,0.5-3.4,0.7-5.1c0-0.4,0.1-0.7,0.1-1.1c-0.1-2-0.8-2.8-2.8-3
		c-2.4-0.3-4.8-0.5-7.1-0.8c-1.4-0.2-2,0.3-2.1,1.7c-0.2,2-0.6,3.9-0.9,5.9C23.6,68,23.6,69,24,70.1c0.5,1.3,0.2,1.8-1.1,2
		c-1.5,0.3-2.9,0.8-4.2,1.3c-1.6,0.6-1.8,0.8-1.5,2.6c-0.1,0.2-0.3,0.3-0.5,0.2c-0.9-0.5-2-0.1-3-0.5c-0.7-0.2-1.8-0.2-2.7,0.2
		c-0.7,0.3-1.3,0.4-1.9,0.2c0.3-0.9,1.2-1.4,1.7-2.3c1-1.9,1.7-3.9,2.5-5.8c0.4-0.9,0.7-1.8,0.9-2.7c0.1-0.4,0.2-0.9,0.7-1
		c0.5-0.1,0.8,0.3,1.1,0.6c0.5,0.7,1.1,1.3,1.7,1.8c0.3,0.3,0.6,0.5,1,0.6c0.5,0.1,1-0.1,1.4-0.5c0.3-0.4,0.1-0.8-0.1-1.2
		c-0.7-1.2-1.4-2.3-2.3-3.4c-1.1-1.3-1-1.4,0.2-2.4c1.1-0.9,1.8-2.1,2.5-3.3c0.6-1.1,1.2-2.2,1.8-3.3c0.4-0.8,0.2-1.5-0.5-1.9
		c-2-1.2-4.1-2.4-6.2-3.7c-0.5-0.3-1-0.3-1.5,0c-0.8,0.5-1.5,1.2-2,2c-0.8,1.5-1.7,3-2.6,4.5C9.2,54.5,9,54.9,9,55.4
		c-0.1,1.2-0.3,1.4-1.5,1.2c-1.2-0.2-2.5-0.1-3.7-0.1c-0.8,0-1.4,0.6-2.2,0.4c-0.5-1.2,0-2.4-0.1-3.5c-0.1-2-0.1-4-0.1-5.9
		c0-1.5-0.4-3-0.2-4.5c0.2-2.4,0-4.8,0.2-7.2c0.2-2.3,0.1-4.6,0.1-6.9c0-1.2-0.1-2.5,0-3.7C1.6,24.1,1.3,23.1,1,22z"/>
	<path class="st11" d="M49,39.6c-0.4-0.9-1-1.3-2-1.5c-2.1-0.3-4.1-0.1-6.2,0.1c-0.6,0-1.2,0.1-0.8-0.8c0.2-0.5,0.1-1.1-0.2-1.6
		c-1.4-2.4-2.9-4.7-4.2-7.1c-0.4-0.7-1.3-0.8-1.6-1.6c1-0.3,1-0.9,1-1.9c-0.1-2.8-2-4.3-4-5.7c-2.2-1.5-4.5-2.9-7-4.4
		c2.1-0.5,2.5-2,2.6-3.7c0.2-3.1,0.5-6.2,0.8-9.3c0.1-0.8-0.4-0.8-1-0.8c-5.2,0-10.5,0-15.7,0c-1.4,0-2.8-0.1-4.2-0.1
		c2.3-0.3,4.6-0.1,6.9-0.1C22,1,30.5,1,39,1c2.7,0,5.3-0.2,8,0.1c-0.4,0.5-0.9,0.4-1.4,0.4c-2.6,0-5.2,0-7.8,0c-1.8,0-1.8,0-1.2,1.6
		c0.4,1.2,0.9,2.5,1.1,3.8c0.2,0.7,0.4,1.4,1,1.9c0.7,0.6,0.6,1.2-0.1,1.7c-1.1,0.9-1.8,2-2.8,3c-0.5,0.5-0.8,1.2-0.7,2
		c0,0.7,0.4,0.9,1,0.6c0.9-0.4,1.7-1,2.3-1.7c0.2-0.3,0.5-0.5,0.8-0.8c0.3-0.3,0.6-0.7,1.1-0.5c0.5,0.2,0.4,0.7,0.5,1.1
		c0.4,2.8,0.6,5.6,0.9,8.4c0,0.3,0,0.6,0.1,0.8c0.1,0.3,0.1,0.6,0.5,0.6c0.3,0.1,0.5-0.3,0.6-0.5c0.4-1.1,1.1-2.1,1.5-3.1
		c0.8-2.2,1.3-2.5,3.6-2.4c0.4,0,0.7-0.3,1.1-0.1c-0.4,2.1,0.2,4.2-0.1,6.3c-0.2,1.1,0.3,2.3,0.2,3.4c-0.3,3,0,6-0.2,9
		C49,37.7,49.6,38.7,49,39.6z"/>
	<path class="st13" d="M17.1,76.1c-0.8-1.7-0.7-2.2,1.1-2.9c1.6-0.6,3.3-1.3,5-1.5c0.5-0.1,1.1-0.3,0.8-0.9
		c-1.2-2.2-0.4-4.4-0.1-6.6c0.1-1.1,0.4-2.3,0.5-3.4c0.1-1.4,0.7-1.9,2.1-1.8c3,0.3,5.9,0.7,8.9,1c0.8,0.1,0.9,0.7,1.2,1.3
		c0.7,1.5,0.4,3.1,0.1,4.6c-0.3,1.6-0.4,3.2-0.6,4.9c-0.1,0.7-0.3,1.5-0.9,1.9c-0.8,0.5-0.3,0.7,0.1,1c1.2,0.8,2.4,1.6,3.5,2.4
		c-0.1,0.6-0.6,0.2-0.8,0.5c-5.6,0-11.2,0-16.7,0c-0.3,0-0.6-0.1-0.9-0.3C19.3,76,18.1,76.4,17.1,76.1z"/>
	<path class="st13" d="M49.2,18.1c-0.3,0.4-0.5,0.6-1.1,0.4c-1.8-0.5-2.5,0-3.2,1.7c-0.6,1.4-1.2,2.7-1.8,4
		c-0.1,0.3-0.2,0.7-0.6,0.6c-0.4,0-0.6-0.4-0.7-0.8c-0.2-0.9-0.4-1.9-0.5-2.8c-0.3-2.5-0.5-5-0.7-7.5c0-0.2,0.1-0.4-0.2-0.5
		c-0.3-0.1-0.4,0.2-0.6,0.3c-1.1,1.1-2.1,2.2-3.6,2.8c-1,0.5-1.4,0.2-1.4-0.9c-0.1-0.9,0.2-1.7,0.9-2.4c1-1.1,1.8-2.2,3-3.1
		c0.4-0.3,0.6-0.6,0-0.9c-0.6-0.3-0.9-0.9-1.1-1.5c-0.4-1.8-0.9-3.5-1.6-5.1c-0.4-0.9-0.2-1.3,0.9-1.3c3,0.1,5.9,0,8.9,0
		c0.4,0,0.9-0.1,1.3-0.1c0.2,0.1,0.3,0.2,0.5,0.3c0.9,0.9,1,2.1,1,3.3c-0.1,0.8,0.1,1.4,0.7,2c-0.1,2.2,0,4.4-0.1,6.5
		C49,14.8,49.1,16.5,49.2,18.1z"/>
	<path class="st11" d="M1,22c0.5,0.5,0.7,0.9,0.8,1.7c0.2,2.5,0,5,0.1,7.5c0.1,3-0.2,6.1-0.4,9.1c0,0.3,0,0.5,0.2,0.8
		c0.1,0.2,0.3,0.5,0.2,0.5c-0.9,0.9-0.3,1.8-0.2,2.7c0.2,1.2,0,2.4,0.1,3.7c0.1,0.8,0,1.7,0.1,2.6c0.1,2.1-0.1,4.1-0.2,6.2
		c-0.3,0.7-0.6,1.3,0,2c0.2,0.8,0.9,1.1,1.6,1.2c1.6,0.4,1.8,0.8,0.6,2c-1,1-1.7,2.2-2.1,3.5c-0.7,0.9-0.5,2-0.5,3.1
		c1.1,2.2,1,4.5,0.3,6.9c-0.8-0.5-0.9-1.2-0.9-2.1c0-15.4,0-30.8,0-46.2c0-7.7,0-15.4,0-23.1c0-2.2,1-3.1,3.2-3.1c0.8,0,1.7,0,2.5,0
		C6.1,4.7,5,8.3,6.7,11.9c0.6,1.4,0.6,1.4-0.9,1.9c-1.4,0.4-2.7,0.9-4.1,1.3c-0.6,0.2-0.7,0.4-0.7,1C1,18.1,1,20,1,22z"/>
	<path class="st11" d="M1.7,75.6c0.2-1.4,0-2.8,0.2-4.2C2,70.5,1.5,69.6,1,68.9c1.6-1,3.4-1.4,5.2-1.7c1.3-0.2,2.4,1.1,2.5,2.7
		c0.1,1.4,0.1,2.7-0.1,4.1c-0.1,0.8-0.1,1.5,0.5,2.1c0.7,0.1,1.3,0.1,1.8-0.6c0.6-0.8,1.2,0.4,1.7,0.1c0.7-0.5,1.2-0.6,1.7,0.1
		c0,0.1,0.1,0.1,0.1,0.2c1-1.2,1.7,0.6,2.6,0.2c1.1,0.2,2.2-0.2,3.3,0.2c-4,0-8,0-12,0c-1.7,0-3.4,0-5.2,0C2.6,76.3,2,76.2,1.7,75.6
		z"/>
	<path class="st10" d="M48.9,49.7c-2.2-2.2-4.1-4.7-6.4-6.8c-0.1-0.1-0.3-0.3-0.2-0.5c0.1-0.2,0.3-0.2,0.5-0.2
		c2.1-0.2,4.1-0.3,6.1-1C49.2,44.1,49.1,46.9,48.9,49.7z"/>
	<path class="st12" d="M49.2,6.7c-1.1-0.1-1.3-0.5-1-1.6c0.4-1.3-0.4-2.4-0.6-3.7c1.1,0.4,1.6,1.3,1.7,2.3
		C49.3,4.7,49.2,5.7,49.2,6.7z"/>
	<path class="st9" d="M32,26.8c-2,1.2-3.8,2.3-5.7,3.4c-0.5,0.3-1,1-1.5,0.8c-0.5-0.2-0.2-1-0.3-1.6c-0.4-2-0.7-4.1-1-6.1
		c0-0.3-0.1-0.6,0.1-0.8c0.2-0.3,0.4,0,0.6,0.1c2.3,1.6,4.8,2.9,7.4,4C31.7,26.6,31.8,26.7,32,26.8z"/>
	<path class="st8" d="M17.1,9.7c0,1.5-1.1,2.5-2.5,2.5c-1.2,0-2.4-1.2-2.3-2.4c0-1.3,1.3-2.5,2.5-2.5C16,7.3,17.1,8.5,17.1,9.7z"/>
	<path class="st7" d="M21.8,10.2c0,0.9-0.8,1.8-1.7,1.8c-1,0-1.8-0.8-1.9-1.7c0-1,0.8-1.8,1.8-1.8C21,8.4,21.8,9.2,21.8,10.2z"/>
	<path class="st6" d="M34.3,39c0,0.7-0.8,1.5-1.7,1.6c-0.7,0-1.6-0.9-1.6-1.5c0-0.8,0.8-1.6,1.7-1.6C33.5,37.4,34.3,38.1,34.3,39z"
		/>
	<path class="st3" d="M36.8,37.2c-0.1,0.7-0.5,1.2-1.2,1.2c-0.6,0-1.1-0.6-1.1-1.2c0-0.7,0.6-1.1,1.3-1.1
		C36.4,36,36.7,36.5,36.8,37.2z"/>
	<path class="st13" d="M9.1,76c-0.8,0.1-1-0.4-0.9-1c0.1-1.5,0.3-3,0.3-4.5C8.4,68,7.1,67,4.8,67.8c-1.2,0.4-2.5,0.9-3.8,1.1
		c0.2-1.1-0.5-2.4,0.7-3.4c1.2-2.1,3.1-3.6,4.7-5.6c-1.8-0.2-3.5,0.1-4.9-1.1c-0.8-0.8-0.6-1.4,0.2-2c1.7-1,3.6-0.6,5.5-0.6
		c0.4,0,0.7,0.1,1.1,0.1c0.5,0,0.7-0.1,0.5-0.6c-0.2-0.6,0-1.2,0.3-1.7c0.9-1.6,1.9-3.2,2.8-4.9c0.5-0.9,1.2-1.5,2-2
		c0.5-0.3,1-0.4,1.7,0c2,1.3,4.1,2.5,6.1,3.7c1.2,0.7,1.4,1.3,0.7,2.5c-0.9,1.6-1.8,3.2-2.7,4.8c-0.5,0.9-1.2,1.7-2.2,2.2
		c-0.6,0.3-0.5,0.6-0.1,1c1.1,1.2,2,2.5,2.7,3.9c0.3,0.6,0.9,1.3,0,1.9c-0.8,0.6-1.7,0.9-2.5,0.1c-0.7-0.7-1.4-1.5-2.1-2.2
		c-0.2-0.2-0.4-0.7-0.8-0.6c-0.4,0.1-0.4,0.6-0.5,0.9c-0.9,2.9-1.9,5.7-3.3,8.4C10.6,74.7,10,75.5,9.1,76z"/>
	<path class="st6" d="M30.2,69.5c-0.1,0.7-0.5,1.3-1.4,1.3c-0.9,0-1.5-0.3-1.5-1.3c0-0.9,0.6-1.7,1.5-1.6
		C29.6,67.9,30.2,68.6,30.2,69.5z"/>
	<path class="st0" d="M32.1,71c-0.7-0.1-1.1-0.4-1.1-1.1c0-0.7,0.4-1.2,1.1-1.1c0.5,0,1.1,0.4,1.1,1.1C33.1,70.5,32.6,70.8,32.1,71z
		"/>
	<path class="st5" d="M44.9,5.6c0,0.7-0.6,1.1-1.3,1.1c-0.8,0-1.1-0.5-1.1-1.2c0-0.7,0.4-1.3,1.1-1.3C44.3,4.1,44.9,4.6,44.9,5.6z"
		/>
	<path class="st1" d="M40.8,7.2c-0.5-0.1-0.8-0.4-0.8-1c0-0.6,0.4-0.9,0.9-0.9c0.6,0,0.8,0.5,0.8,1C41.8,7,41.4,7.2,40.8,7.2z"/>
	<path class="st9" d="M1.4,58.8c1.6,0.5,3.1,0.8,4.8,0.7c0.4,0,1,0,0.5,0.6c-1.6,1.8-3.3,3.6-5,5.4c0-1.7,1.1-2.7,2.1-3.8
		c0.7-0.8,0.8-1.2-0.5-1.3C2.5,60.3,1.3,60.3,1.4,58.8z"/>
	<path class="st4" d="M14.5,55.7c1.2-0.1,1.5,0.5,1.6,1.2c0,0.7-0.4,1.3-1.1,1.3c-0.7,0-1.4-0.4-1.4-1.2
		C13.5,56.3,13.9,55.7,14.5,55.7z"/>
	<path class="st2" d="M13.4,55.4c-0.2,0.5-0.5,1-1.1,1c-0.6,0-0.9-0.4-0.9-0.9c0-0.6,0.4-1,1-1C12.9,54.5,13.2,55,13.4,55.4z"/>
</g>
</svg>
