<?xml version="1.0" encoding="utf-8"?>
<!-- Generator: Adobe Illustrator 16.0.0, SVG Export Plug-In . SVG Version: 6.00 Build 0)  -->
<!DOCTYPE svg PUBLIC "-//W3C//DTD SVG 1.1//EN" "http://www.w3.org/Graphics/SVG/1.1/DTD/svg11.dtd">
<svg version="1.1" id="Layer_1" xmlns="http://www.w3.org/2000/svg" xmlns:xlink="http://www.w3.org/1999/xlink" x="0px" y="0px"
	 width="41.8px" height="65.5px" viewBox="0 0 41.8 65.5" style="enable-background:new 0 0 41.8 65.5;" xml:space="preserve">
<style type="text/css">
<![CDATA[
	.st0{fill-rule:evenodd;clip-rule:evenodd;fill:#148433;}
	.st1{fill-rule:evenodd;clip-rule:evenodd;fill:#E3F1E7;}
	.st2{fill-rule:evenodd;clip-rule:evenodd;fill:#178637;}
	.st3{fill-rule:evenodd;clip-rule:evenodd;fill:#1A8A3B;}
	.st4{fill-rule:evenodd;clip-rule:evenodd;fill:#1A8B3C;}
	.st5{fill-rule:evenodd;clip-rule:evenodd;fill:#1B8C3D;}
	.st6{fill-rule:evenodd;clip-rule:evenodd;fill:#1C8C3F;}
	.st7{fill-rule:evenodd;clip-rule:evenodd;fill:#EBF3ED;}
	.st8{fill-rule:evenodd;clip-rule:evenodd;fill:#1D8D40;}
	.st9{fill-rule:evenodd;clip-rule:evenodd;fill:#1E8E41;}
	.st10{fill:#FAFBFA;}
	.st11{fill-rule:evenodd;clip-rule:evenodd;}
	.st12{fill-rule:evenodd;clip-rule:evenodd;fill:#209044;}
	.st13{fill-rule:evenodd;clip-rule:evenodd;fill:#218F44;}
	.st14{fill-rule:evenodd;clip-rule:evenodd;fill:#219044;}
	.st15{fill-rule:evenodd;clip-rule:evenodd;fill:#219045;}
	.st16{fill-rule:evenodd;clip-rule:evenodd;fill:#228F45;}
	.st17{fill-rule:evenodd;clip-rule:evenodd;fill:#229145;}
	.st18{fill-rule:evenodd;clip-rule:evenodd;fill:#000100;}
	.st19{fill-rule:evenodd;clip-rule:evenodd;fill:#000200;}
	.st20{fill-rule:evenodd;clip-rule:evenodd;fill:#000201;}
	.st21{fill-rule:evenodd;clip-rule:evenodd;fill:#000301;}
	.st22{fill-rule:evenodd;clip-rule:evenodd;fill:#000401;}
	.st23{fill-rule:evenodd;clip-rule:evenodd;fill:#001600;}
	.st24{fill-rule:evenodd;clip-rule:evenodd;fill:#002400;}
	.st25{fill-rule:evenodd;clip-rule:evenodd;fill:#010301;}
	.st26{fill-rule:evenodd;clip-rule:evenodd;fill:#010401;}
	.st27{fill-rule:evenodd;clip-rule:evenodd;fill:#010501;}
	.st28{fill-rule:evenodd;clip-rule:evenodd;fill:#010902;}
]]>
</style>
<g>
	<path class="st10" d="M41.7,2.7c-0.6-0.4-0.7-1.3-1.6-1.5c-0.4-0.2-0.8-0.2-1.2-0.2c-11.7,0-23.4-0.1-35.1,0c-2.3,0-2.8,0.7-2.8,3
		c-0.1,4.4-0.1,8.8-0.2,13.2c0,0.6,0,1.2,0.2,1.8c0.3,1.9,0.1,3.7,0.1,5.6c0,2.8-0.2,5.7-0.1,8.5c0.1,4.4,0.1,8.7,0.1,13
		c0,0.8,0,1.6-0.1,2.4c0,0.5,0.1,0.9,0,1.4c0,2,0.1,4,0,6c0,0.1,0,0.3-0.1,0.4c-0.3,0.9-0.2,1.9,0,2.8c0.1,1,0.1,2,0,3
		c-0.2,1.7,0.5,2.5,2.2,2.5c2.9,0.1,5.8,0,8.7,0c0.9,0,1.8,0.1,2.8,0c5.4,0.4,10.9,0.1,16.3,0.3c0.5-0.1,1,0,1.5,0
		c1.7,0,3.3-0.1,5,0c1.7,0.1,3.1-0.3,4.1-1.8"/>
	<path class="st7" d="M41.6,49.5c-0.8-1.2-0.3-2.5-0.3-3.7c0-0.5,0.1-1-0.1-1.5c-0.1-0.5-0.1-1-0.1-1.5c-0.1-2.7-0.1-5.4,0-8.1
		c0-0.2,0-0.4,0-0.7c0-2.9-0.1-5.8,0.1-8.7c0.1-2.9-0.2-5.9-0.1-8.8c0.1-1.2,0.2-2.3,0.2-3.5c0.2-2.5,0.1-4.9,0-7.4
		c0-1-0.4-2.1,0.3-3"/>
	<path class="st1" d="M41.7,63.1c-0.4-0.5-0.3-1-0.3-1.6c-0.1-3.1,0.1-6.1-0.2-9.2c-0.1-1,0-2,0.5-2.9"/>
	<path class="st15" d="M41.7,49.4c-0.2,4.6,0,9.1,0,13.7c-0.6,1.6-1.4,2.2-3.1,2.2c-2,0-4,0-6,0c-1.3-0.7-2.4-1.7-3.7-2.5
		c-0.2-0.1-0.3-0.3-0.3-0.6c1.6-2.9,1.6-6,1.6-9.1c-0.2-1-0.8-1.6-1.8-1.7c-2.1-0.2-4.2-0.5-6.3-0.7c-0.7-0.1-1.3,0-1.4,0.7
		c-0.6,2.5-1.2,5.1-1,7.7c0.1,0.6,0.7,1.3,0.1,1.9c-1.5,0.6-3.1,0.9-4.6,1.5c-0.7,0.3-1.6,0.6-1,1.7c0.1,0.3,0.6,0.3,0.5,0.7
		c-4,0-8,0-11.9,0c-1.2,0-2-0.8-2-2.1c0-1.3,0.1-2.6,0.1-3.9c1.2-0.2,2.4-0.4,3.6-0.8c0.6-0.2,1.1,0,1.4,0.6c0.6,0.9,1,1.9,0.5,3
		c-0.3,0.7-0.1,1.5-0.1,2.2c0,0.3,0.2,0.4,0.5,0.4c0.2,0,0.4-0.1,0.6-0.2c1.6-1.2,2.1-3,2.8-4.8c0.6-1.4,1.2-2.9,1.5-4.4
		c0-0.2,0.2-0.4,0.3-0.5c1.2,0.1,1.6,1.2,2.4,1.8c0.5,0.4,0.9,1.1,1.7,0.7c0.8-0.6,0.4-1.3,0-1.9c-0.6-1.1-1.5-2.1-2.2-3.2
		c-0.1-0.8,0.7-0.9,1.1-1.4c1.5-1.5,2.4-3.5,3.3-5.4c0.3-0.7,0.2-1.2-0.5-1.6c-1.5-0.9-3.1-1.9-4.6-2.8c-0.8-0.5-1.6-0.5-2.3,0.2
		c-1.5,1.9-2.9,3.9-3.6,6.3c-0.2,0.6-0.4,1-1.1,1c-1.2,0.2-2.4-0.3-3.7,0c-0.5,0.1-1,0.2-1.4,0.5c-0.1,0-0.3,0-0.4-0.1
		c0-4-0.1-8-0.1-12c0-5.9,0-11.8,0-17.7c0-0.1,0.1-0.1,0.1-0.2C2,18,3.4,18.1,4.7,17.6c0.5-0.2,0.7,0.1,0.8,0.6
		c-0.2,1.4-0.7,2.7-1.1,4c-1,3.5-1.8,7-2.5,10.5c-0.3,1.7-0.3,3.4,0.2,5.1C2.8,38.7,3,38.8,3.6,38c0.7-0.9,1.2-1.9,1.7-2.9
		c0.7-1.2,1.3-2.4,2.1-3.5c1.2-1.6,2.7-2.6,4.8-2.5c0.8,0.1,1.4,0.3,2,0.9c1.5,1.8,2.8,3.8,4.3,5.6c0.4,0.5,0.8,1.1,1.4,1.5
		c0.6,0.5,1,0.4,1.1-0.4c0.1-0.9,0.1-1.8,0-2.6c-0.1-0.4-0.2-0.9,0.3-1.2c0.6,0.1,0.7,0.7,1,1.1c0.4,0.7,1,1.3,1.6,1.9
		c0.5,0.4,1.3,0.7,1.1,1.6c-1,1.5-2.2,2.8-3,4.4c-0.3,0.7-0.6,1.3,0.3,1.7c0.8,0.5,1.4,0.3,2-0.3c0.7-0.7,1.4-1.3,2-2.1
		c0.3-0.3,0.5-0.7,1.1-0.6c0.5,0.2,0.5,0.7,0.6,1.1c0.9,3,2.1,5.9,3.5,8.7c0.4,0.7,0.8,1.4,1.5,1.8c0.8,0.5,0.9-0.1,0.9-0.7
		c0-1-0.2-1.9-0.4-2.8c-0.2-1.3,0-2.6,0.7-3.8c0.6-1.1,1.3-1.4,2.6-1.2c1.2,0.2,2.2,0.7,3.3,1.1c0.7,0.2,1.2,0.2,1.6-0.5
		c0.3,1.2-0.1,2.5,0.1,3.8C41.7,48.6,41.5,49,41.7,49.4z"/>
	<path class="st24" d="M16.1,57.4c-0.7,0.5-1.2,0.2-1.7-0.3c-0.8-0.8-1.6-1.6-2.5-2.4c-0.7-0.3-0.6,0.3-0.7,0.6
		c-0.6,1.7-1.1,3.4-1.8,5c-0.6,1.5-1.3,3-2.3,4.2c-0.1,0.1-0.3,0.1-0.4,0.2c-0.9-0.5-0.6-1.3-0.6-2c0.1-1,0.3-2,0.2-3
		c-0.3-1.7-1.2-2.3-2.9-1.8c-0.6,0.2-1.2,0.5-1.8,0.6c-0.7,0.2-1.2,0-1.1-0.8c0.1-0.5-0.1-1,0.1-1.4c0-0.1,0-0.2,0-0.2
		c0.5-1.3,1.6-2.2,2.5-3.3c0.5-0.6,1.2-1.1,1.7-1.8c-1.5-0.3-3.1,0.2-4.2-1.2c-0.1-0.4-0.1-0.8,0-1.2c0.1,0,0.2,0,0.2,0
		c2.1-0.7,4.2-0.1,6.4,0.1c0.3,0,0.7,0.3,1.1,0.2C8,48.6,7.5,48.5,7,48.5c-0.3,0-0.8,0.1-0.8-0.5c0.4,0,0.8-0.1,0.7-0.7
		c-0.1-0.4,0-0.9,0.3-1.3c0.9-1.6,1.9-3.1,2.8-4.7c0.2-0.3,0.4-0.6,0.8-0.7c0.3,0,0.6,0,0.9,0.2c1.7,1.1,3.6,2,5.3,3.1
		c1.2,0.8,1.3,1.2,0.6,2.5c-0.7,1.5-1.8,2.8-2.5,4.3c-0.2,0.5-1.2,0.4-1.1,1.2c-0.7,0.1-0.9-0.6-1.4-0.8c-0.5-0.2-0.8-0.7-1.5-0.5
		c1.3,0.7,2.1,1.8,3,2.9C14.9,54.8,16,55.9,16.1,57.4z"/>
	<path class="st24" d="M14.6,65c-0.2-0.2-0.4-0.3-0.7-0.5c0.4-0.9,1.3-1.2,2.2-1.5c2.2-0.7,4.3-1.4,6.6-1.1c0.2,0,0.3,0,0.4-0.3
		c-1-0.8-2.4-0.1-3.5-0.7c0.5-0.6-0.3-1.1-0.2-1.7c0.2-2,0.4-4,0.8-5.9c0.3-1.6,0.8-1.9,2.4-1.8c2.2,0.2,4.3,0.6,6.5,0.8
		c0.5,0.1,1,0.2,1.4,0.5c0.4,0.6,0.2,1.3,0.2,2c-0.1,1.4-0.4,2.8-0.5,4.1c-0.1,1.3-0.4,2.4-1.4,3.3c-0.7,0-1.3-0.7-2.2-0.2
		c1.4,0.5,2.7,1.3,3.9,2.1c0.3,0.2,0.8,0.4,0.8,0.9c-4.4,0.1-8.7,0.2-13.1-0.1C17,65.2,15.8,65.2,14.6,65z"/>
	<path class="st17" d="M0.7,19c-0.2-0.4-0.1-0.8-0.1-1.2c0-4.9,0-9.7,0-14.6c0-1.7,0.8-2.4,2.7-2.4c8.5,0,16.9,0,25.4,0
		c3.4,0,6.8,0,10.2,0c0.6,0,1.3,0,1.8,0.4c-0.3,0.4-0.8,0.2-1.2,0.2c-0.3,0-0.6,0-0.8,0c-2.9,0-5.8,0-8.7,0c-2.5,0.1-4.9,0.1-7.4,0
		c-5.5,0.1-10.9,0.1-16.4,0c-0.5,0-1,0.1-1,0.7C5,4.3,4.7,6.6,5.1,8.9c0.1,0.5,0.4,1,0.6,1.5c0.4,0.8,0.2,1.3-0.6,1.6
		c-0.9,0.3-1.7,0.6-2.6,0.8c-1.1,0.3-1.6,0.9-1.4,2c0,0.2,0,0.5,0,0.7c-0.1,1.1,0.3,2.2-0.3,3.3C0.8,18.9,0.7,19,0.7,19z"/>
	<path class="st13" d="M0.7,49.9c1.2,0.7,2.6,0.8,3.9,0.7c0.3,0,0.6-0.1,0.7,0.3c0.1,0.2-0.2,0.4-0.4,0.6c-1.4,1.5-2.9,3.1-4.3,4.6
		C0.6,54.1,0.6,52,0.7,49.9z"/>
	<path class="st15" d="M0.7,56.4c0.2,2.2,0.2,2.2,2.4,1.4c2.6-0.9,3.6-0.1,3.6,2.7c0,0.9-0.1,1.7-0.2,2.6c-0.1,0.6-0.2,1.2,0.3,1.7
		c-0.8,0.1-1.4,0.2-1.1-1.1c0.2-0.8,0.1-1.7,0.4-2.6c0.3-0.8-0.2-1.8-0.9-2.5C4.5,58,3.7,58.7,3,58.9c-0.8,0.3-1.5,0.4-2.3,0.1
		C0.5,58.2,0.5,57.3,0.7,56.4z"/>
	<path class="st16" d="M39.6,1c0.3,0.1,0.7,0.3,1.1,0.2c0.7,0.2,0.8,1,1,1.5c0,3.2,0,6.5,0,9.7c0,0.3-0.1,0.5-0.1,0.8
		c-0.3-0.2-0.4-0.6-0.4-1c0-1.6-0.6-3.3,0-4.9c0.2-1-0.5-1.3-1.2-1.6c-0.4-0.8,0.2-1.8-0.1-2.6C39.9,2.4,39.2,1.8,39.6,1z"/>
	<path class="st25" d="M31.2,65.3c-1.5-1-2.9-2.3-4.7-2.7c-0.2-0.1-0.5-0.2-0.4-0.5c0-0.3,0.2-0.4,0.5-0.4c0.8-0.1,1.7-0.1,2.3,0.7
		c1.4,0.8,2.8,1.6,3.9,2.9C32.2,65.3,31.7,65.3,31.2,65.3z"/>
	<path class="st15" d="M22.7,1c2.4,0,4.7,0,7.1,0c0.6,0.9,0.8,2,1.1,3c0.5,1.5,0.8,3.1,1.9,4.3c-0.5,1.1-1.5,1.8-2.2,2.7
		c-0.4,0.5-0.8,0.9-1.1,1.4c-0.2,0.5-0.3,1,0.2,1.3c0.4,0.3,0.8-0.1,1.2-0.3c0.8-0.4,1.3-1.1,2-1.7c0.3-0.2,0.5-0.5,0.9-0.4
		c0.4,0.1,0.4,0.6,0.4,0.9c0.2,2.2,0.4,4.4,0.7,6.7c0.1,0.6-0.1,1.5,0.6,1.7c0.6,0.1,0.6-0.8,0.9-1.3c0.4-0.7,0.7-1.4,1-2.1
		c0.8-1.9,2.6-2.3,4.2-0.8c0.2,5.9,0.2,11.8,0,17.7c-0.5,0.1-0.7-0.4-1.1-0.5c-1.4-0.8-2.9-0.8-4.4-0.7c-0.9,0-1.9,0.4-2.8,0
		c-0.1-0.1-0.2-0.2-0.2-0.3c0.4-1.7-0.7-2.9-1.5-4.2c-0.5-0.8-1-1.7-1.5-2.6c-0.4-0.7-0.9-1.3-1.6-1.7c-0.1-0.1-0.3-0.2-0.3-0.4
		c0-0.2-0.1-0.3,0.1-0.4c0.8-0.7,0.7-1.6,0.4-2.5c-0.2-1.6-1.4-2.3-2.5-3.2c-1.9-1.5-4-2.7-6-4c-0.4-0.4-0.3-0.8,0.2-1.1
		c0.9-0.5,1.2-1.3,1.2-2.2c0.2-2.5,0.4-4.9,0.6-7.4C22.3,2.2,22.2,1.5,22.7,1z"/>
	<path class="st24" d="M40.8,33.4c0.4,0,0.4,0.5,0.7,0.6c0,0.2,0,0.3,0,0.5c-0.5,1.1-1.7,1.3-2.7,1.4c-0.9,0.2-1.9,0.3-3,0.4
		c1.5,1.4,2.6,2.7,3.8,4c0.7,0.8,1.5,1.6,1.9,2.5c0,0.5,0,1,0.1,1.4c0,0.9-0.2,1.4-1.3,0.9c-1-0.4-2-0.7-3.1-1c-1.8-0.6-3,0.1-3.4,2
		c-0.3,1.4-0.1,2.9,0.1,4.3c0.1,0.4,0.1,0.9,0.1,1.3c0,0.4,0.1,0.9-0.4,1c-0.4,0.2-0.8,0-1-0.4c-2.2-3.5-3.2-7.5-4.7-11.3
		c-0.1-0.4-0.2-1-0.8-0.4c-1,1-1.9,2-2.9,3c-0.7,0.7-1.4,0.9-2.2,0.2c1.3-3.4,3.7-5.9,6.4-8.2c-1.2,0.2-2,0.9-2.9,1.5
		c-0.3,0.2-0.4,0.6-0.9,0.4c0.3-1-0.7-1-1.1-1.4c-0.9-1.6-1.9-3.2-2.8-4.8c-0.2-0.3-0.4-0.7-0.6-1c-0.5-1.1-0.4-1.7,0.6-2.3
		c1.4-0.9,2.9-1.7,4.4-2.5c1.2-0.6,2.1-1.5,3.4-1.8c0.8,0.1,1.2,0.8,1.5,1.4c1,1.6,1.9,3.2,2.9,4.8c0.5,0.9,0.5,1.7,0.2,2.6
		c-0.4,0.6-1.3,0.7-1.8,1.4C34.6,33.2,37.7,33.1,40.8,33.4z"/>
	<path class="st24" d="M32.7,8.4c-1.2-0.9-1.5-2.2-1.8-3.5c-0.3-1.3-1-2.5-1.1-3.9c3,0,6,0,9.1,0c1,0.7,0.8,1.8,1.1,2.8
		c0,0.2,0.2,0.1,0,0.1c0,0,0,0,0-0.1c0-0.2-0.1-0.5,0.1-0.6c0.6,0.9,0,1.8,0,2.7c-0.6,0.8-1.8,0.5-2.6,1.2c0.4,0.3,0.8,0,1.1,0
		c1-0.2,2-0.5,2.9,0.2c0,0.6,0.2,1.2-0.2,1.7c-0.4,0.6,0.4,1,0.4,1.6c-0.1,0.9,0,1.7,0,2.6c0.3,1.1,0,2.1-0.1,3.2
		c-0.3-0.1-0.6-0.2-0.9-0.3c-1.7-0.6-2.4-0.3-3.1,1.4c-0.5,1.1-1,2.2-1.5,3.3c-0.1,0.3-0.3,0.7-0.6,0.6c-0.3-0.1-0.5-0.4-0.6-0.7
		c-0.4-1.2-0.3-2.5-0.5-3.8c-0.2-1.8-0.3-3.5-0.5-5.4c-0.6,0.2-0.8,0.6-1.2,1c-0.6,0.5-1.1,1-1.7,1.4c-0.5,0.4-1.2,0.9-1.7,0.5
		c-0.5-0.5-0.4-1.3,0-2c0.4,0.5,0.5,0,0.7-0.2c1.4-1.4,2.7-2.9,4.5-4C33.7,7.7,33.3,8.5,32.7,8.4z"/>
	<path class="st14" d="M41.5,43c-2-2.1-4-4.2-5.9-6.4c-0.1-0.1-0.2-0.3-0.2-0.4c0.1-0.3,0.4-0.2,0.6-0.2c1.2,0,2.5-0.2,3.7-0.4
		c0.7-0.2,1.3-0.5,1.9-1C41.6,37.4,41.6,40.2,41.5,43z"/>
	<path class="st24" d="M28.8,20.6c0.8,1.1,0.3,2-0.5,2.9c-0.6,0.1-1.1-0.2-1.7-0.3c-2.3-0.9-4.4-2.2-6.8-3.5
		c0.4,2.5,0.5,4.7,1.1,6.9c0,0.4-0.3,0.4-0.5,0.6c-1.3,0.8-1.5,1.4-0.6,2.7c0.5,0.8,0.9,1.6,1.4,2.4c0.2,0.3,0.4,0.5,0.2,0.9
		c-0.4,0.9,0.2,1.8,0,2.7c-0.1,0.4,0,0.9-0.1,1.3c-0.2,1.1-0.7,1.2-1.5,0.5c-1.5-1.4-2.5-3.2-3.8-4.8c-0.5-0.6-0.9-1.3-1.4-1.9
		c-1.6-1.9-3.8-2-5.7-0.3c-1.4,1.3-2.3,3-3.2,4.6c-0.6,1-1,2.2-1.8,3.1c-0.9,1-1.2,1-1.9-0.2C2,33,3.6,28.1,4.9,23.1
		C5.4,21.4,6,19.7,6.4,18c-0.5-0.3-0.7,0.3-1.1,0.2c-0.1-0.6-0.5-0.3-0.8-0.2c-1.2,0.3-2.5,0.6-3.7,0.9c0-1.2,0-2.3,0-3.5
		c2.9-1.2,5.9-2.5,9.2-2.1c0.6,0.1,1.4,0.4,1.5-0.4c0.1-0.7-0.9-0.5-1.4-0.6C8.7,12.1,7.4,12,6,12c-0.4,0-0.7,0.1-1-0.2
		c0.5-0.2,0.9-0.5,0.4-1.2c-0.3-0.4-0.4-1-0.6-1.5C5,7,5.3,5,5.4,2.9c0-0.7,0-1.4,0.6-1.9c5.6,0,11.1,0,16.7,0
		c-0.3,3.2-0.6,6.5-0.8,9.7c-0.1,0.9-0.5,1.6-1.3,1.9c-0.8,0.3-0.3,0.5-0.1,0.8c-0.3,0.3-0.6,0.1-0.8-0.1c-0.8-0.7-1.8-0.5-2.8-0.6
		c-0.2,0-0.5,0-0.6,0.3c-0.1,0.4,0.2,0.5,0.5,0.5c4.2,1.1,7.5,3.7,10.9,6.2c0.4,0.3,0.6,0.6,0.9,1C28.7,21,28.7,20.6,28.8,20.6z"/>
	<path class="st19" d="M5.3,18.2c0.1-0.2,0.2-0.5,0.4-0.7c0.2-0.2,0.6-0.4,0.9-0.2c0.5,0.2,0.1,0.6,0.1,0.8
		c-0.8,2.7-1.7,5.5-2.4,8.2c-0.9,3.8-2,7.5-2.2,11.4c0,0.1-0.2,0.3-0.2,0.4c-0.8-2-0.6-4.1-0.2-6.1C2.6,27.4,3.7,22.8,5.3,18.2z"/>
	<path class="st18" d="M21.3,33.2c-0.6-1-1.2-2.1-1.9-3.1c-1-1.3-0.5-3,1.2-3.2c0.1,0,0.2-0.2,0.2-0.2c0-0.2,0-0.4,0.1-0.4
		c1.9-1,3.4-2.7,5.6-3.1c0.6,0,1.2,0,1.7,0.5c0.1,0.1,0.2,0.2,0.2,0.2c-2.3,1.8-5,2.9-7.4,4.4c-1.2,0.8-1.3,1-0.6,2.3
		c0.9,1.6,1.9,3.1,2.8,4.7c0.2,0.3,0.6,0.6,0.3,1C22.6,35.4,21.9,34.3,21.3,33.2z"/>
	<path class="st20" d="M30.5,53c-2.8-0.4-5.5-0.7-8.3-1.1c-0.9-0.1-1.6,0.1-1.7,1.2c-0.2,1.7-0.4,3.5-0.7,5.2
		c-0.1,0.4,0.2,0.9-0.5,1.1c-0.4-0.9-0.1-1.8,0-2.7c0.1-1.8,0.5-3.5,0.8-5.2c0.1-0.8,0.7-1.3,1.5-1.2c2.5,0.3,5,0.6,7.6,0.9
		C30.3,51.3,30.4,52.2,30.5,53z"/>
	<path class="st18" d="M24.7,37.7c0.9-1,2.1-1.6,3.2-2.3c0.4-0.3,0.6-0.3,0.9,0.1c0.2,0.3,0.3,0.6-0.1,0.9c-2.9,1.8-4.9,4.4-6.3,7.5
		c0,0.1-0.2,0.1-0.3,0.1c-1-0.3-1-0.9-0.6-1.7C22.3,40.6,23.3,39,24.7,37.7z"/>
	<path class="st21" d="M15.1,50.9c-0.3-0.5,0.1-0.7,0.3-1c0.7-1.2,1.4-2.4,2.1-3.6c0.4-0.7,0.4-1.3-0.4-1.8
		c-2.1-1.2-4.2-2.5-6.2-3.7c0.6-0.7,1.3-0.9,2.2-0.3c1.7,1.1,3.4,2,5.1,3c0.6,0.4,0.9,1,0.6,1.6C17.6,47.1,16.7,49.2,15.1,50.9z"/>
	<path class="st20" d="M19.7,61c1.1-0.1,2.3-0.1,3.4,0.2c0.4,0.1,0.7,0.2,0.6,0.7c-0.1,0.4-0.4,0.6-0.8,0.5
		c-2.3-0.5-4.4,0.3-6.6,0.9c-0.9,0.2-1.5,0.9-2.4,1.3c-0.8-0.9-0.4-1.6,0.5-2C16.1,61.8,17.9,61.2,19.7,61z"/>
	<path class="st22" d="M27.1,40.8c0-0.4,0-0.8,0.4-0.8c0.5,0,0.4,0.5,0.5,0.8c1.5,3.9,2.4,8,4.8,11.5c0.2,0.3,0,0.3-0.2,0.3
		c-1.4-1-2-2.6-2.6-4.1C29,45.9,28.1,43.3,27.1,40.8z"/>
	<path class="st19" d="M16.1,57.4c-0.8-1.5-1.7-2.9-2.8-4.2c-0.6-0.7-1.2-1.5-2.1-1.9c-0.3-0.1-0.7-0.3-0.5-0.8
		c0.3-0.5,0.7-0.4,1-0.1c0.8,0.5,1.6,1,2.3,1.7c1.2,1,2,2.4,2.7,3.7C17,56.4,17.1,57.1,16.1,57.4z"/>
	<path class="st27" d="M7.2,64.6c0.6-1.3,1.5-2.5,1.9-3.9c0.6-2,1.3-4,2-5.9c0.1-0.3,0-0.7,0.5-0.7c0.4,0,0.3,0.4,0.3,0.6
		c-0.6,2.2-1.5,4.3-2.3,6.5C9.1,62.5,8.5,63.8,7.2,64.6z"/>
	<path class="st19" d="M6.2,48C7,48.3,8,48,8.7,48.7C8.9,48.9,9.2,49,9,49.3c-0.1,0.3-0.4,0.3-0.7,0.2c-2.3-0.8-4.7-1-7.1-0.6
		c-0.1,0-0.2-0.1-0.3-0.2c0.6-1.1,1.8-0.8,2.7-0.8C4.5,47.8,5.4,47.9,6.2,48z"/>
	<path class="st5" d="M13.2,48.5c-0.1,0.6-0.4,1.1-1.1,1.1c-0.6,0-1.1-0.3-1.1-1c-0.1-0.7,0.3-1.2,1-1.2
		C12.8,47.3,12.9,47.9,13.2,48.5z"/>
	<path class="st4" d="M10.8,47.2c-0.1,0.4-0.3,0.7-0.7,0.8c-0.5,0.1-0.8-0.3-0.9-0.8c-0.1-0.5,0.3-0.7,0.8-0.7
		C10.4,46.5,10.7,46.7,10.8,47.2z"/>
	<path class="st8" d="M24,60.3c-0.9,0-1.4-0.3-1.4-1.1c0-0.8,0.5-1.3,1.3-1.3c0.8,0,1.2,0.5,1.2,1.2C25.1,59.8,24.8,60.4,24,60.3z"
		/>
	<path class="st2" d="M27.6,59.5c0,0.7-0.5,0.9-1,0.9c-0.5,0-0.8-0.3-0.8-0.8c0-0.6,0.3-1,0.9-1C27.2,58.6,27.5,58.9,27.6,59.5z"/>
	<path class="st11" d="M5,11.8c2.1-0.3,4.2,0.1,6.3,0.2c0.5,0,0.7,0.2,0.7,0.7c0,0.5-0.1,0.9-0.7,1c-0.2,0-0.5,0.1-0.7,0
		c-2.7-0.7-5.1,0.5-7.5,1.1c-0.8,0.2-1.5,0.6-2.3,0.6c-0.1-2.2-0.1-2.3,2-2.9C3.5,12.2,4.3,12,5,11.8z"/>
	<path class="st26" d="M6,1C5.8,3.5,5.5,6,5.3,8.5c0,0.3,0.3,0.8-0.5,0.6C4.2,7.4,4.6,5.7,4.6,4c0-0.7,0.2-1.3,0.2-2
		C4.8,1.1,5.1,0.8,6,1z"/>
	<path class="st28" d="M40.1,3.1c0,0.3-0.1,0.5-0.1,1.1C39.6,2.9,39.2,2,38.9,1c0.2,0,0.5,0,0.7,0C39.8,1.7,40.1,2.3,40.1,3.1z"/>
	<path class="st25" d="M41.4,7.2C40.2,7,39,7,37.9,7.5c-0.4,0.2-0.7,0.2-0.9-0.3c-0.2-0.5,0.1-0.7,0.6-0.8c0.8-0.2,1.7-0.5,2.5-0.7
		C41.2,5.6,41.8,6,41.4,7.2z"/>
	<path class="st18" d="M28.8,20.6c-0.2,0.5-0.2,0.5-0.3,0.4c-2.9-2.8-6.5-4.7-10-6.6c-0.6-0.3-1.3-0.4-1.9-0.4
		c-0.7,0-0.8-0.4-0.7-0.9c0-0.7,0.4-0.6,1-0.6c1.3,0,2.6,0.1,3.6,1c2.6,1.5,5.2,3.1,7.5,5.2C28.5,19.2,28.9,19.8,28.8,20.6z"/>
	<path class="st19" d="M40.8,33.4c0,0.2-0.1,0.4-0.4,0.3c-2.4-0.4-4.8,0.1-7.2,0.1c-0.5,0-1,0.4-1.4,0.6c-0.4,0.2-0.7,0.2-0.9-0.2
		c-0.2-0.4,0.1-0.6,0.4-0.7c0.7-0.2,1.1-0.9,1.9-0.9c2,0.1,3.9-0.4,5.9-0.1C39.8,32.7,40.3,32.9,40.8,33.4z"/>
	<path class="st22" d="M32.7,8.4c0.2-0.2,0.5-0.5,0.7-0.6c0.5-0.1,1.2-0.7,1.5-0.1c0.4,0.7-0.6,0.7-0.9,0.9
		c-1.6,1.3-3.2,2.8-4.5,4.4c-0.3-0.2-0.1-0.6-0.2-0.8C30.2,10.7,31.4,9.5,32.7,8.4z"/>
	<path class="st6" d="M28.1,34.3c-0.8,0.5-1.5,0.2-2.1-0.4c-0.6-0.7-0.4-1.7,0.4-2.1c0.8-0.4,1.8-0.1,2.3,0.7
		C29,33.2,28.9,33.8,28.1,34.3z"/>
	<path class="st23" d="M28.1,34.3c0.6-0.7,0.6-1.3,0-2c-0.5-0.6-1.2-0.5-1.8-0.2c-0.6,0.4-0.8,1.1-0.4,1.8c0,0.2-0.1,0.4-0.3,0.1
		c-0.6-0.7-0.3-1.8,0.7-2.5c0.8-0.5,1.7-0.1,2.6-0.4c0.4,1.4,0.4,1.4,1.9,1c0.6,0.5,0,0.7-0.3,0.9c-0.7,0.3-1.4,0.6-1.8,1.3
		C28.5,34.6,28.2,34.5,28.1,34.3z"/>
	<path class="st3" d="M30.7,32.1c-0.4,0.2-0.7,1.1-1.3,0.6c-0.5-0.4-1-0.8-0.5-1.6C30.1,30.4,30.7,30.7,30.7,32.1z"/>
	<path class="st8" d="M36.5,6c-0.7-0.1-1.1-0.5-1-1.2c0-0.6,0.4-1,1-1c0.8,0,1,0.6,1,1.2C37.6,5.6,37,5.9,36.5,6z"/>
	<path class="st0" d="M35,5.7c-0.1,0.5-0.5,0.7-0.9,0.7c-0.4,0-0.7-0.4-0.7-0.8c0-0.4,0.4-0.7,0.8-0.7C34.7,4.8,34.9,5.2,35,5.7z"/>
	<path class="st12" d="M26.6,23c-1.6,0.9-3.1,1.9-4.7,2.8c-0.4,0.2-0.8,0.4-1.1,0.7c-0.3,0-0.4-0.1-0.5-0.4c-0.3-2-0.6-4.1-0.9-6.1
		c0-0.3-0.2-0.6,0.1-0.8c0.2-0.1,0.5,0.1,0.6,0.2C22.3,20.9,24.5,21.9,26.6,23z"/>
	<path class="st12" d="M14.1,8.5c0,1-1,2.1-2.1,2.1c-1.1,0-2.1-0.9-2.1-2c0-1.1,0.9-2.1,2-2.1C13,6.4,14.1,7.4,14.1,8.5z"/>
	<path class="st9" d="M16.4,10.3c-0.8,0-1.6-0.7-1.5-1.5c0.1-0.9,0.6-1.4,1.6-1.4c0.9,0,1.4,0.6,1.4,1.4C18,9.6,17.3,10.3,16.4,10.3
		z"/>
</g>
</svg>
