<?xml version="1.0" encoding="utf-8"?>
<!-- Generator: Adobe Illustrator 16.0.0, SVG Export Plug-In . SVG Version: 6.00 Build 0)  -->
<!DOCTYPE svg PUBLIC "-//W3C//DTD SVG 1.1//EN" "http://www.w3.org/Graphics/SVG/1.1/DTD/svg11.dtd">
<svg version="1.1" id="Layer_1" xmlns="http://www.w3.org/2000/svg" xmlns:xlink="http://www.w3.org/1999/xlink" x="0px" y="0px"
	 width="59.3px" height="91px" viewBox="0 0 59.3 91" style="enable-background:new 0 0 59.3 91;" xml:space="preserve">
<style type="text/css">
<![CDATA[
	.st0{fill-rule:evenodd;clip-rule:evenodd;fill:#060000;}
	.st1{fill-rule:evenodd;clip-rule:evenodd;fill:#3A0000;}
	.st2{fill-rule:evenodd;clip-rule:evenodd;fill:#070000;}
	.st3{fill-rule:evenodd;clip-rule:evenodd;fill:#090000;}
	.st4{fill-rule:evenodd;clip-rule:evenodd;fill:#3E0000;}
	.st5{fill-rule:evenodd;clip-rule:evenodd;fill:#710000;}
	.st6{fill-rule:evenodd;clip-rule:evenodd;fill:#710100;}
	.st7{fill-rule:evenodd;clip-rule:evenodd;fill:#720000;}
	.st8{fill-rule:evenodd;clip-rule:evenodd;fill:#720100;}
	.st9{fill-rule:evenodd;clip-rule:evenodd;fill:#730000;}
	.st10{fill-rule:evenodd;clip-rule:evenodd;fill:#750100;}
	.st11{fill-rule:evenodd;clip-rule:evenodd;fill:#440000;}
	.st12{fill-rule:evenodd;clip-rule:evenodd;fill:#490100;}
	.st13{fill-rule:evenodd;clip-rule:evenodd;fill:#100000;}
	.st14{fill-rule:evenodd;clip-rule:evenodd;fill:#100100;}
	.st15{fill-rule:evenodd;clip-rule:evenodd;fill:#120000;}
	.st16{fill-rule:evenodd;clip-rule:evenodd;fill:#140000;}
	.st17{fill-rule:evenodd;clip-rule:evenodd;fill:#160200;}
	.st18{fill-rule:evenodd;clip-rule:evenodd;fill:#4A0000;}
	.st19{fill-rule:evenodd;clip-rule:evenodd;fill:#4A0100;}
	.st20{fill-rule:evenodd;clip-rule:evenodd;fill:#170000;}
	.st21{fill-rule:evenodd;clip-rule:evenodd;fill:#190100;}
	.st22{fill-rule:evenodd;clip-rule:evenodd;fill:#4D0200;}
	.st23{fill-rule:evenodd;clip-rule:evenodd;fill:#4E0000;}
	.st24{fill-rule:evenodd;clip-rule:evenodd;fill:#500000;}
	.st25{fill-rule:evenodd;clip-rule:evenodd;fill:#550000;}
	.st26{fill-rule:evenodd;clip-rule:evenodd;fill:#8A0000;}
	.st27{fill-rule:evenodd;clip-rule:evenodd;fill:#570000;}
	.st28{fill-rule:evenodd;clip-rule:evenodd;fill:#570100;}
	.st29{fill-rule:evenodd;clip-rule:evenodd;fill:#580000;}
	.st30{fill-rule:evenodd;clip-rule:evenodd;fill:#200000;}
	.st31{fill-rule:evenodd;clip-rule:evenodd;fill:#201616;}
	.st32{fill-rule:evenodd;clip-rule:evenodd;fill:#5B0807;}
	.st33{fill-rule:evenodd;clip-rule:evenodd;fill:#5E0000;}
	.st34{fill-rule:evenodd;clip-rule:evenodd;fill:#C32A00;}
	.st35{fill-rule:evenodd;clip-rule:evenodd;fill:#C32B00;}
	.st36{fill-rule:evenodd;clip-rule:evenodd;fill:#C3340B;}
	.st37{fill-rule:evenodd;clip-rule:evenodd;fill:#C42C00;}
	.st38{fill-rule:evenodd;clip-rule:evenodd;fill:#C42D00;}
	.st39{fill-rule:evenodd;clip-rule:evenodd;fill:#C42E00;}
	.st40{fill-rule:evenodd;clip-rule:evenodd;fill:#C42E01;}
	.st41{fill-rule:evenodd;clip-rule:evenodd;fill:#2A0000;}
	.st42{fill-rule:evenodd;clip-rule:evenodd;fill:#2B0000;}
	.st43{fill-rule:evenodd;clip-rule:evenodd;fill:#320000;}
	.st44{fill-rule:evenodd;clip-rule:evenodd;fill:#330000;}
	.st45{fill-rule:evenodd;clip-rule:evenodd;fill:#340303;}
	.st46{fill-rule:evenodd;clip-rule:evenodd;fill:#6A0200;}
	.st47{fill-rule:evenodd;clip-rule:evenodd;fill:#6E0000;}
	.st48{fill-rule:evenodd;clip-rule:evenodd;fill:#020000;}
	.st49{fill-rule:evenodd;clip-rule:evenodd;fill:#030000;}
]]>
</style>
<g>
	<path class="st39" d="M58.8,64.1c0.1,3,0.1,6,0.1,9c0,4,0.1,8,0.1,12c0,1.4,0.2,2.9-0.6,4.2c-0.6,1-1.6,1.4-2.5,1.4
		c-3.9,0.1-7.7,0-11.6-0.1c-0.3-0.2-0.6-0.2-0.9-0.4c-0.7-0.5-1.6-0.9-2-1.7c-0.1-0.4,0.1-0.7,0.4-0.9c0.8-0.7,1.1-1.6,1.2-2.7
		c0.1-2.4,0.5-4.8,0.9-7.2c0.1-0.9,0.2-1.8-0.2-2.7c-0.2-1.5-1.2-2.2-2.7-2.4c-2.3-0.3-4.6-0.4-6.9-0.7c-0.7-0.1-1.3-0.1-2-0.3
		c-2-0.4-2.8,0.2-2.9,2.2c-0.2,1.7-0.6,3.4-0.8,5.1c-0.2,0.4-0.2,0.9-0.3,1.4c-0.2,1.6-0.3,3.2,0.4,4.8c0.2,0.4,0.4,0.9,0.2,1.4
		c-0.5,0.5-1.3,0.6-1.9,0.8c-2.7,0.7-5.4,1-7.5,3.1c-2.4,0.1-4.8,0.1-7.2,0c-0.2-0.7,0.3-1.3,0.6-1.9c1.1-2.2,1.9-4.5,2.8-6.7
		c0.2-0.5,0.4-1,0.5-1.5c0.4-0.9,0.4-1.9,1.1-2.6c0.6-0.3,0.9,0.2,1.2,0.5c0.9,1,1.8,1.9,2.8,2.8c0.6,0.6,1.3,0.8,2,0.3
		c1-0.8,1.1-1.2,0.5-2.3c-0.8-1.3-1.6-2.7-2.6-3.8c-0.3-0.5-0.9-0.9-1-1.6c0-0.6,0.4-0.9,0.8-1.2c0.4-0.2,0.8-0.5,1.1-0.9
		c0.8-0.8,1.4-1.8,1.9-2.9c0.9-1.7,1.9-3.3,2.8-5.1c0.3-0.9,0-1.5-0.8-1.9c-2.5-1.3-4.7-3.1-7.2-4.3c-1.5-0.7-1.7-0.8-3,0.3
		c-1.1,0.6-1.6,1.7-2.1,2.7c-0.8,1.5-1.6,3-2.6,4.4c-0.6,0.9-1,1.7-0.5,2.8c0.1,0.2,0.1,0.5-0.2,0.6c-0.3,0.2-0.6,0.1-1,0.1
		c-1.3-0.3-2.6-0.1-3.9-0.1c-1.2-0.2-2.4,0.3-3.6,0.2c-0.3-0.3-0.1-0.6-0.1-0.9c0.7-1,0.3-2.2,0.3-3.2c0-1-0.2-2,0-3
		c0.1-0.6-0.2-1.1-0.3-1.6c0-3.4,0-6.7,0-10.1C1.8,49.2,1.9,49.7,2,50c0.3,0.7,0.3,1.4,0.4,2.1c0.1,0.6,0.3,1.2,0.5,1.7
		C3.6,55,4.2,55.1,5.1,54c0.9-1.1,1.5-2.4,2.1-3.6c1.1-2.2,2.4-4.5,4-6.4c1.5-1.8,3.4-3,5.9-3c1.1,0,1.9,0.4,2.7,1.1
		c1.1,1,1.9,2.2,2.8,3.4c1.6,2.2,3.2,4.3,4.8,6.4c0.3,0.4,0.7,0.8,1.1,1.1c0.9,0.8,1.5,0.6,1.7-0.6c0.2-1.6,0.2-3.3,0-4.9
		c-0.1-0.5-0.3-1.2,0.7-0.9c0.6,0.7,1.1,1.6,1.6,2.4c0.6,1,1.4,1.8,2.4,2.3c0.4,0.2,0.9,0.5,1.1,1c-0.1,0.7-0.7,1.1-1.1,1.7
		c-1.2,1.8-2.7,3.4-3.6,5.4c-0.6,1.4-0.5,1.7,0.6,2.6c0.9,0.6,1.8,0.4,2.6-0.3c1.3-1.1,2.3-2.5,3.5-3.7c0.4-0.4,0.7-0.9,1.4-0.4
		c0.7,0.9,0.8,2.1,1.3,3.1c0.1,0.6,0.3,1.1,0.5,1.7c0.5,1.7,1.3,3.2,1.9,4.8c0.6,1.5,1.1,3,2,4.4c0.6,1.1,1.3,2.1,2.4,2.8
		c1.1,0.2,1.4-0.1,1.3-1.1c-0.2-1.7-0.4-3.3-0.5-5c-0.1-1.6,0.1-3.1,0.8-4.5c0.9-1.7,2.1-2.3,4-1.8C54.9,62.7,56.8,63.5,58.8,64.1z"
		/>
	<path class="st26" d="M30.7,46.8c-0.6-0.3-0.4,0.2-0.4,0.5c0.4,1.6,0.2,3.3,0.1,4.9c0,0.6-0.1,1.5-0.8,1.7
		c-0.7,0.2-1.2-0.4-1.6-0.8c-2-2.2-3.5-4.6-5.3-6.9c-0.8-1-1.6-2.1-2.4-3.1c-2.2-3-5.8-1.8-8,0.2c-1.7,1.5-2.8,3.5-3.9,5.5
		c-1,1.8-1.8,3.7-3,5.3c-1,1.4-2.1,1.7-2.8-0.1c-0.3-4,0.9-7.9,1.7-11.7c0.5-2.6,1.3-5.1,1.9-7.7c0.2-1.2,0.9-2.2,1-3.4
		c0.1-0.6,0.4-1.3,0.5-1.9c0.3-1.2,0.7-2.4,1-3.7c0.1-0.3,0.4-0.7,0.1-1c-0.3-0.3-0.7,0.1-1,0.2c-0.1,0-0.2,0.1-0.3,0.1
		c-1.5,0.5-3,1-4.6,1.2c-0.5,0.1-1.1,0.3-1.5-0.3c0-1.6,0-3.1,0-4.7c0.2-0.7,0.9-0.7,1.4-0.9c1.3-0.4,2.6-0.8,3.9-1.2
		c1.2-0.3,2.3-0.6,3.5-1c0.1,0,0.3-0.1,0.4-0.1c1.1,0,2.3,0,3.4,0c0.5,0,1.1,0,1.6,0c0.9,0,1.2-0.3,0.7-1.1c-0.7-0.3-1.4-0.1-2-0.2
		c-0.2,0-0.4,0-0.6-0.1c-0.8-0.2-1.5-0.1-2.3-0.2c-0.9-0.3-2,0-2.9-0.5c-1-1-1.8-2.2-1.8-3.7c0.6-1.9,0.5-3.9,0.7-5.9
		c0-0.4,0-0.8,0-1.2c0.1-1.3,0.2-2.6,0.4-3.9C7.8,1,7.8,0.9,8,0.8c0.1,0,0.2,0,0.3,0c2.8,0.1,5.7,0,8.5,0.1c4.9,0,9.7,0,14.6,0
		c1.3,0,1.5,0.2,1.4,1.4c-0.1,2.1-0.4,4.1-0.6,6.2c-0.1,1.6-0.3,3.3-0.4,4.9c-0.1,2.1-0.9,3.7-2.9,4.5c-0.1,0.1-0.2,0.2-0.3,0.2
		c-0.9-0.3-1.9-0.6-2.9-0.5c-0.6,0-1.2,0-1.8,0c-0.3,0-0.7-0.1-0.7,0.4c0,0.4,0.3,0.5,0.6,0.6c0.6,0.2,1.2,0,1.8,0.2
		c0.8,0.2,1.4,0.6,2.1,1c1,0.6,2,1.1,3,1.7c1.8,1.2,3.7,2.2,5.4,3.4c2.1,1.4,4.1,3,5.8,4.9c0.5,1.7,0.2,2.4-1.4,2.8
		c-0.9-0.2-1.8,0-2.8-0.1c-0.2-0.4-0.5-0.7-1-0.9c-2.9-1.1-5.4-2.7-8-4.3c-0.1-0.1-0.3-0.2-0.6-0.1c0.5,3.3,0.7,6.7,1.7,9.9
		c0,0.7-0.6,0.7-1,1c-1.2,0.7-1.5,1.4-1.2,2.7c1.2,1.6,2.1,3.4,3.1,5.1C30.8,46.3,31,46.6,30.7,46.8z"/>
	<path class="st39" d="M28.6,17.9c0-0.3,0-0.6,0.4-0.6c1.8-0.4,2.4-1.7,2.5-3.3c0.2-3.6,0.5-7.3,1-10.9c0-0.1,0-0.2,0-0.2
		C32.5,1,32.5,1,30.7,1c-7.1,0-14.2,0-21.3,0C9,0.9,8.6,1.1,8.2,0.8c7.3,0,14.6,0,21.9-0.1c8.3,0,16.7,0,25,0c0.4,0,0.8-0.1,1.2,0.2
		c-0.4,0.6-1.1,0.4-1.7,0.4c-3.3,0-6.6,0-9.9,0c-1.4,0-1.5,0.1-1.1,1.5c0.5,1.6,1,3.1,1.4,4.7c0.3,1.3,1,2.2,2,3
		c0.2,0.6-0.2,0.9-0.6,1.3c-1.5,1.4-2.9,2.8-4.1,4.4c-0.4,0.5-0.3,1-0.4,1.6c-0.1,1.3,0.3,1.6,1.4,1c1.4-0.6,2.4-1.7,3.5-2.6
		c0.3-0.2,0.5-0.5,0.8-0.7c0.8-0.5,1.2-0.4,1.3,0.6c0.3,2.7,0.4,5.3,0.8,8c0.2,1.4,0.2,2.9,0.6,4.3c0.1,0.3,0.1,0.6,0.4,0.7
		c0.4,0.1,0.6-0.3,0.7-0.6c0.6-1.4,1.4-2.8,2-4.2c1.3-2.9,1.6-3.1,4.7-2.7c0.2,0,0.4,0,0.6,0.1c-0.2,2.1,0.4,4.2,0,6.3
		c-0.2,1.1,0.2,2.2,0.2,3.3c0,3.4-0.2,6.7-0.2,10.1c0,2.3,0.2,4.6-0.1,6.9c-0.5,0-0.4-0.4-0.5-0.7c-0.2-1.1-1-1.3-1.9-1.4
		c-2.3-0.3-4.7-0.1-7,0c-0.2,0-0.5,0-0.7,0c-0.9,0-1.3-0.2-1-1.2c0.2-0.8,0-1.6-0.4-2.4c-1.5-2.4-2.9-4.7-4.2-7.2
		c-0.4-0.8-1-1.4-1.8-1.9c-0.3-0.3-0.9-0.4-0.9-1c1.6-0.7,1.8-1.1,1.2-2.6c-0.1-0.1-0.2-0.3-0.2-0.4c-0.2-3-2.5-4.5-4.6-6
		c-1.7-1.2-3.5-2.4-5.3-3.4C30.5,19.2,29.4,18.8,28.6,17.9z"/>
	<path class="st26" d="M58.5,47.5c0.1,0.2,0,0.5,0.2,0.7c0.2,0.2,0.2,0.4,0,0.6c0,1-0.6,1.4-1.5,1.6c-1.6,0.4-3.2,0.5-4.9,0.6
		c-0.3,0-0.8-0.1-1,0.3c-0.2,0.4,0.3,0.6,0.5,0.9c1.9,2,3.8,4,5.6,6.1c0.7,0.8,1.2,1.7,1.2,2.8c0.2,1.1,0.2,2.1,0,3.2
		c-1,0.1-1.9-0.2-2.7-0.6c-1.1-0.5-2.3-0.9-3.5-1.1c-2.3-0.5-3.6,1.4-4,3.6c-0.4,2.3,0.1,4.7,0.4,7c0,0.2,0.1,0.5,0.1,0.7
		c0.1,1.6-0.5,1.9-1.9,1.2c-2.5-3.9-3.9-8.4-5.5-12.7c-0.4-0.8-0.7-1.7-1-2.6c-0.3-0.5-0.5-1.1-0.7-1.7c-0.2-0.9-0.5-0.4-0.8-0.1
		c-0.2-0.1-0.5-0.2-0.6,0.1c-0.7,1.1-1.8,1.8-2.5,2.8c-0.4,0.6-1,1.1-1.6,1.6c-0.9,0.7-1.8,0.8-2.7,0.1c0.7-2.9,2.6-5,4.3-7.3
		c0.6-0.9,1.5-1.5,2-2.4c0.6-0.6,1.4-1,2.2-1.4c0.3-0.2,0.8-0.4,0.5-0.8c-0.3-0.5-0.6,0-0.9,0.1c-0.7,0.4-1.4,0.8-2,1.2
		c-0.7,0.3-1.2,1-2,0.7c-0.9-0.9-2.2-1.3-3-2.4c-0.2-0.3-0.6-0.5-0.6-1c-0.3-0.3,0.9,0.2,0.2-0.5c-0.9-0.8-1.2-2-1.9-3
		c-0.7-1.3-1.6-2.5-2.2-4c0.1-0.9,0.5-1.6,1.3-2.2c3.3-2.3,7-3.9,10.4-6.1c0.4-0.2,0.9-0.2,1.2-0.4c1,0.5,1.6,1.3,2.1,2.2
		c1.2,2.4,2.6,4.6,4,6.9c0.7,1.1,0.9,2.3,0.3,3.5c0.5,0.3,1,0.1,1.5,0.1c0.1,0.1,0.1,0.2,0,0.3c-0.7,0.4-1.5,0-2.3,0.4
		c-0.2,0.1-0.5,0.3-0.7,0.5c-0.4,0.3-0.9,0.4-1.4,1c0.9-0.2,1.5-0.7,2.3-0.8c0.1,0,0.2,0,0.4,0c0.8,0.1,1.5-0.1,2.2-0.2
		c1.4,0,2.8-0.2,4.3-0.2c1.2,0,2.4,0.1,3.6,0.2C57.9,47,58.3,47.2,58.5,47.5z"/>
	<path class="st26" d="M21.9,71.8c-0.3,0.4-0.6,0.8-1.2,1c-0.4,0.1-0.7,0.5-0.8,0.9c-0.2,0.1-0.4,0-0.6-0.1
		c-0.7-0.3-1.3-0.9-2.1-1.2c-0.4-0.2-0.7-0.6-1.3-0.6c0.1,0.6,0.6,0.7,1,1c0.5,0.4,1.1,0.7,1.5,1.3c0.4,0.7,1.1,1.2,1.6,1.9
		c1.2,1.8,2.7,3.4,3.1,5.6c-0.8,0.7-1.6,0.5-2.3-0.2c-1-1.1-2.2-2-3.1-3.3c-0.1-0.2-0.3-0.3-0.6-0.3c-0.4-0.3-0.6-0.2-0.7,0.3
		c-0.2,0.8-0.5,1.6-0.8,2.3c-0.2,0.4-0.3,0.7-0.5,1.1c-0.8,2.7-2,5.2-3,7.8c-0.2,0.4-0.4,0.8-0.8,1.2c-0.7,0.1-1.4,0.1-2.2,0
		c-0.4-0.5-0.3-1.1-0.2-1.6C9.1,87.6,9.1,86.3,9,85c-0.1-2.5-1.7-3.4-4-2.6c-1.1,0.4-2.2,1.1-3.5,0.8c-0.3-1.3-0.1-2.7-0.1-4
		c0-0.5,0.4-0.8,0.6-1.1c1.3-1.5,2.5-3,3.9-4.4c0.3-0.3,0.8-0.6,0.9-1.2c-1-0.2-2-0.2-2.9-0.3c-0.3-0.1-0.6,0-0.8-0.1
		c-1.9-0.3-2.3-1.2-1.5-3.1c2.3-0.3,4.6-0.3,6.9,0.1c0.5,0,1,0,1.6,0c0.7,0,1.2,0.5,2.1,0.6c-0.6-0.5-1.1-0.7-1.5-1
		c-0.2-0.2-0.5-0.2-0.6-0.5c-0.7-1.2-0.3-2.3,0.4-3.4c1.2-1.9,2.3-3.8,3.4-5.7c0.4-0.6,0.8-1.2,1.5-1.4c1.3,0.2,2.3,1.1,3.4,1.7
		c2,1.1,4,2.1,5.9,3.4c0.7,0.4,1.2,1,1.2,1.8c-0.5,1.6-1.6,2.9-2.4,4.4C23,69.9,22.2,70.7,21.9,71.8z"/>
	<path class="st26" d="M58.8,21.6c-0.3,0.4-0.7,0.2-1.1,0.2c-2.1-0.4-2.8,0-3.7,2c-0.7,1.7-1.5,3.3-2.3,5c-0.2,0.4-0.4,1-1,0.9
		c-0.5-0.1-0.5-0.6-0.7-1c-0.6-2.2-0.6-4.4-0.9-6.6c-0.3-2-0.3-4-0.5-6c0-0.2,0-0.4-0.2-0.5c-0.3-0.1-0.4,0.2-0.6,0.3
		c-1,1-2.1,1.9-3.3,2.8c-0.3,0.3-0.7,0.5-1.1,0.7c-0.5,0.2-1.1,0.7-1.7,0.2c-0.6-0.5-0.2-1.1-0.1-1.7c1.5-2,3.4-3.6,5.1-5.4
		c0.5-0.6,1.1-1,1.8-1.5c0.2-0.2,0.6-0.3,1-0.6c-0.6,0-0.9,0.2-1.3,0.3c-0.4,0-0.8,0.4-1.3,0.3c-1.2-0.5-1.9-1.5-2.2-2.8
		c-0.5-2-1.1-3.9-1.8-5.8C42.8,1.3,43,0.9,44,0.9c4.1,0,8.2,0,12.3,0c0,0,0,0,0,0c0.5,0.3,0.6,0.8,0.7,1.3c0.1,0.5,0.3,0.9,0.8,1.1
		c0.5,0.6,0.6,1.2,0.5,1.9c-0.2,0.8-0.1,1.6,0.3,2.3C57.3,8,56,8.1,54.7,8.6c-0.3,0.2-0.7,0.1-0.9,0.6c0.7,0.2,1.2-0.3,1.8-0.3
		c1.1-0.2,2.1-0.4,3.2-0.1c0.2,1.1,0.1,2.1,0,3.2c-0.8,0.6,0.2,1.1,0.1,1.6C58.7,16.2,59.2,18.9,58.8,21.6z"/>
	<path class="st26" d="M43.5,90.2c0.2,0.2,0.5,0.3,0.7,0.5c-7.1,0-14.3,0.4-21.4-0.3c0-0.7,0.6-0.8,1.1-1c1.1-0.4,2.3-0.6,3.5-0.9
		c1.8-0.8,3.6-0.6,5.4-0.3c0.2,0,0.5-0.1,0.5-0.4c0-0.2-0.2-0.3-0.4-0.4c-0.5-0.1-1,0-1.4-0.2c-0.6-0.2-1.2,0-1.9-0.1
		c-0.4-0.1-0.9-0.1-1.1-0.6c-0.6-1.7-1.2-3.4-0.9-5.2c0.1-0.3-0.1-0.7,0.2-1c0.3,0.2,0.2,0.5,0.2,0.8c0.1-0.5,0.2-1.1,0.2-1.7
		c0.2-1.6,0.4-3.2,0.8-4.7c0.5-1.2,1.5-1.6,2.8-1.5c2.8,0.2,5.6,0.8,8.4,1.2c1.2,0.1,2.4,0,3.5,0.7c0.7,0.4,0.5,1.1,0.4,1.7
		c-0.3,3-0.9,6-1.1,9.1c-0.1,0.9-0.5,1.8-1.4,2.2c-0.4,0.2-0.3,0.4-0.2,0.7c-0.3,0.2-0.6,0.1-0.8,0c-0.8-0.3-1.7-0.1-2.5-0.4
		c0.5,0.5,1.2,0.5,1.8,0.8C40.9,90.1,42.1,90.3,43.5,90.2z"/>
	<path class="st39" d="M6.7,12.2c0.4,1.2,1,2.2,1.6,3.3c-0.8,0.7-1.8,0.7-2.6,1c-1.1,0.2-2.2,0.7-3.4,1c-0.4,0.1-0.9,0.4-1-0.3
		c0-4.3,0-8.6,0-12.9c0-0.4-0.1-0.9,0.1-1.3c0.4-1.4,1.5-2.2,3-2.3c0.8,0,1.7,0,2.5,0c0.4,2-0.2,3.9-0.2,5.9c-0.3,1.3-0.2,2.6,0,3.9
		C6.8,11.1,7.1,11.7,6.7,12.2z"/>
	<path class="st39" d="M1.5,83c1.3-0.1,2.5-0.7,3.7-1.1c2.3-0.8,4,0.5,4.1,2.9c0.1,1.9-0.1,3.8-0.3,5.7c-1.8,0-3.6,0-5.4,0.1
		c-0.3,0-0.6,0-0.9-0.3c-1.6-1.3-1.8-3-1.4-4.9C1.7,84.6,1.1,83.8,1.5,83z"/>
	<path class="st40" d="M1.5,83c0.4,1.4,0.2,2.7,0,4.1c-0.1,0.8,0,1.6,0.9,2.1c0.4,0.2,0.6,0.6,0.5,1.1c-1.1-0.6-1.6-1.5-1.6-2.8
		c0-23.1,0-46.2,0-69.2c0-4.6,0-9.3,0-13.9c0-0.4-0.2-0.9,0.2-1.3c0,4.8,0,9.7,0.1,14.5c0.5,1.1,0.5,2.2,0,3.3c0,1.7,0,3.3,0,5
		c0.2,0.3,0.3,0.6,0.3,1c0,0.6,0,1.3,0,1.9c0.1,3,0,6,0,9c0,2,0,3.9,0,5.9c0,0.5-0.1,1,0.2,1.4c0.2,0.4,0.1,0.8,0,1.2
		c-0.3,0.6-0.2,1.3-0.2,1.9c0,0.4,0,0.8-0.3,1.1c0,3.5,0,7.1,0,10.6c0.2,0.4,0.3,0.8,0.2,1.2c-0.2,1.7,0.1,3.5,0.1,5.2
		c0,0.4-0.1,0.7-0.3,1c0,0.3,0,0.7,0,1c0.2,0.2,0.1,0.5,0,0.7c0,0.1,0,0.2,0,0.2c0,2.1,0.1,2.3,2.3,2.4c1,0.1,2,0.3,3.1,0.3
		c0.3,0,0.6-0.1,0.7,0.2c0.1,0.3-0.2,0.5-0.4,0.7c-1.7,1.6-3.2,3.4-4.8,5.2c-0.8,0.9-1,1.8-0.9,2.8C1.5,81.6,1.5,82.3,1.5,83z"/>
	<path class="st39" d="M58.8,60.9c-0.3-1.5-1.4-2.5-2.3-3.6c-1.6-1.8-3.4-3.6-5.1-5.4c-0.3-0.3-0.8-0.5-0.6-0.9
		c0.2-0.3,0.7-0.4,1.1-0.4c1.8,0,3.5-0.2,5.2-0.5c0.8-0.2,1.5-0.5,1.7-1.4C58.8,52.8,58.8,56.9,58.8,60.9z"/>
	<path class="st8" d="M27.4,88.8c-1,0.3-2.1,0.7-3.1,0.9c-0.6,0.1-1,0.4-1.4,0.8c-1.2,0.1-2.4,0.1-3.6,0c0.3-1.1,1.2-1.5,2.1-1.8
		c1.7-0.6,3.4-1.4,5.3-1.5C27.4,87.5,27.5,88.1,27.4,88.8z"/>
	<path class="st6" d="M11.3,90.5c0.8-1.9,1.5-3.9,2.3-5.8c0.4-1.1,0.8-2.2,1.3-3.3c0.2,0.2,0.4,0.4,0.7,0.5c0,1.2-0.7,2.2-1.1,3.2
		c-0.7,1.9-1.7,3.6-2.5,5.4C11.7,90.6,11.5,90.6,11.3,90.5z"/>
	<path class="st36" d="M58.6,7.4c-0.9-0.2-1.1-0.7-0.7-1.5c0.4-0.9,0.2-1.8-0.2-2.6C56.9,2.7,57,2,57.1,1.2c1.2,0.4,1.8,1.4,1.8,2.4
		c0.1,1.3,0.3,2.6-0.1,3.9C58.7,7.5,58.6,7.5,58.6,7.4z"/>
	<path class="st29" d="M6.5,6.7c0-2,0.2-3.9,0.5-5.9c0.3,0,0.7,0,1,0c0,0,0,0.1-0.1,0.2C6.9,2.3,7.1,3.6,7.7,5c0,0.4,0,0.8,0,1.2
		C7.5,6.6,7.6,7,7.6,7.4c0,0.5-0.2,0.9-0.7,0.9c-0.6,0-0.4-0.5-0.5-0.9C6.4,7.2,6.3,6.9,6.5,6.7z"/>
	<path class="st18" d="M58.6,7.4c0.1,0,0.2,0,0.2,0c-0.2,0.4,0.2,0.8,0,1.2c-1.1,0.4-2.3,0.1-3.4,0.4c0.1-0.8-0.8-0.3-1-0.7
		C55.8,7.8,57.1,7.4,58.6,7.4z"/>
	<path class="st32" d="M57.1,1.2c0.3,0.7,0.1,1.5,0.5,2.2C57,3.8,57,3.1,56.9,2.8c-0.2-0.6-0.4-1.3-0.5-1.9
		C56.7,0.9,56.9,0.9,57.1,1.2z"/>
	<path class="st31" d="M58.9,13.5c-0.2-0.3-0.5-0.6-0.7-0.9c-0.4-0.7-0.1-0.8,0.6-0.7C58.8,12.4,59.2,12.9,58.9,13.5z"/>
	<path class="st7" d="M1.5,49.4c0-0.4,0-0.7,0-1.1c0.4-0.6,0.1-1.3,0.2-2c0.1-0.3,0.2-0.6,0.2-0.9c-0.1-0.4-0.1-0.8,0-1.1
		c0.8-2.9,1.3-5.9,2-8.8c0.2-0.8,0.2-1.7,0.8-2.3c0.6,0.5,1,1.1,1.6,1.5C5.7,37.8,5,41,4.2,44.2c-0.6,2.7-1,5.4-1.5,8.2
		c-0.1,0.6,0.5,1.2-0.1,1.7c-0.8-1.2-0.6-2.6-0.9-4C1.6,49.8,1.6,49.6,1.5,49.4z"/>
	<path class="st7" d="M43.7,75.1c-1.1,0.1-2.2-0.2-3.3-0.3c-3.1-0.3-6.1-1-9.2-1.2c-1-0.1-1.5,0.6-1.9,1.3c-0.5-0.4,0-1-0.2-1.5
		c0-0.1-0.2,0.1-0.1,0c0.1,0,0.1,0,0.1,0.1c0,0.2,0,0.5-0.3,0.5c0-2.1,1-2.9,3-2.5c2.3,0.5,4.6,0.5,7,0.8c1.2,0.1,2.4,0.2,3.5,0.5
		C43.4,73,43.7,74,43.7,75.1z"/>
	<path class="st9" d="M25.7,64.6c-0.3-1.5-1.7-1.9-2.8-2.6c-2.5-1.5-5.1-2.8-7.6-4.4c1.1-1.2,1.7-1.2,3-0.5c2.5,1.3,4.8,3.1,7.3,4.4
		c1.2,0.6,1.4,1.3,1,2.4C26.2,64,26.3,64.7,25.7,64.6z"/>
	<path class="st7" d="M36.2,55.2c-1,1.3-1.9,2.6-2.9,3.9c-0.6,0.8-0.9,1.7-1.2,2.6c-0.1,0.3-0.1,0.7-0.5,0.7c-1.5-1-1.7-2-0.3-4
		c1-1.5,2.2-2.9,3.2-4.4C35.3,54.2,35.7,54.8,36.2,55.2z"/>
	<path class="st8" d="M41.8,62.2c1.1,2.6,1.9,5.3,3.1,7.8c0.6,1.4,1.2,2.8,2.1,4.1c0.1,0.1,0.9,0.5,0.1,0.8c-2-1.6-3-3.9-4-6.2
		c-0.5-1.3-1.1-2.7-1.6-4c-0.3-0.7-0.6-1.3-0.6-2C41.2,62.6,41.5,62.4,41.8,62.2z"/>
	<path class="st9" d="M23,81.6c-0.1-0.1-0.4-0.1-0.4-0.2c-0.3-2.2-1.9-3.6-3-5.3c0.3-0.5,0.5-1.1,1.2-1c1.3,1.2,2.1,2.8,3,4.2
		C24.4,80.3,24.2,81.2,23,81.6z"/>
	<path class="st24" d="M27.4,88.8c-0.4-0.5-0.2-1.2-0.7-1.7c0.6-0.1,1.2-0.6,1.9-0.5c1,0.5,2.2,0,3.1,0.5c-0.2,0.2-0.5,0.2-0.7,0.5
		c0.6,0.5,1.8-0.1,2.2,0.9c-0.8,0.2-1.6-0.2-2.4-0.2C29.6,88.2,28.5,88.6,27.4,88.8z"/>
	<path class="st25" d="M36.2,55.2c-0.8,0-1.1-0.8-1.7-1.2c0.4-0.5,0.8-1,1.2-1.5c0.6-0.3,1.3-0.6,1.9-0.9c0.5,0.3,0.3,0.8,0.5,1.2
		C37.8,53.9,36.8,54.3,36.2,55.2z"/>
	<path class="st10" d="M1.5,69.1c0-0.2,0-0.5,0-0.7c1.1-0.6,2.3-0.5,3.6-0.5C5.9,68.2,6.7,68,7.5,68c0.5,0.4,1,0.7,1.1,1.3
		C6.3,69,3.9,69.2,1.5,69.1z"/>
	<path class="st0" d="M39.1,57.8c0-0.2,0-0.5,0.1-0.7c0.1-0.2,0.2-0.5,0.5-0.4c0.1,0,0.3,0.3,0.3,0.5c0.3,0.8,0.3,1.6,0.8,2.4
		c0,0.5,0.7,1.3-0.5,1.4C39.9,59.9,39.5,58.9,39.1,57.8z"/>
	<path class="st19" d="M40.8,88.6c0.2,0.1,0.5,0.2,0.7,0.2c0.6,0.5,1.3,0.9,1.9,1.4c-1.5,0.7-2.6,0.2-3.6-0.9
		C40,88.9,40.4,88.7,40.8,88.6z"/>
	<path class="st33" d="M20.9,75.1c-0.4,0.3-0.8,0.6-1.2,1c-0.4-0.7-1.3-1-1.5-1.9c0.4-0.3,0.8-0.6,1.2-0.7c0.2,0.1,0.3,0.2,0.5,0.2
		C20.2,74.2,20.8,74.5,20.9,75.1z"/>
	<path class="st14" d="M28.8,73.9c0.1-0.3,0.2-0.5,0.5-1.1c0,0.9,0,1.4,0,2c-0.3,1.6-0.5,3.2-0.8,4.8c-0.5,0.2-0.7,0-0.5-0.5
		C28,77.4,28.6,75.7,28.8,73.9z"/>
	<path class="st39" d="M1.5,67.4c0-2.5,0-4.9,0-7.4c0.7,0.4,0.5,1.2,0.4,1.7c-0.3,1.5,0.2,2.9,0.2,4.4C2,66.7,2,67.1,1.5,67.4z"/>
	<path class="st17" d="M15.4,80.4c0.3-1.2,0.7-2.3,1-3.5c0.6,0.1,0.6,0.5,0.7,0.9c-0.3,0.9-0.7,1.8-1,2.6c-0.2,0.2-0.1,0.7-0.6,0.5
		C15.2,80.9,15.2,80.6,15.4,80.4z"/>
	<path class="st21" d="M25.7,64.6c0.4-0.1,0.4-0.8,1-0.7c-0.9,1.7-1.9,3.4-2.8,5.1c-0.2,0.1-0.4,0.5-0.5,0
		C24.1,67.4,24.9,66,25.7,64.6z"/>
	<path class="st28" d="M8.6,69.4c-0.4-0.3-1.1-0.4-1-1.2c0.5-0.2,1-0.2,1.4,0c0.3,0,0.6,0,0.9,0c0.3,0.1,0.6,0,0.7,0.3
		c-0.2,0.3-0.3,0.6-0.5,1C9.8,69.4,9.2,69.4,8.6,69.4z"/>
	<path class="st11" d="M40.3,61c0.9-0.2,0.4-1,0.5-1.4c0.3,0.9,0.7,1.8,1,2.6c0,0.8-0.2,1.1-0.9,0.5C40.5,62.1,40.2,61.6,40.3,61z"
		/>
	<path class="st12" d="M30.7,45.6c0.6,1,1.2,2,1.8,3c0.3,0.5,0,0.6-0.4,0.6c-0.5-0.8-1-1.6-1.5-2.4c0.1-0.3-0.1-0.5-0.2-0.7
		C30.5,45.9,30.5,45.7,30.7,45.6z"/>
	<path class="st46" d="M23.3,68.9c0.2,0.3,0.4,0,0.5,0c-0.4,1.1-1.1,2.1-1.9,2.9c-0.4-0.3-0.1-0.6,0-0.8
		C22.3,70.3,22.8,69.6,23.3,68.9z"/>
	<path class="st28" d="M28.1,79.2c0,0.3,0.1,0.5,0.5,0.5c0.1,0.9-0.3,1.8-0.5,2.7c-0.4-0.6-0.2-1.4-0.3-2
		C27.9,80,27.7,79.5,28.1,79.2z"/>
	<path class="st22" d="M15.4,80.4c0.2,0.9,0.5,0.1,0.7,0c0.1,0.6-0.3,1-0.5,1.4c-0.2,0.1-0.3,0.5-0.5,0.3c-0.3-0.2-0.1-0.5-0.2-0.8
		C14.9,81,15,80.6,15.4,80.4z"/>
	<path class="st26" d="M9.1,68.1c-0.5,0-1,0-1.4,0C6.8,68,5.9,68.4,5,67.9C6.4,68,7.8,67.7,9.1,68.1z"/>
	<path class="st39" d="M5.1,33.1c-0.9,2.5-1.3,5.2-1.9,7.8c-0.3,1.2-0.3,2.4-0.9,3.5c-0.6-0.2-0.5-0.8-0.5-1.2c0-1.5,0.2-3,0-4.5
		c0-0.3,0-0.6-0.2-0.8c0-3,0-6.1,0-9.1c0.3-0.6,0.4-1.3,0-1.9c0-0.3,0-0.7,0-1c1.8-0.1,3.5-0.6,5.2-1.1c0.3-0.1,0.6-0.4,0.8,0
		c0.4,0.6,0.1,1.1-0.1,1.6c-0.3,1-0.5,2.1-0.9,3.1c-0.2,0.5-0.3,0.9-0.5,1.4C5.6,31.6,5.7,32.5,5.1,33.1z"/>
	<path class="st39" d="M29.8,37.2c-0.2,0-0.6,0-0.6-0.3c-0.1-2.7-0.9-5.3-1.1-8c-0.1-0.8-0.8-1.8,0-2.3c0.5-0.3,1.3,0.7,1.9,1.1
		c2.4,1.5,4.9,2.8,7.5,3.9c0.6,0.2,0.6,0.4,0.2,0.8c-0.4,1-1.5,1.1-2.3,1.6c-1.6,1-3.1,2.1-4.8,3C30.4,37.2,30.1,37.4,29.8,37.2z"/>
	<path class="st7" d="M29.8,37.2c2.6-1.6,5.3-3.2,7.9-4.8c0.9-0.2,1.7-0.6,2.6,0c0.3,0.2,0.6,0.5,1,0.7c-0.5,0.7-1.4,0.8-2,1.2
		c-3,1.9-6.2,3.4-9.2,5.3c-0.8,0.6-1.3,1.2-1.5,2.1c-0.6,0.1-0.7-0.7-1.2-0.7c-0.5-1.4,0-2.6,1.4-3.2C29.1,37.6,29.6,37.7,29.8,37.2
		z"/>
	<path class="st7" d="M31.5,19.7c1.2,0.4,2.1,1.2,3.1,1.8c1.8,1.2,3.5,2.4,5.2,3.8c1.4,1.2,1.8,2.7,1.9,4.4c-2-2.1-4.3-3.8-6.7-5.4
		c-1.4-0.9-2.9-1.8-4.3-2.7C30.3,20.7,30.5,20,31.5,19.7z"/>
	<path class="st39" d="M17,13.9c-1.6,0-2.8-1.1-2.8-2.8c0-1.6,1.4-3.1,2.9-3c1.6,0.1,2.9,1.5,2.8,3.2C19.9,13,18.8,13.9,17,13.9z"/>
	<path class="st47" d="M1.5,20.9c0-1.1,0-2.2,0-3.3c1.4-0.5,2.8-1,4.3-1.2c0.4,0.4,0.3,1,0.3,1.5c0,0.6,0.2,1.1,0.7,1.4
		C5,19.9,3.2,20.4,1.5,20.9z"/>
	<path class="st38" d="M23.5,13.7c-1.3,0-2.1-0.8-2.1-1.9c0-1.1,1-2.2,2.1-2.2c1.2,0,2.1,0.9,2.1,2.1C25.6,12.8,24.6,13.7,23.5,13.7
		z"/>
	<path class="st27" d="M6.7,19.2c-0.7,0.1-1-0.2-1-0.9c0.1-0.7,0-1.3,0-2c0.8-0.4,1.7-0.6,2.6-0.7c0.9,0.4,2,0.1,2.9,0.5
		c-1.2,0.3-0.9,1.4-1.2,2.2C9,18.8,7.9,19.1,6.7,19.2z"/>
	<path class="st48" d="M6.2,29.5c0.4-1.6,0.8-3.2,1.2-4.8c0.1-0.1,0.2-0.2,0.4-0.3c0.5-0.2,1-0.6,1.4-0.3c0.4,0.3-0.1,0.8-0.2,1.2
		c-0.3,1.3-0.8,2.6-1.2,3.9c-0.4,0.9-1.1,0.2-1.7,0.4c0,0,0-0.1,0-0.1C6.2,29.6,6.2,29.5,6.2,29.5z"/>
	<path class="st23" d="M31.5,19.7c-0.5,0.5-0.8,1.2-1,2c-1-0.5-2-1-2.9-1.7c-0.3-0.9-0.2-1.7,1-1.9c0,0,0-0.1,0-0.1
		C29.6,18.3,30.6,19,31.5,19.7z"/>
	<path class="st44" d="M10.1,18.2c-0.5-0.6,0-1.3,0-2c0-0.3,0.8-0.1,1.3-0.2c0.8,0.1,1.6-0.2,2.4,0.2c0.6,0.6,0.7,1.2-0.1,1.8
		c-1.1,0.1-2.2-0.1-3.3,0.1C10.2,18.2,10.2,18.2,10.1,18.2z"/>
	<path class="st25" d="M5.1,33.1c0.1-0.8,0.4-1.6,0.7-2.4c0.5,0.5,1.1,0.5,1.7,0.5c0,1.2-0.7,2.2-0.9,3.4
		C5.7,34.4,4.9,34.3,5.1,33.1z"/>
	<path class="st41" d="M28.5,18c-0.8,0.4-0.9,1.2-1,1.9c-0.7-0.1-1.3-0.7-1.9-0.9c-0.5-0.6-0.5-1.2,0-1.7
		C26.7,17.3,27.8,17.1,28.5,18z"/>
	<path class="st16" d="M13.7,18c0.2-0.6,0.2-1.1,0-1.7c0.2,0,0.3,0,0.5,0c0.8,0.3,1.6-0.1,2.4,0.2c0.5,1.6,0.3,1.8-1.2,1.7
		c-0.4,0-0.8,0-1.2,0C14,18.1,13.8,18.2,13.7,18z"/>
	<path class="st5" d="M6.5,6.7c0,0,0,0.1,0,0.1C6.6,7.2,6.1,8,6.9,8.1c0.7,0,0.5-0.7,0.5-1.2c0-0.2,0-0.5,0.2-0.6
		c-0.1,1.8-0.2,3.6-0.5,5.4c0,0.3-0.1,0.5-0.5,0.6C6.3,10.4,5.9,8.6,6.5,6.7z"/>
	<path class="st49" d="M25.7,17.3c-0.1,0.6-0.1,1.1,0,1.7c-0.6,0-1.3,0-1.9-0.1c-0.7-0.1-1.1-0.5-1-1.3c0.1-1,0.7-0.4,1.1-0.4
		C24.5,17.3,25.1,17.3,25.7,17.3z"/>
	<path class="st42" d="M7.4,31.2c-0.8,0.6-1.3,0.4-1.7-0.5c0.2-0.4,0.1-0.9,0.5-1.2c0.5-0.4,1.1-0.1,1.7-0.2
		C7.9,30,7.6,30.5,7.4,31.2z"/>
	<path class="st45" d="M7.7,5C7.2,5,7,4.7,7,4.3c0-0.8,0-1.7,0-2.5c0-0.6,0.4-0.8,0.9-0.8C8.1,2.3,7.7,3.7,7.7,5z"/>
	<path class="st13" d="M27.4,41c0.8-0.3,0.6,0.7,1.2,0.7c0.7,1.3,1.5,2.5,2.2,3.8c0,0.2-0.1,0.4-0.3,0.5
		C29.4,44.4,28.4,42.7,27.4,41z"/>
	<path class="st27" d="M13.7,18c0.2,0,0.4,0,0.5,0.2c-1.3,0-2.6,0-3.9,0C11.4,17.7,12.6,18.1,13.7,18z"/>
	<path class="st44" d="M16.6,16.5c-0.8-0.1-1.6,0.3-2.4-0.2C15,16.4,15.8,16.1,16.6,16.5z"/>
	<path class="st10" d="M58.5,47.5c-1.6-0.3-3.2-0.3-4.8-0.3c-1.4,0-2.7,0.4-4.1,0.1c0.3-0.6,0.2-1-0.5-1.2c0-0.1,0-0.1,0-0.2
		c2.4-0.1,4.9-0.3,7.3,0C57.6,46,58.4,46.2,58.5,47.5z"/>
	<path class="st8" d="M47,12.5c-1.5,1.8-3.4,3.2-4.7,5.1c-0.1,0.1-0.4,0.1-0.5,0.2c-0.2-1.1,0.5-1.8,1.1-2.5
		c1.1-1.3,2.1-2.5,3.4-3.5C46.7,11.8,47,12.1,47,12.5z"/>
	<path class="st4" d="M47,12.5c-0.3-0.2-0.6-0.4-0.8-0.8c0.3-0.3,0.5-0.6,0.8-0.9c0.4-0.2,0.7-0.6,1.2-0.5c0.2,0.1-0.5,0.5,0.1,0.4
		c0.1,0,0.3,0.1,0.3,0.3C48.2,11.5,47.6,12,47,12.5z"/>
	<path class="st38" d="M38.8,44.9c1.1,0,1.9,0.8,2,2c0,0.8-1.1,1.8-2.1,1.8c-0.7,0-1.7-1.1-1.7-1.9C37.1,45.7,37.8,44.9,38.8,44.9z"
		/>
	<path class="st37" d="M42.7,43.3c0.5,0.1,1.1,0.4,1.2,1.1c0.1,0.9-0.6,1.5-1.3,1.5c-0.7,0.1-1.2-0.6-1.3-1.3
		C41.2,43.8,41.8,43.4,42.7,43.3z"/>
	<path class="st30" d="M38.2,52.8c-0.1,0-0.5,0.2-0.4-0.1c0.1-0.4-0.1-0.7-0.1-1.1c0.8-0.5,1.6-1,2.3-1.6c0.4-0.3,0.7-0.4,1,0.1
		c0.3,0.4,0.4,0.8-0.1,1.1C40,51.7,39.1,52.3,38.2,52.8z"/>
	<path class="st27" d="M49.2,46.1c0,0,0.1,0,0.1,0c0.4,0.1,1-0.2,1.2,0.2c0.2,0.5-0.6,0.6-0.8,1c-0.8,0.3-1.6,0.3-2.4,0.2
		c-0.1-0.5,0.4-0.4,0.6-0.5c-0.3-0.5-1-0.2-1.3-0.7C47.4,45.8,48.3,46.2,49.2,46.1z"/>
	<path class="st2" d="M47,47.5c-0.5,0.2-1.1,0.5-1.6,0.7c-0.3,0.2-0.6,0.4-0.9-0.1c-0.3-0.5,0.2-0.7,0.5-0.9c0.3-0.2,0.7-0.4,1-0.5
		C46.6,46.7,47.2,46.6,47,47.5z"/>
	<path class="st43" d="M47,47.5c-0.1-0.6-0.6-0.6-1-0.7c0.2-0.1,0.4-0.3,0.5-0.4c0.1,0,0.2,0,0.4,0c0.5,0,1.1-0.1,1.3,0.5
		c0.2,0.8-0.8,0.1-1,0.7C47.2,47.5,47.1,47.5,47,47.5z"/>
	<path class="st37" d="M17.4,67.2c0.8,0.1,1.5,0.9,1.3,1.7c-0.2,0.7-0.6,1.5-1.5,1.4c-0.8-0.1-1.5-0.5-1.6-1.5
		C15.6,67.9,16.6,67.1,17.4,67.2z"/>
	<path class="st34" d="M14.1,66c0.7-0.1,1.1,0.3,1.1,0.9c0,0.6-0.4,1.2-1.1,1.2c-0.6,0-1.2-0.5-1.2-1.1C13.1,66.4,13.4,65.9,14.1,66
		z"/>
	<path class="st1" d="M19.4,73.5c-0.4,0.3-0.6,0.9-1.2,0.7c-0.5-0.4-1-0.8-1.4-1.2c0-0.3,0.2-0.5,0.5-0.7
		C18.1,72.4,18.6,73.2,19.4,73.5z"/>
	<path class="st16" d="M10.3,69.4c-0.3-0.6-0.4-1,0.5-1c0.5,0.3,1,0.5,1.4,0.8c0.2,0.1,0.6,0.2,0.3,0.6c-0.2,0.3-0.4,0.3-0.7,0.2
		C11.3,69.8,10.8,69.6,10.3,69.4z"/>
	<path class="st3" d="M17.3,72.3c0,0.4-0.2,0.6-0.5,0.7c-0.6-0.2-1.2-0.3-1.4-1.1c-0.1-0.2,0.1-0.5,0.3-0.6
		C16.4,71.3,16.7,72,17.3,72.3z"/>
	<path class="st37" d="M52.5,7.5c-1-0.1-1.6-0.6-1.6-1.5c0-0.9,0.6-1.4,1.3-1.6C53.1,4.2,54,5.2,54,6.1C53.9,7.1,53.2,7.3,52.5,7.5z
		"/>
	<path class="st35" d="M50.2,6.9c0.1,0.7-0.3,1-1,1C48.5,7.9,48,7.7,48,7c0-0.6,0.4-1.1,1-1.1C49.6,5.9,50.2,6.1,50.2,6.9z"/>
	<path class="st15" d="M54.5,8.4c0.2,0,0.5,0,0.7,0c0.3,0,0.7-0.4,0.8,0.1c0.2,0.4-0.4,0.4-0.5,0.7c-0.2,0.1-0.4,0.1-0.7,0.2
		c-0.4,0.2-0.8,0.4-1.2,0.1c-0.2-0.1-0.4-0.4-0.2-0.6C53.6,8.4,54,8.4,54.5,8.4z"/>
	<path class="st48" d="M48.7,11c-0.2-0.2-1.2,0.1-0.5-0.7c0.4-0.1,0.8-0.3,1.2-0.4c0.3-0.1,0.6-0.2,0.7,0.2c0.1,0.4-0.2,0.5-0.4,0.6
		C49.4,10.8,49.1,10.9,48.7,11z"/>
	<path class="st38" d="M34,85.7c-1-0.1-1.7-0.7-1.6-1.5c0.1-0.9,1-1.9,1.9-1.8c0.8,0,1.8,1,1.7,1.8C35.9,85,35,85.7,34,85.7z"/>
	<path class="st38" d="M36.9,84.4c-0.1-0.7,0.4-1.1,1.1-1c0.7,0,1.3,0.4,1.3,1.2c0,0.8-0.5,1.3-1.2,1.3C37.3,85.9,37,85.3,36.9,84.4
		z"/>
	<path class="st20" d="M33.1,88.5c-0.6-0.3-1.2-0.4-1.9-0.5c-0.3,0-0.8,0.2-0.8-0.3c0-0.5,0.4-0.6,0.8-0.6c0.2,0,0.3,0,0.5,0
		c0.4,0,0.9,0,1.3,0c0.4,0,0.7,0,0.8,0.5C33.8,88.1,33.7,88.5,33.1,88.5z"/>
	<path class="st15" d="M40.8,88.6c-0.2,0.4-0.5,0.7-1,0.7c-0.7,0.1-1.3-0.4-2-0.5c-0.3,0-0.4-0.3-0.3-0.5c0.1-0.2,0.3-0.4,0.5-0.3
		C38.9,88.5,39.9,88.1,40.8,88.6z"/>
	<path class="st39" d="M1.5,37.9c0.9,0.9,0.6,2.1,0.6,3.3c0,1.1-0.5,2.2,0.1,3.2c0,0.3,0.1,0.7-0.2,1c-0.6-0.1-0.5-0.5-0.5-0.9
		C1.4,42.3,1.5,40.1,1.5,37.9z"/>
	<path class="st39" d="M1.7,46.3c0.3,0.7,0.5,1.4-0.2,2C1.5,47.6,1.2,46.9,1.7,46.3z"/>
	<path class="st39" d="M1.5,26.9c0.7,0.6,0.6,1.3,0,1.9C1.5,28.2,1.5,27.5,1.5,26.9z"/>
</g>
</svg>
