<?xml version="1.0" encoding="utf-8"?>
<!-- Generator: Adobe Illustrator 16.0.0, SVG Export Plug-In . SVG Version: 6.00 Build 0)  -->
<!DOCTYPE svg PUBLIC "-//W3C//DTD SVG 1.1//EN" "http://www.w3.org/Graphics/SVG/1.1/DTD/svg11.dtd">
<svg version="1.1" id="Layer_1" xmlns="http://www.w3.org/2000/svg" xmlns:xlink="http://www.w3.org/1999/xlink" x="0px" y="0px"
	 width="55.2px" height="85.7px" viewBox="0 0 55.2 85.7" style="enable-background:new 0 0 55.2 85.7;" xml:space="preserve">
<style type="text/css">
<![CDATA[
	.st0{fill-rule:evenodd;clip-rule:evenodd;fill:#D8F4F3;}
	.st1{fill-rule:evenodd;clip-rule:evenodd;fill:#0ABDB5;}
	.st2{fill:#FCFDFD;}
	.st3{fill-rule:evenodd;clip-rule:evenodd;fill:#000201;}
	.st4{fill-rule:evenodd;clip-rule:evenodd;fill:#000B03;}
	.st5{fill-rule:evenodd;clip-rule:evenodd;fill:#000B04;}
	.st6{fill-rule:evenodd;clip-rule:evenodd;fill:#000C06;}
	.st7{fill-rule:evenodd;clip-rule:evenodd;fill:#000D06;}
	.st8{fill-rule:evenodd;clip-rule:evenodd;fill:#000F06;}
	.st9{fill-rule:evenodd;clip-rule:evenodd;fill:#001007;}
	.st10{fill-rule:evenodd;clip-rule:evenodd;fill:#001309;}
	.st11{fill-rule:evenodd;clip-rule:evenodd;fill:#00130A;}
	.st12{fill-rule:evenodd;clip-rule:evenodd;fill:#001402;}
	.st13{fill-rule:evenodd;clip-rule:evenodd;fill:#001508;}
	.st14{fill-rule:evenodd;clip-rule:evenodd;fill:#00150B;}
	.st15{fill-rule:evenodd;clip-rule:evenodd;fill:#00160D;}
	.st16{fill-rule:evenodd;clip-rule:evenodd;fill:#001B0A;}
	.st17{fill-rule:evenodd;clip-rule:evenodd;fill:#002115;}
	.st18{fill-rule:evenodd;clip-rule:evenodd;fill:#00230C;}
	.st19{fill-rule:evenodd;clip-rule:evenodd;fill:#002F16;}
	.st20{fill-rule:evenodd;clip-rule:evenodd;fill:#00331A;}
	.st21{fill-rule:evenodd;clip-rule:evenodd;fill:#00361F;}
	.st22{fill-rule:evenodd;clip-rule:evenodd;fill:#003922;}
	.st23{fill-rule:evenodd;clip-rule:evenodd;fill:#003B24;}
	.st24{fill-rule:evenodd;clip-rule:evenodd;fill:#003B25;}
	.st25{fill-rule:evenodd;clip-rule:evenodd;fill:#003F29;}
	.st26{fill-rule:evenodd;clip-rule:evenodd;fill:#004029;}
	.st27{fill-rule:evenodd;clip-rule:evenodd;fill:#00412A;}
	.st28{fill-rule:evenodd;clip-rule:evenodd;fill:#00422B;}
	.st29{fill-rule:evenodd;clip-rule:evenodd;fill:#00432C;}
	.st30{fill-rule:evenodd;clip-rule:evenodd;fill:#00442D;}
	.st31{fill-rule:evenodd;clip-rule:evenodd;fill:#00452F;}
	.st32{fill-rule:evenodd;clip-rule:evenodd;fill:#004933;}
	.st33{fill-rule:evenodd;clip-rule:evenodd;fill:#004C36;}
	.st34{fill-rule:evenodd;clip-rule:evenodd;fill:#004D38;}
	.st35{fill-rule:evenodd;clip-rule:evenodd;fill:#00503B;}
	.st36{fill-rule:evenodd;clip-rule:evenodd;fill:#00523D;}
	.st37{fill-rule:evenodd;clip-rule:evenodd;fill:#005844;}
	.st38{fill-rule:evenodd;clip-rule:evenodd;fill:#005C48;}
	.st39{fill-rule:evenodd;clip-rule:evenodd;fill:#005C49;}
	.st40{fill-rule:evenodd;clip-rule:evenodd;fill:#005D49;}
	.st41{fill-rule:evenodd;clip-rule:evenodd;fill:#005D4A;}
	.st42{fill-rule:evenodd;clip-rule:evenodd;fill:#005E4B;}
	.st43{fill-rule:evenodd;clip-rule:evenodd;fill:#00624F;}
	.st44{fill-rule:evenodd;clip-rule:evenodd;fill:#006856;}
	.st45{fill-rule:evenodd;clip-rule:evenodd;fill:#006F5E;}
	.st46{fill-rule:evenodd;clip-rule:evenodd;fill:#00705F;}
	.st47{fill-rule:evenodd;clip-rule:evenodd;fill:#007160;}
	.st48{fill-rule:evenodd;clip-rule:evenodd;fill:#007161;}
	.st49{fill-rule:evenodd;clip-rule:evenodd;fill:#007261;}
	.st50{fill-rule:evenodd;clip-rule:evenodd;fill:#007262;}
	.st51{fill-rule:evenodd;clip-rule:evenodd;fill:#007362;}
	.st52{fill-rule:evenodd;clip-rule:evenodd;fill:#007766;}
	.st53{fill-rule:evenodd;clip-rule:evenodd;fill:#008A7D;}
	.st54{fill-rule:evenodd;clip-rule:evenodd;fill:#008A7E;}
	.st55{fill-rule:evenodd;clip-rule:evenodd;fill:#00C1B9;}
	.st56{fill-rule:evenodd;clip-rule:evenodd;fill:#00C1BA;}
	.st57{fill-rule:evenodd;clip-rule:evenodd;fill:#00C2BB;}
	.st58{fill-rule:evenodd;clip-rule:evenodd;fill:#00C3BB;}
	.st59{fill-rule:evenodd;clip-rule:evenodd;fill:#00C3BC;}
	.st60{fill-rule:evenodd;clip-rule:evenodd;fill:#00C4BC;}
	.st61{fill-rule:evenodd;clip-rule:evenodd;fill:#00C4BD;}
	.st62{fill-rule:evenodd;clip-rule:evenodd;fill:#01C4BD;}
	.st63{fill-rule:evenodd;clip-rule:evenodd;fill:#02503B;}
	.st64{fill-rule:evenodd;clip-rule:evenodd;fill:#03250D;}
	.st65{fill-rule:evenodd;clip-rule:evenodd;fill:#046351;}
]]>
</style>
<g>
	<path class="st2" d="M33.7,0.8c-0.4,0-0.9,0-1.3,0c-9.1,0-18.3,0-27.4,0C4.3,0.8,3.7,0.7,3.2,1C1.6,1.7,1,2.8,1.1,4.5
		c0.1,3.9,0.1,7.7,0,11.6c0,2.5,0.1,5.1,0,7.6c0.1,5.7,0.1,11.4,0,17.1c0,6.4,0.1,12.9,0,19.3c0,1.4,0,2.8-0.1,4.2
		c0,0.2,0,0.5,0,0.7c0.1,5.4,0,10.8,0,16.2c0,0.5-0.1,1,0.1,1.5c0.5,1.5,1.5,2.1,3.1,2c2.1-0.1,4.1,0,6.2,0c4.2-0.1,8.3,0,12.5,0
		c0.6,0.1,1.3,0.1,1.9,0.1c5.3,0,10.7,0,16,0c3.1,0,6.1,0,9.2,0c0.5,0,1,0,1.4,0c2.3-0.3,3-1.2,3-3.5c0-6.9,0-13.7-0.1-20.6
		c0-0.4,0.1-0.9,0.1-1.3c0-1.4-0.2-2.8-0.2-4.3c0-3.1,0-6.1,0-9.2c0.1-0.9-0.1-1.8,0.1-2.6c0.1-1.8-0.2-3.6-0.1-5.5
		c0.1-2.4-0.1-4.8,0.2-7.1c0.1-1.2-0.2-2.3-0.1-3.4c0.1-2.5-0.1-5,0-7.5c-0.1-3,0.2-6,0-9c-0.1-1.2,0-2.3,0.1-3.5
		c0.1-0.5,0-0.9,0-1.4c0-0.1,0-0.2,0-0.4c0-0.8,0-1.6,0-2.5c0-0.6-0.1-1.1-0.6-1.5c-0.2-0.1-0.3-0.3-0.4-0.5
		c-0.3-0.3-0.8-0.3-1.1-0.6c-0.1-0.1-0.1-0.2-0.1-0.3"/>
	<path class="st0" d="M52.3,0.5c-0.3,0.3-0.6,0.3-1,0.3c-0.3,0-0.6,0-0.8,0c-6.4-0.2-12.7,0.3-19.1,0.3c-0.5,0-1,0-1.4,0
		c-7.6,0.1-15.1,0-22.7,0c-0.2,0-0.5,0-0.7,0c-0.2,0-0.4,0-0.7,0c-1-0.1-2,0.3-3-0.3c0.4-0.5,1-0.3,1.4-0.3c9.6,0,19.2,0,28.9,0"/>
	<path class="st61" d="M54.9,59.6c0,6.7,0.1,13.3,0.1,20c0,0.8,0,1.6,0,2.4c0,2.4-1.3,3.2-3.1,3.3c-3.6,0.2-7.2,0-10.8,0
		c-0.1-0.1-0.2-0.1-0.2-0.2c-0.2-0.4-0.6-0.5-1-0.7c-0.6-0.4-1.3-0.7-1.3-1.6c1.7-1.4,1.5-3.4,1.7-5.2c0.2-1.9,0.7-3.8,0.7-5.7
		c0-0.4,0.1-0.9-0.2-1.3c-0.2-0.3-0.3-0.6-0.3-0.9c-0.1-0.9-0.7-1.3-1.5-1.5c-3.3-0.5-6.6-0.9-9.9-1.2c-0.9-0.1-1.5,0.3-1.7,1.2
		c-0.4,1.5-0.4,3.1-0.7,4.7c-0.3,1-0.4,2.1-0.5,3.1c-0.3,1.3-0.2,2.6,0.4,3.8c0.3,0.6,0.5,1.2-0.3,1.6c-0.4,0.2-0.8,0.2-1.3,0.4
		c-2.2,0.6-4.4,1.1-6.6,2.6c1,0.3,1.7,0.2,2.5,0.2c0.7,0.2,1.6-0.5,2.1,0.5c-3.8,0-7.6,0-11.5,0c-0.4,0-0.8,0-1.2-0.1
		c0-0.1,0-0.2,0.1-0.3c0.7-0.4,0.9-1.3,1.3-1.9c1-1.9,1.7-4,2.4-6.1c0.1-0.5,0.4-1,0.5-1.5c0.3-0.8,0.4-1.8,1.1-2.4
		c0.6-0.2,0.9,0.2,1.2,0.6c0.7,0.9,1.6,1.7,2.4,2.5c0.6,0.6,1.3,0.9,2.1,0.3c0.9-0.5,0.8-1.1,0.4-1.9C21.1,72.7,20,71.4,19,70
		c-0.2-0.3-0.5-0.6-0.7-0.9c-0.1-1,0.9-1.1,1.3-1.6c0.6-0.7,1.4-1.4,1.7-2.3c0.2-0.4,0.6-0.8,0.7-1.3c0.7-1.4,1.6-2.7,2.4-4.1
		c0.5-0.9,0.2-1.6-0.6-2.1c-2.2-1.3-4.4-2.7-6.6-4C16,53,15.1,53.1,14.1,54c-1.4,1-1.8,2.7-2.7,4c-0.6,0.9-1.1,2-1.7,2.9
		c-0.4,0.6-0.6,1.1-0.5,1.8c0.1,1-0.4,1.1-1.2,1.2C6.1,64,4.1,63.6,2.2,64c-0.4,0.1-0.8,0.3-1.1,0.6c-0.1,0.1-0.2,0.1-0.3,0
		c0-4.8-0.1-9.7-0.1-14.5c0-8.3,0-16.7,0-25c0-0.4,0-0.8,0-1.2c1.6-0.8,3.4-1,5.2-1.4c0.5-0.1,0.8,0.2,0.9,0.7
		c0,1.1-0.4,2.1-0.8,3.2c-0.2,0.6-0.3,1.2-0.5,1.7c-0.2,0.5-0.4,1-0.5,1.5c-0.2,0.9-0.4,1.8-0.7,2.7c-0.8,3.5-1.7,7-2.4,10.5
		c-0.5,2.5-0.6,5.1,0.5,7.5c0.8,1,1.2,1.1,1.9,0.1c0.7-0.9,1.3-1.8,1.8-2.9c1.1-2.2,2.3-4.4,3.8-6.4c1.6-1.9,3.4-3.3,6.1-3.2
		c1.1,0.1,2,0.5,2.7,1.3c2,2.5,3.8,5,5.7,7.5c0.6,0.7,1.1,1.4,1.8,2.1c0.3,0.4,0.7,0.9,1.3,0.7c0.6-0.2,0.5-0.9,0.5-1.4
		c0-1.4,0.1-2.9,0-4.3c0-0.4-0.4-1.1,0.6-0.8c0.3,0.2,0.4,0.5,0.6,0.8c0.3,0.5,0.6,1,1,1.5c0.3,0.7,0.9,1.3,1.5,1.8
		c0.6,0.6,1.7,0.7,1.9,1.8c-0.3,0.6-0.9,1-1.2,1.6c-0.8,1.2-1.7,2.4-2.5,3.6c-0.2,0.3-0.4,0.7-0.6,1c-0.8,1.5-0.7,1.8,0.7,2.7
		c0.7,0.3,1.4,0.1,2-0.3c1.2-0.9,2.2-1.9,3.2-3.1c0.4-0.5,0.6-1.2,1.5-1c1,1.1,1.1,2.7,1.7,4c0.1,0.5,0.3,0.9,0.4,1.4
		c1,2.5,1.8,5,3,7.3c0.7,1.4,1.4,2.7,2.7,3.5c0.7,0.3,1,0,1.1-0.7c0.1-0.6,0.1-1.3-0.1-1.9c-0.5-1.6-0.4-3.2-0.3-4.9
		c0-1,0.3-2,0.9-2.8c0.9-1.4,2.1-2,3.7-1.5C51.3,58.6,53.1,59.1,54.9,59.6z"/>
	<path class="st54" d="M6.5,23.3c0-0.6-0.2-0.7-0.8-0.6c-1.7,0.4-3.3,1-5,1.1c-0.1-2.6-0.1-5.2,0-7.8c0.1,0,0.2,0,0.3,0.1
		c0.4,0.8,0.1,1.6,0.3,2.5c1-0.2,1.9-0.6,2.9-0.8c0.8-0.3,1.6-0.4,2.4-0.7c0.7-0.3,1.5-0.3,2.2-0.7c0.4-0.1,0.9-0.2,1.3-0.3
		c1-0.1,2,0.3,3.1,0.2c0.3,0,0.6,0,0.9,0c0.3,0,0.7,0,0.8-0.4c0.1-0.4-0.2-0.6-0.5-0.8c-0.9-0.3-1.8,0-2.7-0.2c-1-0.3-2.1,0-3.2-0.2
		c-0.8-0.4-1.6,0.1-2.4-0.1c-0.3-0.2-0.2-0.4,0-0.5c0.8-0.3,0.5-0.7,0.2-1.3c-0.3-0.5-0.7-1.1-0.4-1.8c0.3-1.5,0.4-3,0.4-4.5
		c0-0.5,0-1.1,0-1.6C6.2,3.7,6.7,2.6,6.6,1.5c0-0.3,0.1-0.6,0.4-0.7c7.7,0,15.4,0,23,0c0.4,0.7,0.3,1.5,0.3,2.2
		c-0.2,3.2-0.6,6.4-0.8,9.5c-0.1,1.9-1.2,3.2-3,3.7c-0.9,0.1-1.8-0.4-2.7-0.2c-0.5,0-1-0.1-1.5-0.2c-0.4,0-0.8,0-0.9,0.4
		c-0.1,0.5,0.3,0.5,0.7,0.6c0.6,0.1,1.2,0.2,1.8,0.3c0.7,0.2,1.3,0.6,2,1c0.4,0.2,0.9,0.5,1.3,0.7c0.6,0.5,1.3,0.8,2,1.2
		c2.7,1.6,5.4,3.2,7.7,5.2c0.6,0.5,1.2,1.1,1.7,1.8c-0.2-0.3-0.2-0.5,0.2-0.6c1.1,1.8,0.8,2.9-1,3.7c-0.8,0-1.7-0.1-2.5-0.3
		c-3.1-1.3-6.1-2.9-9-4.8c-0.2,1.4,0.3,2.5,0.4,3.7c0.2,1.7,0.5,3.4,0.7,5.1c0,0.3,0.2,0.6,0.4,0.9c0.1,0.7-0.5,0.6-0.8,0.8
		c-1.1,0.6-1.5,1.3-1.4,2.6c0.1,0.4,0.5,0.7,0.7,1.1c0.7,1.3,1.4,2.5,2.2,3.8c0.1,0.3,0.3,0.5,0,0.8c-0.5-0.2-0.4,0-0.4,0.4
		c0.4,1.7,0.1,3.3,0.1,5c0,0.5-0.1,1.2-0.6,1.5c-0.5,0.3-0.9-0.3-1.2-0.6c-1.3-1.1-2.2-2.5-3.2-3.8c-1.5-1.9-2.9-3.9-4.4-5.8
		c-1.7-2.1-4.3-2.3-6.5-0.7c-2.4,1.7-3.7,4.2-5.1,6.7c-0.9,1.5-1.5,3.2-2.6,4.6c-1,1.2-1.6,1.2-2.5,0c-0.6-3.1,0.4-6,1-8.9
		c0.5-3.1,1.4-6.2,2.2-9.3c0.2-0.7,0.4-1.4,0.5-2.2c0-0.4,0.2-0.8,0.3-1.2c0.2-0.5,0.4-1.1,0.4-1.7C7,25.7,7.8,24.3,8,22.6
		C7.2,22.3,7.1,23.3,6.5,23.3z"/>
	<path class="st61" d="M26.4,16.1c0.1-0.1,0.1-0.4,0.2-0.4c2-0.4,2.6-1.9,2.6-3.6c0.2-3.8,0.8-7.6,0.8-11.4
		c7.2-0.1,14.4-0.1,21.7-0.2c0.2,0,0.4,0,0.6,0c0,0,0,0.1,0,0.1c-0.4,0.6-1,0.4-1.5,0.4c-2.9,0-5.9,0-8.8,0c-1.3,0-1.4,0.1-1,1.4
		c0.3,0.9,0.6,1.7,0.8,2.6c0.4,1.6,0.8,3.2,2.2,4.2c0,0.8-0.7,1.1-1.1,1.6c-1.4,1.3-2.9,2.6-3.6,4.4c0,0.1-0.1,0.2-0.1,0.2
		c0,0.5-0.2,1.2,0.3,1.6c0.5,0.4,1.1-0.1,1.5-0.4c1.2-0.6,2.1-1.5,3-2.4c0.4-0.4,0.8-1,1.4-0.8c0.7,0.2,0.5,0.9,0.5,1.5
		c0.3,3.3,0.6,6.5,1,9.8c0.1,0.6,0,1.5,0.7,1.6c0.7,0.1,0.8-0.9,1-1.4c0.7-1.4,1.3-2.9,2-4.2c0.9-1.7,2.4-2,4-0.9
		c-0.1,2.1,0.1,4.2,0.1,6.3c0,2.6,0,5.2,0.1,7.7c0,2,0,4-0.1,6.1c-0.1,1.2,0.4,2.4,0,3.7c-0.1,0-0.1,0-0.2-0.1
		c-0.8-0.6-1.7-0.7-2.6-0.7c-2.1,0-4.1-0.2-6.2,0.1c-0.3,0.1-0.6,0-0.9-0.1c-0.5-0.2-0.4-0.7-0.3-1c0.2-1.2-0.2-2.2-0.8-3.1
		c-1.3-1.9-2.4-3.9-3.5-5.8c-0.5-0.8-1-1.6-1.8-2.2c-0.3-0.2-0.6-0.4-0.7-0.7c0-0.1,0-0.2,0.1-0.2c1.6-1.1,1.6-1.2,0.9-3.4
		c-0.6-2.7-2.9-3.8-4.8-5.3c-1.2-1-2.5-1.8-3.9-2.5c-0.5-0.4-1.1-0.7-1.7-1c-0.6-0.3-1.1-0.7-1.7-1C26.4,16.4,26.3,16.3,26.4,16.1z"
		/>
	<path class="st54" d="M38.4,30.5c1.1,0.3,1.5,1.3,2,2.1c1.3,2.2,2.5,4.4,3.9,6.6c0.7,1.1,0.7,2.3,0.3,3.6c-0.2,0.3-0.5,0.3-0.8,0.5
		c-0.1,0.1-0.3,0.2-0.4,0.3c-0.4,0.4-1,0.6-1.6,1.2c0.9-0.1,1.4-0.6,2-0.5c2.2-0.1,4.3-0.6,6.5-0.6c1.4,0,2.8,0,4.2,0.2l0.1,0
		c-0.1,0.8,0.3,1.6-0.1,2.4c-1.1,1.1-2.5,1.1-3.9,1.2c-0.9,0.1-1.8,0.2-2.8,0.4c1.2,1.4,2.4,2.7,3.6,3.9c1.1,1.2,2.3,2.3,3,3.8
		c0.1,1.4,0.2,2.8,0.1,4.1c-0.6,0.4-1.2,0-1.8-0.1c-0.9-0.2-1.7-0.5-2.6-0.8c-2.8-1-4.8,0.3-5,3.4c-0.1,1.7-0.2,3.5,0.3,5.2
		c0.2,0.6,0.1,1.3,0.1,1.9c0,1.4-0.4,1.6-1.7,0.9c-2.2-3.2-3.3-6.9-4.8-10.4c-0.2-0.6-0.3-1.2-0.5-1.7c-0.3-0.5-0.5-1.1-0.7-1.7
		c-0.3-0.7-0.7-1.4-0.8-2.2c-0.1-0.6-0.4-0.6-0.9-0.3c-1.1,0.6-1.6,1.9-2.5,2.6c-0.7,0.5-1.2,1.1-1.9,1.7c-0.7,0.6-1.5,0.7-2.3,0.3
		c0.1-1.9,1.3-3.3,2.2-4.8c0.3-0.5,0.8-1,1.1-1.6c0.4-0.6,1-1,1.3-1.7c0.5-0.6,1.2-1.1,1.8-1.7c0.5-0.4,1.1-0.6,1.7-0.9
		c0.2-0.1,0.4-0.3,0.3-0.6c-0.2-0.4-0.5-0.2-0.7-0.1c-0.5,0.3-1,0.7-1.5,0.9c-0.8,0.4-1.4,1-2.2,1.4c-0.1,0-0.2,0-0.3-0.1
		c-0.2-1-1.4-0.9-1.9-1.6c-0.3-0.7-0.7-1.4-1.2-2c-0.4-0.4-0.6-1-1-1.5c-0.4-0.5-0.5-1.2-0.9-1.7c-0.6-1.2-1.5-2.2-1.9-3.5
		c0-1.2,0.7-2,1.7-2.6C31.5,34.2,35,32.4,38.4,30.5z"/>
	<path class="st54" d="M19.9,67.7c-0.4,0.6-1.4,0.5-1.4,1.4c-0.2,0.1-0.4,0-0.6-0.1c-0.6-0.4-1.2-0.9-1.9-1.2
		c-0.4-0.1-0.7-0.6-1.4-0.6c0.3,0.7,1,0.8,1.5,1.2c0.4,0.3,0.7,0.7,1.1,1c0.5,0.5,0.9,1.1,1.3,1.7c1.2,1.6,2.4,3.2,3.1,5.2
		c-0.8,0.8-1.6,0.6-2.3-0.1c-0.9-0.9-1.8-1.8-2.7-2.7c-0.2-0.3-0.4-0.6-0.8-0.6c-0.4-0.3-0.5-0.1-0.7,0.3c-0.2,0.7-0.6,1.5-0.8,2.2
		c-0.2,0.4-0.4,0.8-0.5,1.3c-0.7,2.4-1.7,4.6-2.6,6.9c-0.3,0.6-0.6,1.2-1.3,1.5c-0.2,0-0.4,0-0.6,0c-1.1,0-1.4-0.2-1.2-1.3
		c0.2-1.2,0.2-2.4,0.2-3.6c0-0.6-0.1-1.2-0.4-1.7c-0.7-1.4-1.5-1.8-3-1.3c-1,0.3-2.1,0.6-3.1,0.9c-0.6,0.1-0.9-0.2-1-0.9
		c-0.2-2.1,0.3-3.8,1.9-5.4c1.2-1.2,2.4-2.5,3.7-3.9c-1.3-0.2-2.3-0.3-3.3-0.4c-2-0.2-2.2-0.4-2.3-2.4c0-0.2,0-0.4,0-0.6
		c0,0,0.1,0,0.1,0c2.2-0.6,4.4-0.3,6.6,0c0.7,0.2,1.4,0.2,2.1,0.3c0.5,0,0.9,0.4,1.6,0.5c-0.6-0.5-1.2-0.6-1.7-0.9
		c-0.8-0.2-1.7-0.1-2.5-0.1c-1.3,0-2.6,0-3.9,0c-0.4,0-0.9,0-1.2-0.4C3,63.5,4,63.4,5.2,63.6c0.7,0.1,1.5,0,2.3,0
		c1,0.1,1.9,0.2,1.5-1.3c-0.2-0.6,0.3-1,0.5-1.4c1-1.8,2.1-3.7,3.1-5.5c0.4-0.7,0.7-1.5,1.6-1.6c0.3,0,0.6,0,0.9,0.2
		c2.4,1.8,5.3,2.8,7.7,4.6c0.7,0.5,1.2,1,1.2,1.9c-0.3,1.3-1.2,2.2-1.8,3.3c-0.2,0.5-0.5,0.9-0.8,1.3C21.1,66,20.2,66.7,19.9,67.7z"
		/>
	<path class="st53" d="M43.9,9.6c-2-1.2-2.1-3.3-2.7-5.3c-0.3-0.9-0.6-1.7-0.9-2.6c-0.3-0.8-0.1-1,0.8-1c3.5,0,7.1,0,10.6,0
		c0.2,0,0.4,0,0.6-0.1c0.4,0.2,0.9,0.2,1.2,0.5c0.1,0.6-0.1,1.3,0.7,1.5c0.4,0.7,0.2,1.4,0.1,2.1c0,0.5-0.1,1,0.4,1.3
		c0,0.1,0,0.2,0,0.2c-0.7,0.5-1.5,0.3-2.2,0.7c-0.7,0.3-1.4,0.3-2.3,1c1,0,1.6-0.5,2.3-0.5c0.7,0,1.5-0.2,2.2,0.1
		c0,2.9,0.1,5.9,0.1,8.8c0,1.2,0.2,2.4-0.1,3.6c-0.2,0-0.4,0-0.6-0.1c-2-0.5-2.6-0.2-3.4,1.6c-0.7,1.6-1.4,3.2-2.2,4.8
		c-0.2,0.4-0.4,1-0.9,1c-0.5,0-0.6-0.7-0.7-1.1c-0.5-2-0.5-4.1-0.8-6.1c-0.2-1.9-0.3-3.7-0.5-5.6c0-0.2,0-0.4-0.2-0.5
		c-0.3-0.1-0.4,0.1-0.6,0.3c-0.8,0.8-1.6,1.6-2.6,2.3c-0.7,0.5-1.4,0.8-2.1,1.1c-0.9,0.4-1.3,0.1-1.3-0.9c0-0.5-0.2-1.1,0.2-1.6
		c0.3,0.2,0.3,0.5,0.2,0.7c1-1.7,2.5-3,3.9-4.4c0.3-0.3,0.7-0.5,1-0.8c0.2-0.3,0.5-0.5,0.8-0.8c0.3-0.5,0.9-0.5,1.6-1
		c-0.9,0.2-1.5,0.4-2,0.7c-0.2,0.1-0.3,0.1-0.5,0.1C44,9.6,44,9.6,43.9,9.6z"/>
	<path class="st54" d="M23,85.2c-0.7-0.5-1.6,0-2.3-0.2c0.1-0.6,0.7-0.7,1.1-0.9c1.2-0.5,2.6-0.7,3.8-1c0.6-0.3,1.4-0.3,2-0.5
		c0.7-0.1,1.4-0.1,2.1-0.1c0.3,0,0.6,0.1,0.9,0.1c0.4,0,0.8-0.2,0.3-0.6c-1.4-0.3-2.9,0.2-4.4-0.3c-0.2-0.1-0.4-0.2-0.5-0.3
		c0.8-0.5,0.3-1,0.1-1.5c-0.5-1.2-0.7-2.4-0.3-3.7c0.7-0.4,0.3-1.2,0.5-1.7c0.4-1.6,0.3-3.2,0.8-4.8c1-1.2,2.3-1.1,3.6-0.9
		c2.2,0.3,4.4,0.6,6.6,1c0.4,0.1,0.8,0.1,1.2,0.1c0.9-0.1,1.7,0.2,2.4,0.8c0.6,1,0.3,2.1,0.1,3.1c-0.3,2.3-0.7,4.6-0.9,6.9
		c-0.1,1.2-1,1.8-1.7,2.6c-0.7-0.1-1.5-0.2-2.3-0.2c-0.2,0-0.4-0.1-0.8,0c0.7,0.4,1.3,0.5,1.9,0.7c0.7,0.4,1.2,1,2.1,1.2
		c0.5,0.2,1.1,0,1.5,0.5c0,0,0.1,0.1,0.1,0.1c-5.3,0-10.7,0.1-16,0.1C24.4,85.4,23.6,85.6,23,85.2z"/>
	<path class="st61" d="M6,11c0.2,0.7,0.3,1.4,0.8,1.9c0.8,0.7,0.4,1-0.4,1.2c-0.2,0-0.3,0.2-0.5,0.3c0.1,0.3-0.2,0.4-0.4,0.5
		c-0.4,0.1-0.7,0.2-1.1,0.2c-0.8,0.1-1.6,0.5-2.3,0.7C1.8,16,1.4,16.2,0.9,16l-0.1,0c0,0-0.1,0-0.1,0c0-4.2-0.1-8.4-0.1-12.5
		c0-1.5,1-2.2,2.2-2.7c1-0.1,2.1-0.1,3.1,0c0.2,0.2,0.2,0.5,0.2,0.8C6,2.3,6.2,3.1,6,3.9c-0.3,2-0.1,4,0,6C6,10.3,6.2,10.6,6,11z"/>
	<path class="st61" d="M1.7,77.8C2.8,77.4,4,77,5.2,76.6c1.6-0.4,3.2,0.8,3.4,2.7c0.1,1.3,0.1,2.6-0.1,3.8C8.3,85,8.2,85,10.1,84.9
		c0.1-0.1,0.2,0,0.2,0.1l0,0.1c-2.4,0-4.8,0.1-7.2,0c-1.2,0-1.9-0.9-2.2-2.1c0.1-1.1,0.2-2.2,0-3.3C0.8,79.1,1.2,78.4,1.7,77.8z"/>
	<path class="st61" d="M54.7,55.4c-1.9-2-3.8-4.1-5.7-6.1c-0.3-0.4-0.6-0.8-1.1-1.1c-0.3-0.2-0.5-0.3-0.4-0.7
		c0.1-0.4,0.4-0.3,0.7-0.3c2-0.2,4-0.2,5.9-0.9c0.2-0.1,0.4-0.2,0.5-0.2C54.9,49.2,54.8,52.3,54.7,55.4z"/>
	<path class="st62" d="M1.7,77.8c-0.5,1.3-0.5,2.7-0.2,4.1c0.1,0.5-0.3,0.8-0.5,1.2c-0.3-1.6-0.1-3.3-0.1-5c0-4.3,0-8.7,0-13
		c0.3,1.7,0.7,2,2.6,2.1c0.9,0.1,1.8,0.3,2.7,0.2c0.3,0,0.6-0.1,0.7,0.2c0.1,0.3-0.2,0.5-0.4,0.7c-1.8,1.7-3.4,3.6-5,5.5
		C1,74.3,0.7,77,1,77.6C1.2,77.8,1.5,77.8,1.7,77.8z"/>
	<path class="st63" d="M52.3,6.7c0.7-0.5,1.6-0.5,2.4-0.5c0,0.4,0.2,0.8,0,1.2c-0.8,0.3-1.6,0.2-2.4,0.2C52.2,7.4,52.4,7,52.3,6.7z"
		/>
	<path class="st1" d="M54.8,6c-1,0-0.8-0.7-0.7-1.2C54.2,4,54.4,3.3,54,2.6c-0.4-0.2-0.6-0.6-0.2-1c0.8,0.1,0.9,0.8,0.9,1.4
		C54.8,4,54.8,5,54.8,6z"/>
	<path class="st65" d="M53.8,1.6c-0.1,0.4,0,0.7,0.2,1c0,0.2-0.1,0.4-0.1,0.5c-0.1,0-0.3-0.1-0.2-0.1c0-0.6-0.7-1.2-0.1-1.8
		C53.8,1.2,53.8,1.4,53.8,1.6z"/>
	<path class="st30" d="M6,1.4C6,1.2,6,1,6,0.7c0.2,0,0.3,0,0.5,0C6.5,0.9,6.6,1,6.6,1.2C6.3,1.8,6.7,1.5,7,1.4
		c0.1,1.1-0.4,2.2-0.2,3.4c-0.6,0.3-1,0-0.9-0.6C6,3.3,5.7,2.3,6,1.4z"/>
	<path class="st64" d="M7,1.4C6.6,1.7,6.9,2.2,6.5,2.6C6,1.9,6.2,1.3,6.5,0.7c0.2,0,0.4,0,0.6,0C7,1,7,1.2,7,1.4z"/>
	<path class="st50" d="M41.1,70.5c-3.1-0.7-6.3-0.8-9.5-1.4c-1.5-0.3-2.9-0.6-4.2,0.5c-0.5-0.4-0.2-1-0.3-1.5c0.3-1.1,1-1.5,2.2-1.4
		c3.2,0.4,6.4,0.8,9.5,1.2c1.1,0.1,2,0.6,1.9,1.9C40.8,70.1,41,70.3,41.1,70.5z"/>
	<path class="st50" d="M5.7,32.4c-1.4,5.2-2.7,10.5-3.4,15.8c-0.1,0.8,0.3,1.6-0.2,2.4c-1.2-2.4-1.1-4.9-0.7-7.4
		c0.6-3.8,1.6-7.4,2.6-11.1C4.7,31.5,5.2,31.9,5.7,32.4z"/>
	<path class="st50" d="M23.8,60.5c-0.1-1.7-1.5-2-2.6-2.7c-2.3-1.4-4.8-2.6-7.1-4.1c1.2-1.1,1.5-1.1,2.9-0.4
		c2.4,1.2,4.5,2.8,6.8,4.1c1.3,0.7,1.4,1.2,0.8,2.6C24.4,60.1,24.2,60.6,23.8,60.5z"/>
	<path class="st50" d="M33.3,52.1c-1.4,2-2.7,4-3.6,6.3c-1.6-1.1-1.8-1.5-0.7-3.3c0.9-1.6,2-3,3.1-4.5
		C32.8,50.8,33.1,51.4,33.3,52.1z"/>
	<path class="st49" d="M39.1,57.8c0.9,2.8,2,5.4,3.1,8.1c0.5,1.3,1.2,2.5,2,3.6c0.1,0.2,0.5,0.4-0.1,0.5c-2.1-1.5-3-3.8-3.9-6.1
		c-0.5-1.2-1-2.5-1.6-3.7c-0.2-0.4-0.4-0.8-0.3-1.2C38.8,58.8,38.8,58.2,39.1,57.8z"/>
	<path class="st47" d="M25.7,83.3c-1.7,0.5-3.5,0.7-5,1.6c-0.6,0-1.3,0-1.9,0c-0.3,0-0.6,0.1-0.7-0.3c-0.1-0.3,0.2-0.5,0.4-0.7
		c1-1,2.4-1.1,3.5-1.7c0.9-0.4,2-0.5,3-0.8C25.2,82.2,25.2,82.8,25.7,83.3z"/>
	<path class="st50" d="M21.6,76.3c-0.7,0-0.5-0.7-0.7-1.1c-0.8-1.4-1.7-2.7-2.7-4c0.2-0.5,0.6-1,0.9-1.4c1.2,1.3,2.2,2.8,3,4.4
		C22.6,75.1,22.8,75.9,21.6,76.3z"/>
	<path class="st46" d="M10.3,85c-0.1,0-0.2-0.1-0.2-0.1c1.3-2.3,2.2-4.7,3.1-7.2c0.1-0.4,0.2-0.9,0.5-1.2c0.3,0.1,0.5,0.1,0.7,0.2
		c0.2,0.9-0.6,1.5-0.8,2.3c-0.6,1.9-1.5,3.7-2.4,5.4C11,84.9,10.7,85,10.3,85z"/>
	<path class="st3" d="M6.5,23.3c0.1-0.2,0.1-0.5,0.3-0.6c0.4-0.5,1.1-0.7,1.6-0.5c0.4,0.1,0,0.7-0.1,1C7.8,24.6,7.4,26,7,27.4
		c-0.6-0.1-1.1-0.3-1.2-1C6,25.3,6.2,24.3,6.5,23.3z"/>
	<path class="st46" d="M7.7,64.8c-2,0-4.1-0.5-6.1,0c-0.2,0.1-0.5,0-0.6-0.2c0.1-0.6,0.5-0.7,1-0.7c1.8,0,3.5,0,5.3,0
		C7.4,64.1,7.9,64.3,7.7,64.8z"/>
	<path class="st38" d="M33.3,52.1c-0.4-0.5-0.8-1-1.2-1.5c0.2-0.7,0.8-0.9,1.2-1.4c0.1,0,0.2,0,0.2,0c1.2-0.2,1.3-0.1,1,1.2
		C34.5,51.2,33.7,51.4,33.3,52.1z"/>
	<path class="st7" d="M36.5,53.8c0.1-0.4,0.2-0.9,0.7-0.9c0.4,0,0.3,0.6,0.5,0.9c0.3,0.8,0.5,1.6,0.8,2.4c0,0.6,0.7,1.4-0.5,1.7
		C37.4,56.5,37,55.1,36.5,53.8z"/>
	<path class="st37" d="M25.7,83.3c-1.1-0.2-0.9-0.9-0.7-1.7c0.4-0.3,0.8-0.2,1.2-0.3c0.2,0,0.3,0,0.5,0.1c0.6,0.3,0.9,0.8,1,1.4
		C27,83,26.3,83.1,25.7,83.3z"/>
	<path class="st39" d="M5.7,32.4c-0.6,0-1.1-0.5-1.7-0.2c0.2-0.9,0.3-1.8,0.7-2.7c0.5,0.2,1.1,0.3,1.5,0.8C6.1,31,5.9,31.7,5.7,32.4
		z"/>
	<path class="st17" d="M27.1,68.1c0.5,0.4,0.1,1,0.3,1.5c-0.3,1.7-0.5,3.4-0.8,5c-0.7-0.5-0.3-1.1-0.3-1.7
		C26.6,71.3,26.7,69.7,27.1,68.1z"/>
	<path class="st32" d="M36.2,82.5c0.8,0.1,1.7-0.2,2.4,0.5c0.5,0.4,1,0.8,1.5,1.2c0.1,0.5-0.4,0.6-0.7,0.7c-0.9,0-1.4-0.7-2-1.2
		c0.2-0.4,0-0.6-0.5-0.7C36.7,83,36.2,83.1,36.2,82.5z"/>
	<path class="st42" d="M19.2,69.9c0.1,0.7-0.4,1.1-0.9,1.4c-0.4-0.5-0.8-1.1-1.2-1.6c0-0.6,0.5-0.8,1-0.8c0.2,0.1,0.3,0.2,0.5,0.2
		C18.7,69.4,19,69.6,19.2,69.9z"/>
	<path class="st5" d="M14.1,75.4c0.3-1.1,0.7-2.2,1-3.3c0.6,0.1,0.6,0.5,0.6,0.9c-0.3,0.8-0.6,1.6-0.9,2.4c-0.2,0.1-0.1,0.5-0.4,0.5
		C14.2,75.8,14,75.7,14.1,75.4z"/>
	<path class="st27" d="M6.2,30.2c-0.5-0.3-1.3,0-1.5-0.8c0.1-0.5,0.1-1,0.5-1.5c0.9-0.3,1.2,0.2,1.2,1C6.4,29.4,6.3,29.8,6.2,30.2z"
		/>
	<path class="st18" d="M6.5,29c-0.3-0.5-0.6-1-1.2-1c0.1-0.6,0.2-1.2,0.5-1.7c0.4,0.3,0.9,0.5,1.2,1C6.9,28,6.7,28.5,6.5,29z"/>
	<path class="st15" d="M23.8,60.5c0.4-0.1,0.3-0.8,0.9-0.5c-0.8,1.3-1.5,2.8-2.4,4.1c-0.2,0-0.3,0-0.2-0.3
		C22.6,62.7,23.2,61.6,23.8,60.5z"/>
	<path class="st36" d="M37.9,57.8c0.8-0.4,0.3-1.1,0.5-1.7c0.2,0.6,0.5,1.1,0.7,1.7c-0.2,0.4,0.5,1.4-0.7,1.2
		C38.2,58.6,38.1,58.2,37.9,57.8z"/>
	<path class="st29" d="M26.4,72.9c0.2,0.6-0.2,1.2,0.3,1.7c0.1,0.6-0.1,1.1-0.2,1.6c0,0.1,0,0.4-0.2,0.3c-0.1-0.1-0.2-0.3-0.3-0.5
		C25.8,75,26,73.9,26.4,72.9z"/>
	<path class="st52" d="M30.5,45.4c0.5,0.6,1.1,1.2,1,2.1c-0.7-0.5-1.2-1.1-1.5-1.9C30.1,45.4,30.3,45.5,30.5,45.4z"/>
	<path class="st45" d="M19.9,67.7c0.1-1.1,0.8-1.8,1.5-2.6c0.1,0,0.2,0.1,0.2,0.2C21.4,66.3,20.5,66.9,19.9,67.7z"/>
	<path class="st34" d="M14.1,75.4c0.2,0.6,0.5,0.2,0.7,0c0.1,0.6-0.3,1-0.5,1.4c-0.3,0.2-0.7,0.4-0.7-0.2
		C13.7,76.1,13.8,75.7,14.1,75.4z"/>
	<path class="st44" d="M39.4,85c0.1-0.4,0.5-0.4,0.7-0.7c0.5,0.1,1.1,0.3,1,1C40.5,85.1,39.9,85.4,39.4,85z"/>
	<path class="st40" d="M30.5,45.4c0,0.5-0.3,0.3-0.5,0.3c-0.5-0.4-0.7-0.9-1-1.4c0.1-0.2,0.4-0.1,0.5-0.2C30,44.3,30,45,30.5,45.4z"
		/>
	<path class="st21" d="M29.5,44c0,0.5-0.3,0.2-0.5,0.2c-0.3-0.2-0.4-0.4-0.4-0.7c0.1-0.3-0.2-0.5-0.2-0.7c0-0.2,0.1-0.4,0.3-0.5
		C29.1,42.7,29.1,43.4,29.5,44z"/>
	<path class="st25" d="M21.6,65.3c-0.1-0.1-0.2-0.2-0.2-0.2c0.1-0.5,0.4-0.8,0.7-1.2c0.1,0.1,0.2,0.2,0.2,0.3
		C22.4,64.6,21.8,64.8,21.6,65.3z"/>
	<path class="st61" d="M27.8,34.5c-0.4,0.1-0.7,0-0.7-0.5c-0.3-2.8-0.7-5.6-1.2-8.3c-0.1-0.4-0.2-1,0.1-1.2c0.4-0.3,0.7,0.3,1,0.5
		c2.7,1.8,5.6,3.1,8.5,4.6c0,0.2-0.1,0.4-0.2,0.5C32.8,31.6,30.5,33.3,27.8,34.5z"/>
	<path class="st50" d="M27.8,34.5c2-1.5,4.1-2.7,6.2-3.9c0.6-0.3,1-0.7,1.5-1.1c0.7,0,1.5,0,2.2,0.4c0.3,0,0.5,0.2,0.7,0.5
		c0,0.1,0.2,0.3,0,0.4c-3.3,1.7-6.6,3.5-9.8,5.4c-1,0.6-1.8,1.3-2,2.5c-0.2,0.1-0.3,0-0.4-0.1c-0.3-0.3-0.5-0.6-0.8-0.8
		c-0.4-1.3,0.2-2.5,1.6-3.1C27.3,34.8,27.7,34.9,27.8,34.5z"/>
	<path class="st61" d="M18.5,9.9c0,1.5-1.4,2.8-2.8,2.8c-1.6,0-2.9-1.4-2.9-2.9c0-1.6,1.4-2.9,3-2.8C17.4,7,18.5,8.2,18.5,9.9z"/>
	<path class="st50" d="M30,18.3c2.9,1.6,5.5,3.4,7.8,5.7c0.7,0.7,0.8,1.5,0.8,2.4c0,0.2,0,0.5,0,0.9c-2.8-3-6.2-5-9.6-7.1
		C29.2,19.4,29.5,18.8,30,18.3z"/>
	<path class="st60" d="M19.7,10.3c0-1.1,1-2.1,2.1-2.1c1,0,2,1,2,2.1c0,1.1-1,2.2-2.1,2.2C20.6,12.5,19.7,11.4,19.7,10.3z"/>
	<path class="st46" d="M0.9,16c1.2-0.5,2.4-1,3.6-1.2c-0.6,1-0.5,2.1-0.2,3.1c-0.9,0.3-1.8,0.6-2.7,0.9c-0.5,0.2-0.7,0.1-0.7-0.5
		C1,17.6,0.9,16.8,0.9,16z"/>
	<path class="st43" d="M4.3,18c-0.8-0.8-0.7-2.6,0.2-3.1c0.3-0.1,0.6-0.3,1-0.2c0.9,0.2,1.4,0.7,1.1,1.6c-0.1,0.4-0.1,0.7,0.1,1
		C6,17.7,5.1,17.7,4.3,18z"/>
	<path class="st36" d="M6.7,17.3c-0.5,0-0.8-0.1-0.5-0.7c0.6-1,0.1-1.5-0.7-2c0.2-0.1,0.3-0.2,0.5-0.2c0.8,0.1,1.6-0.7,2.4,0
		c0.7,0.6,0.3,1.5,0.5,2.2C8.3,17.2,7.4,17,6.7,17.3z"/>
	<path class="st4" d="M24,17.3c-0.7-0.1-1.3-0.2-2-0.2c-0.6,0-1-0.1-0.9-0.9c0.1-0.8,0.5-0.8,1.1-0.7c0.5,0.1,1.1,0.1,1.6,0.2
		c0.4,0.3,0.8,0,1.2,0.3c0,0.5-0.5,0.8-0.5,1.3C24.5,17.4,24.2,17.4,24,17.3z"/>
	<path class="st19" d="M13.4,16.5c-1.1-0.1-2.2-0.1-3.4-0.2c-0.3-0.5,0.2-1,0-1.5c-0.1-0.3,0.2-0.4,0.4-0.3c0.4,0,0.9-0.1,1.3,0.1
		c1,0.1,1.9-0.1,2.9,0.2c-0.1,0.2-0.4,0.3-0.6,0.3C12.9,15.4,12.9,15.5,13.4,16.5z"/>
	<path class="st51" d="M6,11C5.2,8.7,5.4,6.3,5.8,3.8c0.2,0.8,0.4,1.5,0.3,2.3c0,0.7,0.4,0.3,0.6,0.3c0.1,1.4-0.4,2.9-0.2,4.3
		C6.5,11.2,6.3,11.1,6,11z"/>
	<path class="st43" d="M30,18.3c-0.1,0.7-0.4,1.4-1,1.9c-0.7-0.3-1.4-0.7-1.9-1.2c0.5-0.5,0.7-1.2,1.2-1.7
		C29,17.4,29.5,17.8,30,18.3z"/>
	<path class="st33" d="M28.3,17.3C28.1,18,28,18.8,27.1,19c-0.4-0.2-0.8-0.5-1.2-0.7c-0.5-1-0.4-1.4,0.7-1.9
		C27.4,16.4,27.8,17,28.3,17.3z"/>
	<path class="st28" d="M11.8,14.6c-0.5,0-1,0-1.8,0c1.2,0.8,0.3,1.2,0.1,1.7c-0.4,0.2-0.8,0.3-1.2,0.2c-0.2-0.1-0.6-0.2-0.5-0.4
		c0.3-0.6-0.1-1.2,0-1.8C9.5,14.5,10.7,14.2,11.8,14.6z"/>
	<path class="st12" d="M13.4,16.5c-0.4-0.3-0.9-0.2-0.7-1.1c0.2-0.8,0.6-0.5,1-0.6c0.3,0,0.6,0,0.9,0c0.8-0.1,0.7,0.5,0.7,1
		c0,0.5-0.2,0.8-0.8,0.8C14.2,16.6,13.8,16.6,13.4,16.5z"/>
	<path class="st20" d="M26.6,16.3c-0.6,0.5-1,1.1-0.7,1.9c-0.6-0.3-1.3-0.6-1.9-1c0.5-0.3-0.1-1.2,0.9-1.2c-0.4-0.4-0.9,0-1.1-0.5
		c0.9,0,1.8-0.1,2.6,0.5C26.5,16.2,26.6,16.2,26.6,16.3z"/>
	<path class="st41" d="M6.7,6.5C6.7,6.5,6.6,6.6,6.6,6.7c-0.2,0.2,0,0.8-0.5,0.7C5.6,7.3,5.8,6.8,5.8,6.5c0-0.9,0-1.8,0-2.6
		C5.8,3,5.6,2.2,6,1.4C6,2.3,6,3.1,6,4c0,0.5,0.1,0.8,0.7,0.8C6.7,5.4,6.7,5.9,6.7,6.5z"/>
	<path class="st6" d="M26.4,38.7c0.1,0.1,0.2,0.1,0.3,0.2c0.6,1.1,1.3,2.2,1.9,3.4c0,0.2,0,0.4-0.3,0.5c-0.7-1.3-1.5-2.5-2.2-3.8
		C26.1,38.7,26.2,38.6,26.4,38.7z"/>
	<path class="st24" d="M26.4,38.7c-0.1,0.1-0.2,0.2-0.3,0.3c-0.3-0.3-0.6-0.6-0.7-1C26.1,37.7,26.1,38.4,26.4,38.7z"/>
	<path class="st48" d="M43.7,42.9c0.3-0.4,0.7-0.2,1-0.3c2.2-0.2,4.5-0.3,6.7-0.2c0.7,0,1.5,0.2,2.2,0.2c0.6,0.1,1,0.3,1,0.9
		c-1,0.7-2,0-3,0.1c-2.7,0.3-5.3,0.4-8,0.6c0-0.3,0.2-0.4,0.4-0.5c0.6-0.1,1.3-0.1,2-0.4C45.3,43,44.3,43.6,43.7,42.9z"/>
	<path class="st51" d="M43.5,11.5c-1.3,1.6-3,2.8-4.1,4.7c-0.4-0.4-0.2-0.8-0.3-1.2c0.8-1.8,2.2-3,3.6-4.3
		C43.1,11,43.3,11.2,43.5,11.5z"/>
	<path class="st41" d="M43.5,11.5c-0.3-0.2-0.7-0.2-0.7-0.7c0.4-0.4,0.8-0.8,1.2-1.3c0,0,0,0.1,0,0.1c0.4,0.2,0.4,0.6,0.4,1.1
		C44.2,11.1,43.8,11.3,43.5,11.5z"/>
	<path class="st59" d="M36.3,45.4c-0.8,0-1.7-0.9-1.7-1.8c0-1.1,0.8-2,1.7-2c1.1,0,2.1,0.9,2.1,2.1C38.4,44.4,37.3,45.4,36.3,45.4z"
		/>
	<path class="st57" d="M41.3,41.4c-0.2,0.9-0.8,1.5-1.5,1.5c-0.7,0-1.4-0.6-1.3-1.4c0-0.8,0.5-1.4,1.5-1.4
		C40.8,40.1,41.1,40.7,41.3,41.4z"/>
	<path class="st16" d="M35.7,47.7c0.6-0.4,1.1-0.7,1.7-1.1c0.4-0.3,0.8-0.3,1.1,0.2c0.3,0.5,0.1,0.7-0.3,1c-0.6,0.3-1.3,0.7-1.9,1
		C35.4,48.7,35.3,48.5,35.7,47.7z"/>
	<path class="st31" d="M35.7,47.7c-0.2,0.5-0.1,0.9,0.5,1c-0.6,0.5-1.1,1.1-1.7,1.6c-0.1-1-0.1-1-1-1.2C34.2,48.5,35,48.1,35.7,47.7
		z"/>
	<path class="st8" d="M44.2,44.2c-0.2,0-0.4,0-0.5,0.2c-0.4,0.2-0.9,0.4-1.3,0.6c-0.4,0.2-0.6,0.1-0.8-0.3c-0.2-0.3,0-0.5,0.3-0.7
		c0.5-0.3,1-0.6,1.6-0.9c0.4-0.2,0.7-0.2,1,0.2C44.6,43.8,44.4,44,44.2,44.2z"/>
	<path class="st32" d="M44.2,44.2c0.5-0.8-0.1-0.9-0.7-0.9c0.1-0.1,0.1-0.2,0.2-0.3c0.8,0,1.7,0,2.5,0c0.2,0,0.5,0,0.6,0.3
		c0,0.3-0.2,0.6-0.5,0.6C45.6,43.9,44.9,44.3,44.2,44.2z"/>
	<path class="st58" d="M16,62.9c0.9,0,1.6,0.7,1.5,1.6c-0.1,0.8-0.6,1.4-1.4,1.5c-0.8,0.1-1.6-0.8-1.6-1.6
		C14.4,63.4,15,62.9,16,62.9z"/>
	<path class="st57" d="M13,63.9c-0.7-0.1-1.1-0.6-1.2-1.2c0-0.6,0.3-1.2,1-1.1c0.6,0,1.3,0.3,1.3,1.1C14.1,63.3,13.6,63.7,13,63.9z"
		/>
	<path class="st9" d="M16,68.7c-0.5-0.2-1.1-0.4-1.5-0.8c-0.3-0.3-0.5-0.5-0.2-0.9c0.3-0.5,0.6-0.2,0.9,0c0.3,0.2,0.6,0.5,0.9,0.7
		C16.6,68.1,16.6,68.4,16,68.7z"/>
	<path class="st35" d="M7.7,64.8c-0.1-0.3-0.5-0.5-0.5-1C8.1,64,9,63.6,9.8,64.1c-0.5,0.3,0.2,0.6,0,1C9.1,65,8.4,65.2,7.7,64.8z"/>
	<path class="st10" d="M9.8,65.1c-0.1-0.3-0.7-0.2-0.7-0.7c0.1-0.4,0.4-0.3,0.6-0.3c0.5,0.2,1,0.5,1.5,0.7c0.3,0.1,0.5,0.3,0.3,0.6
		c-0.2,0.3-0.4,0.3-0.7,0.1C10.6,65.4,10.2,65.2,9.8,65.1z"/>
	<path class="st23" d="M16,68.7c0.3-0.3,0.2-0.6,0-1c0.8,0.1,1.3,0.7,2,1.1c-0.3,0.3-0.7,0.5-1,0.8C16.7,69.3,16.4,69,16,68.7z"/>
	<path class="st59" d="M50.6,5.1c-0.1,0.7-0.6,1.2-1.4,1.3c-0.8,0.1-1.6-0.7-1.7-1.5c0-0.8,0.7-1.6,1.6-1.6
		C49.8,3.2,50.6,4,50.6,5.1z"/>
	<path class="st55" d="M47,5.8c0,0.7-0.3,1.1-1.1,1.1c-0.7,0-1.3-0.4-1.3-1.1c0-0.7,0.5-1.2,1.2-1.2C46.6,4.6,47,5.1,47,5.8z"/>
	<path class="st4" d="M52.3,6.7c1,0.3-0.1,0.6,0,0.9c-0.5,0.2-1,0.3-1.5,0.5c-0.4,0.2-0.7,0.2-0.9-0.3c-0.2-0.5,0.1-0.6,0.5-0.7
		C51.1,7,51.7,6.9,52.3,6.7z"/>
	<path class="st11" d="M44.4,9.3c0.6-0.6,1.4-0.4,2.1-0.8c0.2-0.1,0.5,0,0.6,0.3c0.1,0.3-0.1,0.4-0.3,0.5c-0.5,0.3-1.2,0.2-1.6,0.7
		C44.6,10.1,44.3,9.8,44.4,9.3z"/>
	<path class="st22" d="M44.4,9.3c0.2,0.2,0.5,0.5,0.7,0.7c-0.2,0.2-0.5,0.5-0.7,0.7c-0.1-0.4-0.3-0.7-0.4-1.1
		C44.1,9.6,44.2,9.5,44.4,9.3z"/>
	<path class="st59" d="M30.2,78.7c0.1-1.1,0.7-1.7,1.9-1.7c0.9,0,1.8,0.9,1.7,1.8c0,1-0.9,1.8-1.9,1.8
		C30.9,80.5,30.2,79.7,30.2,78.7z"/>
	<path class="st56" d="M34.5,79.3c0-0.8,0.3-1.3,1.2-1.3c0.7,0,1.4,0.3,1.4,1.1c0,0.8-0.6,1.4-1.4,1.4
		C34.8,80.7,34.5,80.1,34.5,79.3z"/>
	<path class="st26" d="M27.6,82.8c-0.2-0.1-0.7-0.1-0.6-0.2c0.6-0.7-0.4-0.8-0.4-1.2c1.2,0.4,2.4,0.1,3.7,0.2c0.4,0,0.8-0.1,1.1,0.2
		c-0.5,0.5-1.2,0.2-1.8,0.4c0.1,0.2,0.4,0.3,0.3,0.6C29.2,82.8,28.4,82.8,27.6,82.8z"/>
	<path class="st14" d="M36.2,82.5c0.3,0.4,0.6,0.2,1,0.3c0.3,0,0.7,0,0.8,0.4c0,0.4-0.2,0.6-0.6,0.6c-0.5-0.1-1-0.2-1.5-0.4
		c-0.3-0.1-0.9,0.1-0.8-0.6C35.3,82.1,35.8,82.4,36.2,82.5z"/>
	<path class="st13" d="M30,82.8c-0.2-0.5-1.3,0.1-1.1-0.7c0.1-0.5,0.9-0.2,1.4-0.3c0.4,0,0.8,0,1.2,0C31.7,83,31.5,83.2,30,82.8z"/>
</g>
</svg>
