<?xml version="1.0" encoding="utf-8"?>
<!-- Generator: Adobe Illustrator 16.0.0, SVG Export Plug-In . SVG Version: 6.00 Build 0)  -->
<!DOCTYPE svg PUBLIC "-//W3C//DTD SVG 1.1//EN" "http://www.w3.org/Graphics/SVG/1.1/DTD/svg11.dtd">
<svg version="1.1" id="Layer_1" xmlns="http://www.w3.org/2000/svg" xmlns:xlink="http://www.w3.org/1999/xlink" x="0px" y="0px"
	 width="52.9px" height="81.9px" viewBox="0 0 52.9 81.9" style="enable-background:new 0 0 52.9 81.9;" xml:space="preserve">
<style type="text/css">
<![CDATA[
	.st0{fill-rule:evenodd;clip-rule:evenodd;fill:#700000;}
	.st1{fill-rule:evenodd;clip-rule:evenodd;fill:#A00000;}
	.st2{fill-rule:evenodd;clip-rule:evenodd;fill:#710000;}
	.st3{fill-rule:evenodd;clip-rule:evenodd;fill:#A10000;}
	.st4{fill-rule:evenodd;clip-rule:evenodd;fill:#720000;}
	.st5{fill-rule:evenodd;clip-rule:evenodd;fill:#A20700;}
	.st6{fill-rule:evenodd;clip-rule:evenodd;fill:#A30000;}
	.st7{fill-rule:evenodd;clip-rule:evenodd;fill:#740000;}
	.st8{fill-rule:evenodd;clip-rule:evenodd;fill:#A40000;}
	.st9{fill-rule:evenodd;clip-rule:evenodd;fill:#A40200;}
	.st10{fill-rule:evenodd;clip-rule:evenodd;fill:#A50000;}
	.st11{fill-rule:evenodd;clip-rule:evenodd;fill:#A50900;}
	.st12{fill-rule:evenodd;clip-rule:evenodd;fill:#A60000;}
	.st13{fill-rule:evenodd;clip-rule:evenodd;fill:#A70000;}
	.st14{fill-rule:evenodd;clip-rule:evenodd;fill:#780000;}
	.st15{fill-rule:evenodd;clip-rule:evenodd;fill:#A80600;}
	.st16{fill-rule:evenodd;clip-rule:evenodd;fill:#DC3002;}
	.st17{fill-rule:evenodd;clip-rule:evenodd;fill:#A90100;}
	.st18{fill-rule:evenodd;clip-rule:evenodd;fill:#410000;}
	.st19{fill-rule:evenodd;clip-rule:evenodd;fill:#430000;}
	.st20{fill-rule:evenodd;clip-rule:evenodd;fill:#450100;}
	.st21{fill-rule:evenodd;clip-rule:evenodd;fill:#7A0000;}
	.st22{fill-rule:evenodd;clip-rule:evenodd;fill:#AA0000;}
	.st23{fill-rule:evenodd;clip-rule:evenodd;fill:#7B0000;}
	.st24{fill-rule:evenodd;clip-rule:evenodd;fill:#AB0000;}
	.st25{fill-rule:evenodd;clip-rule:evenodd;fill:#7C0000;}
	.st26{fill-rule:evenodd;clip-rule:evenodd;fill:#AC0200;}
	.st27{fill-rule:evenodd;clip-rule:evenodd;fill:#7D0000;}
	.st28{fill-rule:evenodd;clip-rule:evenodd;fill:#AE0000;}
	.st29{fill-rule:evenodd;clip-rule:evenodd;fill:#AE0D01;}
	.st30{fill-rule:evenodd;clip-rule:evenodd;fill:#7F0000;}
	.st31{fill-rule:evenodd;clip-rule:evenodd;fill:#110000;}
	.st32{fill-rule:evenodd;clip-rule:evenodd;fill:#AF0000;}
	.st33{fill-rule:evenodd;clip-rule:evenodd;fill:#E35804;}
	.st34{fill-rule:evenodd;clip-rule:evenodd;fill:#150100;}
	.st35{fill-rule:evenodd;clip-rule:evenodd;fill:#E45F04;}
	.st36{fill-rule:evenodd;clip-rule:evenodd;fill:#E46004;}
	.st37{fill-rule:evenodd;clip-rule:evenodd;fill:#E46104;}
	.st38{fill-rule:evenodd;clip-rule:evenodd;fill:#E46204;}
	.st39{fill-rule:evenodd;clip-rule:evenodd;fill:#E46304;}
	.st40{fill-rule:evenodd;clip-rule:evenodd;fill:#E46404;}
	.st41{fill-rule:evenodd;clip-rule:evenodd;fill:#E46504;}
	.st42{fill-rule:evenodd;clip-rule:evenodd;fill:#E46608;}
	.st43{fill-rule:evenodd;clip-rule:evenodd;fill:#E56604;}
	.st44{fill-rule:evenodd;clip-rule:evenodd;fill:#E56705;}
	.st45{fill-rule:evenodd;clip-rule:evenodd;fill:#E56805;}
	.st46{fill-rule:evenodd;clip-rule:evenodd;fill:#E56905;}
	.st47{fill-rule:evenodd;clip-rule:evenodd;fill:#180000;}
	.st48{fill-rule:evenodd;clip-rule:evenodd;fill:#800000;}
	.st49{fill-rule:evenodd;clip-rule:evenodd;fill:#B00200;}
	.st50{fill-rule:evenodd;clip-rule:evenodd;fill:#B00300;}
	.st51{fill-rule:evenodd;clip-rule:evenodd;fill:#B10100;}
	.st52{fill-rule:evenodd;clip-rule:evenodd;fill:#B10400;}
	.st53{fill-rule:evenodd;clip-rule:evenodd;fill:#B20500;}
	.st54{fill-rule:evenodd;clip-rule:evenodd;fill:#830000;}
	.st55{fill-rule:evenodd;clip-rule:evenodd;fill:#B30800;}
	.st56{fill-rule:evenodd;clip-rule:evenodd;fill:#840000;}
	.st57{fill-rule:evenodd;clip-rule:evenodd;fill:#B40000;}
	.st58{fill-rule:evenodd;clip-rule:evenodd;fill:#B40201;}
	.st59{fill-rule:evenodd;clip-rule:evenodd;fill:#850000;}
	.st60{fill-rule:evenodd;clip-rule:evenodd;fill:#860000;}
	.st61{fill-rule:evenodd;clip-rule:evenodd;fill:#861513;}
	.st62{fill-rule:evenodd;clip-rule:evenodd;fill:#B60100;}
	.st63{fill-rule:evenodd;clip-rule:evenodd;fill:#B70000;}
	.st64{fill-rule:evenodd;clip-rule:evenodd;fill:#B70100;}
	.st65{fill-rule:evenodd;clip-rule:evenodd;fill:#B70200;}
	.st66{fill-rule:evenodd;clip-rule:evenodd;fill:#B80000;}
	.st67{fill-rule:evenodd;clip-rule:evenodd;fill:#B80200;}
	.st68{fill-rule:evenodd;clip-rule:evenodd;fill:#B90100;}
	.st69{fill-rule:evenodd;clip-rule:evenodd;fill:#B90200;}
	.st70{fill-rule:evenodd;clip-rule:evenodd;fill:#B90500;}
	.st71{fill-rule:evenodd;clip-rule:evenodd;fill:#EDC9C9;}
	.st72{fill-rule:evenodd;clip-rule:evenodd;fill:#530000;}
	.st73{fill-rule:evenodd;clip-rule:evenodd;fill:#8A0700;}
	.st74{fill-rule:evenodd;clip-rule:evenodd;fill:#8B0000;}
	.st75{fill-rule:evenodd;clip-rule:evenodd;fill:#BB0800;}
	.st76{fill-rule:evenodd;clip-rule:evenodd;fill:#BB0B01;}
	.st77{fill-rule:evenodd;clip-rule:evenodd;fill:#BC0000;}
	.st78{fill-rule:evenodd;clip-rule:evenodd;fill:#8D0000;}
	.st79{fill-rule:evenodd;clip-rule:evenodd;fill:#BD0500;}
	.st80{fill-rule:evenodd;clip-rule:evenodd;fill:#BD0800;}
	.st81{fill-rule:evenodd;clip-rule:evenodd;}
	.st82{fill-rule:evenodd;clip-rule:evenodd;fill:#8F0000;}
	.st83{fill:#FEFDFD;}
	.st84{fill-rule:evenodd;clip-rule:evenodd;fill:#BF0100;}
	.st85{fill-rule:evenodd;clip-rule:evenodd;fill:#BF0900;}
	.st86{fill-rule:evenodd;clip-rule:evenodd;fill:#F2C8C2;}
	.st87{fill-rule:evenodd;clip-rule:evenodd;fill:#F4C9C9;}
	.st88{fill-rule:evenodd;clip-rule:evenodd;fill:#5B0000;}
	.st89{fill-rule:evenodd;clip-rule:evenodd;fill:#F6E1DC;}
	.st90{fill-rule:evenodd;clip-rule:evenodd;fill:#5C0000;}
	.st91{fill-rule:evenodd;clip-rule:evenodd;fill:#F7E4E4;}
	.st92{fill-rule:evenodd;clip-rule:evenodd;fill:#F8DAC2;}
	.st93{fill-rule:evenodd;clip-rule:evenodd;fill:#F8DDDD;}
	.st94{fill-rule:evenodd;clip-rule:evenodd;fill:#F9E2CF;}
	.st95{fill-rule:evenodd;clip-rule:evenodd;fill:#900100;}
	.st96{fill-rule:evenodd;clip-rule:evenodd;fill:#C00300;}
	.st97{fill-rule:evenodd;clip-rule:evenodd;fill:#C00700;}
	.st98{fill-rule:evenodd;clip-rule:evenodd;fill:#910000;}
	.st99{fill-rule:evenodd;clip-rule:evenodd;fill:#C10400;}
	.st100{fill-rule:evenodd;clip-rule:evenodd;fill:#920000;}
	.st101{fill-rule:evenodd;clip-rule:evenodd;fill:#C20000;}
	.st102{fill-rule:evenodd;clip-rule:evenodd;fill:#C20100;}
	.st103{fill-rule:evenodd;clip-rule:evenodd;fill:#C20200;}
	.st104{fill-rule:evenodd;clip-rule:evenodd;fill:#C20201;}
	.st105{fill-rule:evenodd;clip-rule:evenodd;fill:#C20300;}
	.st106{fill-rule:evenodd;clip-rule:evenodd;fill:#C20400;}
	.st107{fill-rule:evenodd;clip-rule:evenodd;fill:#C30000;}
	.st108{fill-rule:evenodd;clip-rule:evenodd;fill:#C30400;}
	.st109{fill-rule:evenodd;clip-rule:evenodd;fill:#C30403;}
	.st110{fill-rule:evenodd;clip-rule:evenodd;fill:#940000;}
	.st111{fill-rule:evenodd;clip-rule:evenodd;fill:#C40100;}
	.st112{fill-rule:evenodd;clip-rule:evenodd;fill:#950000;}
	.st113{fill-rule:evenodd;clip-rule:evenodd;fill:#2A0000;}
	.st114{fill-rule:evenodd;clip-rule:evenodd;fill:#C51501;}
	.st115{fill-rule:evenodd;clip-rule:evenodd;fill:#960000;}
	.st116{fill-rule:evenodd;clip-rule:evenodd;fill:#970200;}
	.st117{fill-rule:evenodd;clip-rule:evenodd;fill:#FAE7E7;}
	.st118{fill-rule:evenodd;clip-rule:evenodd;fill:#980000;}
	.st119{fill-rule:evenodd;clip-rule:evenodd;fill:#FBEAE1;}
	.st120{fill-rule:evenodd;clip-rule:evenodd;fill:#FBEBDE;}
	.st121{fill-rule:evenodd;clip-rule:evenodd;fill:#FBEBDF;}
	.st122{fill-rule:evenodd;clip-rule:evenodd;fill:#FBEDE2;}
	.st123{fill-rule:evenodd;clip-rule:evenodd;fill:#FBEFEF;}
	.st124{fill-rule:evenodd;clip-rule:evenodd;fill:#FBF1F1;}
	.st125{fill-rule:evenodd;clip-rule:evenodd;fill:#FCEFE6;}
	.st126{fill-rule:evenodd;clip-rule:evenodd;fill:#FCF2E9;}
	.st127{fill-rule:evenodd;clip-rule:evenodd;fill:#FCF6F6;}
	.st128{fill-rule:evenodd;clip-rule:evenodd;fill:#FDF6F1;}
	.st129{fill-rule:evenodd;clip-rule:evenodd;fill:#FDF7F1;}
	.st130{fill-rule:evenodd;clip-rule:evenodd;fill:#FDF7F2;}
	.st131{fill-rule:evenodd;clip-rule:evenodd;fill:#FDF8F4;}
	.st132{fill-rule:evenodd;clip-rule:evenodd;fill:#FEFEFE;}
	.st133{fill-rule:evenodd;clip-rule:evenodd;fill:#640000;}
	.st134{fill-rule:evenodd;clip-rule:evenodd;fill:#9A0000;}
	.st135{fill-rule:evenodd;clip-rule:evenodd;fill:#CA0000;}
	.st136{fill-rule:evenodd;clip-rule:evenodd;fill:#CA0100;}
	.st137{fill-rule:evenodd;clip-rule:evenodd;fill:#9B0000;}
	.st138{fill-rule:evenodd;clip-rule:evenodd;fill:#9B0B00;}
	.st139{fill-rule:evenodd;clip-rule:evenodd;fill:#680000;}
	.st140{fill-rule:evenodd;clip-rule:evenodd;fill:#CC0000;}
	.st141{fill-rule:evenodd;clip-rule:evenodd;fill:#9D0100;}
	.st142{fill-rule:evenodd;clip-rule:evenodd;fill:#CE1301;}
	.st143{fill-rule:evenodd;clip-rule:evenodd;fill:#9F0000;}
	.st144{fill-rule:evenodd;clip-rule:evenodd;fill:#310000;}
	.st145{fill-rule:evenodd;clip-rule:evenodd;fill:#390000;}
	.st146{fill-rule:evenodd;clip-rule:evenodd;fill:#6E0000;}
	.st147{fill-rule:evenodd;clip-rule:evenodd;fill:#6F0000;}
	.st148{fill-rule:evenodd;clip-rule:evenodd;fill:#D01D02;}
	.st149{fill-rule:evenodd;clip-rule:evenodd;fill:#050200;}
]]>
</style>
<g>
	<path class="st83" d="M52.8,2.5c-0.5-0.2-0.6-0.7-0.9-1c-0.6-0.6-1.2-1.1-2.2-1.1c-0.1,0-0.3,0-0.4,0c-3.7,0-7.4,0-11.1,0
		c-4.5,0.1-9.1-0.1-13.6,0c-3.3,0-6.6,0-9.8,0C11,0.3,7.3,0.3,3.6,0.4C1.3,0.5,0.5,1.5,0.5,3.9c0,10.6-0.1,21.1-0.1,31.7
		c0,8.9,0,17.8,0,26.7c0,0.5,0.1,0.9,0,1.4c0,2.8,0,5.5,0,8.3c0,1,0,1.9,0,2.9c0,1.2,0,2.5,0,3.7c0,1.9,0.8,2.7,2.7,2.7
		c1.5,0,3,0,4.6,0c0.5,0,1,0,1.5,0c0.3,0,0.6,0,0.9,0c2.3-0.1,4.5,0,6.8,0c0.8,0,1.5,0,2.3,0c4.1,0.3,8.1,0.2,12.2,0.2
		c2.6,0.1,5.2,0,7.8,0c3.2,0,6.4,0,9.6,0c2.7,0,3.7-1,3.7-3.7c0-4-0.1-8,0-12c0-2.5-0.1-5.1-0.1-7.6c0.3-1.3,0.1-2.6-0.1-4
		c-0.2-3.2,0.1-6.5,0-9.7c0-0.5,0.1-0.9,0.2-1.4c0.1-0.5-0.1-1.1,0.5-1.4"/>
	<path class="st128" d="M52.8,41.5c-0.3-0.5-0.2-1-0.3-1.5c0-0.1-0.1-0.2-0.1-0.3c-0.1-0.4-0.1-0.9,0-1.3c0-0.1,0-0.2,0.1-0.3
		c0.1-0.3,0.1-0.6,0-0.9c0-0.1,0-0.2,0-0.3c0-0.2,0-0.4-0.1-0.6c0-0.1-0.1-0.2-0.1-0.3c-0.1-0.7-0.1-1.3,0-2c0-0.1,0-0.2,0.1-0.3
		c0.2-0.6,0.2-1.3,0-1.9c0-0.1-0.1-0.2-0.1-0.3c-0.1-0.4-0.1-0.8,0-1.1c0-0.2,0.1-0.3,0.2-0.5c0.1-0.1,0.1-0.2,0.2-0.2"/>
	<path class="st126" d="M52.5,27.4c-0.5-1-0.5-2.1-0.3-3.2"/>
	<path class="st131" d="M52.7,25c0.1-0.6,0.2-1.2,0.1-1.7c-0.2-0.2-0.2-0.4,0-0.7"/>
	<path class="st117" d="M52.7,10.7c-0.1-0.3-0.1-0.5-0.2-0.8c-0.1-0.3-0.1-0.6-0.1-0.8c0.2-0.7,0-1.5,0.2-2.2c0-0.1,0.1-0.2,0.2-0.3
		"/>
	<path class="st130" d="M52.8,22.6c-0.1-0.1-0.2-0.2-0.2-0.4c0-0.1-0.1-0.2-0.1-0.3c0-0.1-0.1-0.2-0.1-0.3c0-0.3,0-0.5,0-0.8
		c0.1-0.3,0.1-0.7,0.1-1c0-0.4,0-0.7,0.2-1.1"/>
	<path class="st119" d="M52.8,12.4c-0.1,0-0.2-0.1-0.3-0.1c-0.1-0.1-0.1-0.2-0.1-0.3c0-0.1,0-0.2,0-0.3c0-0.3,0.1-0.7,0.4-0.8"/>
	<path class="st91" d="M52.8,14.5c-0.1-0.1-0.1-0.2-0.2-0.3c0-0.1-0.1-0.2-0.1-0.3c0-0.3-0.2-0.6-0.1-0.9c0-0.1,0.1-0.2,0.2-0.3
		c0,0,0.1-0.1,0.1-0.1"/>
	<path class="st127" d="M52.7,16.5"/>
	<path class="st121" d="M52.7,6.1c-0.1-0.2-0.1-0.5-0.1-0.7c0-0.4,0-0.9,0.2-1.3"/>
	<path class="st132" d="M52.8,41.6"/>
	<path class="st124" d="M52.8,18.1c-0.1,0-0.1,0-0.2-0.1c0,0-0.1-0.1-0.1-0.1c0-0.1,0-0.1,0-0.2c0-0.1,0-0.1,0-0.2"/>
	<path class="st122" d="M52.8,3.5c-0.2-0.4-0.2-0.8,0.1-1.1"/>
	<path class="st129" d="M52.8,4.1c-0.4-0.2-0.4-0.3,0-0.5"/>
	<path class="st89" d="M52.8,12.7c-0.1-0.2-0.1-0.3,0-0.4"/>
	<path class="st120" d="M52.8,6.5c0-0.1,0-0.1,0-0.2"/>
	<path class="st46" d="M52.7,63.9c0,0.9-0.1,1.9-0.1,2.8c0.1,1.9,0,3.9,0,5.8c0,1.9-0.1,3.9,0,5.8c0,2-1.2,3.4-3.1,3.4
		c-3.4,0-6.9,0-10.3,0c-0.1-0.1-0.2-0.2-0.3-0.2c-0.1-0.1-0.1-0.1-0.2-0.2c-0.2-0.1-0.3-0.2-0.5-0.3c-0.6-0.4-1.3-0.8-1.9-1.2
		c-0.1-0.1-0.2-0.3-0.2-0.5c1.6-1.4,1.6-3.2,1.7-5.1c0.1-1.3,0.4-2.5,0.6-3.8c0.1-1.2,0.1-2.4-0.3-3.5c-0.3-1-0.9-1.3-1.9-1.5
		c-2.9-0.5-5.8-0.5-8.7-1c-1.1-0.2-1.8,0.2-2.1,1.3c0,0.4,0,0.7-0.1,1.1c-0.2,0.5-0.1,1-0.2,1.4c-0.1,0.4-0.2,0.8-0.2,1.2
		c-0.2,0.5-0.1,1.1-0.2,1.6c0,0.1,0,0.2-0.1,0.4c0,1.2-0.3,2.4-0.2,3.6c0.1,0.6,0.3,1.2,0.5,1.8c0.2,0.5,0.2,1-0.4,1.3
		c-0.7,0.2-1.4,0.2-2.1,0.5c-1.3,0.3-2.6,0.8-3.8,1.3c-0.8,0.3-1.5,0.8-1.8,1.6c-2.3,0.1-4.6,0.1-6.9,0c0-0.9,0.7-1.5,1.1-2.2
		c0.9-1.9,1.6-3.9,2.3-5.9c0.3-0.7,0.4-1.4,0.7-2.1c0.1-0.3,0.2-0.5,0.3-0.8c0.1-0.2,0.2-0.4,0.4-0.6c0.5-0.4,0.8-0.1,1.1,0.3
		c0.6,0.7,1.2,1.3,1.8,2c0.6,0.7,1.3,1.3,2.3,0.9c0.3-0.2,0.6-0.3,0.9-0.9c-0.3-1.9-1.8-3.4-2.9-5c-0.3-0.4-0.6-0.6-0.7-1.1
		c0-0.8,0.8-0.9,1.2-1.3c0.3-0.2,0.7-0.4,0.9-0.8c0,0,0.1-0.1,0.1-0.1c0,0,0.1-0.1,0.1-0.1c0.1-0.1,0.1-0.2,0.2-0.2
		c0.2-0.3,0.4-0.6,0.6-0.9c0-0.1,0.1-0.2,0.2-0.2c0.1-0.1,0.1-0.2,0.2-0.2c0,0,0.1-0.1,0.1-0.1c0.1-0.1,0.1-0.2,0.2-0.4
		c0.1-0.2,0.2-0.3,0.3-0.5c0.1-0.1,0.1-0.2,0.2-0.3c0.1-0.2,0.1-0.3,0.2-0.5c0.1-0.2,0.2-0.5,0.3-0.7c0.2-0.3,0.3-0.5,0.4-0.8
		c0.1-0.1,0.1-0.3,0.2-0.4c0.1-0.2,0.2-0.3,0.3-0.5c0.1-0.3,0.3-0.5,0.4-0.8c0.2-0.7,0-1.3-0.6-1.7c-2.6-1.5-5-3.1-7.6-4.4
		c-0.8,0.1-1.3,0.6-1.8,1c-1.1,0.8-1.4,2-2.1,3c-0.3,0.5-0.6,1.1-1,1.6c-1,1.3-1.8,2.7-1.5,4.5c-0.1,0.1-0.2,0.1-0.3,0.1
		c-1.9,0-3.8-0.3-5.7-0.1c-0.6,0.1-1.2,0.2-1.6,0.6c-0.1,0.1-0.2,0.1-0.4,0.2c-0.1,0-0.1,0-0.2,0c-0.1-0.1-0.1-0.2-0.1-0.4
		C0.2,55.9,0,50,0.2,44.1c0.3-6.3-0.2-12.6,0.1-18.9c0-0.4,0-0.8-0.1-1.2c0-0.4,0.3-0.5,0.5-0.5c1.6-0.4,3.2-0.8,4.7-1.2
		c0.2-0.1,0.5,0,0.7,0.1c0.1,0.1,0.2,0.3,0.2,0.5c0,0.2-0.1,0.4-0.1,0.6c0,0.1-0.1,0.2-0.1,0.3c-0.1,0.2-0.1,0.4-0.2,0.6
		C6,24.4,6,24.5,6,24.6c-0.1,0.2-0.1,0.5-0.2,0.7c0,0.1,0,0.2-0.1,0.3c-0.3,0.9-0.6,1.9-0.9,2.8c-1,3.2-1.7,6.5-2.5,9.8
		c-0.6,2.4-0.7,4.9-0.8,7.3c0.1,0.5,0.1,1,0.1,1.5c0,0.1,0,0.2,0.1,0.3c0,0.2,0.1,0.4,0.2,0.6c0,0.1,0.1,0.2,0.1,0.3
		c0.1,0.2,0.2,0.3,0.3,0.5c0.1,0.1,0.1,0.2,0.2,0.2c0.6,0.6,1.1,0.3,1.5-0.2c1-1.1,1.6-2.5,2.3-3.8c1.2-2.2,2.4-4.4,4.3-6.2
		c0.3-0.3,0.6-0.6,1-0.8c2.4-1.6,4.9-1.3,6.7,0.9c2.1,2.6,4,5.4,6.1,8c0.4,0.5,0.8,1.1,1.6,1.2c0.6-0.3,0.5-0.9,0.5-1.5
		c0.1-1.5-0.2-2.9,0.2-4.4c0.6-0.3,0.7,0.3,0.9,0.5c0.1,0.2,0.2,0.4,0.3,0.6c0.6,1,1.3,1.8,2.2,2.6c0.5,0.6,1.6,0.5,1.6,1.5
		c-0.2,0.5-0.6,0.8-0.9,1.2c-1.1,1.4-2,2.8-3,4.3c-0.4,0.7-0.7,1.4-0.7,2.1c0.1,0.5,0.5,0.7,0.9,0.9c1,0.6,1.8,0.3,2.5-0.5
		c1-1.1,2.1-2,3-3.2c0.3-0.4,0.7-0.8,1.2-0.2c0.1,0.2,0.3,0.4,0.3,0.6c0,0.1,0.1,0.2,0.1,0.3c0,0.5,0.3,1,0.4,1.6
		c0.1,0.3,0.1,0.5,0.2,0.8c0.1,0.2,0.2,0.5,0.3,0.7c0.1,0.4,0.2,0.8,0.4,1.2c0,0.1,0.1,0.2,0.1,0.3c0.1,0.2,0.2,0.4,0.3,0.6
		c0.9,2.3,1.7,4.6,3,6.7c0.6,0.9,1.1,1.9,2.2,2.3c1.2-0.1,0.9-1.1,0.8-1.7c-0.3-1.7-0.4-3.5-0.4-5.2c0-1.1,0.3-2.1,0.9-3
		c0.6-0.9,1.4-1.5,2.5-1.3c2.3,0.4,4.5,1.1,6.5,2.2c0.3,1,0.2,2.1,0,3.2"/>
	<path class="st140" d="M6.3,22.6c-0.8-0.3-1.4,0.3-2.1,0.4c-1.3,0.2-2.5,0.8-3.9,0.8c-0.3-1.3,0-2.6-0.1-3.9c0-0.2,0-0.4,0.1-0.5
		C0.4,19.1,0.6,19,0.8,19c0.2-0.1,0.3-0.1,0.5-0.2c0.1,0,0.2-0.1,0.3-0.1c0.2-0.1,0.4-0.1,0.6-0.2c0.9-0.4,1.9-0.6,2.9-0.9
		c0.4-0.1,0.7-0.2,1.1-0.3c0.3-0.1,0.5-0.2,0.8-0.2c0.2,0,0.4-0.1,0.6-0.2c0.3-0.1,0.5-0.2,0.8-0.3c0.3-0.1,0.7-0.2,1-0.3
		c0.4-0.1,0.8-0.1,1.3-0.1c0.1,0,0.2,0,0.4,0c0.8,0,1.6,0.3,2.4,0.2c0.2,0,0.3,0,0.5,0c0.5-0.1,0.3-0.5,0.3-0.8
		c-0.3-0.3-0.7-0.2-1-0.3c-0.7-0.2-1.4,0-2.1-0.1c-0.1,0-0.2,0-0.4-0.1c-0.6-0.2-1.3-0.1-2-0.2c-0.2,0-0.4,0-0.5-0.1
		c-0.3-0.1-0.7-0.2-1-0.3c-0.1-0.1-0.2-0.1-0.3-0.2c-0.5-0.9-1.2-1.7-1.1-2.8C5.9,10.2,6,8.8,6,7.4c0.1-0.9,0.3-1.7,0.2-2.6
		c0-1.1,0.4-2.1,0.2-3.1c0-0.5-0.1-1.1,0.4-1.5c2.2-0.1,4.4,0,6.6-0.1c0.4,0,0.9,0.1,1.3-0.1c3.3,0,6.6,0,9.9,0c1.3,0.2,2.7,0,4,0.1
		C29,0.7,29,1.3,29,1.8c-0.3,3.8-0.7,7.6-1,11.4c-0.1,1.6-1,2.6-2.5,3c-0.1,0.1-0.2,0.1-0.4,0.2c-0.1,0-0.2,0-0.4,0
		c-0.7-0.2-1.4-0.4-2.1-0.3c-0.2,0-0.3,0-0.5,0c-0.4,0-0.9,0-1.3-0.1c-0.3-0.1-0.5,0-0.6,0.4c0,0.2,0.1,0.4,0.3,0.5
		c0.3,0.2,0.7,0.1,1.1,0.2c0.1,0,0.2,0,0.3,0.1c0.3,0.1,0.7,0.1,1,0.2c0.2,0.1,0.4,0.1,0.5,0.2c0.1,0.1,0.2,0.2,0.3,0.2
		c0.1,0.1,0.2,0.2,0.4,0.2c0.1,0,0.2,0.1,0.3,0.1c0.4,0.2,0.7,0.4,1.1,0.6c0.4,0.3,0.8,0.5,1.2,0.7c0.4,0.2,0.9,0.4,1.3,0.7
		c1.9,1.2,3.9,2.3,5.7,3.7c1,0.8,2,1.7,2.8,2.8c-0.2-0.4-0.3-0.6,0.2-0.7c1,1.6,0.8,2.6-0.7,3.2c-0.2,0-0.5,0.1-0.7,0.1
		c-0.6,0-1.1,0.1-1.7-0.1c-0.9-0.7-1.9-0.9-2.9-1.3c-2-1-3.9-2.2-5.9-3.4c-0.6,0.3-0.1,0.6,0,1c0.6,2.7,1,5.4,1.2,8.1
		c0,0.5-0.4,0.6-0.7,0.8c-1,0.6-1.4,1.3-1.1,2.5c0.2,0.4,0.5,0.7,0.7,1c0.2,0.3,0.5,0.6,0.7,1c0.1,0.2,0.2,0.4,0.3,0.7
		c0.1,0.1,0.2,0.2,0.2,0.4c0.2,0.3,0.4,0.6,0.5,0.9c0.1,0.3,0.2,0.5,0.2,0.8c0,0.2-0.1,0.3-0.2,0.4c0,1.6,0,3.3,0,4.9
		c0,0.7-0.1,1.3-0.8,1.6c-1.4-0.4-2-1.6-2.8-2.6c-1.8-2.3-3.5-4.7-5.2-7c-0.3-0.4-0.8-0.8-1.2-1.2c-0.3-0.3-0.6-0.5-0.9-0.5
		c-1.8-0.2-3.4,0.1-4.9,1.4c-1.7,1.5-2.9,3.4-3.9,5.3c-0.7,1.2-1.3,2.6-2,3.8c-0.5,0.8-1.1,1.4-1.8,2c-0.6-0.1-0.9-0.5-1.2-1
		c-0.5-2.3,0.1-4.5,0.5-6.7c0.8-4.4,2-8.6,3.2-12.9c0.1-1,0.5-1.8,0.7-2.8c0-0.1,0.1-0.2,0.1-0.3c0.1-0.2,0.2-0.4,0.2-0.6
		c0-0.1,0.1-0.2,0.1-0.3C6.9,25.3,7,25.1,7,24.9c0-0.1,0-0.2,0.1-0.3c0-0.1,0.1-0.2,0.1-0.3c0.1-0.2,0.1-0.4,0.1-0.6
		c0-0.4,0.1-0.7,0.2-1.1c0-0.1,0-0.1,0-0.2c-0.1,0-0.1,0-0.2,0c-0.2,0-0.4,0-0.5,0.1c-0.1,0-0.2,0-0.3,0C6.4,22.6,6.4,22.6,6.3,22.6
		z"/>
	<path class="st46" d="M25,16.3c0-0.1,0-0.2,0.1-0.4c1,0,1.7-0.6,2.2-1.3c0.3-0.9,0.2-1.9,0.4-2.8c0.3-1.2,0-2.5,0.4-3.6
		c0.1-0.2,0-0.4,0-0.6c-0.1-1.5,0.3-2.9,0.3-4.4c0-0.9,0.2-1.9,0.1-2.9c-1.1,0-2.1,0-3.1,0c-0.3,0-0.6,0.2-0.9-0.2
		c1.9,0,3.8,0,5.7,0c2.6,0,5.3,0,7.9,0c-0.2,1.1,0.1,2.1,0.4,3.1c0.5,1.4,1,2.8,1.3,4.3c0.2,0.8,0.6,1.6,1.3,2
		c0.2,0.1,0.5,0.3,0.4,0.6c0,0.2-0.1,0.3-0.2,0.5c-1.6,1.4-3.2,2.9-4.2,4.7c-0.2,0.7-0.2,1.3,0.1,2.1c2.6,0,3.6-2.6,5.8-3.6
		c0.9,4.3,0.6,8.5,1.7,12.6c0.7-0.3,0.9-0.8,1.1-1.2c0.5-1.2,1.1-2.4,1.6-3.6c1.1-2.4,2.8-2.8,5-1.2c0.2,0.5-0.2,1,0.1,1.5l0,0
		c0.1,0.1,0.2,0.2,0.2,0.3c0,0.1,0,0.3,0,0.4c0,0.2,0,0.4,0,0.7c-0.4,1.3-0.8,2.6,0,3.9c-0.2,0.9,0,1.8-0.1,2.8
		c-0.3,0.6-0.3,1.2-0.1,1.9l0,0c0.2,0.7,0.2,1.4,0,2.1l0,0c-0.2,0.9-0.2,1.8,0,2.6l0,0c0.1,0.2,0.1,0.3,0,0.5l0,0
		c-0.2,0.4,0.4,0.8,0,1.2l0,0c-0.2,0.6-0.2,1.1,0,1.7l0,0c0.4,0.9-0.1,1.7-0.1,2.6c0,0.4-0.2,0.4-0.5,0.3c-0.1,0-0.2-0.1-0.3-0.2
		c-0.1-0.1-0.2-0.2-0.3-0.2c-1.3-1.1-2.8-0.7-4.3-0.8c-1.4,0.2-2.8,0-4.2,0.3c-0.3,0.1-0.6,0-0.9-0.3c-0.2-0.3-0.1-0.5,0-0.8
		c0.3-0.8,0.2-1.5-0.3-2.2c-1.5-2.2-2.7-4.4-4-6.7c-0.4-0.7-0.9-1.2-1.5-1.7c-0.2-0.2-0.5-0.4-0.6-0.7c0-0.2,0-0.4,0.1-0.5
		c0.7-0.1,0.7-0.1,1.2-0.7c0.1-0.8-0.1-1.5-0.5-2.2c-1-3.3-4-4.6-6.5-6.5c-0.4-0.3-0.8-0.5-1.2-0.7c-0.5-0.3-1-0.7-1.5-1
		c-0.4-0.2-0.8-0.5-1.2-0.7C25.8,17,25.3,16.8,25,16.3z"/>
	<path class="st140" d="M36.3,30c1,0.2,1.5,1.1,1.9,1.9c1.2,2.2,2.4,4.4,3.9,6.5c0.4,0.6,0.6,1.4,0.5,2c0,0.5-0.4,0.6-0.5,0.9
		c-0.1,0.1-0.1,0.3-0.2,0.4c-0.2,0.1-0.3,0.2-0.5,0.3c-0.2,0.2-0.5,0.3-0.7,0.5c-0.3,0.2-0.6,0.4-1,0.5c-0.1,0-0.2,0-0.2,0
		c0,0.1,0.1,0.1,0.1,0.2c0.1,0,0.2,0.1,0.2,0.1c0.6,0,1.1-0.5,1.6-0.6c0.1,0,0.2,0,0.4-0.1c0.7,0,1.4-0.3,2.1-0.3
		c1.7,0,3.5-0.4,5.2-0.3c0.9,0,1.9,0,2.8,0.4c0.1,0.1,0.3,0.2,0.4,0.2c0.2,0.1,0.1,0.4,0.3,0.4c0.1,0.5-0.3,0.8-0.3,1.2
		c-0.8,1.3-2.2,1.3-3.5,1.5c-1.1,0.2-2.3,0.1-3.6,0.4c1.2,1.3,2.3,2.6,3.5,3.8c1,1.1,1.9,2.2,2.9,3.3c0.3,0.3,0.4,0.8,0.6,1.2
		c0.3,0.7,0.3,0.9,0.1,1.7c0.1,0.2,0.2,0.3,0.3,0.4c-0.1,0.5-0.2,1-0.3,1.4c-0.9-0.1-1.8-0.4-2.6-0.7c-1.2-0.4-2.4-0.8-3.6-1.2
		c-1-0.3-1.7,0.3-2.4,0.8c-1.5,2.2-1.2,4.6-0.9,7c0.1,0.8,0.4,1.6,0.3,2.5c0,0.5-0.1,0.9-0.4,1.2c-0.4,0-0.8,0.2-1.1-0.2
		c-1.5-1.6-2.3-3.6-3.1-5.6c-0.8-2-1.7-3.9-2.2-5.9c-0.3-0.5-0.4-1.1-0.6-1.6c-0.1-0.2-0.1-0.4-0.2-0.5c0-0.1-0.1-0.2-0.1-0.3
		c-0.1-0.2-0.2-0.3-0.2-0.5c-0.1-0.2-0.2-0.5-0.2-0.7c0-0.1-0.1-0.3-0.1-0.4c0,0-0.1,0-0.1,0s-0.1,0.1-0.1,0.1
		c0,0.1-0.1,0.2-0.1,0.2c0,0.1-0.1,0.1-0.2,0.2c-0.1-0.1-0.3-0.3-0.4-0.4c-1.1,1.5-2.4,2.7-3.7,4c-1,1-1.3,1-2.6,0.3
		c0.5-2.2,1.8-4,3.2-5.8c0.2-0.2,0.4-0.4,0.5-0.6c0.4-0.4,0.7-0.9,1.1-1.4c0.1-0.2,0.3-0.4,0.5-0.6c0.1-0.1,0.1-0.1,0.2-0.2
		c0.1-0.1,0.1-0.1,0.2-0.2c0.1-0.1,0.2-0.1,0.2-0.2c0.2-0.1,0.3-0.2,0.5-0.3c0.3-0.3,0.7-0.5,1.1-0.7c0.2-0.1,0.3-0.1,0.5-0.2
		c0.1,0,0.1-0.1,0.2-0.2c0-0.1,0.1-0.1,0.1-0.2c0-0.1,0-0.2-0.1-0.2c-0.4-0.2-0.6,0.1-0.9,0.2c-0.1,0.1-0.2,0.1-0.4,0.2
		c-0.1,0-0.2,0.1-0.2,0.1c-0.1,0.1-0.1,0.1-0.2,0.2c-0.1,0.1-0.2,0.1-0.2,0.1c-0.2,0.1-0.3,0.2-0.5,0.3c-0.3,0.2-0.6,0.4-0.9,0.6
		c-0.2,0.1-0.4,0.2-0.6,0.3c-0.1,0.1-0.1,0.1-0.2,0.1c-0.1,0-0.2,0-0.2-0.1c0.1-0.4-0.2-0.4-0.5-0.6c-0.4-0.3-1-0.3-1.2-0.8
		c-0.4-0.9-1.1-1.6-1.5-2.4c-0.1-0.2-0.3-0.4-0.4-0.7c-0.1-0.1-0.1-0.2-0.1-0.3c-0.1-0.2-0.2-0.3-0.3-0.5c-0.3-0.4-0.5-0.9-0.8-1.3
		c-0.2-0.2-0.3-0.5-0.5-0.8c-0.1-0.2-0.2-0.3-0.3-0.5c-0.1-0.2-0.2-0.3-0.3-0.5c-0.2-0.3-0.3-0.6-0.5-0.9c-0.1-0.2-0.1-0.4-0.2-0.6
		c0-0.1,0-0.2,0-0.3c0.2-0.9,0.9-1.5,1.6-2c2.3-1.5,4.8-2.7,7.2-4C34.5,30.9,35.2,30.1,36.3,30z"/>
	<path class="st140" d="M20,73.4c-0.3,0.5-0.8,0.1-1.2,0.3c-1.6-0.9-2.4-2.5-3.7-3.8c-0.1,0-0.2,0.1-0.4,0.1c0,0-0.1,0-0.1,0
		c-0.1,0-0.2,0-0.3,0c-0.1,0.1-0.2,0.3-0.2,0.4c-0.1,0.4-0.3,0.7-0.4,1.1c-0.2,0.4-0.2,0.8-0.4,1.2c-0.1,0.2-0.2,0.4-0.3,0.6
		c0,0.1-0.1,0.2-0.1,0.3c-0.6,2.4-1.6,4.6-2.6,6.8c-0.2,0.5-0.5,1-1.1,1.2c-0.5,0.1-1,0.1-1.5,0c-0.6-0.3-0.4-0.8-0.3-1.3
		c0.2-1.2,0.3-2.4,0.2-3.6c-0.1-2.5-1.4-3.4-3.7-2.6c-0.9,0.3-1.7,0.6-2.6,0.8c-0.4,0.1-0.8,0.3-1.2,0C0,73.9,0,73,0.1,72
		c0.4-1.3,1.4-2.1,2.3-3c1.1-1.2,2.1-2.5,3.5-3.7c-1.3-0.2-2.4-0.2-3.4-0.4c-0.9-0.2-1.9-0.2-2.3-1.2c-0.1-0.4-0.1-0.8,0-1.2
		c0-0.1,0.1-0.2,0.2-0.2c0.1,0,0.2,0,0.2,0c2.2-0.6,4.5-0.4,6.7,0c0.5,0.1,1.1,0.2,1.6,0.2c0.2,0,0.4,0,0.5,0.1
		c0.3,0.1,0.5,0.2,0.8,0.3c0.1,0,0.1,0,0.2,0c0-0.1-0.1-0.1-0.1-0.2c-0.1,0-0.1-0.1-0.2-0.1c-0.1,0-0.1-0.1-0.2-0.1
		c-0.1-0.1-0.2-0.2-0.3-0.2c-0.1-0.1-0.2-0.2-0.3-0.2c-0.1,0-0.2-0.1-0.4-0.1c-0.2,0-0.3-0.1-0.5-0.2c-0.6-1.5,0.1-2.7,0.9-3.9
		c0.8-1.2,1.5-2.6,2.3-3.9c0.4-0.6,0.6-1.3,1.4-1.5c0.5-0.1,1-0.1,1.4,0.2c2.4,1.4,4.9,2.6,7.1,4.2c0.6,0.4,1,0.9,1.1,1.6
		c0,0.1,0,0.2,0,0.3c0,0.1,0,0.2-0.1,0.3c-0.1,0.1-0.2,0.2-0.3,0.4c-0.1,0.3-0.2,0.5-0.4,0.8c-0.2,0.2-0.3,0.5-0.4,0.8
		c-0.1,0.2-0.2,0.3-0.3,0.5c-0.1,0.2-0.3,0.4-0.4,0.6c-0.1,0.1-0.2,0.3-0.2,0.4c0,0.1-0.1,0.2-0.1,0.3c-0.5,0.9-1,1.9-1.7,2.7
		c-0.1,0.4-0.5,0.4-0.8,0.6c-0.2,0.1-0.5,0.3-0.5,0.6c0,0-0.1,0.1-0.1,0.1c-0.1,0-0.1,0-0.2,0c-0.1,0-0.2-0.1-0.3-0.1
		c-0.4-0.2-0.8-0.4-1.2-0.7c-0.1,0-0.2-0.1-0.3-0.1c-0.1,0-0.2-0.1-0.3-0.1c0,0-0.1,0-0.1-0.1c0,0-0.1,0-0.1-0.1
		c-0.1,0-0.2-0.1-0.3-0.2c-0.2-0.1-0.4-0.4-0.7-0.3c-0.1,0-0.1,0.1-0.1,0.2c0,0.1,0,0.1,0,0.1c0.1,0.1,0.3,0.2,0.4,0.3
		c0.2,0.1,0.4,0.2,0.6,0.4c0.1,0.1,0.2,0.2,0.4,0.2c0.1,0,0.2,0.1,0.2,0.2c0.3,0.3,0.6,0.6,0.8,0.9c0.3,0.4,0.7,0.8,1,1.2
		c0.1,0.1,0.1,0.2,0.2,0.2c0,0,0.1,0.1,0.1,0.1c0.8,0.9,1.4,2,2.1,3C19.9,72,20.1,72.7,20,73.4z"/>
	<path class="st140" d="M41.6,10.3c0-0.2,0-0.4-0.2-0.4c-1-0.2-1.5-1-1.7-1.8c-0.4-2.2-1.4-4.2-1.9-6.3c-0.1-0.4-0.1-0.9-0.1-1.3
		c0.1-0.1,0.3-0.3,0.4-0.4c3.8,0,7.7-0.1,11.5,0c0.2,0.1,0.3,0.3,0.4,0.5c0,0.1,0.1,0.2,0.1,0.3c0,0.2,0.1,0.3,0.1,0.5
		c0.1,0.6,0.4,1.2,0.5,1.8c0.1,0.7,0.4,1.4,0.6,2.1c0.1,0.6,0.1,1.2-0.1,1.7c-0.7,0.5-1.4,0.6-2.2,0.8c-0.1,0-0.2,0.1-0.3,0.1
		c-0.3,0.1-0.6,0.1-0.9,0.2c-0.1,0.1-0.2,0.1-0.3,0.3c0,0.2,0.1,0.2,0.3,0.2c0.3,0,0.6-0.1,0.9-0.2c0.3,0,0.5-0.1,0.8-0.2
		c0.1,0,0.2-0.1,0.4-0.1c0.9,0,1.8-0.2,2.7,0.2c0.2,0.3,0.1,0.5,0,0.8c-0.2,0.3,0,0.5,0.2,0.6c-0.1,0.4-0.2,0.7,0,1.1l0,0
		c-0.2,0.3-0.1,0.6-0.2,0.9c-0.1,0.1-0.1,0.1-0.2,0.1c-0.1,0-0.2-0.1-0.3-0.1c0,0-0.1,0-0.1,0s0,0.1,0,0.1c0.1,0.1,0.1,0.2,0.2,0.3
		c0.1,0.1,0.2,0.2,0.2,0.4c0,0.1,0.1,0.2,0.1,0.3c0,0.1,0,0.2-0.1,0.3c0,0.3,0.2,0.6,0.3,0.9c0,0,0,0.1,0,0.2
		c-0.3,1.2,0.1,2.4-0.2,3.6l0,0c-0.1,0.1-0.1,0.2,0,0.2l0,0c0.2,0.5,0,1.1,0.1,1.6c0,0.2-0.1,0.3-0.1,0.5c0,0.2-0.1,0.3-0.2,0.4
		c-0.3,0-0.4-0.1-0.7-0.2c-0.9-0.4-1.8-0.8-3.1,0c-1,1.3-1.5,3-2.3,4.7c-0.4,1-0.8,1.6-1.4,2.2c-0.8-0.8-0.8-1.9-1-2.9
		c-0.3-1.9-0.4-3.8-0.7-5.7c-0.1-1.2-0.2-2.4-0.3-3.5c0-0.2,0.1-0.5-0.2-0.7c-0.9,0.6-1.6,1.6-2.5,2.3c-0.9,0.8-1.9,1.3-3,1.5
		c-0.4-0.1-0.6-0.3-0.6-0.5c0.1-0.8-0.3-1.6,0.2-2.4c0.3,0.2,0.2,0.6,0.2,0.9c0.7-1.5,2.1-2.5,3.3-3.7c0.1-0.1,0.2-0.2,0.2-0.2
		c0.1-0.1,0.2-0.1,0.2-0.2c0.3-0.3,0.7-0.5,0.9-0.8c0.4-0.5,1-0.8,1.5-1.1c0.1-0.1,0.2-0.1,0.3-0.2c0,0,0-0.1,0-0.1s-0.1,0-0.1,0
		c-0.2,0.1-0.4,0.1-0.6,0.2c-0.5,0-0.9,0.4-1.3,0.5C41.7,10.4,41.6,10.3,41.6,10.3z"/>
	<path class="st140" d="M24.5,78c0-0.2,0.2-0.2,0.4-0.3c-0.1-0.9-0.8-1.6-0.6-2.6c-0.4-0.7,0.3-1.1,0.3-1.8c0-0.1,0-0.2,0.1-0.3
		c0.1-0.3,0.1-0.7,0.1-1c0-0.8,0.3-1.6,0.3-2.3c0-0.2,0-0.4,0.1-0.5c0.1-0.4,0.2-0.8,0.3-1.2c0.1-0.3,0.2-0.6,0.3-0.9
		c0.4-0.8,1.1-1.1,2-1.1c1.6,0,3.2,0.3,4.8,0.5c1.6,0.3,3.2,0.4,4.9,0.7c0.4,0.1,0.9,0.1,1.3-0.2c0.6,1.1,0.5,2.3,0.4,3.5
		c-0.1,1.6-0.6,3.1-0.7,4.8c0,1,0,2-0.5,2.9c-0.3,0.5-0.5,1.1-1.2,1.1c-0.2,0-0.1,0.3-0.2,0.4c-0.1,0.1-0.2,0.1-0.3,0.1
		c-0.6-0.2-1.2-0.3-1.9-0.3c-0.1,0-0.2,0-0.3,0c-0.1,0-0.2,0-0.3,0.1c0.1,0.2,0.3,0.1,0.4,0.2c0.1,0,0.2,0,0.3,0.1
		c0.4,0.1,0.8,0.2,1.1,0.4c0.2,0.2,0.5,0.4,0.7,0.5c0.1,0.1,0.2,0.1,0.3,0.2c0,0,0.1,0.1,0.1,0.1c0.1,0.1,0.3,0.2,0.4,0.4
		c0,0.1,0,0.2-0.1,0.3c-0.1,0-0.3,0-0.4,0c-1.7,0.1-3.4-0.1-5.1,0.1c-3.1,0-6.1,0.1-9.2,0c-1,0-2-0.1-3.1-0.3c0-0.6,0.5-0.7,0.9-0.9
		c1.1-0.4,2.2-0.8,3.3-0.9c0.4-0.1,0.8-0.1,1.2-0.2c0.2-0.1,0.4-0.2,0.6-0.2c0.4-0.1,0.9-0.1,1.4-0.2c0.2,0,0.3-0.1,0.5-0.1
		c0.5,0,1,0.1,1.5,0.2c0.1,0,0.3,0,0.4,0c0.1,0,0.2,0,0.2-0.1c0.1-0.2,0.1-0.3-0.1-0.4c-1.3-0.1-2.6-0.1-3.8-0.3
		c-0.1,0-0.2,0-0.4-0.1c-0.1,0-0.1-0.1-0.2-0.1C24.6,78.1,24.6,78.1,24.5,78z"/>
	<path class="st46" d="M0.3,62.2c0,0.1-0.1,0.2-0.2,0.2c0-3,0-6,0-9c0-11.9,0-23.9,0-35.8c0-4.8,0-9.6,0-14.4c0-0.6,0.1-1.1,0.3-1.7
		c0.3-0.3,0.7-0.7,1.1-1.1C2.5,0,3.4,0,4.4,0c3,0,6.1,0,9.1,0c0.4,0,0.8,0,1.2,0.1c-0.2,0.3-0.6,0.2-0.9,0.2c-2.3,0-4.7,0-7,0
		C6.7,0.3,6.7,0.4,6.6,0.4c-0.1,0-0.2,0.1-0.2,0.1c-0.1,0-0.1,0.1-0.2,0.1C6.1,0.7,6,0.8,6,1c0,0.1,0,0.2-0.1,0.3
		C5.8,2.1,6,2.9,5.8,3.7c0,0.1,0,0.2-0.1,0.4c-0.2,0.8,0,1.6-0.1,2.5c-0.4,1.3-0.2,2.6,0.1,4c0.1,0.4,0.2,0.8,0.1,1.3
		c0.2,0.8,0.5,1.5,1,2.1C7,14,7,14.2,7,14.4c-0.4,0.4-1,0.4-1.5,0.6c-0.3,0.1-0.6,0.1-0.9,0.2c-0.1,0-0.2,0.1-0.3,0.1
		c-0.5,0.1-0.9,0.2-1.4,0.4c-0.2,0.1-0.5,0.1-0.7,0.2C2.1,16,2,16,1.9,16c-0.2,0-0.3,0.1-0.5,0.2c-0.1,0-0.2,0.1-0.3,0.1
		c-0.2,0.1-0.3,0.1-0.4,0.3c0,0.1-0.1,0.2-0.1,0.3c-0.1,0.9,0.2,1.8-0.3,2.6c0,1.4,0,2.9,0,4.3c0.3,0.4,0.2,0.8,0.2,1.3
		c0,2.7,0,5.4,0,8.1c0,2.9,0.4,5.8,0.2,8.7c0,0.3,0.1,0.6,0.2,0.8c-0.1,0.4-0.5,0.4-0.7,0.8c0.1,2,0.1,4.1,0.1,6.1
		c0,2.1,0,4.2-0.1,6.3C0.3,58,0.3,60.1,0.3,62.2z"/>
	<path class="st46" d="M0.1,74.9c1.3-0.2,2.5-0.7,3.7-1.1c0.3-0.1,0.5-0.2,0.8-0.3c1.4-0.4,2.2,0,2.8,1.2c0.2,0.4,0.3,0.7,0.5,1.1
		c0,1.7,0.1,3.5-0.4,5.2c-0.1,0.2,0.2,0.4,0.2,0.5c-2,0-4,0-6,0c-1.2-0.7-1.9-1.7-1.7-3.2C0.1,77.2,0.1,76,0.1,74.9z"/>
	<path class="st45" d="M52.4,54.5c-1.2-1.3-2.3-2.8-3.6-4c-1.1-1.1-2.1-2.2-3.1-3.4c-0.3-0.3-0.9-0.4-0.9-1.1
		c0.8-0.1,1.6-0.1,2.4-0.2c1.4-0.1,2.8-0.1,4.2-0.7c0.4-0.2,0.7-0.4,1.1-0.7c0.2,1.6,0.1,3.3,0,5C52.4,51.1,52.4,52.8,52.4,54.5z"/>
	<path class="st45" d="M0.1,63.6c0.7,0.6,1.6,0.8,2.5,1c1.2,0.2,2.4,0.3,3.5,0.2c0.2,0.3,0.2,0.5,0,0.7c-1.7,1.4-3.1,3.2-4.5,4.8
		c-0.5,0.6-1.1,1-1.5,1.7C0,69.2,0,66.4,0.1,63.6z"/>
	<path class="st42" d="M51.2,7c-0.3-0.6,0.1-1.1,0-1.7c0-0.6-0.1-1.2-0.3-1.8c-0.3-1-0.4-2.1-0.9-3.1c-0.1-0.1-0.1-0.2,0-0.3
		c1.2,0.2,2.1,0.8,2.6,2c0.1,0.1,0.2,0.3,0.3,0.4c0,0.4,0,0.8,0,1.2c-0.2,0.2-0.2,0.3,0,0.5c0,0.5,0,0.9,0,1.4
		c-0.1,0.3-0.1,0.5,0,0.8l0,0c0,0.1,0,0.1,0,0.2v0c-0.1,0.2,0,0.5-0.3,0.7C52,7.3,51.6,7.3,51.2,7z"/>
	<path class="st104" d="M23.3,79.9c-1,0.3-2.1,0.6-3.1,1c-0.4,0.2-1,0.1-1.2,0.6c-0.7,0.1-1.5,0.1-2.2,0c-0.1-0.1-0.1-0.3-0.3-0.5
		c1.6-1.6,3.7-2,5.8-2.6c0.5-0.1,0.3,0.3,0.4,0.5c0,0.2-0.1,0.5,0.1,0.6c0.1,0,0.2,0.1,0.3,0.1C23.2,79.8,23.3,79.8,23.3,79.9z"/>
	<path class="st96" d="M9.2,81.6c1.3-1.9,2.1-4.1,2.9-6.3c0.2-0.7,0.3-1.4,0.7-2c0.2,0.1,0.5,0.1,0.7,0.2c0,0.3,0,0.6-0.1,0.9
		c-0.9,1.8-1.3,3.8-2.4,5.5c-0.3,0.6-0.7,1.2-1.1,1.7C9.7,81.6,9.4,81.7,9.2,81.6z"/>
	<path class="st148" d="M31.3,81.8c0.2-0.3,0.5-0.2,0.7-0.2c1.6,0,3.2,0,4.8,0c0.7-0.6,1.4-0.2,2.2-0.2c0.3,0,0.2,0.3,0.3,0.4
		C36.6,81.9,33.9,81.9,31.3,81.8z"/>
	<path class="st92" d="M52.6,43.2c-0.3,0-0.2-0.3-0.3-0.4c0-1,0.4-1.9,0.3-2.9"/>
	<path class="st100" d="M50,0.1c0,0.1,0,0.1,0,0.2c0.1,0.2,0.1,0.3,0,0.5c-0.3-0.1-0.2-0.4-0.2-0.6C49.8,0.1,49.9,0.1,50,0.1z"/>
	<path class="st94" d="M52.8,30.1c0,0-0.1-0.1-0.1-0.1c0.2-1-0.2-2,0.2-2.9"/>
	<path class="st125" d="M52.6,36.5c-0.3-0.8-0.3-1.8,0-2.6C52.6,34.7,52.6,35.6,52.6,36.5z"/>
	<path class="st94" d="M52.6,33.8c0.1-0.7,0.1-1.4,0-2.1"/>
	<path class="st94" d="M52.6,31.7c-0.3-0.6-0.3-1.1,0-1.7l0,0c0.1,0.1,0.1,0.1,0,0.2C52.6,30.7,52.6,31.2,52.6,31.7z"/>
	<path class="st125" d="M52.6,39.8c-0.4-0.6-0.3-1.1,0-1.7C52.6,38.7,52.6,39.3,52.6,39.8z"/>
	<path class="st125" d="M52.6,38.2c0-0.3,0.1-0.5-0.1-0.8c-0.1-0.2-0.1-0.3,0.1-0.5"/>
	<path class="st125" d="M52.6,37c0-0.2,0-0.3,0-0.5"/>
	<path class="st126" d="M52.7,30.2c0-0.1,0-0.1,0-0.2"/>
	<path class="st86" d="M52.7,9.1c0-0.2-0.1-0.5-0.1-0.7c-0.3-0.5-0.3-1,0-1.4c0-0.2,0-0.4,0.2-0.5"/>
	<path class="st93" d="M52.8,10.8c-0.3-0.4-0.3-0.7,0-1.1C52.8,10.1,52.8,10.5,52.8,10.8z"/>
	<path class="st87" d="M52.7,20c0,0-0.1,0-0.1,0c-0.1-0.1-0.1-0.2-0.1-0.3c0-0.6,0.1-1.1,0.1-1.7"/>
	<path class="st87" d="M52.4,20.4c0-0.2,0-0.3,0-0.5c0.1,0,0.1,0,0.2,0l0.1,0.1c0.1,0.3,0.1,0.6,0,0.9c0,0.3,0,0.6,0,1
		C52.2,21.4,52.5,20.9,52.4,20.4z"/>
	<path class="st123" d="M52.7,20.9c0-0.3,0-0.6,0-0.9"/>
	<path class="st123" d="M52.8,22.2c-0.1-0.1-0.2-0.2-0.2-0.3C52.8,21.9,52.9,22,52.8,22.2z"/>
	<path class="st90" d="M52.1,12.3c-0.2-0.1-0.3-0.3-0.2-0.5c0.1-0.1,0.1-0.2,0.3-0.3c0.1,0,0.2,0.1,0.2,0.3c0.1,0.1,0.2,0.2,0.3,0.2
		c0,0,0,0.1,0,0.1c0.1,0.1,0.1,0.3,0.1,0.4c0,0.1,0,0.2-0.1,0.2c-0.1,0-0.2,0-0.2-0.1c0-0.1,0-0.1,0-0.2
		C52.3,12.4,52.2,12.3,52.1,12.3z"/>
	<path class="st61" d="M52.6,12.7c0-0.2,0-0.4,0-0.6c0.1,0,0.1,0.1,0.2,0.1c0,0.1,0,0.3,0,0.4v0C52.8,12.8,52.7,12.8,52.6,12.7z"/>
	<path class="st61" d="M52.7,12c-0.1,0-0.2-0.1-0.3-0.2c0.1,0,0.2,0,0.3,0C52.6,11.9,52.6,11.9,52.7,12z"/>
	<path class="st87" d="M52.6,17.8c0.2-0.9-0.1-1.8,0-2.7c0-0.3-0.1-0.7,0.2-1"/>
	<path class="st71" d="M52.8,14c-0.3-0.3-0.5-0.5-0.4-1c0-0.1,0.1-0.1,0.1-0.2c0,0,0.1,0.1,0.1,0.1C52.5,13.4,53,13.6,52.8,14z"/>
	<path class="st71" d="M52.6,12.7c0.1,0,0.1,0,0.2,0c0,0.2-0.1,0.2-0.2,0.3l0,0C52.6,12.9,52.5,12.9,52.6,12.7
		C52.6,12.7,52.6,12.7,52.6,12.7L52.6,12.7z"/>
	<path class="st86" d="M52.8,6.3c-0.3-0.3-0.3-0.5,0-0.8C52.8,5.7,52.8,6,52.8,6.3z"/>
	<path class="st87" d="M52.6,18c-0.1,0-0.1-0.1-0.2-0.1c0,0,0.1-0.1,0.1-0.1C52.6,17.8,52.6,17.9,52.6,18z"/>
	<path class="st102" d="M6.1,29.3c-0.3,1.3-0.6,2.7-1,4c-0.6,2.2-1.3,4.4-1.6,6.7c-0.2,1.1-0.5,2.2-0.7,3.3c-0.2,1-0.4,1.9-0.4,2.9
		c-0.1,0.8-0.4,1.6,0,2.4C2.3,48.7,2.2,48.9,2,49c0-0.1,0-0.1,0-0.2c-0.1-0.1-0.1-0.4-0.2-0.5l0,0c-0.2-0.2,0-0.5-0.2-0.7l0,0
		c-0.3-0.5,0.1-1.2-0.2-1.7c-0.4-0.3-0.3-0.7-0.2-1c0.4-1.1,0.2-2.4,0.4-3.5c0.2-1.8,0.7-3.6,1.1-5.4c0.6-2.5,1.3-5,1.9-7.5
		c0-0.1,0.1-0.1,0.2-0.1c0.5,0.6,0.2,1.2-0.1,1.8c-0.1,0.1,0,0.3-0.2,0.3c0.1,0.1,0.1,0,0.2-0.1C5,30,5.5,29.5,6.1,29.3z"/>
	<path class="st102" d="M38.5,67c0,0.3,0,0.5,0,1c-0.9-0.7-1.9-0.6-2.7-0.6c-1.4-0.1-2.8-0.4-4.2-0.6c-1.6-0.2-3.2-0.5-4.8-0.4
		c-0.5,0.1-0.7,0.7-1,1c-0.5-0.4,0-1.1-0.5-1.4c0.4-1.4,1.2-1.9,2.5-1.6c1.3,0.2,2.5,0.4,3.8,0.5c1.4,0,2.7,0.3,4.1,0.5
		c0.6,0.1,1.3,0,2,0.2C38,65.9,38.5,66.2,38.5,67z"/>
	<path class="st102" d="M22.4,58.3c0.1-0.5-0.2-0.8-0.4-1.3c-1.1-0.7-2.1-1.4-3.3-2c-1.5-0.8-3-1.7-4.5-2.6
		c-0.4-0.2-0.9,0.2-1.2-0.3c0.4-0.6,1.1-0.8,1.7-1.2c1,0.5,1.9,0.9,2.8,1.5c1.6,1,3.3,2,5,3c0.8,0.5,1.2,1.1,1,2.1
		c0,0.1-0.1,0.2-0.2,0.3c-0.3,0.1-0.3,0.3-0.5,0.5C22.7,58.3,22.6,58.5,22.4,58.3z"/>
	<path class="st102" d="M31.3,50.4c0,0.3-0.1,0.4-0.3,0.6c-0.9,1-1.6,2.1-2.2,3.3c-0.3,0.5-0.6,1-0.4,1.6c-0.2,0.3-0.3,0.2-0.5,0.3
		c-0.4-0.1-0.8-0.2-1.1-0.6c-0.2-1.1,0.2-2,0.8-2.9c0.9-1.4,1.8-2.7,2.7-4c0.1-0.1,0.2-0.1,0.3-0.2c0.1,0.1,0.2,0.3,0.2,0.4
		C30.6,49.6,31.2,49.9,31.3,50.4z"/>
	<path class="st103" d="M36.8,55.7c0.5,0.8,0.5,1.9,0.9,2.7c0.7,1.4,1.2,2.9,1.8,4.3c0.5,1.2,1.2,2.3,1.7,3.5c0.2,0.4,0.5,0.7,0.8,1
		c0,0,0,0.1-0.1,0.1c0,0-0.1,0-0.1,0c-1.1-0.3-1.6-1.3-2.1-2.1c-1.4-2.3-2.4-4.7-3.2-7.2c-0.1-0.1-0.1-0.4-0.2-0.5l0,0
		c-0.2-0.2-0.1-0.4-0.1-0.7C36.5,56.5,36.4,56,36.8,55.7z"/>
	<path class="st102" d="M20,73.4c-0.5-0.3-0.1-0.8-0.3-1.2c-0.4-0.6-0.6-1.2-1-1.7c-0.5-0.7-1-1.4-1.5-2.2c-0.1-0.7,0.4-1,1-1.2
		c1.3,1.6,2.5,3.2,3.1,5.2C21,73,20.5,73.2,20,73.4z"/>
	<path class="st103" d="M9.2,62.6c-0.9,0.2-1.7-0.1-2.6-0.3c-2-0.3-3.9-0.4-5.9,0c-0.1,0-0.2-0.1-0.2-0.2l0,0
		c0.1-0.1,0.2-0.2,0.2-0.2c0.1-0.3,0.4-0.5,0.6-0.6c2.1-0.3,4.2,0,6.2-0.1c0.2,0,0.5-0.1,0.6,0.2c0,0.1-0.1,0.3-0.1,0.5
		c0.3,0.3,0.7,0.2,1,0.4C9.3,62.5,9.3,62.6,9.2,62.6z"/>
	<path class="st26" d="M6.1,29.3c-0.4,0.2-0.4,0.7-0.6,1.1c-0.4,0.2-0.3-0.2-0.5-0.3c-0.2,0.1-0.4,0.3-0.6,0.4h0
		c-0.1-0.7,0.4-1.4,0.2-2.2c0.1-1,0.5-2,0.9-2.9c0.3,0.4,1.2,0.2,1.2,1c0,0.8-0.4,1.4-0.6,2.1C6.1,28.8,6.1,29,6.1,29.3z"/>
	<path class="st25" d="M6.8,26.4c-0.3-0.2-0.4-0.6-0.8-0.6c-0.1,0.1-0.2,0.2-0.3,0.3c-0.2-0.2-0.1-0.4-0.1-0.6c0-0.1,0-0.1,0-0.2
		c0.2-0.2,0-0.5,0.2-0.7c0-0.1,0-0.2,0-0.2c0.1-0.1,0.1-0.4,0.2-0.5c0-0.1,0-0.2,0-0.2c0.1-0.1,0.1-0.4,0.2-0.5c0-0.2,0-0.3,0-0.5h0
		c0.1-0.1,0.2-0.1,0.3,0c0.1,0.1,0.1,0.1,0.2,0.2c0.5,0.4,0.5,1,0.4,1.6c0,0.1-0.1,0.2-0.1,0.3c0,0.1,0,0.2,0,0.3
		C7.1,25,7,25.2,7,25.3c0,0,0,0.1,0,0.1c0,0.1,0,0.2,0,0.2c-0.1,0.1-0.1,0.4-0.2,0.5C6.8,26.2,6.8,26.3,6.8,26.4z"/>
	<path class="st62" d="M30.5,49c0-0.2,0-0.3,0-0.5c0.2-0.4,0.6-0.7,0.9-1c0.1,0,0.2,0,0.2,0c0.8-0.1,0.9,0.5,1.2,1
		c-0.4,0.5-0.7,1.1-1.2,1.4c-0.6,0-0.2-0.6-0.5-0.8C31,49,30.7,49.2,30.5,49z"/>
	<path class="st64" d="M18.1,67.2c0,0.1,0,0.3-0.1,0.3c-0.6,0-0.6,0.6-0.9,0.9h0c-0.1-0.1-0.2-0.2-0.2-0.2c-0.2-0.5-0.8-0.7-1-1.2
		c0.1-0.1,0.2-0.3,0.3-0.5c0.1-0.1,0.2-0.1,0.3-0.2c0.2-0.1,0.4-0.1,0.6-0.1c0.1,0,0.1,0,0.2,0C17.5,66.6,17.9,66.8,18.1,67.2z"/>
	<path class="st70" d="M38.9,81.4c-0.7,0.5-1.4,0.1-2.2,0.2c0-0.1,0-0.2,0-0.2c0.2-0.5-0.3-0.9-0.2-1.5c0.8,0.2,1.4,0.6,1.9,1.2
		C38.6,81.3,38.8,81.2,38.9,81.4L38.9,81.4z"/>
	<path class="st106" d="M28.4,43.4c0.5,0.7,1,1.5,1.4,2.2c0.1,0.1,0.3,0.3,0,0.4c-0.9-0.7-1.7-1.6-2.1-2.6
		C27.9,43.3,28.1,43.5,28.4,43.4z"/>
	<path class="st49" d="M36.8,55.7c0,0.3,0,0.7,0,0.9c-0.2,0.3-0.3,0.2-0.5,0.3c-0.2-0.2-0.3-0.5-0.5-0.7c-0.1-0.2-0.3-0.4-0.3-0.7
		c-0.1-0.1-0.1-0.1-0.1-0.2c0-0.1,0-0.1,0-0.1c0.1,0,0.2,0,0.3,0.1c0-0.4-0.2-0.9,0.2-1.3C36.5,54.5,36.4,55.2,36.8,55.7z"/>
	<path class="st12" d="M25.3,69.6c0.2,0.9-0.4,1.7-0.2,2.6c-0.3,0.3,0,0.7-0.2,1l0,0c-0.7-0.6-0.3-1.3-0.2-1.9l0,0
		c0.3-0.5-0.1-1.2,0.2-1.7c0.1-0.4-0.2-0.9,0.2-1.2c0.1,0.1,0.2,0.2,0.2,0.3C25.3,69,25,69.3,25.3,69.6z"/>
	<path class="st53" d="M36.5,79.9c0.1,0.4,0.5,0.4,0.7,0.7c-0.1,0.3-0.1,0.6-0.5,0.7l0,0c-0.1-0.2-0.3-0.1-0.5-0.2h0
		c-0.1-0.1-0.2-0.2-0.2-0.2c-0.4,0-0.6-0.1-0.7-0.5c0.1-0.4,0.3-0.7,0.7-0.7c0.1,0,0.2,0,0.2,0C36.4,79.7,36.5,79.8,36.5,79.9z"/>
	<path class="st80" d="M18.6,65.1c0.4-1.1,1-2,1.7-2.9c0.2,0.1,0.2,0.3,0.2,0.5c0,0.5-0.5,0.8-0.7,1.2c-0.1,0.1-0.2,0.2-0.2,0.3l0,0
		c-0.1,0-0.1,0.1-0.1,0.1c0,0.1,0,0.1,0,0.1C19.3,64.7,19,65,18.6,65.1z"/>
	<path class="st17" d="M13.5,73.4c-0.2,0.1-0.3,0.1-0.5,0.2c-0.3-0.1-0.2-0.3-0.2-0.4l0,0c0.2-0.1,0.1-0.4,0.2-0.5
		c0.4-0.3,0-0.9,0.5-1.2c0.2,0.2,0.1,0.4,0.1,0.6c0,0.2,0.2,0,0.1,0c0,0,0,0,0,0c0-0.4,0-0.8,0.6-0.8C14.1,72,14.1,72.8,13.5,73.4z"
		/>
	<path class="st116" d="M36.1,54c0,0.5,0,1,0,1.6c-0.2-0.2-0.3-0.3-0.5-0.4c-0.2-0.1-0.1-0.4-0.2-0.5c-0.2-0.5-0.5-1.1-0.5-1.7
		c0,0,0.1-0.1,0.1-0.1c0.1,0,0.1,0,0.2,0c0.3,0.1,0.4,0.5,0.7,0.6C36.1,53.6,36.1,53.8,36.1,54z"/>
	<path class="st6" d="M9.2,62.4c-0.3,0-0.7,0-1.1,0c-0.1-0.2-0.3-0.4-0.5-0.6c0.1-0.3,0.4-0.4,0.7-0.4c0.1,0,0.1,0,0.2,0
		c0.2,0,0.5,0,0.7,0c0.1,0.1,0.2,0.2,0.2,0.2c0.1,0,0.2,0.1,0.2,0.2C9.6,62.2,9.4,62.3,9.2,62.4z"/>
	<path class="st96" d="M22.9,79.9c-0.2,0-0.4,0-0.6,0c0-0.5,0.5-1,0.1-1.4c0.6-0.5,1.4-0.5,2.2-0.5l0,0c0,0.1,0,0.1,0.1,0.2
		c0,0.1-0.1,0.2-0.2,0.2c-0.3,0.1-0.6,0.1-0.9,0.4C23.3,79.1,23.3,79.6,22.9,79.9z"/>
	<path class="st76" d="M24.5,71.3c0.1,0.6-0.3,1.3,0.2,1.9c0,0.3,0,0.6,0,0.9c-0.1,0.2-0.2,0.1-0.4,0.1c-0.2,0.3-0.1,0.6-0.1,0.9
		C24,75,24,74.6,24.1,74.4c0.3-0.9,0.2-1.8,0.2-2.8C24.3,71.5,24.4,71.4,24.5,71.3z"/>
	<path class="st73" d="M14.2,71.3c-0.4,0.2-0.5,0.7-0.6,1.2c-0.2-0.4-0.1-0.7-0.2-1c0.1-0.4,0.2-0.9,0.5-1.2c0.2,0.1,0.4-0.1,0.5,0
		c0,0.1,0,0.2,0,0.3C14.4,70.8,14.6,71.1,14.2,71.3z"/>
	<path class="st15" d="M25.3,65.8c0.1,0,0.2-0.1,0.5-0.2c0,0.6,0,1.1,0,1.6c0,0.2,0.1,0.6-0.2,0.7c0,0-0.1-0.1-0.1-0.1
		c-0.1-0.2-0.1-0.5-0.1-0.7c0-0.1,0-0.1,0-0.2C25.3,66.5,25.3,66.2,25.3,65.8z"/>
	<path class="st55" d="M20.5,62.7c-0.3-0.1-0.2-0.3-0.2-0.5c0-0.1,0-0.2,0-0.2c0.1-0.1,0.2-0.2,0.2-0.2c0.2-0.2,0.2-0.6,0.5-0.7
		c0.1,0.1,0.2,0.2,0.2,0.3c0,0,0,0.1,0,0.1c0,0.2,0,0.4-0.2,0.5c-0.1,0.1-0.1,0.3-0.2,0.5l0,0C20.6,62.5,20.5,62.6,20.5,62.7
		L20.5,62.7z"/>
	<path class="st95" d="M25,68.7c0-0.1,0-0.2,0-0.3c0.1-0.5-0.2-1,0.2-1.4l0,0c0.2,0.3,0,0.7,0.2,0.9l0,0c-0.1,0.4,0.2,0.9-0.2,1.2
		C25.1,69,25.2,68.8,25,68.7z"/>
	<path class="st139" d="M34.6,52.3c0-0.1,0-0.2,0-0.2c0-0.1,0.1-0.1,0.2-0.1c0.1-0.1,0.2-0.3,0.3-0.4c0.3,0.2,0.2,0.5,0.2,0.7
		c0.1,0.3,0.3,0.7-0.3,0.7l0,0c-0.1-0.1-0.2-0.2-0.2-0.2C34.8,52.6,34.7,52.5,34.6,52.3z"/>
	<path class="st75" d="M28.4,43.4c0,0.1,0,0.2,0,0.4c-0.3,0.1-0.4-0.4-0.7-0.4c-0.2-0.1-0.2-0.3-0.2-0.5c0,0,0.1-0.1,0.1-0.1
		c0.1-0.1,0.2-0.1,0.4-0.2C28.2,42.9,28.2,43.2,28.4,43.4z"/>
	<path class="st11" d="M21.7,59.8c0.2-0.2,0.2-0.6,0.5-0.7c0.1-0.1,0.2-0.1,0.3,0c0,0.4-0.1,0.8-0.5,1c0,0-0.1,0-0.1,0
		c-0.1,0-0.1-0.1-0.1-0.2L21.7,59.8z"/>
	<path class="st99" d="M1.3,45.8c0.5,0.5,0.1,1.1,0.2,1.7C1,47,1.4,46.4,1.3,45.8z"/>
	<path class="st76" d="M24.8,69.6c-0.1,0.6,0.3,1.2-0.2,1.7C24.6,70.7,24.3,70.1,24.8,69.6z"/>
	<path class="st75" d="M26.7,42.2c0-0.2,0-0.3,0-0.5c0.7,0.1,0.9,0.5,0.7,1.2l0,0C27,42.9,27,42.4,26.7,42.2z"/>
	<path class="st85" d="M35.8,56.2c0.3,0.1,0.5,0.4,0.5,0.7c0,0.2,0,0.5,0,0.7C36,57.2,36,56.6,35.8,56.2z"/>
	<path class="st5" d="M21.2,60.5c0.2-0.2,0.2-0.6,0.5-0.7l0,0c0.1,0.1,0.1,0.2,0.2,0.2l0,0c0,0.3-0.2,0.5-0.3,0.7
		c-0.1,0.1-0.1,0.1-0.2,0.1C21.3,60.7,21.3,60.6,21.2,60.5z"/>
	<path class="st29" d="M22.9,58.1c0-0.3,0-0.7,0.5-0.5c-0.2,0.2-0.2,0.6-0.5,0.7C22.8,58.3,22.8,58.2,22.9,58.1
		C22.8,58.1,22.8,58.1,22.9,58.1z"/>
	<path class="st36" d="M19.7,49.9c0,0.2-0.1,0.3-0.3,0.5c-0.2-0.2-0.1-0.4,0-0.6C19.5,49.7,19.6,49.7,19.7,49.9z"/>
	<path class="st35" d="M34.6,61.4c0,0.2-0.1,0.4-0.3,0.5c-0.2-0.2-0.1-0.4,0-0.6C34.4,61.2,34.5,61.3,34.6,61.4z"/>
	<path class="st36" d="M45.6,61.7c0.1,0.3,0,0.4-0.2,0.4c-0.1,0-0.2-0.1-0.2-0.1C45.2,61.8,45.3,61.7,45.6,61.7z"/>
	<path class="st138" d="M22.9,58.1c0,0.1,0,0.2,0,0.3c0,0.2,0,0.4-0.2,0.5c0,0-0.1,0-0.1,0c0-0.1-0.1-0.1-0.1-0.2c0-0.1,0-0.2,0-0.2
		C22.5,58.2,22.7,58.2,22.9,58.1z"/>
	<path class="st37" d="M11.7,44.2c0.1,0.3,0,0.4-0.2,0.4c-0.1,0-0.2-0.1-0.2-0.1C11.4,44.3,11.5,44.2,11.7,44.2z"/>
	<path class="st140" d="M35.3,54.7c0.3,0.1,0.2,0.3,0.2,0.5c0,0.1,0,0.2,0,0.3C35.2,55.3,35.4,55,35.3,54.7z"/>
	<path class="st99" d="M1.5,47.5c0.4,0.1,0.2,0.5,0.2,0.7C1.4,48.1,1.5,47.8,1.5,47.5z"/>
	<path class="st26" d="M5.8,24.5c0,0.3,0.1,0.6-0.2,0.7C5.6,24.9,5.5,24.6,5.8,24.5z"/>
	<path class="st140" d="M14.5,70.6c0-0.1,0-0.2,0-0.3c0,0-0.1-0.1-0.1-0.2c0-0.1,0-0.1,0-0.1c0.1-0.1,0.2-0.1,0.2,0l0,0
		C14.7,70.3,14.7,70.5,14.5,70.6z"/>
	<path class="st148" d="M38.9,81.4c-0.2,0-0.4,0-0.5-0.3C38.7,81.1,38.9,81.1,38.9,81.4z"/>
	<path class="st55" d="M21.4,61.2c0,0.1-0.1,0.2-0.2,0.3l0,0c-0.2-0.3-0.1-0.5,0.2-0.5c0,0,0.1,0.1,0.1,0.1
		C21.5,61.1,21.5,61.1,21.4,61.2z"/>
	<path class="st85" d="M36.3,57.6c0.3,0.1,0.2,0.3,0.2,0.5C36.3,58,36.3,57.8,36.3,57.6z"/>
	<path class="st140" d="M21.4,61.2c0-0.1,0-0.2,0-0.2c-0.1-0.1-0.1-0.1-0.1-0.2c0,0,0-0.1,0.1-0.1c0.1,0,0.2,0,0.2,0
		C21.7,60.9,21.7,61.1,21.4,61.2z"/>
	<path class="st80" d="M20.7,62.4c0-0.2,0-0.4,0.2-0.5C20.9,62.1,21,62.3,20.7,62.4z"/>
	<path class="st26" d="M6.3,23c0,0.2,0,0.4-0.2,0.5C6.1,23.3,6.1,23.1,6.3,23z"/>
	<path class="st21" d="M22.4,59.1c-0.1,0-0.2,0-0.3,0c0-0.1,0.1-0.2,0.2-0.2c0.1-0.1,0.1-0.1,0.2,0l0.1,0
		C22.6,58.9,22.5,59,22.4,59.1z"/>
	<path class="st26" d="M6.1,23.8c0,0.2,0,0.4-0.2,0.5C5.8,24,5.8,23.8,6.1,23.8z"/>
	<path class="st99" d="M1.7,48.2C2,48.3,2,48.5,2,48.7C1.7,48.7,1.7,48.5,1.7,48.2z"/>
	<path class="st80" d="M20.5,62.7c0-0.1,0.1-0.2,0.2-0.2C20.7,62.5,20.6,62.6,20.5,62.7z"/>
	<path class="st140" d="M19.5,64.1c0-0.1,0.1-0.2,0.2-0.3C19.7,64,19.6,64.1,19.5,64.1z"/>
	<path class="st140" d="M19.5,64.3c-0.1,0-0.1-0.1-0.2-0.1c0.1,0,0.1-0.1,0.2-0.1C19.5,64.2,19.5,64.2,19.5,64.3z"/>
	<path class="st14" d="M34.9,52.8c0.1,0,0.2,0.1,0.2,0.2H35l-0.1,0C34.9,53,34.9,52.9,34.9,52.8z"/>
	<path class="st140" d="M0.8,61.9c0,0.1-0.1,0.2-0.2,0.2C0.6,62,0.6,61.9,0.8,61.9z"/>
	<path class="st45" d="M24.8,24.2c0.9,0.6,1.8,1.1,2.7,1.7c1.7,1.1,3.5,2,5.4,2.7c0.3,0.1,0.8,0.1,0.8,0.7c-1.3,1.1-2.9,1.7-4.3,2.7
		c-1,0.7-2.1,1.5-3.3,1.8c-0.2-0.1-0.3-0.3-0.3-0.4c0.1-1.9-0.6-3.7-0.7-5.5c0-0.8-0.3-1.6-0.5-2.4C24.5,25,24.2,24.5,24.8,24.2z"/>
	<path class="st101" d="M26,33.8c0.3-0.6,1-0.8,1.5-1.1c1.4-0.8,2.7-1.8,4.2-2.6c0.6-0.3,1.3-0.6,2-0.9c0.3,0.1,0.5-0.2,0.8-0.2
		c0.3-0.1,0.6,0.3,0.9,0.2c0.2,0,0.4,0.1,0.5,0.2c0.2,0.1,0.4,0.2,0.5,0.5c0,0.1,0.1,0.2,0.1,0.4c-0.3,0.3-0.5-0.2-0.7-0.1
		c-1.4,1.1-2.9,1.9-4.5,2.7c-1.7,0.9-3.4,1.9-5,2.9c-0.6,0.4-1.1,1-1.2,1.8c-0.5,0.2-0.6-0.5-1-0.5c-0.5-1.2-0.1-2.2,1-2.9
		C25.4,34.1,25.8,34.3,26,33.8z"/>
	<path class="st45" d="M12.1,10.4c0.7-2,1.7-2.9,3-2.7c1.3,0.2,2.5,1.5,2.5,2.8c0,1.1-1.1,2.4-2.2,2.5
		C13.5,13.2,12.8,12.6,12.1,10.4z"/>
	<path class="st101" d="M28.9,18.7c0.7,0.3,1.4,0.7,2,1.2c1.6,1.1,3.2,2.2,4.5,3.6c0.8,0.8,1.3,1.6,1.1,2.7c0,0.3,0,0.5,0,1
		c-1.5-1.8-3.2-3.1-5-4.3c-1.2-0.8-2.5-1.4-3.6-2.4C28.2,19.8,28.3,19.1,28.9,18.7z"/>
	<path class="st44" d="M22.6,11c-0.2,0.4-0.4,0.8-0.6,1.2c-0.9,0.7-1.8,0.7-2.8,0.1c-0.3-0.4-0.5-0.9-0.7-1.3c0.4-1.5,1-2.1,2-2.1
		C21.5,8.9,22.2,9.5,22.6,11z"/>
	<path class="st84" d="M2.7,15.6c0.5-0.4,1.1-0.5,1.7-0.5C5,15.9,5,16.7,4.6,17.6c0.1,0,0.3-0.1,0.5,0.1c-1,0.4-2.1,0.7-3.1,1
		c-0.1,0.1-0.4,0.1-0.5,0.2c-0.1,0-0.2,0-0.2,0c-0.1,0.1-0.2,0.1-0.2,0.2c-0.2,0-0.3,0-0.5,0c-0.2-1-0.2-1.9,0-2.9l0,0
		c0.2-0.2,0.5,0,0.7-0.2l0,0c0.2-0.2,0.5,0,0.7-0.2l0,0C2.2,15.6,2.5,15.8,2.7,15.6z"/>
	<path class="st66" d="M5.1,17.8c-0.3,0-0.5,0-0.9,0C5,16.9,4.4,16,4.4,15.1l0,0c0.3-0.3,0.7,0.1,1-0.3c0.5-0.4,1.1-0.5,1.7-0.5l0,0
		c-0.1,0.5-0.4,1-0.2,1.6c0.2,0.6-0.2,1.1-0.5,1.5C5.9,17.5,5.5,17.9,5.1,17.8z"/>
	<path class="st57" d="M6.3,17.5c0-0.1-0.1-0.3-0.1-0.3c0.6-0.4,0.3-1,0.4-1.6c-0.1-0.2-0.3-0.4-0.4-0.6c0.1-0.5,0.7-0.2,0.9-0.6
		c0.3,0.1,0.7-0.2,1,0.2c0,0.3,0.5,0.2,0.6,0.5c-0.1,0.6-0.2,1.1-0.8,1.4c0.2,0.1,0.4,0.1,0.5,0.2C8.1,17.2,7.8,17,7.5,17
		c-0.1,0.1-0.4,0.1-0.5,0.2C6.7,17.2,6.5,17.5,6.3,17.5z"/>
	<path class="st108" d="M5.8,11.8c-0.8-1.7-1-3.5-0.5-5.3c0.1-0.1,0.2-0.1,0.3,0c0.4,0.5,0,1.2,0.4,2c0-0.1,0.2-0.2,0-0.2
		C6,8.3,6,8.2,6,8.2C5.8,7.8,5.7,7.5,6.3,7.4c0.1,1.4,0,2.7-0.3,4.1C6,11.6,5.9,11.7,5.8,11.8z"/>
	<path class="st68" d="M26.2,17c0.5,0,0.8,0.5,1.2,0.7c0.2,0.2,0.5,0.3,0.5,0.7c-0.6,0.2-0.3,1.3-1.3,1.3c-0.5,0-0.8-0.5-1.2-0.7
		C25.6,18.3,25.8,17.6,26.2,17z"/>
	<path class="st84" d="M26.7,19.7c0.1,0,0.4,0,0.4-0.2c0-0.6,0.3-0.9,0.8-1.1c-0.2-0.2-0.3-0.4-0.4-0.6c0.6,0.1,1.1,0.5,1.4,0.9
		c0,0.6-0.6,1-0.6,1.6c-0.2,0-0.3,0-0.4,0.1C27.5,20.2,27,20.1,26.7,19.7z"/>
	<path class="st22" d="M8.5,15.1c-0.3,0-0.6-0.2-0.9-0.3c0.1-0.2,0.2-0.1,0.4-0.2c0.2,0,0.3,0,0.5,0c0.5,0.3,1.1,0.1,1.7,0.1
		c0.4,0.1,0.5,0.5,0.8,0.6c0.2,0.2,0.3,0.5,0.1,0.8c-0.1,0.1-0.2,0.1-0.3,0.1c-0.3-0.1-0.6,0-1,0c0.3,0.1,0.7-0.3,0.8,0.3
		c-0.5,0-1,0-1.4,0c-0.2,0.2-0.4,0.1-0.7,0.1C8.4,16.1,9,15.6,8.5,15.1z"/>
	<path class="st51" d="M26.2,17c0,0.2,0.3,0.4,0,0.6c-0.4,0.3-0.5,0.8-0.4,1.3c-0.1,0-0.2,0-0.3,0.1c-0.4-0.2-0.9-0.3-1.2-0.7
		c0.2-0.7,0.5-1.3,0.7-1.9l0,0C25.6,16.4,25.8,16.8,26.2,17z"/>
	<path class="st1" d="M10.9,15.4c-0.2,0-0.4,0-0.5,0c-0.2-0.2,0.1-0.3,0.1-0.5c0.1-0.1,0.2-0.1,0.2,0c0.1,0,0.2,0,0.2,0
		c0.4,0.3,0.9,0.1,1.3,0.1c0.5,0.2,1.1,0.3,1.5,0.5c0.1,0.4-0.1,0.5-0.3,0.7c-0.1,0-0.1,0.1-0.2,0.1c0,0-0.1,0.1-0.1,0.1
		s0.1,0,0.1,0c0.1,0,0.2,0.1,0.3,0.2c0,0.1,0,0.2-0.1,0.2c-0.9,0.2-1.7-0.3-2.6-0.2c-0.1-0.2-0.1-0.3,0-0.5c0.1,0,0.2,0,0.2,0
		c0.1-0.1,0.2-0.2,0.4-0.3C11.3,15.6,11,15.6,10.9,15.4z"/>
	<path class="st67" d="M6.3,7.4c-0.5,0.2,0,0.8-0.4,1.1C5.3,7.9,5.7,7.2,5.6,6.5c-0.2-0.9-0.2-1.8,0-2.6l0,0c0.1-0.1,0.2-0.1,0.3,0
		C6.2,4.2,6.1,4.6,6.1,5c0.1-0.1,0.2-0.3,0.5-0.2C6.6,5.7,6.5,6.6,6.3,7.4z"/>
	<path class="st50" d="M6.5,4.8C6,5,6.5,5.6,6.2,5.9C5.8,5.6,5.8,5.6,5.8,3.8c-0.2-1-0.2-1.9,0-2.9c0-0.1,0-0.2,0-0.2
		c0.1-0.1,0.2-0.1,0.3,0c0.4,0.9,0,1.9,0.1,2.6C6.3,3,6.3,2.5,6.3,2c0-0.1,0.1-0.2,0.1-0.3c0.1-0.1,0.2-0.1,0.3,0
		C6.9,2.7,6.5,3.8,6.5,4.8z"/>
	<path class="st22" d="M25,16.3c0.1,0.1,0.1,0.3,0.2,0.5c-0.2,0.4-0.7,0.8-0.6,1.4c0,0-0.2,0-0.3,0.1c-0.1,0-0.2,0-0.2,0
		c-0.1-0.1-0.2-0.2-0.2-0.2c-0.1,0-0.2-0.1-0.2-0.2c-0.2-0.6-0.2-1.1,0.4-1.5c0.3-0.1,0.5,0.1,0.8,0.1C24.9,16.3,24.9,16.3,25,16.3z
		"/>
	<path class="st32" d="M8.5,15.1c0.1,0,0.3,0,0.4,0.1c0.2,0.1,0.3,0.3,0.3,0.5c0,0.4-0.4,0.5-0.7,0.9c0.3,0,0.5,0,0.7,0
		c-0.2,0.4-0.6,0.2-1,0.2c-0.2,0-0.4,0-0.7,0C7.9,16.2,8.2,15.7,8.5,15.1z"/>
	<path class="st134" d="M22.1,15.8c0.2,0,0.3,0,0.5,0c0.3,0.3,0.8-0.1,1,0.4c0,0.1-0.1,0.2-0.2,0.3c-0.6,0.1-0.7,1.3-1.6,0.8l0,0
		c-0.5-0.3-0.6-0.6-0.4-1.1C21.7,15.9,22,16,22.1,15.8z"/>
	<path class="st98" d="M21.7,16.1c0,0.4,0,0.8,0.2,1.2c-0.5-0.1-1,0.2-1.4-0.2c-0.1-0.2-0.2-0.3-0.1-0.6
		C20.6,15.9,21.1,15.9,21.7,16.1z"/>
	<path class="st115" d="M13,16.3c0.1-0.3,0.6-0.2,0.6-0.7c-0.4-0.2-1.1,0.2-1.3-0.5c0.3-0.2,0.6-0.2,1,0c0.4,0.1,0.9-0.2,1.2,0.2
		c-0.3,0.2-0.2,0.7-0.4,0.9C13.7,16.5,13.4,16.5,13,16.3z"/>
	<path class="st88" d="M7,24.5c0-0.4,0-0.9,0-1.3c-0.3,0-0.6,0-0.5-0.4c0.2-0.3,0.4-0.4,0.7-0.4c0.2,0,0.3,0,0.5,0.1
		c0.1,0.5-0.3,0.9-0.3,1.4c-0.1,0.1-0.1,0.4-0.2,0.5l0,0C7.2,24.6,7.1,24.6,7,24.5z"/>
	<path class="st9" d="M27.4,43c-0.1-0.5-0.2-1-0.7-1.2c-0.1-0.2-0.3-0.4-0.2-0.7c0.1-0.1,0.1-0.2,0.2-0.2c0.6,0.3,0.6,1,1,1.4
		c0.1,0.1,0.1,0.4,0.2,0.5h0c0,0.1,0,0.3-0.1,0.4C27.7,43.1,27.6,43,27.4,43z"/>
	<path class="st59" d="M21.7,16.1c-0.5,0-0.9,0.1-1.2,0.5c-0.2,0.1-0.3,0.1-0.5,0c0-0.3,0-0.5,0-0.8c0.8-0.4,1.4,0.3,2.2,0.1
		C22.1,16.1,21.9,16.1,21.7,16.1z"/>
	<path class="st74" d="M13,16.3c0.3,0,0.5,0,0.7,0c0.4-0.3,0.1-0.7,0.4-0.9c0.1,0,0.2,0,0.3,0c0,0.4,0,0.9,0,1.2
		c-0.2,0.3-0.3,0.2-0.5,0.3c-0.1-0.2-0.4-0.1-0.5-0.2c-0.2,0-0.3,0-0.5,0C12.9,16.5,12.9,16.5,13,16.3C13,16.4,13,16.3,13,16.3z"/>
	<path class="st3" d="M21.9,17.3c0.2,0,0.3,0,0.5,0c0.1-0.5,0.3-1,0.9-1c0.4,0.5,0,0.8-0.2,1.2C22.7,17.4,22.2,17.7,21.9,17.3z"/>
	<path class="st8" d="M23.1,17.5c0-0.1-0.1-0.2-0.1-0.4c0.4-0.2,0.4-0.5,0.4-0.8c0.1,0,0.2,0,0.2,0c0.2-0.1,0.3-0.1,0.5,0
		c-0.5,0.4-0.2,1-0.5,1.4C23.4,17.8,23.2,17.8,23.1,17.5z"/>
	<path class="st109" d="M0.5,16.3c0,1,0,1.9,0,2.9c0,0.1-0.1,0.2-0.2,0.2c0-0.8,0-1.7,0-2.5C0.3,16.7,0.3,16.4,0.5,16.3z"/>
	<path class="st3" d="M24.1,16.3c-0.2,0-0.3,0-0.5,0c-0.1-0.2-0.3-0.2-0.5-0.2c-0.2,0-0.4,0-0.5-0.2c0.8,0,1.5-0.1,2.2,0.5
		C24.5,16.8,24.3,16.3,24.1,16.3z"/>
	<path class="st6" d="M24.1,37.2c0-0.1,0-0.2,0-0.4c0.5,0.1,0.4,0.8,0.9,0.9l0,0c0.1,0.1,0.1,0.2,0.1,0.3c0,0.1-0.1,0.2-0.2,0.2
		c0,0-0.1,0-0.1,0C24.5,37.8,24.3,37.5,24.1,37.2z"/>
	<path class="st22" d="M13.3,15.1c-0.3,0-0.6,0-1,0c-0.5-0.1-1,0.2-1.4-0.2c0.6,0,1.3,0,1.9,0C13,14.9,13.2,14.9,13.3,15.1z"/>
	<path class="st57" d="M10.6,14.9c-0.1,0-0.2,0-0.2,0c-0.6-0.1-1.3,0.3-1.9-0.2c0.6,0,1.1,0,1.7,0C10.3,14.6,10.5,14.7,10.6,14.9z"
		/>
	<path class="st6" d="M10.9,16.1c0,0.2,0,0.3,0,0.5c-0.1,0-0.2,0-0.2,0c-0.2-0.5-0.7-0.1-1.1-0.4C10,16,10.4,16.1,10.9,16.1z"/>
	<path class="st147" d="M25.3,38.2c0.2,0.3,0.3,0.6,0.5,1c-0.1,0.1-0.2,0.1-0.2,0c-0.2-0.3-0.5-0.6-0.7-1l0,0
		c0.1-0.1,0.1-0.1,0.2-0.1C25.1,38,25.2,38.1,25.3,38.2z"/>
	<path class="st16" d="M24.8,24.2c-0.5,0.3-0.1,0.8-0.2,1.2c-0.5-0.4-0.1-0.9-0.3-1.3C24.6,24,24.7,24.1,24.8,24.2z"/>
	<path class="st141" d="M6.8,1.7c-0.1,0-0.2,0-0.2,0c-0.3-0.5-0.3-1,0-1.4c0.1,0,0.2,0,0.2,0C6.8,0.7,6.8,1.2,6.8,1.7z"/>
	<path class="st30" d="M26.7,40.8c0,0.1-0.1,0.2-0.2,0.2c-0.2-0.3-0.3-0.6-0.5-1c0.1-0.1,0.2-0.1,0.3,0
		C26.5,40.2,26.5,40.6,26.7,40.8z"/>
	<path class="st31" d="M7.7,22.6c-0.2,0-0.3,0-0.5,0c-0.1-0.1-0.1-0.1-0.1-0.2c0-0.1,0.1-0.1,0.1-0.1c0.2-0.1,0.3-0.3,0.5-0.2
		C8.1,22.3,7.7,22.4,7.7,22.6z"/>
	<path class="st34" d="M7.3,22.3c0,0.1,0,0.2,0,0.2c-0.3-0.1-0.5,0.2-0.7,0.2c0-0.1,0-0.2,0-0.2c-0.1-0.1-0.1-0.1,0-0.2
		c0,0,0.1-0.1,0.1-0.1C6.8,22.3,7,22.3,7.3,22.3z"/>
	<path class="st142" d="M35.8,29.5c-0.2,0-0.4,0-0.5-0.2c0.1-0.3,0.3-0.2,0.5-0.2C35.8,29.2,35.8,29.4,35.8,29.5z"/>
	<path class="st23" d="M20,16.6c0.2,0,0.3,0,0.5,0c0,0.2,0,0.3,0,0.5C20.1,17.1,19.9,16.9,20,16.6z"/>
	<path class="st146" d="M25.5,39.1c0.1,0,0.2,0,0.2,0c0.1,0.2,0.2,0.3,0.3,0.5c0.1,0.2,0,0.3-0.2,0.2C25.7,39.6,25.4,39.4,25.5,39.1
		z"/>
	<path class="st14" d="M25.8,39.8c0.1,0,0.2-0.1,0.2-0.2c0.2,0.1,0.2,0.3,0.2,0.5c-0.1,0-0.2,0-0.3,0C25.8,40.1,25.8,40,25.8,39.8z"
		/>
	<path class="st26" d="M7,25c0-0.1,0-0.2,0-0.2c0.1-0.1,0.2-0.1,0.2,0c0,0.3,0.1,0.6-0.2,0.7l0,0C6.9,25.3,6.9,25.1,7,25z"/>
	<path class="st109" d="M1.5,19c0.1-0.3,0.3-0.2,0.5-0.2C1.9,19,1.7,19,1.5,19z"/>
	<path class="st26" d="M7.3,24.5c0-0.2,0-0.4,0.2-0.5C7.5,24.2,7.5,24.4,7.3,24.5z"/>
	<path class="st66" d="M7,17.3C7.1,17,7.3,17.1,7.5,17C7.4,17.3,7.2,17.3,7,17.3z"/>
	<path class="st115" d="M13.5,16.6c0.2,0,0.4,0,0.5,0.2c-0.2,0-0.3,0-0.5,0C13.5,16.7,13.5,16.6,13.5,16.6z"/>
	<path class="st26" d="M6.8,26.2c0-0.2,0-0.4,0.2-0.5C7,25.9,7.1,26.1,6.8,26.2z"/>
	<path class="st7" d="M7.3,24.7H7.1H7c0-0.1,0-0.2,0-0.2c0.1,0,0.2,0,0.2,0C7.3,24.6,7.3,24.6,7.3,24.7z"/>
	<path class="st26" d="M6.6,22.4c0,0.1,0,0.1,0,0.2l-0.1,0l-0.1,0C6.3,22.4,6.4,22.3,6.6,22.4z"/>
	<path class="st109" d="M1,19.2C1,19.1,1.1,19,1.3,19C1.2,19.1,1.2,19.2,1,19.2z"/>
	<path class="st51" d="M23.8,18c0.1,0,0.2,0.1,0.2,0.2C23.9,18.2,23.8,18.1,23.8,18z"/>
	<path class="st103" d="M51.9,42.5c-0.1,0.2-0.3,0.3-0.5,0.2c-1.9-0.4-3.8-0.3-5.8,0c-0.6,0.1-1.3,0-1.9,0c-0.1-0.2,0-0.3,0.1-0.4
		c0.1-0.1,0.2-0.2,0.3-0.4c0.1-0.2,0.3-0.4,0.5-0.4c0.9-0.3,1.8,0.1,2.7-0.2c0.3-0.6,0.7-0.1,0.9,0c0.8,0.1,1.6-0.1,2.4,0.2
		c0.4,0.2,0.8,0.4,1,0.8C51.8,42.3,51.8,42.4,51.9,42.5L51.9,42.5z"/>
	<path class="st105" d="M40.9,12.2c-0.1,0.4-0.4,0.5-0.7,0.8c-1.1,1.1-2.2,2.1-3.2,3.4c0-0.4,0-0.9,0-1.3c0.8-1.5,2-2.6,3.2-3.8
		c0.3-0.3,0.6-0.8,1.1-0.8C41.5,11.2,40.6,11.6,40.9,12.2z"/>
	<path class="st97" d="M47.3,41.3c-0.3,0.5-0.8,0.2-1.2,0.2c-0.6,0.1-1.2-0.1-1.7,0.2c-0.6,0.4-1.3,0.3-2,0.3
		c-0.2,0-0.4-0.1-0.6-0.2c-0.1-0.1-0.1-0.2-0.1-0.4c0-0.1,0.1-0.2,0.2-0.2c0.3,0.4,0.7,0.3,1.1,0.2C44.5,41.1,45.9,41.3,47.3,41.3z"
		/>
	<path class="st65" d="M40.9,12.2c-0.3-0.1-0.2-0.5-0.4-0.6c0.3-0.5,0.8-0.7,0.9-1.1c0-0.1,0.1-0.2,0.2-0.2l0,0
		c0.5,0.2,0.3,0.7,0.5,1c-0.3,0.2-0.6,0.5-1,0.7C41,12.1,40.9,12.2,40.9,12.2L40.9,12.2z"/>
	<path class="st36" d="M38.6,20.7c0.1,0.3,0,0.4-0.2,0.4c-0.1,0-0.2-0.1-0.2-0.1C38.3,20.8,38.4,20.7,38.6,20.7z"/>
	<path class="st140" d="M51.9,42.5c-0.1,0-0.2-0.1-0.2-0.2C51.8,42.3,51.9,42.3,51.9,42.5z"/>
	<path class="st136" d="M38.2,41.5c0.1,0,0.2,0,0.3,0c0.2,0.2,0.2,0.2-0.8,0.7c-0.3,0.1-0.5-0.2-0.9-0.2c-0.2,0.5-0.3,1-0.7,1.5
		c-0.5,0.2-0.8,0.7-1.2,1c-0.3,0-0.7,0-1.1,0c-0.9-0.4-1.5-1.2-1.9-2.2c0.1-1,0.6-1.9,1.4-2.6c0.7,0.1,1.5-0.3,2.1,0.4
		c0.5-0.2,0.5-0.8,0.8-1.1c0.2-0.1,0.3,0,0.4,0.2c0,0,0,0.1,0,0.1c0.1,0.1,0.1,0.3,0.1,0.4C36.5,41.1,37.6,41.1,38.2,41.5z"/>
	<path class="st40" d="M38.2,41.5c-0.3,0-0.6,0-1,0c-0.4-0.2-0.7-0.5-0.9-0.9c-0.1-0.4,0-0.7,0.2-1c-0.1-0.1-0.1-0.2,0-0.2v0
		c0.4-0.1,0.7-0.3,1-0.4c0.3,0.1,0.5,0.2,0.8,0.3c0.3,0.3,0.4,0.6,0.5,1C38.9,40.8,38.5,41.1,38.2,41.5z"/>
	<path class="st52" d="M42.3,41.8c0.7,0,1.4,0,2.2,0c-0.1,0.2-0.2,0.3-0.2,0.5c-0.1,0.1-0.2,0.2-0.2,0.2c-0.1,0-0.2,0.1-0.2,0.2
		c-0.7-0.1-1.4,0.4-2.2,0.2c0,0-0.1-0.1-0.1-0.1c0-0.1,0-0.2,0.1-0.3C41.8,42.2,42,42,42.3,41.8z"/>
	<path class="st28" d="M32.9,48.5c-0.1,0-0.3,0-0.3-0.1c0-0.6-0.6-0.6-0.9-0.9c0-0.1,0-0.2,0-0.2c0.2-0.2,0.5,0,0.7-0.2
		c0.4-0.3,0.7-0.7,1.2-0.7c0.4,0.6-0.2,1-0.2,1.4C33.3,48,33.1,48.2,32.9,48.5z"/>
	<path class="st77" d="M30.5,49c0.3,0,0.5-0.1,0.6-0.6c0.3,0.3,0.4,0.5,0.7,0.8c0.1,0.1-0.6,0.5-0.1,0.7c-0.1,0.2-0.2,0.4-0.5,0.5
		c-0.3-0.1-0.5-0.4-0.8-0.7C30.3,49.5,30.2,49.2,30.5,49z"/>
	<path class="st112" d="M36.1,46.1c-0.1,0.3-0.3,0.2-0.5,0.2c-0.5,0-1.1,0.5-1.4-0.2l0,0c0.1-0.1,0.2-0.2,0.2-0.2v0
		c0.1-0.1,0.4-0.1,0.5-0.2c0.3-0.2,0.6-0.5,0.9-0.7c0.4,0.1,0.5,0.4,0.5,0.7C36.2,45.7,36.1,45.9,36.1,46.1z"/>
	<path class="st10" d="M34.1,46.1c0.5,0.2,1,0.2,1.4,0.2c-0.5,0.3-1,0.6-1.4,1c-0.1,0.1-0.4,0.1-0.5,0.2l0,0
		c-0.1,0.1-0.2,0.1-0.2,0.2l0,0c-0.2-0.1-0.3-0.2-0.2-0.3c0.4-0.3,0.2-0.8,0.4-1.1C33.7,46.1,33.9,46.1,34.1,46.1z"/>
	<path class="st82" d="M39.4,43c0.3-0.4,0.8-0.5,1.2-0.7c0.5-0.2,0.9-0.2,1,0.5h0c-0.1,0.1-0.2,0.2-0.2,0.2
		c-0.4,0.2-0.9,0.5-1.3,0.7c-0.2,0.1-0.5,0.1-0.6-0.2c0.1-0.1,0.1-0.1,0.2-0.2C39.6,43.1,39.5,43.1,39.4,43z"/>
	<path class="st3" d="M41.6,42.7c-0.2-0.3-0.6-0.4-1-0.5c0.1-0.3,0.5-0.3,0.7-0.5c0.2-0.1,0.3-0.2,0.5,0c0.2,0,0.3,0,0.5,0
		c-0.1,0.2-0.2,0.4-0.2,0.6C42,42.7,41.8,42.7,41.6,42.7z"/>
	<path class="st14" d="M35.1,53c0.4-0.1,0.2-0.5,0.3-0.7c0.3,0.2,0.2,0.5,0.2,0.7c0.1,0.1,0.1,0.4,0.2,0.5l0,0
		c0,0.1-0.1,0.2-0.3,0.2C35.3,53.6,35.3,53.3,35.1,53z"/>
	<path class="st145" d="M35.1,51.6c-0.1,0.2,0.1,0.4-0.1,0.6c-0.1,0-0.1-0.1-0.2-0.1c-0.1-0.1-0.2-0.2-0.2-0.2
		c0-0.3,0.1-0.5,0.3-0.6C35.1,51.3,35.1,51.4,35.1,51.6z"/>
	<path class="st133" d="M39.4,43c0.2,0,0.4,0,0.6,0c0.1,0.3-0.1,0.4-0.3,0.5c-0.1-0.1-0.2-0.1-0.2-0.2c-0.1,0-0.1-0.1-0.2-0.1
		C39.3,43,39.4,43,39.4,43z"/>
	<path class="st2" d="M36.1,46.1c-0.2-0.1-0.2-0.2-0.2-0.3c0.1-0.1,0.3-0.1,0.4-0.1c0,0.1,0,0.2,0,0.2C36.2,45.9,36.1,46,36.1,46.1
		L36.1,46.1z"/>
	<path class="st62" d="M32.5,47c-0.1,0.4-0.5,0.2-0.7,0.2C31.9,46.9,32.2,47.1,32.5,47z"/>
	<path class="st28" d="M33.7,47.5c0.1-0.3,0.3-0.2,0.5-0.2C34.1,47.6,33.9,47.5,33.7,47.5z"/>
	<path class="st10" d="M34.9,45.6c-0.1,0.3-0.3,0.2-0.5,0.2C34.5,45.6,34.7,45.6,34.9,45.6z"/>
	<path class="st75" d="M27.9,42.7c-0.3-0.1-0.2-0.3-0.2-0.5C27.9,42.3,27.9,42.5,27.9,42.7z"/>
	<path class="st101" d="M25.3,38.2c-0.1,0-0.1,0-0.2,0c-0.1,0-0.1-0.1-0.1-0.1c0-0.1,0-0.1,0.1-0.1c0-0.1,0-0.2,0-0.2
		C25.3,37.8,25.3,38,25.3,38.2z"/>
	<path class="st52" d="M41.8,41.8c-0.2,0-0.3,0-0.5,0c0.1-0.3,0.3-0.2,0.5-0.2C41.8,41.6,41.8,41.7,41.8,41.8z"/>
	<path class="st116" d="M35.8,53.5c-0.3-0.1-0.2-0.3-0.2-0.5C35.8,53.1,35.8,53.3,35.8,53.5z"/>
	<path class="st19" d="M39.4,43.2c0.1,0,0.2,0.1,0.2,0.2c-0.1,0-0.2,0-0.2,0C39.4,43.4,39.4,43.3,39.4,43.2z"/>
	<path class="st3" d="M41.3,43c0-0.1,0.1-0.2,0.2-0.2c0,0.1,0,0.2,0,0.2l-0.1,0L41.3,43z"/>
	<path class="st149" d="M34.6,51.9c0.1,0,0.2,0.1,0.2,0.2c-0.1,0-0.2,0-0.2,0C34.6,52,34.6,51.9,34.6,51.9z"/>
	<path class="st28" d="M33.4,47.8c0-0.1,0.1-0.2,0.2-0.2C33.6,47.7,33.6,47.7,33.4,47.8z"/>
	<path class="st112" d="M36.1,46.1c0-0.1,0.1-0.2,0.2-0.2C36.3,46,36.2,46.1,36.1,46.1z"/>
	<path class="st10" d="M34.4,45.8c0,0.1-0.1,0.2-0.2,0.2C34.2,45.9,34.2,45.9,34.4,45.8z"/>
	<path class="st43" d="M16.4,61.8c-0.2,0.7-0.6,1.1-1.1,1.5c-0.8,0.1-1.3-0.2-1.8-0.9c0-0.4,0-0.7,0-1c0.2-0.4,0.5-0.6,0.8-0.9
		c0.4,0,0.8,0,1.1,0C16,60.8,16.2,61.3,16.4,61.8z"/>
	<path class="st38" d="M11.1,60.5c0.1-0.5,0.3-0.9,0.6-1.2c0.6-0.2,1,0.1,1.4,0.4c0.2,0.4,0.2,0.6,0.1,0.9c-0.3,0.3-0.5,0.7-1,0.8
		C11.7,61.4,11.4,60.9,11.1,60.5z"/>
	<path class="st24" d="M17.1,66.2c-0.1,0.4-0.5,0.2-0.7,0.2l0,0c0,0.3-0.1,0.5-0.5,0.5c-0.2-0.3-0.5-0.6-0.7-1
		c0-0.3,0.1-0.5,0.2-0.7c0.6,0,0.9,0.6,1.4,0.7C16.9,66.1,17,66.2,17.1,66.2L17.1,66.2z"/>
	<path class="st134" d="M13.5,64.3c0.1-0.3,0.3-0.2,0.5-0.1c0.2,0.2,0.4,0.5,0.7,0.6c0.1,0.1,0.2,0.2,0.2,0.2v0
		c-0.2,0.7-0.6,0.4-1,0.2c-0.2,0-0.4,0-0.5-0.2C13.4,64.8,13.7,64.6,13.5,64.3z"/>
	<path class="st3" d="M14,65.3c0.3-0.1,0.7,0.2,1-0.2c0.1,0,0.2,0,0.2,0c0.1,0.1,0.2,0.2,0.2,0.2v0c0.1,0.1,0.1,0.3,0.2,0.4
		c-0.1,0.2-0.2,0.3-0.4,0.3c-0.1,0-0.2,0-0.2,0c-0.1-0.1-0.2-0.2-0.2-0.2C14.5,65.6,14.1,65.6,14,65.3z"/>
	<path class="st56" d="M10.4,62.4c0.2,0,0.3,0,0.4,0.1c0.1,0.2,0,0.3-0.2,0.4l0,0c-0.5,0.5-0.7,0-1-0.3c-0.2-0.1-0.3-0.2-0.2-0.5
		c0.1-0.1,0.3-0.2,0.5,0h0C10,62.3,10.3,62.3,10.4,62.4z"/>
	<path class="st110" d="M9.9,62.2c-0.1,0-0.3,0-0.4,0.1c0.1,0.2,0.1,0.3,0.2,0.4c-0.2,0-0.3,0-0.5,0c0-0.1,0-0.2,0-0.2
		c0-0.3,0.1-0.5,0.5-0.5C9.8,61.9,9.9,62,9.9,62.2z"/>
	<path class="st48" d="M13.5,64.3c0.4,0.2,0.4,0.5,0,0.7C13,64.8,13.5,64.6,13.5,64.3z"/>
	<path class="st144" d="M14.5,70.1c0,0.1,0,0.2,0,0.2c-0.2,0.1-0.2,0.3-0.4,0.5c0-0.2-0.1-0.3-0.1-0.4c0-0.2,0-0.4,0.2-0.5
		C14.4,69.8,14.4,69.9,14.5,70.1z"/>
	<path class="st47" d="M14.5,70.1c-0.1,0-0.2-0.1-0.3-0.3c0-0.1,0-0.2,0.1-0.4c0.3,0.1,0.4,0.3,0.4,0.6
		C14.6,70.1,14.5,70.1,14.5,70.1z"/>
	<path class="st98" d="M21.4,60.7c0,0.1,0,0.2,0,0.2c-0.2,0.1-0.2,0.3-0.2,0.5c-0.3-0.1-0.2-0.3-0.2-0.5c0.1-0.2,0.2-0.3,0.2-0.5
		C21.3,60.5,21.4,60.6,21.4,60.7z"/>
	<path class="st96" d="M13,72.7c0,0.2,0,0.4-0.2,0.5C12.8,73,12.8,72.8,13,72.7z"/>
	<path class="st110" d="M10.4,62.4c-0.2,0-0.4,0-0.5-0.2C10.1,62.2,10.3,62.2,10.4,62.4z"/>
	<path class="st20" d="M22.6,58.8c-0.1,0-0.1,0-0.2,0c0-0.1,0-0.2,0-0.2C22.5,58.6,22.6,58.6,22.6,58.8z"/>
	<path class="st3" d="M14.9,65c-0.1,0-0.2-0.1-0.2-0.2C14.8,64.8,14.9,64.9,14.9,65z"/>
	<path class="st24" d="M15.4,65.3c-0.1,0-0.2-0.1-0.2-0.2C15.3,65.1,15.4,65.1,15.4,65.3z"/>
	<path class="st24" d="M14.7,65.8c0.1,0,0.2,0.1,0.2,0.2C14.8,66,14.7,65.9,14.7,65.8z"/>
	<path class="st64" d="M17.1,66.2c-0.1,0-0.2-0.1-0.2-0.2C17,66,17.1,66.1,17.1,66.2z"/>
	<path class="st102" d="M16.9,68.2c0.1,0,0.2,0.1,0.2,0.2C17,68.4,16.9,68.3,16.9,68.2z"/>
	<path class="st80" d="M20.5,61.7c0,0.1-0.1,0.2-0.2,0.2C20.2,61.8,20.3,61.7,20.5,61.7z"/>
	<path class="st103" d="M9.4,61.7c-0.1,0-0.2-0.1-0.2-0.2C9.3,61.5,9.4,61.5,9.4,61.7z"/>
	<path class="st41" d="M45.4,4.6c0.5-0.3,1-0.3,1.5-0.2c0.9,0.6,1,1.4,0.6,2.4c0,0.1,0,0.1,0,0.2c-0.1,0.1-0.1,0.2-0.3,0.3
		c-1.5,0.5-2.3,0.1-2.6-1.5c0-0.2,0.1-0.4,0.2-0.6C45,5,45,4.9,45.1,4.8c0.1-0.1,0.1-0.1,0.2-0.2C45.3,4.6,45.4,4.6,45.4,4.6z"/>
	<path class="st58" d="M52.6,7c0.1,0.5,0.1,1,0,1.4c-1,0-2.1,0-3.1,0C49.4,8,49,7.9,48.8,7.7C49.6,7.4,50.3,7,51.2,7
		C51.7,7,52.1,7,52.6,7z"/>
	<path class="st135" d="M44.9,5.3c0,0.5,0.1,1,0.4,1.4c0.6,0.6,1.3,0.5,2,0.2c0.1-0.1,0.2-0.1,0.3-0.2l0,0c0.1,0,0.3-0.1,0.4-0.1
		c-0.6,1.2-1.6,1.4-2.9,0.7C44.7,7.4,44.6,8,44,7.9c0-0.1,0-0.2,0-0.3c-0.1-0.4,0.2-0.8,0.2-1.2c0-0.2,0-0.4,0-0.6c0,0,0-0.1,0-0.1
		c0.3-0.5,0.3-1.2,1-1.4c0.1,0.1,0.1,0.2,0.2,0.2v0c-0.1,0.1-0.2,0.2-0.2,0.2l0,0C45,4.9,45.1,5.2,44.9,5.3z"/>
	<path class="st37" d="M44.5,6.3c0,0.3,0,0.5,0,0.7c-0.2,0.2-0.3,0.5-0.5,0.7c-0.8,0.1-1.5-0.1-1.7-1.1c0.1-0.5,0.5-0.7,0.9-1
		c0.4-0.2,0.7,0.3,1.1,0.2l0,0C44.4,5.9,44.3,6.1,44.5,6.3z"/>
	<path class="st79" d="M50,0.7c0-0.2,0-0.3,0-0.5c0.6,0.3,0.5,0.9,0.7,1.4c0.2,0.6,0.3,1.2,0.5,1.8c-0.1,0.1-0.1,0.3-0.3,0.3
		c-0.3,0-0.2-0.4-0.4-0.5c-0.1-0.7-0.5-1.2-0.5-1.9C50.1,1,50.1,0.9,50,0.7L50,0.7z"/>
	<path class="st13" d="M42.1,11.3c-0.1,0-0.2,0-0.4,0c0.1-0.3,0.1-0.6-0.1-0.9C42,9.9,42.4,9.5,43,9.6c0.1,0.1,0,0.3,0,0.4
		c0.2-0.1,0.4-0.1,0.5,0.1C43.1,10.6,42.4,10.7,42.1,11.3z"/>
	<path class="st118" d="M48.8,7.7c0.4,0,0.8-0.1,1.1,0.1c0.1,0.4-0.4,0.3-0.4,0.6l0,0c-0.2,0.2-0.5,0-0.7,0.2
		c-0.3,0.1-0.6,0.2-1,0.2c-0.1-0.3-0.3-0.5-0.5-0.7c0.1-0.3,0.3-0.2,0.5-0.2C48.1,7.7,48.5,8,48.8,7.7L48.8,7.7z"/>
	<path class="st111" d="M50.5,3.1c0.2,0,0.2,0.3,0.4,0.4c0.1,0,0.2-0.1,0.3-0.1c0.1,0.6,0.6,1.3,0,1.9C50.8,4.6,50.5,3.9,50.5,3.1z"
		/>
	<path class="st54" d="M43.5,10.1c-0.2,0-0.4,0-0.5,0c-0.2-0.2,0.1-0.3,0-0.5c0.3-0.1,0.6-0.2,0.9-0.2c0.1,0.1,0.2,0.1,0.2,0
		c0.2,0.1,0.2,0.2,0.2,0.4C44.1,9.8,43.8,10,43.5,10.1z"/>
	<path class="st78" d="M47.3,8.2c0.2,0,0.5-0.1,0.6,0.1c0.1,0.3-0.1,0.4-0.2,0.6C47.2,8.8,47.1,8.6,47.3,8.2z"/>
	<path class="st135" d="M42.8,7.9c0.4,0,0.8,0,1.2,0C43.6,8.3,43.2,8.3,42.8,7.9L42.8,7.9z"/>
	<path class="st81" d="M52.2,11.5c0,0.1-0.1,0.2-0.3,0.3c-0.1-0.2-0.3-0.3-0.2-0.6C52,11.1,52.1,11.3,52.2,11.5z"/>
	<path class="st58" d="M48.8,7.7c-0.2,0.5-0.6,0.1-1,0.2C48.1,7.5,48.5,7.8,48.8,7.7z"/>
	<path class="st58" d="M48.8,8.6c0.1-0.4,0.5-0.2,0.7-0.2C49.4,8.8,49,8.6,48.8,8.6z"/>
	<path class="st100" d="M50,0.7c0.3,0.2,0.3,0.3,0,0.5C50,1,50,0.9,50,0.7z"/>
	<path class="st135" d="M42.8,7.9c-0.1,0-0.1-0.1-0.2-0.1C42.8,7.7,42.7,7.9,42.8,7.9L42.8,7.9z"/>
	<path class="st61" d="M52.6,12.7c0,0.1,0,0.2,0,0.2c-0.1,0-0.1,0-0.2,0.1c0-0.1,0-0.2,0-0.3C52.5,12.7,52.5,12.7,52.6,12.7z"/>
	<path class="st113" d="M44.2,9.4c0,0.1-0.1,0.1-0.1,0.2c0-0.1-0.1-0.1-0.1-0.2C44.1,9.4,44.1,9.4,44.2,9.4z"/>
	<path class="st46" d="M52.6,19.9c-0.1,0-0.1,0-0.2,0c0-0.1,0-0.2,0.1-0.2C52.6,19.8,52.6,19.8,52.6,19.9z"/>
	<path class="st105" d="M40.9,12.2c0-0.1,0.1-0.2,0.2-0.2C41.1,12.1,41,12.2,40.9,12.2z"/>
	<path class="st61" d="M52.1,12.3c0.1,0,0.2,0.1,0.2,0.2C52.2,12.5,52.2,12.4,52.1,12.3z"/>
	<path class="st43" d="M31.7,76.1c-0.4,0.6-0.9,1.1-1.8,1.1c-0.6-0.1-1.2-0.4-1.6-1.1c-0.2-0.5,0.1-1,0.3-1.6c0.6-0.4,1.2-0.8,2-0.6
		C31.4,74.5,31.8,75.1,31.7,76.1L31.7,76.1z"/>
	<path class="st39" d="M33.6,77.3c-0.4-0.1-0.7-0.2-1-0.5c-0.2-0.4-0.1-0.8-0.1-1.2c0.3-0.7,0.9-0.8,1.5-0.6
		c0.6,0.2,0.9,0.7,0.8,1.4C34.6,76.9,34.1,77.1,33.6,77.3z"/>
	<path class="st24" d="M25,78c1.4,0.2,2.9,0.3,4.3,0.3c0.1,0,0.2,0.1,0.2,0.2c-0.4,0.3-0.8,0.3-1.2,0.3c-0.5,0-1-0.1-1.4,0.4
		c-0.2,0-0.3,0-0.5,0c-0.4,0.2-0.8,0.1-1.4,0.1C25.8,78.7,24.8,78.5,25,78z"/>
	<path class="st57" d="M25,78c0.1,0.5,0.7,0.4,0.9,0.9c-0.1,0.2-0.4,0-0.6,0.3c0.4,0,0.8,0,1.1,0c-0.4,0.5-1,0.1-1.4,0.2
		c-0.3,0.2-0.7,0.1-0.9,0.3c-0.2,0-0.3,0-0.5,0c-0.2-0.8,0.8-0.9,1-1.5h0c0.1-0.1,0.2-0.2,0.2-0.2C24.9,78,24.9,78,25,78z"/>
	<path class="st137" d="M36.1,79.7c-0.4,0.1-0.2,0.8-0.7,0.7c-0.3-0.4-0.9,0-1.2-0.5c0.2-0.3-0.4-0.4-0.2-0.7
		C34.6,79.3,35.5,79,36.1,79.7z"/>
	<path class="st115" d="M28.1,78.5c0.5,0,1,0,1.4,0c-0.1,0.3,0.2,0.7-0.2,1c-0.1-0.1-0.2-0.2-0.2,0c-0.2,0-0.3,0-0.5,0
		C28.4,79.2,27.3,79.3,28.1,78.5z"/>
	<path class="st143" d="M28.1,78.5c-0.1,0.1-0.1,0.3-0.2,0.4c0.1,0.3,0.6,0.2,0.6,0.6c-0.6,0.1-1.1-0.4-1.7-0.2
		C27,78.3,27.6,78.5,28.1,78.5z"/>
	<path class="st4" d="M33.9,79.2c0.1,0.5,0.8,0,0.9,0.5c-0.1,0.4-0.4,0.2-0.7,0.2h0c-0.1-0.2-0.4-0.1-0.6-0.3
		c-0.1-0.2,0-0.3,0.1-0.4C33.7,79.2,33.8,79.2,33.9,79.2z"/>
	<path class="st137" d="M33.7,79.7c0.2,0,0.4,0,0.5,0.2c-0.3,0-0.7,0-1,0c-0.2-0.3-0.3-0.5,0.1-0.7C33.3,79.4,33.5,79.5,33.7,79.7z"
		/>
	<path class="st96" d="M23.6,79.7c0.2,0,0.3,0,0.5,0c0.2-0.1,0.3-0.1,0.5,0c-0.3,0.4-0.8,0.2-1.2,0.2c-0.1,0-0.2,0-0.2,0
		C23.1,79.5,23.3,79.5,23.6,79.7z"/>
	<path class="st107" d="M32,76.1c0-0.4,0-0.7,0-1.1C32.2,75.6,32.2,75.6,32,76.1L32,76.1z"/>
	<path class="st21" d="M25,68.7c0.3,0.1,0.2,0.3,0.2,0.5c0,0.2,0,0.3,0,0.5C24.8,69.4,25.1,69,25,68.7z"/>
	<path class="st76" d="M24.8,73.2c0.1-0.3-0.2-0.7,0.2-1C24.9,72.6,25.2,73,24.8,73.2z"/>
	<path class="st23" d="M29.1,79.4c-0.1-0.2-0.4-0.5,0.1-0.6c0.2,0.2,0.1,0.4,0.1,0.6l-0.1,0L29.1,79.4z"/>
	<path class="st18" d="M33.7,79.7c-0.4,0-0.5-0.1-0.5-0.5c0.2,0,0.3,0,0.5,0C33.7,79.4,33.7,79.5,33.7,79.7z"/>
	<path class="st69" d="M24.5,79.7c-0.2,0-0.3,0-0.5,0c0.2-0.5,0.6-0.1,1-0.2C25,79.7,24.7,79.7,24.5,79.7z"/>
	<path class="st107" d="M31.7,76.1c0.1,0,0.2,0,0.3,0l0,0c0,0.1,0,0.3-0.1,0.4C31.7,76.4,31.8,76.2,31.7,76.1L31.7,76.1z"/>
	<path class="st70" d="M36.3,81.1c0.2,0,0.4,0,0.5,0.2C36.6,81.4,36.4,81.4,36.3,81.1z"/>
	<path class="st70" d="M36.1,80.9c0.1,0,0.2,0.1,0.2,0.2C36.2,81.1,36.1,81,36.1,80.9z"/>
	<path class="st69" d="M24.8,78c0,0.1-0.1,0.2-0.2,0.2c0-0.1,0-0.2,0-0.2C24.6,78,24.7,78,24.8,78z"/>
	<path class="st141" d="M6.5,1.9c0,0.7,0,1.4-0.5,2.3c0-1.3,0-2.4,0-3.5c-0.1-0.2-0.1-0.3,0-0.5c0.1,0,0.2,0,0.2,0
		C6.6,0.8,6.2,1.4,6.5,1.9z"/>
	<path class="st114" d="M5.8,1c0,1,0,1.9,0,2.9c-0.1,0-0.2,0-0.2,0c0-0.8,0-1.5,0-2.3C5.6,1.3,5.5,1.1,5.8,1z"/>
	<path class="st114" d="M5.6,3.8c0,0.9,0,1.8,0,2.6c-0.1,0-0.2,0-0.2,0c0-0.7,0-1.4,0-2.2C5.3,4.1,5.4,3.9,5.6,3.8z"/>
	<path class="st60" d="M6.5,1.9C6,1.4,6.4,0.8,6.3,0.2c0.1,0,0.2,0,0.3,0c0,0.5,0,1,0,1.4C6.5,1.8,6.5,1.8,6.5,1.9z"/>
	<path class="st84" d="M5.3,14.9c-0.2,0.5-0.6,0.2-1,0.3C4.6,14.7,5,15,5.3,14.9z"/>
	<path class="st109" d="M2.7,15.6C2.6,16,2.2,15.8,2,15.8C2.1,15.5,2.4,15.6,2.7,15.6z"/>
	<path class="st109" d="M2,15.8c-0.1,0.4-0.5,0.2-0.7,0.2C1.4,15.7,1.7,15.9,2,15.8z"/>
	<path class="st109" d="M1.3,16.1c-0.1,0.4-0.5,0.2-0.7,0.2C0.7,16,1,16.1,1.3,16.1z"/>
	<path class="st114" d="M6.1,0.3c0,0.2,0,0.3,0,0.5c-0.1,0-0.2,0-0.2,0C5.8,0.5,5.8,0.3,6.1,0.3z"/>
	<path class="st69" d="M23.6,79.7c-0.2,0-0.4,0-0.5,0.2H23h-0.1c0.1-0.5,0.2-1,0.3-1.4c0.4-0.4,0.9-0.2,1.3-0.3
		c0.1,0.1,0.1,0.3,0.2,0.4C24.6,79.2,23.7,79.1,23.6,79.7z"/>
	<path class="st26" d="M4.4,30.5c0,0.1-0.1,0.1-0.1,0.2C4.1,30.5,4.3,30.5,4.4,30.5L4.4,30.5z"/>
	<path class="st63" d="M33.1,65.2c-0.1,0.1-0.2,0.1-0.3,0C32.9,65,33,65.1,33.1,65.2z"/>
	<path class="st7" d="M7,25c0,0.2,0,0.3,0,0.5C6.7,25.3,6.7,25.1,7,25z"/>
	<path class="st0" d="M25.5,67.9c-0.4-0.2-0.1-0.6-0.2-0.9C25.7,67.2,25.4,67.6,25.5,67.9z"/>
	<path class="st27" d="M21.9,60c-0.1,0-0.2-0.1-0.2-0.2C21.8,59.8,21.9,59.9,21.9,60z"/>
	<path class="st33" d="M28.7,27.7c0.1,0.1,0.1,0.2,0,0.3C28.6,27.9,28.6,27.8,28.7,27.7z"/>
	<path class="st6" d="M10.9,15.4c0.5,0,1,0,1.5,0.5c-0.4,0.4-0.8,0.2-1.2,0.2C11,15.8,10.8,15.7,10.9,15.4z"/>
	<path class="st115" d="M13,16.3c0,0.1,0,0.2,0,0.2c-0.2,0-0.4,0.1-0.6-0.1C12.6,16.2,12.8,16.4,13,16.3z"/>
	<polygon class="st146" points="20.3,15.9 20.4,16 20.3,16 	"/>
	<path class="st72" d="M25,37.9c0,0.1,0,0.2,0,0.2c-0.1,0-0.2,0-0.2,0C24.8,38,24.9,37.9,25,37.9z"/>
	<path class="st97" d="M44,42.5c0-0.1,0.1-0.2,0.2-0.2C44.2,42.4,44.1,42.5,44,42.5z"/>
	<path class="st44" d="M32.5,42.3c0.3-0.6,0.4-1.2,0.9-1.5c0.3-0.3,0.8-0.1,1.1-0.3c0.4,0.2,0.7,0.4,1,0.5c0.5,0.6,0.6,1.2,0.5,1.9
		c-1.1,1.3-1.5,1.4-2.9,0.7C32.9,43.2,32.7,42.7,32.5,42.3z"/>
	<path class="st140" d="M36.6,39.4c0,0.1,0,0.2,0,0.2c-0.1,0-0.1-0.1-0.2-0.1C36.4,39.4,36.5,39.4,36.6,39.4z"/>
	<path class="st64" d="M16.4,66.5c-0.1,0-0.1-0.1-0.2-0.1C16.4,66.2,16.3,66.4,16.4,66.5L16.4,66.5z"/>
	<path class="st19" d="M10.6,62.9c-0.1,0-0.1-0.1-0.2-0.1C10.6,62.6,10.6,62.8,10.6,62.9L10.6,62.9z"/>
	<path class="st140" d="M44.9,5.3c0-0.2,0-0.4,0.2-0.5C45.2,5,45.2,5.2,44.9,5.3z"/>
	<path class="st140" d="M45.2,4.8c0-0.1,0.1-0.2,0.2-0.2C45.4,4.7,45.3,4.8,45.2,4.8z"/>
	<path class="st140" d="M47.6,6.7c0,0.2-0.1,0.2-0.3,0.2C47.4,6.8,47.4,6.7,47.6,6.7z"/>
	<path class="st140" d="M44.5,6.3c-0.2-0.1-0.2-0.3-0.2-0.5C44.5,5.8,44.5,6.1,44.5,6.3z"/>
	<polygon class="st100" points="50.4,1.6 50.3,1.6 50.3,1.5 	"/>
</g>
</svg>
