<?xml version="1.0" encoding="utf-8"?>
<!-- Generator: Adobe Illustrator 16.0.0, SVG Export Plug-In . SVG Version: 6.00 Build 0)  -->
<!DOCTYPE svg PUBLIC "-//W3C//DTD SVG 1.1//EN" "http://www.w3.org/Graphics/SVG/1.1/DTD/svg11.dtd">
<svg version="1.1" id="Layer_1" xmlns="http://www.w3.org/2000/svg" xmlns:xlink="http://www.w3.org/1999/xlink" x="0px" y="0px"
	 width="153.84px" height="150px" viewBox="0 0 153.84 150" enable-background="new 0 0 153.84 150" xml:space="preserve">
<g>
	<g>
		<path fill="#FEFEFE" d="M0.24,150.24c0-50,0-100,0-150c51.36,0,102.72,0,154.08,0c0,50,0,100,0,150
			C102.96,150.24,51.6,150.24,0.24,150.24z M95.379,25.921c-0.117,0.549-0.234,1.099-0.352,1.648
			c-2.476,0.018-4.951,0.036-7.427,0.053c-0.235,0.03-0.47,0.086-0.706,0.086c-18.605-0.005-37.21-0.015-55.816-0.024
			c-0.465,0-0.929,0-1.375,0c0,2.169,0,4.194,0,6.219c-0.445,0.249-0.875,0.534-1.339,0.74c-1.765,0.782-2.254,1.552-2.183,3.521
			c-0.012,0.312-0.023,0.624-0.035,0.936c-0.105,1.145-0.135,2.302-0.329,3.432c-0.481,2.812-0.143,5.197,2.943,6.332
			c0.03,0.011,0.045,0.063,0.067,0.097c-0.822,1.023-1.645,2.046-2.468,3.07c-1.561,1.941-3.208,3.82-4.651,5.846
			c-1.001,1.407-0.664,1.99,1.044,2.493c0.79-0.285,1.58-0.57,2.37-0.854c-0.104,1.038-0.209,2.075-0.313,3.113
			c-0.113,2.542-0.268,5.084-0.32,7.629c-0.024,1.169,0.745,1.714,1.939,1.566c0.354-0.232,0.807-0.39,1.043-0.709
			c0.713-0.959,1.342-1.981,2.003-2.979c0.042,0.232,0.121,0.464,0.121,0.696c0.006,9.905,0.008,19.81-0.005,29.714
			c0,0.332-0.168,0.664-0.258,0.997c-1.269-0.422-2.531-0.871-3.812-1.25c-0.349-0.103-0.835-0.131-1.128,0.036
			c-1.049,0.597-2.042,1.293-3.056,1.952c-0.726,0.294-0.855,0.857-0.746,1.564c0.442,2.838,0.833,5.685,1.318,8.515
			c0.185,1.079,0.83,1.868,1.964,2.193c0.613,0.176,1.192,0.471,1.787,0.711c-1.552,0.441-3.104,0.881-4.656,1.322l0.01-0.03
			c-0.124,0.055-0.248,0.109-0.372,0.163c-0.539,0.395-1.144,0.726-1.598,1.201c-0.539,0.564-0.561,1.226,0.359,1.413
			c0.926,0.188,1.886,0.272,2.832,0.278c1.01,0.006,2.021-0.132,3.196-0.22c0,3.819-0.056,7.487,0.025,11.152
			c0.037,1.707,0.298,3.414,0.539,5.11c0.102,0.721,0.438,1.362,1.36,0.737c1.376-0.377,2.607-0.908,2.741-2.597
			c0.375-1.135,0.75-2.27,1.125-3.405c0.407,0.243,0.936,0.394,1.201,0.744c1.534,2.03,2.98,4.125,4.515,6.153
			c0.378,0.5,0.974,0.833,1.469,1.244c1.248-0.021,1.94-0.537,1.851-1.622c-0.16-1.938-0.463-3.863-0.707-5.793
			c-0.021-0.164-0.043-0.328-0.065-0.492c-0.039-0.081-0.078-0.16-0.117-0.24c-0.199-0.877-0.427-1.75-0.582-2.634
			c-0.058-0.332,0.055-0.694,0.09-1.042c0.72,0.106,1.439,0.213,2.159,0.319c0.236-0.086,0.472-0.173,0.708-0.26
			c0.085,0.001,0.171,0.003,0.256,0.005c0.879-0.001,1.759-0.003,2.638-0.004c0.674-0.018,1.348-0.051,2.021-0.051
			c26.086-0.002,52.173-0.002,78.259-0.002c0.422,0,0.844,0,1.404,0c0-1.411,0-2.644,0-3.877c0.289,0.363,0.537,0.772,0.878,1.076
			c0.344,0.306,0.782,0.507,1.179,0.754c1.305,0.242,2.074-0.313,2.12-1.767c0.077-2.458,0.023-4.92,0.024-7.381
			c-0.054-1.039-0.107-2.079-0.162-3.118c0.385,0.26,0.74,0.6,1.163,0.76c0.45,0.169,0.963,0.167,1.449,0.241
			c1.81-0.522,2.107-1.028,1.084-2.559c-1.254-1.878-2.716-3.617-4.088-5.416c-1.007-1.218-2.014-2.435-3.021-3.652
			c0.843-0.513,1.759-0.939,2.504-1.569c0.485-0.41,0.999-1.104,1.022-1.689c0.108-2.666,0.057-5.338,0.042-8.008
			c-0.008-1.365-0.632-2.33-1.905-2.902c-0.824-0.371-1.602-0.847-2.4-1.276c0.013-0.239,0.036-0.478,0.036-0.717
			c0.002-18.311,0.002-36.621-0.001-54.932c0-0.303-0.049-0.606-0.095-1.135c-5.776,0-11.484,0-17.193,0
			c-0.269-1.46-0.538-2.92-0.83-4.5c2.304,1.054,4.317,2.014,6.37,2.881c0.404,0.171,1.11,0.161,1.397-0.088
			c0.24-0.208,0.069-0.888,0.081-1.359c-0.201-0.49-0.268-1.14-0.627-1.442c-1.414-1.188-2.919-2.268-4.391-3.387
			c-0.649-0.43-1.297-0.86-1.946-1.29c-0.185-0.195-0.369-0.39-0.553-0.584c1.407-0.688,1.703-1.899,1.734-3.347
			c0.032-1.459,0.349-2.912,0.393-4.372c0.046-1.511-0.084-3.026-0.137-4.54c-0.29-1.837-0.885-2.367-2.698-2.442
			c-0.514-0.021-1.025-0.114-1.539-0.153c-2.58-0.197-5.158-0.417-7.74-0.566c-1.04-0.06-1.763,0.401-1.769,1.58
			c-0.095,0.282-0.25,0.559-0.276,0.848c-0.223,2.48-0.422,4.964-0.629,7.446c0.074,0.717,0.147,1.434,0.221,2.15
			c0.304,0.77,0.608,1.539,0.913,2.309c-0.472,0.194-0.943,0.388-1.415,0.582c-0.479,0.162-0.959,0.323-1.438,0.485
			c-1.525,0.587-3.064,1.142-4.572,1.771c-1.105,0.462-1.253,1.294-0.687,2.298c0.477,0.328,0.956,0.932,1.43,0.927
			c1.161-0.01,2.319-0.304,3.479-0.479c0.922-0.14,1.845-0.272,2.768-0.408c-0.231,0.784-0.461,1.567-0.692,2.351
			C95.664,24.787,95.522,25.354,95.379,25.921z M8.352,90.655c-0.52-0.162-1.04-0.324-1.656-0.516
			c-1.443,4.347-2.854,8.594-4.288,12.913c4.319,1.433,8.57,2.843,12.946,4.294c1.448-4.354,2.863-8.612,4.289-12.9
			c-2.346-0.832-4.656-1.652-6.966-2.473c3.14-0.852,6.279-1.705,9.511-2.583c-1.112-4.409-2.201-8.724-3.316-13.145
			c-4.434,1.119-8.75,2.208-13.138,3.314c0.071,0.374,0.116,0.68,0.188,0.98C6.729,83.914,7.541,87.284,8.352,90.655z
			 M108.955,135.423c2.021,4.143,3.985,8.168,5.968,12.232c4.158-2.026,8.164-3.979,12.224-5.958
			c-1.992-4.088-3.958-8.124-5.959-12.231C117.073,131.469,113.071,133.418,108.955,135.423z M152.046,121.721
			c-3.52-2.959-6.953-5.846-10.413-8.755c-2.979,3.545-5.848,6.96-8.75,10.414c3.514,2.955,6.927,5.824,10.408,8.75
			C146.247,128.616,149.115,125.206,152.046,121.721z"/>
		<path fill-rule="evenodd" clip-rule="evenodd" fill="#B1C4CD" d="M96.933,16.691c-0.305-0.77-0.609-1.539-0.913-2.309
			c0.139-0.72,0.277-1.439,0.416-2.159c0.261-2.392,0.522-4.785,0.783-7.177c0.659-0.219,1.32-0.63,1.975-0.62
			c1.625,0.024,3.249,0.22,4.869,0.385c2.131,0.217,4.258,0.472,6.388,0.71c0.053,1.513,0.184,3.029,0.137,4.54
			c-0.044,1.46-0.361,2.913-0.393,4.372c-0.031,1.448-0.327,2.659-1.734,3.347c-0.824-0.095-1.647-0.232-2.473-0.259
			c-0.266-0.009-0.542,0.272-0.813,0.421c0.24,0.245,0.438,0.601,0.729,0.712c0.837,0.321,1.712,0.543,2.573,0.805
			c0.558,0.317,1.115,0.633,1.673,0.951c1.942,1.358,3.885,2.715,5.828,4.073c-0.011,0.471,0.159,1.151-0.081,1.359
			c-0.287,0.249-0.993,0.259-1.397,0.088c-2.053-0.867-4.066-1.827-6.37-2.881c0.292,1.58,0.561,3.04,0.83,4.5
			c0.034,0.499,0.067,0.997,0.101,1.495c0.23,2.655,0.503,5.309,0.661,7.969c0.041,0.683-0.281,1.388-0.436,2.083
			c-0.575-0.448-1.263-0.807-1.705-1.362c-1.307-1.645-2.505-3.375-3.77-5.055c-0.732-0.972-1.68-1.29-2.836-0.776
			c-1.643,0.523-2.717,1.623-3.284,3.237c-0.301,0.415-0.635,0.809-0.894,1.248c-0.561,0.952-1.023,1.968-1.641,2.879
			c-0.458,0.675-1.09,1.017-1.585-0.047c0.133-1.011,0.206-2.035,0.411-3.031c0.543-2.636,1.145-5.26,1.723-7.889
			c0.183-0.713,0.365-1.426,0.548-2.139c0.162-0.636,0.323-1.271,0.484-1.907c0.263-0.819,0.526-1.638,0.837-2.604
			c-0.486,0.099-0.78,0.159-1.074,0.219c-0.923,0.136-1.846,0.269-2.768,0.408c-1.16,0.175-2.318,0.468-3.479,0.479
			c-0.474,0.004-0.953-0.6-1.43-0.927c1.837-0.851,3.675-1.701,5.513-2.553c0.565-0.178,1.13-0.355,1.695-0.533
			c1.866-0.223,3.732-0.446,5.692-0.68c0.281-0.707-0.037-0.993-0.886-1.034C99.532,16.966,98.233,16.808,96.933,16.691z
			 M103.679,14.167c0.021-1.03-0.636-1.69-1.702-1.711c-1.044-0.021-1.652,0.543-1.678,1.56c-0.028,1.084,0.579,1.779,1.591,1.823
			C102.821,15.879,103.66,15.096,103.679,14.167z M105.318,15.812c0.191,0.007,0.383,0.014,0.574,0.021
			c0.365-0.47,1.02-0.946,1.009-1.408c-0.009-0.418-0.685-1.054-1.172-1.175c-0.75-0.188-1.36,0.381-1.268,1.165
			C104.52,14.908,105.018,15.349,105.318,15.812z"/>
		<path fill-rule="evenodd" clip-rule="evenodd" fill="#FCBF14" d="M128.38,122.669c-0.396-0.247-0.834-0.448-1.179-0.754
			c-0.342-0.304-0.589-0.713-0.879-1.076c-0.657-1.237-1.313-2.474-1.97-3.712c-0.449-0.818-0.897-1.636-1.346-2.454
			c-0.44-0.486-0.88-0.973-1.319-1.458c-1.326-0.854-2.354-0.469-3.382,1.265c-0.721,1.483-1.442,2.966-2.163,4.449
			c-1.196,0.362-1.171-0.588-1.151-1.226c0.066-2.126,0.243-4.25,0.377-6.375c0.529-3.328,1.058-6.656,1.602-10.077
			c-1.275-0.06-2.385-0.112-3.495-0.164c-0.153-0.009-0.306-0.018-0.458-0.026c-0.54-0.107-1.08-0.215-1.62-0.322
			c-0.49-0.401-0.979-0.802-1.469-1.203c0.465-0.474,0.93-0.948,1.396-1.422c0.027-0.028,0.063-0.047,0.095-0.071l0.046,0.093
			c0.201-0.087,0.402-0.175,0.603-0.262l-0.021,0.014c1.825,0.017,3.65,0.033,5.475,0.049c0.855,0.391,1.71,0.782,2.63,1.203
			c0.394-1.729-1.065-1.51-1.825-1.971c-0.236-0.148-0.472-0.296-0.708-0.444c-2.888-1.189-3.135-1.556-3.141-4.582
			c-0.003-1.475-0.025-2.95-0.039-4.424c0.014-1.016-0.073-2.048,0.085-3.042c0.08-0.502,0.602-0.934,0.924-1.397
			c3,1.381,6.002,2.76,9.001,4.145c1.257,0.58,1.814,1.565,1.8,2.954c-0.033,3.151-0.017,6.303-0.021,9.455
			c-1.134,1.02-2.005-0.38-3.175-0.236c0.191,0.469,0.442,0.884,0.793,1.182c0.691,0.585,1.48,1.059,2.151,1.664
			c0.764,0.688,1.444,1.469,2.16,2.21c1.152,1.348,2.371,2.647,3.432,4.064c0.595,0.795,0.932,1.785,1.384,2.687
			c-0.486-0.073-1-0.071-1.449-0.241c-0.423-0.16-0.778-0.5-1.163-0.76c-1.485-1.351-2.97-2.701-4.42-4.021
			c0.472,2.303,0.975,4.759,1.479,7.215c0.052,0.63,0.089,1.263,0.158,1.891C127.84,117.883,128.112,120.276,128.38,122.669z
			 M119.422,95.673c0.857-0.128,1.5-0.543,1.524-1.5c0.023-0.93-0.481-1.489-1.43-1.559c-0.902-0.066-1.675,0.631-1.626,1.502
			C117.942,95.04,118.497,95.54,119.422,95.673z M122.544,94.116c-0.178-0.001-0.356-0.002-0.534-0.004
			c-0.279,0.432-0.79,0.875-0.769,1.291c0.019,0.375,0.668,1.048,0.952,1.006c0.432-0.064,1.035-0.591,1.105-1
			C123.363,95.031,122.819,94.551,122.544,94.116z"/>
		<path fill-rule="evenodd" clip-rule="evenodd" fill="#EA2028" d="M29.477,68.137c-0.662,0.998-1.291,2.02-2.003,2.979
			c-0.237,0.319-0.689,0.477-1.043,0.709c0.031-0.509,0.02-1.025,0.101-1.526c0.418-2.558,0.861-5.111,1.295-7.667
			c0.555-2.413,1.109-4.825,1.693-7.362c-1.541,1.489-2.968,2.868-4.395,4.247c-0.79,0.285-1.58,0.57-2.37,0.854
			c0.518-0.986,0.919-2.059,1.577-2.94c1-1.338,2.179-2.543,3.282-3.804c1.485-1.219,2.983-2.422,4.441-3.672
			c0.22-0.189,0.254-0.595,0.334-0.799c-1.044,0-1.934,0-2.823,0c0.047-0.945,0.113-1.889,0.139-2.835
			c0.044-1.684,0.064-3.367,0.095-5.051c0.058-0.791,0.116-1.582,0.173-2.373c0.44-1.131,1.216-1.845,2.375-2.305
			c2.315-0.92,4.58-1.971,6.854-2.994c0.327-0.147,0.588-0.438,0.881-0.662c0.956,0.198,1.271,0.804,1.22,1.745
			c-0.109,2.031-0.163,4.066-0.24,6.099c-0.075,0.789-0.185,1.576-0.218,2.366c-0.058,1.373-0.668,2.323-1.966,2.829
			c-0.399,0.155-0.771,0.381-1.155,0.575c-0.965,0.528-2.535,0.298-2.641,1.798c1.94-0.199,3.794-0.436,5.656-0.558
			c0.819-0.054,1.653,0.126,2.48,0.2l-0.017-0.014c0.085,0.036,0.17,0.071,0.254,0.106c0.065-0.003,0.126,0.012,0.182,0.047
			c1.656,1.224,1.665,1.537,0.064,2.503c-0.512,0.095-1.024,0.189-1.537,0.284c-0.15,0.009-0.3,0.019-0.45,0.028
			c-1.18,0-2.36,0-3.664,0c0.122,0.647,0.222,1.183,0.323,1.719c0.204,2.424,0.411,4.849,0.612,7.273
			c0.122,1.468,0.236,2.937,0.354,4.406c-0.078,1.179-0.121,2.362-0.25,3.536c-0.069,0.634-0.308,1.217-1.154,0.74
			c-0.56-1.438-1.12-2.876-1.68-4.315c-0.742-1.838-1.672-2.32-3.141-1.627c-0.479,0.546-0.957,1.092-1.436,1.638
			c-0.27,0.43-0.54,0.86-0.81,1.291C30.408,66.45,29.943,67.293,29.477,68.137z M37.653,43.631
			c-0.109-0.719-0.437-1.354-1.377-1.411c-0.841-0.052-1.494,0.61-1.495,1.502c0,0.902,0.483,1.433,1.349,1.541
			C36.901,45.36,37.642,44.572,37.653,43.631z M33.371,43.227c-0.444,0.808-0.926,1.293-0.885,1.729
			c0.035,0.371,0.671,0.686,1.042,1.025c0.337-0.413,0.892-0.801,0.943-1.247C34.511,44.38,33.934,43.956,33.371,43.227z"/>
		<path fill-rule="evenodd" clip-rule="evenodd" fill="#229146" d="M27.356,134.393c-0.923,0.625-1.258-0.016-1.36-0.737
			c-0.241-1.696-0.502-3.403-0.539-5.11c-0.081-3.665-0.025-7.333-0.025-11.152c-1.175,0.087-2.186,0.226-3.196,0.22
			c-0.946-0.006-1.906-0.09-2.832-0.278c-0.92-0.188-0.898-0.849-0.359-1.413c0.454-0.475,1.059-0.806,1.598-1.201
			c0.124-0.054,0.248-0.108,0.372-0.163c0,0-0.01,0.03-0.009,0.031c0.193,0.04,0.392,0.132,0.577,0.108
			c2.044-0.26,4.092-0.824,6.203,0.224c-0.065-0.518-0.17-0.982-0.445-1.13c-0.507-0.273-1.113-0.36-1.679-0.525
			c-0.594-0.241-1.174-0.535-1.787-0.711c-1.134-0.325-1.779-1.115-1.964-2.193c-0.485-2.831-0.876-5.677-1.318-8.515
			c-0.11-0.707,0.02-1.27,0.746-1.564c2.31,0.796,4.589,1.697,6.939,2.35c1.476,0.41,2.733,0.971,3.604,2.254
			c0.335,2.236,0.669,4.473,1.004,6.709c0.085,1.046,0.171,2.093,0.256,3.139c-0.674,1.395-1.802-0.226-2.798,0.509
			c0.335,0.301,0.589,0.598,0.904,0.798c0.661,0.421,1.396,0.734,2.025,1.196c1.332,0.977,2.616,2.021,3.919,3.037
			c0.213,0.258,0.428,0.514,0.638,0.774c1.07,1.326,2.138,2.653,3.207,3.979c-0.72-0.106-1.439-0.213-2.159-0.319
			c-1.537-1.237-3.073-2.474-4.609-3.711c0.312,1.831,0.841,3.448,1.395,5.056c0.411,1.192,0.854,2.374,1.284,3.56
			c0.056,0.349,0.098,0.7,0.172,1.045c0.425,1.959,0.857,3.916,1.288,5.874c-0.496-0.41-1.091-0.744-1.469-1.244
			c-1.535-2.028-2.981-4.124-4.515-6.153c-0.265-0.35-0.794-0.5-1.201-0.743c-0.645-0.694-1.419-0.546-1.84,0.075
			c-0.572,0.843-0.879,1.866-1.299,2.812C27.84,132.317,27.598,133.355,27.356,134.393z"/>
		<path fill-rule="evenodd" clip-rule="evenodd" fill="#EA2028" d="M108.955,135.423c4.117-2.005,8.119-3.954,12.232-5.958
			c2.001,4.107,3.968,8.143,5.959,12.231c-4.06,1.979-8.066,3.932-12.224,5.958C112.94,143.591,110.976,139.565,108.955,135.423z"/>
		<path fill-rule="evenodd" clip-rule="evenodd" fill="#229146" d="M152.046,121.721c-2.931,3.485-5.8,6.895-8.755,10.408
			c-3.481-2.926-6.894-5.795-10.408-8.75c2.901-3.453,5.771-6.868,8.75-10.414C145.094,115.875,148.527,118.762,152.046,121.721z"/>
		<path fill-rule="evenodd" clip-rule="evenodd" fill="#FCBF14" d="M8.352,90.655c-0.811-3.371-1.623-6.742-2.43-10.113
			c-0.072-0.3-0.117-0.607-0.188-0.98c4.388-1.107,8.704-2.196,13.138-3.314c1.115,4.42,2.204,8.736,3.316,13.145
			c-3.232,0.877-6.372,1.73-9.511,2.583c-1.218,0.289-2.437,0.577-3.707,0.878C8.754,92.086,8.553,91.371,8.352,90.655z"/>
		<path fill-rule="evenodd" clip-rule="evenodd" fill="#0A73BA" d="M8.352,90.655c0.202,0.716,0.403,1.431,0.619,2.198
			c1.27-0.301,2.488-0.59,3.707-0.878c2.31,0.82,4.62,1.641,6.966,2.473c-1.426,4.288-2.841,8.546-4.289,12.9
			c-4.375-1.452-8.626-2.862-12.946-4.294c1.434-4.319,2.845-8.566,4.288-12.913C7.312,90.332,7.832,90.493,8.352,90.655z"/>
		<path fill-rule="evenodd" clip-rule="evenodd" fill="#6D6F71" d="M124.353,117.128c0.657,1.237,1.313,2.475,1.97,3.711
			c0,1.233,0,2.466,0,3.877c-0.56,0-0.982,0-1.404,0c-26.086,0-52.173,0-78.259,0.002c-0.673,0-1.347,0.034-2.021,0.051
			c-0.559-0.544-1.118-1.088-1.678-1.632c3.291-0.011,6.583-0.014,9.873-0.044c0.462-0.004,0.923-0.138,1.384-0.212
			c0.229,0.045,0.458,0.13,0.687,0.13c3.37,0.009,6.739,0.012,10.109-0.002c0.302-0.001,0.604-0.132,0.906-0.203
			c0.327,0.099,0.654,0.282,0.981,0.284c3.258,0.021,6.517,0.02,9.775,0.002c0.291-0.001,0.582-0.16,0.872-0.246
			c1.7,0.058,3.401,0.161,5.101,0.161c2.217,0,4.435-0.08,6.652-0.126c0.305,0.074,0.61,0.211,0.915,0.212
			c3.276,0.016,6.552,0.016,9.828,0c0.304-0.001,0.607-0.138,0.911-0.212c1.665,0.045,3.329,0.131,4.994,0.127
			c2.222-0.005,4.444-0.081,6.667-0.127c0.345,0.074,0.689,0.21,1.034,0.212c3.278,0.016,6.557,0.013,9.835,0.002
			c0.261,0,0.521-0.09,0.865-0.155C124.353,120.96,124.353,119.044,124.353,117.128z"/>
		<path fill-rule="evenodd" clip-rule="evenodd" fill="#6A6B6D" d="M109.06,29.044c-0.034-0.499-0.067-0.997-0.101-1.495
			c5.708,0,11.417,0,17.193,0c0.046,0.529,0.095,0.832,0.095,1.135c0.004,18.311,0.003,36.622,0.001,54.932
			c0,0.239-0.023,0.478-0.036,0.717c-0.622-0.283-1.244-0.565-1.867-0.847c-0.012-2.528-0.024-5.056-0.036-7.584
			c-0.001-3.808-0.002-7.616-0.004-11.424c0.005-3.974,0.009-7.948,0.014-11.922c0.001-3.903,0.002-7.806,0.002-11.709
			c0-3.916,0-7.832,0-11.777c-2.738,0-5.321,0-7.904,0c-1.258-0.007-2.516-0.014-3.773-0.02
			C111.45,29.048,110.255,29.046,109.06,29.044z"/>
		<path fill-rule="evenodd" clip-rule="evenodd" fill="#6D6F71" d="M29.705,33.903c0-2.025,0-4.05,0-6.219c0.445,0,0.91,0,1.375,0
			c18.605,0.009,37.21,0.019,55.816,0.024c0.235,0,0.471-0.056,0.706-0.086c0.517,0.313,1.028,0.882,1.551,0.894
			c1.804,0.04,3.611-0.114,5.417-0.194c-0.093,0.245-0.186,0.491-0.278,0.736c-1.661-0.005-3.321-0.01-4.982-0.015
			c-3.917-0.002-7.834-0.004-11.751-0.006c-3.894,0.008-7.788,0.016-11.682,0.024c-3.891-0.005-7.781-0.011-11.671-0.016
			c-3.888,0.001-7.775,0.003-11.663,0.004c-3.818,0-7.636,0-11.568,0c0,1.53,0,2.916,0,4.302
			C30.55,33.536,30.127,33.72,29.705,33.903z"/>
		<path fill-rule="evenodd" clip-rule="evenodd" fill="#F49525" d="M124.346,83.485c0.623,0.282,1.245,0.565,1.867,0.848
			c0.798,0.429,1.576,0.905,2.4,1.276c1.273,0.572,1.897,1.537,1.905,2.902c0.015,2.669,0.066,5.342-0.042,8.008
			c-0.024,0.586-0.537,1.279-1.022,1.689c-0.745,0.629-1.661,1.056-2.504,1.569c-0.24,0.019-0.48,0.038-0.72,0.057
			c0.004-3.151-0.012-6.303,0.021-9.455c0.015-1.389-0.542-2.374-1.8-2.954c-2.999-1.384-6.001-2.764-9.001-4.145
			c0.626-0.336,1.244-0.692,1.881-1.005c1.515-0.743,2.997-0.927,4.526,0.067C122.613,82.836,123.511,83.112,124.346,83.485z
			 M126.422,90.083c0.066,1.095,0.153,2.544,0.24,3.994c0.919,0.053,1.838,0.105,2.757,0.159c0.038,0.002,0.095,0.046,0.11,0.033
			c0.257-0.219,0.721-0.436,0.73-0.668c0.063-1.69,0.034-3.384,0.034-4.872C129.069,89.157,127.866,89.578,126.422,90.083z"/>
		<path fill-rule="evenodd" clip-rule="evenodd" fill="#6D6F71" d="M29.477,68.137c0.466-0.843,0.931-1.687,1.397-2.532
			c0.028,3.453,0.057,6.906,0.085,10.359c0,3.878,0,7.757,0,11.636c0.002,3.984,0.004,7.968,0.006,11.952
			c-0.006,0.098-0.012,0.195-0.019,0.292c-0.538-0.101-1.076-0.201-1.613-0.301c0.09-0.333,0.258-0.665,0.258-0.997
			c0.014-9.905,0.012-19.81,0.005-29.714C29.598,68.601,29.519,68.369,29.477,68.137z"/>
		<path fill-rule="evenodd" clip-rule="evenodd" fill="#971D20" d="M29.705,33.903c0.423-0.184,0.845-0.368,1.268-0.552
			c1.288-0.528,2.58-1.045,3.863-1.587c1.798-0.759,3.841-0.311,5.249,1.172c-0.292,0.224-0.554,0.515-0.881,0.662
			c-2.274,1.023-4.539,2.073-6.854,2.994c-1.159,0.46-1.935,1.174-2.375,2.305c-1.294-0.027-2.708,0.256-3.334-1.455
			c-0.213,0.337-0.335,0.53-0.457,0.723c-0.071-1.97,0.418-2.74,2.183-3.521C28.83,34.437,29.259,34.152,29.705,33.903z"/>
		<path fill-rule="evenodd" clip-rule="evenodd" fill="#0E703D" d="M29.334,99.543c0.538,0.101,1.075,0.201,1.613,0.301
			c0.812,0.309,1.613,0.654,2.439,0.919c1.207,0.386,1.836,1.185,1.915,2.438c-0.186,0.116-0.435,0.19-0.548,0.356
			c-0.698,1.026-1.616,1.535-2.874,1.329c-0.871-1.283-2.128-1.845-3.604-2.254c-2.35-0.653-4.629-1.554-6.939-2.35
			c1.014-0.659,2.007-1.355,3.056-1.952c0.293-0.167,0.779-0.139,1.128-0.036C26.803,98.673,28.065,99.121,29.334,99.543z"/>
		<path fill-rule="evenodd" clip-rule="evenodd" fill="#818486" d="M110.45,5.521c-2.129-0.238-4.257-0.493-6.388-0.71
			c-1.621-0.165-3.244-0.36-4.869-0.385c-0.655-0.01-1.316,0.401-1.976,0.62c-0.171-0.369-0.342-0.738-0.514-1.107
			c0.006-1.179,0.729-1.64,1.769-1.58c2.582,0.149,5.16,0.369,7.74,0.566c0.514,0.04,1.025,0.132,1.539,0.153
			C109.565,3.154,110.161,3.684,110.45,5.521z"/>
		<path fill-rule="evenodd" clip-rule="evenodd" fill="#971D20" d="M29.8,41.27c-0.031,1.684-0.051,3.367-0.095,5.051
			c-0.025,0.946-0.091,1.89-0.139,2.835c-0.246-0.065-0.491-0.13-0.736-0.195c-0.022-0.033-0.037-0.085-0.067-0.097
			c-3.085-1.135-3.424-3.52-2.943-6.332c0.193-1.13,0.224-2.287,0.329-3.432c0.002,0.678-0.013,1.357,0.017,2.034
			c0.012,0.263,0.042,0.619,0.208,0.763C27.236,42.644,29.293,42.242,29.8,41.27z"/>
		<path fill-rule="evenodd" clip-rule="evenodd" fill="#F49525" d="M128.38,122.669c-0.268-2.394-0.54-4.786-0.802-7.18
			c-0.069-0.628-0.106-1.261-0.158-1.892c1.035-0.026,2.069-0.051,3.104-0.076c-0.001,2.46,0.052,4.923-0.024,7.381
			C130.454,122.356,129.685,122.912,128.38,122.669z"/>
		<path fill-rule="evenodd" clip-rule="evenodd" fill="#971D20" d="M27.827,62.631c-0.434,2.555-0.877,5.109-1.295,7.667
			c-0.082,0.501-0.07,1.017-0.101,1.526c-1.194,0.148-1.963-0.397-1.939-1.566c0.052-2.544,0.207-5.086,0.32-7.629
			C25.816,62.63,26.822,62.63,27.827,62.631z"/>
		<path fill-rule="evenodd" clip-rule="evenodd" fill="#0A532E" d="M36.946,129.613c-0.429-1.186-0.873-2.367-1.284-3.56
			c-0.554-1.608-1.083-3.226-1.395-5.056c1.536,1.237,3.072,2.474,4.609,3.711c-0.035,0.348-0.148,0.71-0.09,1.042
			c0.155,0.885,0.383,1.757,0.582,2.634c0.039,0.08,0.078,0.16,0.117,0.24c0.022,0.164,0.043,0.328,0.065,0.492
			C38.682,129.282,37.814,129.448,36.946,129.613z"/>
		<path fill-rule="evenodd" clip-rule="evenodd" fill="#9D6015" d="M130.524,113.521c-1.034,0.025-2.069,0.05-3.104,0.076
			c-0.503-2.456-1.006-4.912-1.479-7.215c1.451,1.32,2.936,2.67,4.42,4.021C130.417,111.443,130.47,112.482,130.524,113.521z"/>
		<path fill-rule="evenodd" clip-rule="evenodd" fill="#971D20" d="M27.614,53.626c-1.103,1.261-2.281,2.466-3.282,3.804
			c-0.658,0.881-1.06,1.954-1.577,2.94c-1.708-0.503-2.045-1.086-1.044-2.493c1.442-2.026,3.09-3.905,4.651-5.846
			C26.779,52.562,27.196,53.094,27.614,53.626z"/>
		<path fill-rule="evenodd" clip-rule="evenodd" fill="#5F1214" d="M27.827,62.631c-1.005-0.001-2.01-0.001-3.015-0.002
			c0.104-1.038,0.209-2.075,0.313-3.113c1.427-1.379,2.854-2.757,4.395-4.247C28.936,57.806,28.381,60.219,27.827,62.631z"/>
		<path fill-rule="evenodd" clip-rule="evenodd" fill="#F49525" d="M132.974,111.404c-0.453-0.902-0.789-1.892-1.384-2.687
			c-1.061-1.417-2.279-2.716-3.432-4.064c0.604-0.409,1.208-0.817,1.812-1.225c1.372,1.799,2.834,3.538,4.088,5.416
			C135.081,110.376,134.784,110.882,132.974,111.404z"/>
		<path fill-rule="evenodd" clip-rule="evenodd" fill="#0E703D" d="M36.946,129.613c0.868-0.166,1.735-0.331,2.604-0.497
			c0.244,1.931,0.547,3.856,0.707,5.793c0.089,1.084-0.603,1.6-1.851,1.622c-0.43-1.958-0.863-3.915-1.288-5.874
			C37.044,130.313,37.002,129.962,36.946,129.613z"/>
		<path fill-rule="evenodd" clip-rule="evenodd" fill="#9D6015" d="M129.97,103.429c-0.604,0.408-1.208,0.816-1.812,1.225
			c-0.716-0.741-1.396-1.522-2.16-2.21c-0.671-0.605-1.46-1.079-2.151-1.664c-0.351-0.297-0.603-0.712-0.793-1.182
			c1.17-0.144,2.042,1.256,3.175,0.236c0.24-0.019,0.48-0.038,0.72-0.057C127.956,100.994,128.963,102.211,129.97,103.429z"/>
		<path fill-rule="evenodd" clip-rule="evenodd" fill="#5F1214" d="M29.8,41.27c-0.507,0.973-2.564,1.374-3.427,0.627
			c-0.167-0.145-0.197-0.5-0.208-0.763c-0.03-0.677-0.014-1.355-0.017-2.034c0.012-0.312,0.023-0.624,0.035-0.936
			c0.122-0.193,0.244-0.386,0.457-0.723c0.626,1.711,2.04,1.428,3.334,1.455C29.916,39.688,29.858,40.479,29.8,41.27z"/>
		<path fill-rule="evenodd" clip-rule="evenodd" fill="#5F1214" d="M27.614,53.626c-0.417-0.532-0.834-1.063-1.252-1.595
			c0.823-1.023,1.646-2.046,2.468-3.07c0.246,0.065,0.491,0.13,0.736,0.195c0.89,0,1.779,0,2.824,0
			c-0.08,0.204-0.114,0.609-0.334,0.799C30.597,51.204,29.099,52.407,27.614,53.626z"/>
		<path fill-rule="evenodd" clip-rule="evenodd" fill="#0E703D" d="M41.036,125.028c-1.069-1.327-2.137-2.654-3.207-3.979
			c-0.21-0.26-0.425-0.516-0.638-0.774c0.249-0.586,0.498-1.172,0.747-1.758c0.945,0.912,1.891,1.824,2.836,2.735
			c0.483,0.617,0.966,1.234,1.45,1.852c-0.075,0.493-0.149,0.986-0.224,1.479c-0.085,0.062-0.17,0.125-0.255,0.187
			C41.508,124.855,41.272,124.942,41.036,125.028z"/>
		<path fill-rule="evenodd" clip-rule="evenodd" fill="#818486" d="M94.334,19.275c-1.837,0.851-3.675,1.702-5.513,2.552
			c-0.567-1.004-0.419-1.835,0.687-2.298c1.507-0.63,3.046-1.185,4.572-1.771C94.165,18.264,94.249,18.77,94.334,19.275z"/>
		<path fill-rule="evenodd" clip-rule="evenodd" fill="#6A6B6D" d="M96.933,16.691c1.3,0.117,2.599,0.275,3.902,0.337
			c0.85,0.041,1.167,0.327,0.886,1.034c-1.96,0.234-3.826,0.457-5.692,0.68c-0.171-0.49-0.341-0.979-0.512-1.469
			C95.989,17.079,96.461,16.885,96.933,16.691z"/>
		<path fill-rule="evenodd" clip-rule="evenodd" fill="#0A532E" d="M28.082,131.279c0.42-0.946,0.727-1.969,1.299-2.812
			c0.421-0.622,1.196-0.769,1.84-0.075c-0.375,1.135-0.749,2.27-1.124,3.404C29.425,131.624,28.753,131.451,28.082,131.279z"/>
		<path fill-rule="evenodd" clip-rule="evenodd" fill="#818486" d="M115.977,24.482c-1.942-1.358-3.885-2.715-5.828-4.074
			c0.27-0.252,0.54-0.504,0.81-0.756c1.471,1.12,2.977,2.199,4.391,3.387C115.709,23.342,115.776,23.992,115.977,24.482z"/>
		<path fill-rule="evenodd" clip-rule="evenodd" fill="#0A532E" d="M25.66,113.266c0.565,0.165,1.172,0.252,1.679,0.525
			c0.275,0.148,0.38,0.612,0.445,1.13c-2.111-1.048-4.159-0.484-6.203-0.224c-0.185,0.023-0.383-0.069-0.577-0.108
			C22.556,114.147,24.108,113.707,25.66,113.266z"/>
		<path fill-rule="evenodd" clip-rule="evenodd" fill="#6A6B6D" d="M94.568,28.323c-1.806,0.08-3.613,0.234-5.417,0.194
			c-0.523-0.012-1.034-0.581-1.551-0.894c2.476-0.018,4.952-0.035,7.427-0.053c0.001,0.067,0.001,0.134,0,0.201
			C94.875,27.955,94.722,28.139,94.568,28.323z"/>
		<path fill-rule="evenodd" clip-rule="evenodd" fill="#6A6B6D" d="M96.704,3.938c0.171,0.369,0.343,0.738,0.514,1.107
			c-0.26,2.393-0.521,4.785-0.782,7.177c-0.212,0.003-0.425,0.006-0.638,0.009c0.207-2.482,0.407-4.965,0.629-7.446
			C96.454,4.498,96.609,4.221,96.704,3.938z"/>
		<path fill-rule="evenodd" clip-rule="evenodd" fill="#0E703D" d="M28.082,131.279c0.672,0.172,1.344,0.345,2.016,0.517
			c-0.134,1.689-1.365,2.22-2.741,2.597C27.598,133.355,27.84,132.317,28.082,131.279z"/>
		<path fill-rule="evenodd" clip-rule="evenodd" fill="#6A6B6D" d="M108.476,19.458c-0.86-0.261-1.736-0.483-2.573-0.805
			c-0.291-0.111-0.489-0.468-0.729-0.712c0.271-0.149,0.547-0.43,0.813-0.421c0.826,0.027,1.649,0.165,2.473,0.259
			c0.184,0.194,0.369,0.389,0.553,0.584C108.834,18.728,108.655,19.093,108.476,19.458z"/>
		<path fill-rule="evenodd" clip-rule="evenodd" fill="#6D6F71" d="M108.476,19.458c0.179-0.365,0.358-0.73,0.538-1.095
			c0.648,0.43,1.297,0.86,1.946,1.29c-0.27,0.252-0.54,0.504-0.81,0.756C109.591,20.092,109.034,19.775,108.476,19.458z"/>
		<path fill-rule="evenodd" clip-rule="evenodd" fill="#262223" d="M96.498,21.868c0.294-0.06,0.588-0.12,1.074-0.219
			c-0.311,0.967-0.574,1.786-0.837,2.604c-0.31-0.011-0.62-0.023-0.929-0.035C96.037,23.436,96.267,22.652,96.498,21.868z"/>
		<path fill-rule="evenodd" clip-rule="evenodd" fill="#6A6B6D" d="M41.999,124.582c0.075-0.493,0.149-0.986,0.224-1.479
			c0,0,0.109-0.036,0.109-0.036l0.106,0.045c0.174,0.009,0.348,0.018,0.522,0.026c0.56,0.544,1.119,1.088,1.678,1.632
			c-0.879,0.001-1.759,0.003-2.638,0.004C42,124.71,41.999,124.646,41.999,124.582z"/>
		<path fill-rule="evenodd" clip-rule="evenodd" fill="#6D6F71" d="M95.518,17.273c0.17,0.49,0.341,0.979,0.512,1.469
			c-0.565,0.177-1.13,0.354-1.695,0.533c-0.085-0.505-0.169-1.011-0.254-1.517C94.559,17.596,95.038,17.435,95.518,17.273z"/>
		<path fill-rule="evenodd" clip-rule="evenodd" fill="#6D6F71" d="M95.028,27.77c0.001-0.066,0.001-0.133,0-0.2
			c0.117-0.549,0.234-1.099,0.352-1.648c0.291,0.08,0.582,0.16,0.872,0.24c-0.183,0.713-0.365,1.426-0.547,2.139
			C95.479,28.124,95.253,27.946,95.028,27.77z"/>
		<path fill-rule="evenodd" clip-rule="evenodd" fill="#6A6B6D" d="M96.251,26.161c-0.291-0.08-0.581-0.16-0.872-0.24
			c0.143-0.567,0.284-1.134,0.427-1.702c0.31,0.012,0.619,0.023,0.929,0.035C96.574,24.89,96.413,25.525,96.251,26.161z"/>
		<path fill-rule="evenodd" clip-rule="evenodd" fill="#818486" d="M95.798,12.232c0.212-0.003,0.425-0.006,0.638-0.009
			c-0.139,0.72-0.278,1.439-0.417,2.159C95.946,13.666,95.872,12.949,95.798,12.232z"/>
		<path fill-rule="evenodd" clip-rule="evenodd" fill="#0A532E" d="M21.014,114.558c-0.124,0.055-0.248,0.109-0.372,0.163
			C20.766,114.667,20.89,114.613,21.014,114.558z"/>
		<path fill-rule="evenodd" clip-rule="evenodd" fill="#6D6F71" d="M41.999,124.582c0,0.064,0,0.128,0.001,0.192
			c-0.085-0.002-0.171-0.004-0.257-0.005C41.829,124.707,41.914,124.645,41.999,124.582z"/>
		<path fill-rule="evenodd" clip-rule="evenodd" fill="#0E703D" d="M39.485,128.625c-0.039-0.081-0.078-0.16-0.117-0.24
			C39.407,128.465,39.446,128.544,39.485,128.625z"/>
		<path fill-rule="evenodd" clip-rule="evenodd" fill="#231F20" d="M40.084,32.937c-1.408-1.482-3.45-1.931-5.249-1.172
			c-1.283,0.542-2.575,1.059-3.863,1.587c0-1.386,0-2.772,0-4.302c3.932,0,7.75,0,11.568,0c0,3.907,0,7.814,0,11.711
			c3.939,0,7.789,0,11.663,0c0-3.965,0-7.84,0-11.715c3.89,0.005,7.781,0.011,11.671,0.016c-0.03,3.906-0.06,7.812-0.09,11.719
			c-3.727,0-7.454,0-11.181,0c0.144,0.21,0.295,0.267,0.445,0.267c3.344,0.006,6.688,0.011,10.032-0.006
			c0.232-0.001,0.464-0.182,0.695-0.278c3.937,0,7.873,0,11.78,0c0-3.971,0-7.848,0-11.725c3.917,0.002,7.834,0.004,11.751,0.006
			c0,3.926,0,7.852,0,11.728c3.997,0,7.858,0,11.719,0c0.359,0.088,0.717,0.249,1.077,0.252c2.436,0.022,4.873,0.012,7.309,0.012
			c0.913,0,1.825,0,2.737,0c-0.002-0.083-0.004-0.167-0.007-0.25c-3.708,0-7.416,0-11.124,0c-0.027-2.298-0.055-4.597-0.082-6.895
			c0.012-0.662,0.024-1.325,0.037-1.987c1.156-0.514,2.104-0.196,2.836,0.776c1.265,1.679,2.462,3.41,3.77,5.055
			c0.441,0.555,1.129,0.914,1.705,1.362c0.155-0.695,0.477-1.399,0.436-2.083c-0.158-2.66-0.431-5.313-0.661-7.969
			c1.195,0.001,2.39,0.004,3.585,0.006c-0.009,0.494-0.018,0.988-0.027,1.482c0,3.412,0,6.823,0,10.315c3.967,0,7.836,0,11.705,0
			c0,3.903-0.001,7.806-0.002,11.709c-3.608,0-7.217,0-10.805,0c0,4.054,0,7.918,0,11.922c3.628,0,7.21,0,10.791,0
			c0.001,3.808,0.003,7.616,0.004,11.424c-3.587,0-7.175,0-10.842,0c0,3.827,0.013,7.503-0.01,11.179
			c-0.005,0.814,0.543,0.6,0.981,0.64c0.014,1.475,0.036,2.949,0.039,4.424c0.006,3.026,0.253,3.393,3.141,4.581
			c-1.529,0.223-3.059,0.446-4.588,0.668c0-18.655,0-37.309,0-56.008c-23.685,0-47.213,0-70.886,0c0,2.005,0,3.953,0,5.9
			c-0.146-0.018-0.291-0.036-0.436-0.053c0.026-2.059,0.051-4.119,0.077-6.178c0.133-0.037,0.266-0.073,0.399-0.11
			c-0.006-0.042-0.012-0.083-0.018-0.125c-0.144,0-0.287,0-0.431,0c-0.224-0.013-0.449-0.026-0.673-0.04
			c0.077-2.033,0.13-4.068,0.24-6.099C41.354,33.741,41.04,33.135,40.084,32.937z M77.936,40.828
			c-0.002,0.047-0.003,0.094-0.005,0.141c3.647,0,7.294,0,10.942,0c0-0.047,0-0.094-0.001-0.141
			C85.227,40.828,81.582,40.828,77.936,40.828z"/>
		<path fill-rule="evenodd" clip-rule="evenodd" fill="#FDFDFD" d="M101.027,40.771c-3.861,0-7.722,0-11.719,0
			c0-3.876,0-7.802,0-11.728c1.661,0.005,3.321,0.01,4.982,0.015c-0.401,1.608-0.665,3.268-1.239,4.812
			c-0.715,1.925-0.253,3.626,0.519,5.35c0.496,1.064,1.128,0.723,1.585,0.047c0.618-0.912,1.08-1.927,1.641-2.879
			c0.259-0.439,0.593-0.833,0.894-1.249c1.083-0.417,2.165-0.833,3.248-1.249c0.027,2.298,0.055,4.597,0.082,6.895L101.027,40.771z"
			/>
		<path fill-rule="evenodd" clip-rule="evenodd" fill="#818486" d="M93.57,39.22c-0.772-1.724-1.233-3.425-0.519-5.35
			c0.574-1.544,0.838-3.203,1.239-4.812c0.093-0.245,0.186-0.491,0.278-0.736c0.153-0.184,0.307-0.368,0.459-0.552
			c0.226,0.176,0.451,0.353,0.676,0.53c-0.579,2.628-1.18,5.252-1.723,7.889C93.775,37.185,93.703,38.209,93.57,39.22z"/>
		<path fill-rule="evenodd" clip-rule="evenodd" fill="#FDFDFD" d="M103.679,14.167c-0.02,0.929-0.858,1.712-1.79,1.671
			c-1.012-0.044-1.619-0.739-1.591-1.823c0.026-1.016,0.634-1.581,1.678-1.56C103.043,12.477,103.7,13.137,103.679,14.167z"/>
		<path fill-rule="evenodd" clip-rule="evenodd" fill="#FDFDFD" d="M105.318,15.812c-0.3-0.464-0.798-0.904-0.856-1.396
			c-0.092-0.784,0.518-1.353,1.268-1.165c0.487,0.121,1.163,0.757,1.172,1.175c0.01,0.462-0.644,0.938-1.009,1.408
			C105.701,15.827,105.509,15.82,105.318,15.812z"/>
		<path fill-rule="evenodd" clip-rule="evenodd" fill="#A0A2A6" d="M100.938,33.891c-1.083,0.416-2.165,0.832-3.248,1.249
			c0.567-1.613,1.642-2.713,3.284-3.236C100.962,32.566,100.95,33.229,100.938,33.891z"/>
		<path fill-rule="evenodd" clip-rule="evenodd" fill="#252122" d="M43.705,50.634c1.6-0.967,1.592-1.28-0.064-2.504
			c0-1.776,0-3.551,0-5.378c3.656,0,7.048-0.002,10.44,0c9.385,0.008,18.77,0.018,28.155,0.027
			c-0.292,0.118-0.579,0.314-0.878,0.339c-1.005,0.081-1.145,0.588-0.864,1.444c0.32,0.974,0.57,1.97,0.851,2.957
			c0.194,0.811,0.388,1.622,0.583,2.433c0.265,0.988,0.529,1.977,0.793,2.964c0.249,0.952,0.498,1.903,0.746,2.855
			c0.575,2.373,1.149,4.746,1.733,7.159c1.789-0.473,3.417-0.904,5.089-1.347c-0.454-1.663-0.869-3.182-1.284-4.701
			c-0.263-1.054-0.525-2.107-0.788-3.16c-0.037-0.292-0.074-0.584-0.106-0.846c0.959-0.397,1.451-0.021,1.72,0.776
			c0.178,0.524,0.337,1.055,0.504,1.583c0.482,1.962,0.965,3.924,1.461,5.94c0.433-0.089,0.78-0.143,1.117-0.233
			c1.181-0.316,2.359-0.645,3.623-0.993c-0.189-0.59-0.356-1.111-0.523-1.632c-0.328-1.279-0.655-2.559-0.982-3.838
			c-0.306-2.151-0.975-3.98-3.989-3.934c0.534-0.259,0.705-0.342,0.875-0.425c1.054-0.412,1.494-1.268,1.261-2.282
			c-0.395-1.719-0.966-3.397-1.462-5.092c0.846,0.013,1.692,0.025,2.538,0.039c0.423,1.578,0.847,3.156,1.27,4.733
			c0.377,1.473,0.753,2.945,1.13,4.417c0.606,2.491,1.213,4.981,1.843,7.569c2.022-0.538,3.863-1.028,5.704-1.518
			c0.946-0.292,1.893-0.585,2.838-0.877c2.076-0.831,2.685-2.303,2.289-3.834c-0.309-1.194-0.588-2.396-0.88-3.594
			c-0.032-0.194-0.051-0.39-0.096-0.581c-0.503-2.115-1.01-4.23-1.516-6.344c1.499,0,2.998,0,4.519,0c0,9.05,0,17.941,0,26.833
			c-1.28,0.02-2.56,0.04-3.839,0.06c-0.88,0.001-1.759,0.002-2.639,0.003c-0.318-0.003-0.637-0.006-0.955-0.009
			c-0.083,0.064-0.167,0.129-0.251,0.194c0,6.282,0,12.563,0,18.908c0.916,0,1.781,0,2.646,0c0.799,0.001,1.599,0.001,2.398,0.002
			c0.877,0.024,1.754,0.048,2.631,0.072c0.024,3.074,0.049,6.148,0.073,9.223c-0.032,0.023-0.067,0.043-0.095,0.071
			c-0.466,0.474-0.931,0.948-1.396,1.422c0.49,0.401,0.979,0.802,1.469,1.203c0,3.22,0,6.44,0,9.622c-22.654,0-45.116,0-67.682,0
			c0-14.575,0-29.084,0-43.593c0.175,0.396,0.35,0.792,0.525,1.189c0.43,1.684,0.86,3.369,1.315,5.15
			c0.51-0.159,0.877-0.273,1.245-0.387c1.281-0.326,2.561-0.651,3.841-0.977c1.326-0.382,2.679-0.693,3.972-1.167
			c1.497-0.549,2.082-1.48,1.862-3.069c-0.195-1.409-0.612-2.788-0.931-4.18c-0.285-1.426-1.066-2.41-2.501-2.812
			c-0.323-0.093-0.646-0.186-1.029-0.295c1.749-1.434,1.945-2.155,1.235-4.297c-0.197-1.47-1.009-2.573-2.091-3.517
			c-0.818-0.203-1.659-0.637-2.45-0.562c-1.671,0.16-3.317,0.586-4.973,0.903C43.725,52.042,43.714,51.338,43.705,50.634z
			 M95.987,107.801c1.015,0,2.029,0,3.059,0c0-1.06,0-2.069,0-3.101c-0.589,0-1.099,0-1.609,0c-0.456-0.028-0.911-0.057-1.367-0.085
			c0-1.138,0-2.276,0-3.44c0.906-0.043,1.619-0.078,2.332-0.112c0.072-0.087,0.144-0.175,0.216-0.263c0-0.859,0-1.718,0-2.613
			c-0.914-0.048-1.737-0.092-2.56-0.135c0.002-0.782-0.047-1.57,0.038-2.343c0.028-0.256,0.405-0.473,0.622-0.708
			c0.697,0,1.394,0,2.08,0c0-1.106,0-2.084,0-3.088c-0.738,0-1.408,0-2.077,0c-0.56,0-1.12,0.001-1.68,0.001
			c-1.015,0-2.029,0-3.08,0c0,3.579,0,7.07,0,10.562c0,0.96,0,1.921-0.001,2.881c0,0.814,0,1.627,0,2.439c0.626,0,1.136,0,1.646,0
			C94.399,107.798,95.193,107.8,95.987,107.801z M51.841,91.703c-0.729-0.034-1.458-0.067-2.188-0.101
			c-0.709,0.201-1.418,0.401-2.127,0.601c-0.332,0.269-0.733,0.485-0.984,0.815c-1.643,2.166-0.658,5.899,1.915,7.353
			c0.866,0.632,1.731,1.264,2.597,1.895c0.115,0.31,0.23,0.62,0.345,0.929c-0.175,0.854,0.487,2.057-0.988,2.369
			c-0.264-1.1-0.528-2.201-0.794-3.306c-1.123,0-2.296,0-3.453,0c-0.663,4.153,1.294,6.315,5.225,5.882
			c0.798-0.243,1.597-0.486,2.395-0.729c0.442-0.487,1.15-0.913,1.28-1.473c0.654-2.802,0.619-5.585-2.374-7.305
			c-0.681-0.391-1.347-0.809-2.02-1.214c-0.99-0.834-1.169-1.863-0.727-3.041c1.236-0.459,1.204,0.381,1.203,1.178
			c-0.002,0.641-0.121,1.37,0.94,1.08c0.941,0,1.883,0,2.811,0C55.28,93.411,54.517,92.208,51.841,91.703z M67.428,54.001
			c-0.251-0.879-0.503-1.758-0.754-2.637c-0.47-1.582-1.477-2.629-3.073-3.091c-2.316-0.778-5.654,0.07-7.229,1.87
			c-0.838,0.959-1.329,2.061-1.153,3.378c0.219,1.124,0.438,2.249,0.657,3.373c0.289,1.209,0.578,2.42,0.868,3.629
			c0.267,0.95,0.534,1.899,0.801,2.849c0.173,0.653,0.312,1.318,0.527,1.958c0.689,2.043,2.102,3.372,4.263,3.42
			c1.39,0.031,2.869-0.271,4.172-0.774c2.377-0.918,3.489-2.96,3.056-5.472c-0.327-1.9-0.914-3.755-1.385-5.63
			C67.928,55.916,67.678,54.958,67.428,54.001z M104.17,105.336c-0.105-1.016-0.209-2.031-0.318-3.084c-1.242,0-2.447,0-3.642,0
			c-0.328,3.672,0.598,5.168,2.986,5.707c0.965,0.025,1.93,0.05,2.895,0.075c1.379-0.142,2.671-0.59,3.094-2.013
			c0.513-1.723,0.575-3.512-0.213-5.223c-0.641-0.646-1.282-1.291-1.922-1.937c-0.617-0.423-1.197-0.916-1.857-1.254
			c-0.979-0.501-1.346-1.268-1.271-2.309c0.07-0.977,0.479-1.313,1.369-0.705c0.031,0.665,0.062,1.329,0.094,2.023
			c1.295,0,2.504,0,3.701,0c0.372-3.188-0.623-4.671-3.244-4.941c-0.799-0.005-1.598-0.011-2.397-0.016
			c-1.173,0.071-2.187,0.495-2.846,1.494c-1.377,2.084-0.528,5.626,1.63,6.956c1.078,0.892,2.155,1.785,3.232,2.677
			c0.042,0.549,0.143,1.103,0.113,1.648C105.524,105.323,105.109,105.769,104.17,105.336z M76.988,103.436c0-0.738,0-1.477,0-2.359
			c0.976,0,1.783,0,2.597,0c0-1.044,0-1.94,0-2.958c-0.554,0-1.068,0.055-1.562-0.019c-0.358-0.053-0.69-0.277-1.034-0.425
			c0-0.861,0-1.722,0-2.684c1.041,0,1.9,0,2.728,0c0-1.086,0-2.067,0-3.081c-2.291,0-4.507,0-6.775,0c0,1.482,0,2.906,0,4.33
			c0,2.24,0,4.48,0,6.72c0,1.617,0,3.235,0,4.897c2.29,0,4.446,0.002,6.604-0.004c0.149,0,0.298-0.064,0.497-0.11
			c0-1.009,0-1.988,0-3.1c-1.033,0-2.008,0-2.97,0C77.038,104.152,77.013,103.794,76.988,103.436z M67.439,91.912
			c-0.974,0-1.948,0-2.939,0c0,2.791,0,5.482,0,8.173c0,2.563,0,5.125,0,7.711c2.428,0,4.717,0,7.037,0c0-1.073,0-2.072,0-3.182
			c-1.029,0-1.964,0-2.885,0c-0.041-0.468-0.073-0.823-0.104-1.178c0.037-0.741,0.073-1.481,0.116-2.328c0.872,0,1.653,0,2.476,0
			c0-1.048,0-1.982,0-3.011c-0.859,0-1.644,0-2.591,0c0-0.921,0-1.747,0-2.573c0.249-0.162,0.485-0.436,0.748-0.462
			c0.659-0.067,1.329-0.022,1.995-0.022c0-1.117,0-2.097,0-3.126C69.968,91.912,68.704,91.912,67.439,91.912z M56.738,104.867
			c0,0.971,0,1.941,0,3.062c0.843-0.048,1.577-0.091,2.312-0.133c1.415,0,2.83,0,4.273,0c0-1.081,0-2.06,0-3.165
			c-0.832,0-1.609,0-2.375,0c-0.061-0.957-0.114-1.787-0.167-2.617c0-3.357,0-6.714,0-10.098c-1.046,0-1.994,0-2.941,0
			c-0.348-0.018-0.696-0.036-1.102-0.057C56.738,96.263,56.738,100.565,56.738,104.867z M80.015,53.117
			c-0.806-1.923-1.612-3.846-2.418-5.77c-0.389-0.98-0.778-1.961-1.178-2.968c-2.514,0.652-4.885,1.267-7.326,1.899
			c0.122,0.887,0.23,1.669,0.337,2.452c0.208,1.596,0.417,3.192,0.626,4.788c0.094,0.801,0.188,1.602,0.281,2.404
			c0.189,1.68,0.379,3.36,0.569,5.04c0.207,1.801,0.413,3.603,0.627,5.477c1.833-0.478,3.513-0.916,5.203-1.356
			c-0.192-1.263-0.364-2.389-0.546-3.583c0.649-0.16,1.204-0.297,1.784-0.44c0.42,1.189,0.79,2.232,1.201,3.395
			c1.731-0.445,3.405-0.875,5.167-1.327c-0.406-0.891-0.751-1.648-1.096-2.405c-0.678-1.613-1.356-3.227-2.034-4.84
			C80.812,54.961,80.414,54.039,80.015,53.117z M90.469,88.56c0.016-3.896,0.032-7.792,0.048-11.688
			c0.651,3.952,1.302,7.904,1.951,11.844c1.021,0,2.001,0,2.996,0c0.265-1.967,0.52-3.862,0.777-5.757
			c0.26-1.922,0.522-3.844,0.784-5.767c0.076,0.005,0.151,0.01,0.227,0.015c0,3.223,0,6.447,0,9.67c0,0.62,0,1.24,0,1.828
			c1.499,0,2.876,0,4.227,0c0-6.389,0-12.691,0-19.032c-2.167,0-4.267,0-6.457,0c0,0.417,0,0.772,0,1.126
			c-0.339,2.283-0.679,4.566-1.018,6.849c-0.064,0.003-0.129,0.007-0.194,0.01c-0.394-2.66-0.787-5.32-1.181-7.984
			c-2.187,0-4.287,0-6.451,0c0.022,0.423,0.041,0.776,0.059,1.13c0,5.965,0,11.93,0,17.945c1.392,0,2.699,0,4.005,0
			C90.317,88.687,90.393,88.623,90.469,88.56z M89.792,101.762c0.468-3.257,0.937-6.514,1.417-9.851c-1.52,0-2.9,0-4.412,0
			c-0.298,3.261-0.594,6.497-0.89,9.733c-0.045-0.003-0.091-0.006-0.137-0.008c-0.172-1.406-0.345-2.811-0.517-4.216
			c-0.164-1.842-0.328-3.685-0.489-5.505c-1.566,0-2.941,0-4.423,0c0.446,2.856,0.878,5.629,1.311,8.402
			c0.326,2.16,0.651,4.32,0.977,6.479c0.039,0.502-0.055,1.079,0.745,1.074c1.858-0.012,3.717-0.004,5.718-0.004
			C89.333,105.761,89.563,103.761,89.792,101.762z M62.885,88.504c2.033,1.12,3.866,0.919,5.477-0.958
			c0.632,2.295,2.32,0.794,3.53,1.325c0-3.562,0-6.932,0-10.337c-1.937,0-3.8,0-5.73,0c0,0.948,0,1.849,0,2.386
			c0.464,0.537,0.911,0.816,0.932,1.124c0.065,0.95,0.037,1.922-0.101,2.864c-0.054,0.369-0.491,0.683-0.754,1.021
			c-0.286-0.354-0.815-0.705-0.821-1.063c-0.062-3.794-0.061-7.59-0.01-11.384c0.005-0.344,0.478-0.681,0.733-1.021
			c0.266,0.371,0.715,0.721,0.761,1.117c0.111,0.979,0.036,1.978,0.036,2.981c1.738,0,3.345,0,4.939,0
			c0.458-4.768-1.571-7.09-5.149-7.234c-3.263-0.577-6.117,1.372-6.216,4.435c-0.118,3.67-0.09,7.348-0.009,11.02
			C60.54,86.42,61.318,87.756,62.885,88.504z M75.047,71.992c-0.342,2.388-0.699,4.773-1.022,7.164
			c-0.431,3.182-0.834,6.367-1.251,9.557c1.763,0,3.419,0,5.161,0c0.057-1.125,0.111-2.179,0.164-3.209c0.631,0,1.215,0,1.82,0
			c0.129,1.116,0.251,2.169,0.373,3.22c1.698,0,3.317,0,5.03,0c-0.801-5.317-1.591-10.557-2.38-15.797
			c-0.153-1.09-0.305-2.18-0.454-3.244c-2.462,0-4.798,0-7.219,0C75.189,70.494,75.118,71.243,75.047,71.992z"/>
		<path fill-rule="evenodd" clip-rule="evenodd" fill="#262223" d="M42.961,123.138c-0.174-0.009-0.349-0.018-0.522-0.026
			c0-3.531,0-7.062,0-10.331c-0.388-0.59-0.682-1.038-1.057-1.608c-1.444,0-3.03,0-4.616,0c-0.084-0.033-0.168-0.066-0.253-0.1
			c-0.404-2.624-0.807-5.247-1.211-7.871c-0.079-1.252-0.708-2.051-1.915-2.438c-0.826-0.265-1.627-0.61-2.439-0.919
			c0.006-0.098,0.012-0.195,0.019-0.292c3.545,0,7.09,0,10.692,0c0-4.043,0-7.935,0-11.952c-3.606,0-7.152,0-10.698,0
			c0-3.879,0-7.757,0-11.636c3.562,0,7.125,0,10.694,0c0-3.994,0-7.757,0-11.621c-0.813,0-1.562,0-2.31,0
			c-0.118-1.469-0.232-2.938-0.354-4.406c-0.202-2.424-0.408-4.849-0.612-7.273c1.095,0,2.189,0,3.34,0c0-0.698,0-1.208,0-1.719
			c0.15-0.009,0.3-0.019,0.45-0.028c0,20.292,0,40.586,0,60.868c23.697,0,47.23,0,70.848,0c0-3.622,0-7.173,0-10.724
			c0.153,0.009,0.306,0.018,0.458,0.026c0,3.378,0,6.757,0,10.241c0.715,0,1.304,0,1.893,0c-0.135,2.125-0.312,4.248-0.377,6.375
			c-0.02,0.638-0.044,1.588,1.151,1.226c1.268-0.31,2.728-0.196,3.5-1.594c0.106-0.165,0.211-0.331,0.317-0.496
			c0,0-0.014-0.005-0.013-0.005c0.298-0.144,0.627-0.245,0.888-0.439c0.74-0.554,1.451-1.145,2.174-1.722
			c0.448,0.818,0.896,1.636,1.345,2.455c0,1.917,0,3.833,0,5.814c-0.345,0.064-0.604,0.154-0.865,0.155
			c-3.278,0.01-6.557,0.014-9.835-0.002c-0.345-0.001-0.689-0.138-1.034-0.212c0-3.499,0-6.997,0-10.492c-3.972,0-7.791,0-11.661,0
			c0,3.543,0,7.018,0,10.492c-0.304,0.074-0.607,0.211-0.911,0.212c-3.276,0.016-6.552,0.016-9.828,0
			c-0.305-0.001-0.61-0.138-0.915-0.212c0-3.495,0-6.99,0-10.491c-3.981,0-7.827,0-11.753,0c0,3.531,0,6.994,0,10.456
			c-0.291,0.086-0.581,0.245-0.872,0.246c-3.258,0.018-6.517,0.02-9.775-0.002c-0.328-0.002-0.654-0.185-0.981-0.284
			c0-3.462,0-6.923,0-10.407c-3.973,0-7.814,0-11.702,0c0,3.546,0,7.014,0,10.482c-0.461,0.074-0.922,0.208-1.384,0.212
			C49.543,123.124,46.252,123.126,42.961,123.138z"/>
		<path fill-rule="evenodd" clip-rule="evenodd" fill="#FAFAFA" d="M113.017,101.061c0,3.551,0,7.103,0,10.724
			c-23.618,0-47.151,0-70.848,0c0-20.282,0-40.575,0-60.868c0.512-0.095,1.024-0.189,1.536-0.284c0.01,0.704,0.02,1.409,0.03,2.113
			c0.021,2.733,0.042,5.465,0.063,8.198c-0.028,1.941-0.056,3.883-0.083,5.824c0,14.509,0,29.018,0,43.593
			c22.566,0,45.028,0,67.682,0c0-3.182,0-6.402,0-9.622C111.937,100.846,112.477,100.954,113.017,101.061z"/>
		<path fill-rule="evenodd" clip-rule="evenodd" fill="#F3F3F3" d="M111.419,98.043c-0.024-3.074-0.048-6.148-0.073-9.223
			c0-1.294,0-2.588,0-3.882c-0.008-1.415-0.016-2.829-0.024-4.244c0.012-1.219,0.024-2.438,0.037-3.658
			c-0.003-1.194-0.005-2.388-0.008-3.582c0.002-1.288,0.003-2.576,0.005-3.864c0-8.892,0-17.783,0-26.833c-1.521,0-3.02,0-4.519,0
			c-1.804,0.037-3.607,0.074-5.411,0.111c-0.59-0.032-1.18-0.063-1.771-0.094c-1.8,0.003-3.6,0.007-5.4,0.011
			c-0.846-0.013-1.692-0.026-2.538-0.039c-3.16,0.01-6.32,0.021-9.48,0.031c-9.385-0.009-18.77-0.019-28.155-0.027
			c-3.392-0.002-6.784,0-10.44,0c0,1.827,0,3.603,0,5.378c-0.056-0.034-0.117-0.049-0.182-0.046
			c-0.085-0.036-0.169-0.071-0.254-0.106l0.017,0.014c-0.358-0.234-0.717-0.469-1.076-0.704c0-1.948,0-3.896,0-5.9
			c23.673,0,47.201,0,70.886,0c0,18.699,0,37.353,0,56.008c-0.328,0.165-0.656,0.33-0.984,0.495l0.021-0.014
			c-0.201,0.087-0.402,0.175-0.603,0.262L111.419,98.043z"/>
		<path fill-rule="evenodd" clip-rule="evenodd" fill="#FEFEFE" d="M114.439,87.72c-0.438-0.04-0.986,0.175-0.981-0.64
			c0.022-3.676,0.01-7.352,0.01-11.179c3.667,0,7.255,0,10.842,0c0.012,2.528,0.023,5.056,0.036,7.584
			c-0.835-0.374-1.733-0.649-2.491-1.142c-1.529-0.994-3.011-0.811-4.526-0.067c-0.638,0.313-1.255,0.669-1.881,1.005
			c-0.322,0.463-0.844,0.895-0.924,1.397C114.367,85.672,114.454,86.704,114.439,87.72z"/>
		<path fill-rule="evenodd" clip-rule="evenodd" fill="#FDFDFD" d="M115.368,111.328c-0.589,0-1.178,0-1.893,0
			c0-3.484,0-6.862,0-10.241c1.11,0.052,2.22,0.104,3.495,0.164C116.426,104.672,115.897,108,115.368,111.328z"/>
		<path fill-rule="evenodd" clip-rule="evenodd" fill="#F49525" d="M119.642,117.335c-0.772,1.398-2.232,1.284-3.5,1.594
			c0.721-1.483,1.442-2.966,2.163-4.449c0.729,0.321,1.458,0.642,2.188,0.963c-0.183,0.464-0.365,0.927-0.548,1.391l0.014,0.005
			C119.854,117.005,119.748,117.17,119.642,117.335z"/>
		<path fill-rule="evenodd" clip-rule="evenodd" fill="#FAFAFA" d="M119.422,95.673c-0.925-0.133-1.48-0.634-1.531-1.557
			c-0.049-0.871,0.724-1.568,1.626-1.502c0.948,0.07,1.453,0.629,1.43,1.559C120.922,95.13,120.279,95.545,119.422,95.673z"/>
		<path fill-rule="evenodd" clip-rule="evenodd" fill="#9D6015" d="M120.493,115.443c-0.729-0.321-1.458-0.642-2.188-0.963
			c1.028-1.734,2.057-2.119,3.382-1.265C121.289,113.958,120.891,114.7,120.493,115.443z"/>
		<path fill-rule="evenodd" clip-rule="evenodd" fill="#F49525" d="M112.047,97.889c0.328-0.165,0.656-0.33,0.984-0.495
			c1.529-0.223,3.059-0.446,4.588-0.669c0.236,0.148,0.473,0.296,0.708,0.444c-0.268,0.256-0.537,0.512-0.805,0.769
			C115.697,97.922,113.872,97.906,112.047,97.889z"/>
		<path fill-rule="evenodd" clip-rule="evenodd" fill="#231F20" d="M120.493,115.443c0.398-0.743,0.796-1.485,1.194-2.228
			c0.439,0.486,0.879,0.972,1.319,1.458c-0.722,0.576-1.434,1.167-2.173,1.721c-0.26,0.194-0.59,0.295-0.888,0.439
			C120.128,116.37,120.311,115.907,120.493,115.443z"/>
		<path fill-rule="evenodd" clip-rule="evenodd" fill="#FAFAFA" d="M122.544,94.116c0.275,0.435,0.819,0.916,0.754,1.292
			c-0.07,0.409-0.673,0.936-1.105,1c-0.284,0.042-0.933-0.63-0.952-1.006c-0.021-0.417,0.489-0.859,0.769-1.291
			C122.188,94.113,122.366,94.114,122.544,94.116z"/>
		<path fill-rule="evenodd" clip-rule="evenodd" fill="#9D6015" d="M117.522,97.938c0.269-0.256,0.537-0.512,0.805-0.769
			c0.76,0.461,2.219,0.243,1.825,1.971C119.232,98.721,118.377,98.33,117.522,97.938z"/>
		<path fill-rule="evenodd" clip-rule="evenodd" fill="#F49525" d="M111.465,98.137c0.201-0.087,0.402-0.174,0.603-0.262
			C111.867,97.962,111.666,98.049,111.465,98.137z"/>
		<path fill-rule="evenodd" clip-rule="evenodd" fill="#FAFAFA" d="M39.344,64.344c0.748,0,1.496,0,2.31,0c0,3.863,0,7.626,0,11.621
			c-3.569,0-7.132,0-10.694,0c-0.028-3.454-0.057-6.907-0.085-10.359c0.27-0.429,0.539-0.859,0.809-1.29
			c0.64-0.005,1.28-0.011,1.92-0.016c0.207,0.334,0.415,0.669,0.622,1.004c0.381,2.066,1.643,3.145,3.715,3.316
			c0.847,0.478,1.085-0.105,1.154-0.74C39.223,66.706,39.266,65.523,39.344,64.344z"/>
		<path fill-rule="evenodd" clip-rule="evenodd" fill="#EBEEEC" d="M41.064,40.781c0.225,0.013,0.449,0.026,0.673,0.04
			c0.011,0.08,0.027,0.158,0.049,0.235c-0.026,2.06-0.051,4.119-0.077,6.179c-1.328-0.228-2.656-0.456-3.984-0.683
			c0.384-0.194,0.756-0.42,1.155-0.575c1.297-0.506,1.908-1.456,1.966-2.829C40.879,42.356,40.989,41.569,41.064,40.781z"/>
		<path fill-rule="evenodd" clip-rule="evenodd" fill="#971D20" d="M37.94,68.62c-2.072-0.172-3.334-1.25-3.714-3.316
			c0.678-0.333,1.356-0.666,2.035-0.999C36.82,65.743,37.38,67.181,37.94,68.62z"/>
		<path fill-rule="evenodd" clip-rule="evenodd" fill="#FAFAFA" d="M37.653,43.631c-0.011,0.941-0.752,1.729-1.523,1.632
			c-0.866-0.108-1.35-0.639-1.349-1.541c0-0.892,0.653-1.554,1.495-1.502C37.216,42.278,37.544,42.913,37.653,43.631z"/>
		<path fill-rule="evenodd" clip-rule="evenodd" fill="#971D20" d="M37.725,46.551c1.328,0.228,2.656,0.456,3.984,0.683
			c0.146,0.017,0.291,0.035,0.436,0.053c0.359,0.235,0.717,0.47,1.076,0.704c-0.827-0.074-1.662-0.253-2.48-0.2
			c-1.861,0.122-3.715,0.359-5.656,0.558C35.19,46.849,36.76,47.079,37.725,46.551z"/>
		<path fill-rule="evenodd" clip-rule="evenodd" fill="#5F1214" d="M36.26,64.305c-0.678,0.333-1.356,0.666-2.035,0.999
			c-0.208-0.334-0.415-0.669-0.622-1.004c-0.162-0.541-0.323-1.081-0.484-1.622C34.588,61.985,35.518,62.466,36.26,64.305z"/>
		<path fill-rule="evenodd" clip-rule="evenodd" fill="#F3F3F3" d="M41.718,50.946c0,0.511,0,1.021,0,1.719c-1.151,0-2.246,0-3.34,0
			c-0.101-0.536-0.202-1.072-0.323-1.719C39.358,50.946,40.538,50.946,41.718,50.946z"/>
		<path fill-rule="evenodd" clip-rule="evenodd" fill="#F3F3F3" d="M33.371,43.227c0.563,0.729,1.14,1.153,1.1,1.507
			c-0.051,0.446-0.605,0.834-0.943,1.247c-0.37-0.339-1.007-0.654-1.042-1.025C32.445,44.52,32.927,44.034,33.371,43.227z"/>
		<path fill-rule="evenodd" clip-rule="evenodd" fill="#231F20" d="M33.119,62.678c0.161,0.541,0.323,1.081,0.484,1.622
			c-0.64,0.005-1.28,0.011-1.92,0.016C32.162,63.77,32.641,63.224,33.119,62.678z"/>
		<path fill-rule="evenodd" clip-rule="evenodd" fill="#971D20" d="M43.204,47.977c0.085,0.036,0.169,0.071,0.254,0.106
			C43.374,48.048,43.289,48.013,43.204,47.977z"/>
		<path fill-rule="evenodd" clip-rule="evenodd" fill="#0A532E" d="M35.302,103.201c0.404,2.624,0.807,5.247,1.21,7.871
			c-1.209,0.175-2.418,0.349-3.628,0.523c-0.334-2.237-0.669-4.473-1.004-6.709c1.258,0.206,2.176-0.303,2.874-1.329
			C34.867,103.391,35.116,103.317,35.302,103.201z"/>
		<path fill-rule="evenodd" clip-rule="evenodd" fill="#0A532E" d="M37.938,118.516c-0.249,0.586-0.498,1.172-0.747,1.758
			c-1.303-1.016-2.587-2.06-3.919-3.037c-0.629-0.461-1.365-0.774-2.025-1.196c-0.315-0.201-0.569-0.497-0.904-0.798
			c0.996-0.735,2.124,0.886,2.798-0.509c0.293-0.007,0.587-0.014,0.881-0.021c0.192,0.158,0.385,0.315,0.578,0.473
			c0.94,0.887,1.881,1.773,2.822,2.66C37.593,118.07,37.765,118.293,37.938,118.516z"/>
		<path fill-rule="evenodd" clip-rule="evenodd" fill="#0E703D" d="M34.021,114.714c-0.294,0.007-0.587,0.014-0.881,0.021
			c-0.085-1.046-0.171-2.093-0.256-3.139c1.209-0.174,2.418-0.349,3.628-0.523c0.085,0.033,0.169,0.066,0.254,0.099
			c-0.439,0.722-0.827,1.483-1.334,2.154C35.039,113.846,34.497,114.255,34.021,114.714z"/>
		<path fill-rule="evenodd" clip-rule="evenodd" fill="#FDFDFD" d="M54.218,122.881c0-3.468,0-6.936,0-10.482
			c3.888,0,7.729,0,11.702,0c0,3.484,0,6.945,0,10.407c-0.302,0.071-0.604,0.202-0.906,0.203c-3.37,0.014-6.74,0.011-10.109,0.002
			C54.676,123.011,54.447,122.927,54.218,122.881z"/>
		<path fill-rule="evenodd" clip-rule="evenodd" fill="#FDFDFD" d="M77.549,122.846c0-3.462,0-6.925,0-10.456
			c3.926,0,7.772,0,11.753,0c0,3.501,0,6.996,0,10.491c-2.217,0.046-4.435,0.126-6.652,0.126
			C80.95,123.007,79.249,122.904,77.549,122.846z"/>
		<path fill-rule="evenodd" clip-rule="evenodd" fill="#FDFDFD" d="M100.957,122.882c0-3.475,0-6.949,0-10.492
			c3.87,0,7.689,0,11.661,0c0,3.496,0,6.994,0,10.492c-2.223,0.046-4.445,0.122-6.667,0.127
			C104.286,123.013,102.621,122.927,100.957,122.882z"/>
		<path fill-rule="evenodd" clip-rule="evenodd" fill="#FEFEFE" d="M124.307,64.478c-3.581,0-7.163,0-10.791,0
			c0-4.004,0-7.868,0-11.922c3.587,0,7.196,0,10.805,0C124.316,56.53,124.312,60.504,124.307,64.478z"/>
		<path fill-rule="evenodd" clip-rule="evenodd" fill="#FEFEFE" d="M124.323,40.847c-3.869,0-7.738,0-11.705,0
			c0-3.492,0-6.903,0-10.315c0.956,0.209,1.904,0.484,2.871,0.601c0.496,0.06,1.025-0.164,1.54-0.26
			c-0.142-0.501-0.279-1.004-0.43-1.503c-0.033-0.108-0.119-0.201-0.18-0.3c2.583,0,5.166,0,7.904,0
			C124.323,33.016,124.323,36.932,124.323,40.847z"/>
		<path fill-rule="evenodd" clip-rule="evenodd" fill="#C6CED3" d="M116.419,29.07c0.062,0.1,0.147,0.192,0.18,0.3
			c0.151,0.499,0.288,1.001,0.43,1.503c-0.515,0.096-1.044,0.319-1.54,0.26c-0.967-0.117-1.915-0.392-2.871-0.601
			c0.009-0.494,0.019-0.988,0.027-1.482C113.903,29.057,115.161,29.063,116.419,29.07z"/>
		<path fill-rule="evenodd" clip-rule="evenodd" fill="#FDFDFD" d="M54.204,29.045c0,3.875,0,7.75,0,11.715
			c-3.875,0-7.724,0-11.663,0c0-3.897,0-7.804,0-11.711C46.428,29.048,50.316,29.046,54.204,29.045z"/>
		<path fill-rule="evenodd" clip-rule="evenodd" fill="#FEFEFE" d="M77.557,29.037c0,3.877,0,7.754,0,11.725
			c-3.907,0-7.843,0-11.78,0l0.008,0.017c0.03-3.906,0.06-7.812,0.09-11.718C69.769,29.053,73.663,29.045,77.557,29.037z"/>
		<path fill-rule="evenodd" clip-rule="evenodd" fill="#9D6015" d="M126.422,90.083c1.443-0.505,2.646-0.926,3.871-1.354
			c0,1.488,0.029,3.182-0.034,4.872c-0.009,0.232-0.473,0.45-0.73,0.668c-0.016,0.014-0.072-0.031-0.11-0.033
			c-0.919-0.054-1.838-0.106-2.757-0.159C126.575,92.627,126.488,91.178,126.422,90.083z"/>
		<path fill-rule="evenodd" clip-rule="evenodd" fill="#FAFAFA" d="M30.96,87.6c3.546,0,7.092,0,10.698,0c0,4.017,0,7.909,0,11.952
			c-3.603,0-7.147,0-10.692,0C30.964,95.568,30.962,91.584,30.96,87.6z"/>
		<path fill-rule="evenodd" clip-rule="evenodd" fill="#FAFAFA" d="M34.021,114.714c0.476-0.458,1.018-0.868,1.411-1.389
			c0.507-0.671,0.895-1.432,1.334-2.154c1.585,0,3.171,0,4.615,0c0.375,0.571,0.669,1.019,1.057,1.608c0,3.269,0,6.8,0,10.331
			l-0.106-0.045c0,0-0.109,0.036-0.109,0.036c-0.483-0.617-0.966-1.234-1.45-1.852c0.088-0.977,0.177-1.954,0.265-2.931
			c0.259-0.72,0.758-1.617-0.384-1.907c-1.994-0.507-4.034-0.828-6.055-1.226C34.406,115.03,34.214,114.872,34.021,114.714z"/>
		<path fill-rule="evenodd" clip-rule="evenodd" fill="#DEE2E3" d="M41.038,118.32c-0.088,0.977-0.176,1.954-0.265,2.931
			c-0.945-0.911-1.891-1.823-2.836-2.735c-0.172-0.223-0.344-0.446-0.517-0.669C38.626,118.005,39.833,118.163,41.038,118.32z"/>
		<path fill-rule="evenodd" clip-rule="evenodd" fill="#6D6F71" d="M77.936,40.828c3.646,0,7.291,0,10.936,0
			c0,0.047,0,0.094,0.001,0.141c-3.647,0-7.294,0-10.942,0C77.933,40.921,77.934,40.875,77.936,40.828z"/>
		<path fill-rule="evenodd" clip-rule="evenodd" fill="#818486" d="M101.02,40.786c3.708,0,7.416,0,11.124,0
			c0.002,0.083,0.004,0.167,0.007,0.25c-0.913,0-1.825,0-2.737,0c-2.437,0-4.873,0.011-7.309-0.012
			c-0.36-0.003-0.718-0.164-1.077-0.252C101.027,40.771,101.02,40.786,101.02,40.786z"/>
		<path fill-rule="evenodd" clip-rule="evenodd" fill="#6D6F71" d="M65.777,40.762c-0.231,0.097-0.463,0.277-0.695,0.278
			c-3.344,0.018-6.688,0.012-10.032,0.006c-0.15,0-0.301-0.057-0.445-0.267c3.727,0,7.454,0,11.181,0
			C65.785,40.779,65.777,40.762,65.777,40.762z"/>
		<path fill-rule="evenodd" clip-rule="evenodd" fill="#6D6F71" d="M41.786,41.055c-0.022-0.077-0.038-0.155-0.049-0.235
			c0.144,0,0.287,0,0.431,0c0.006,0.042,0.012,0.083,0.018,0.125C42.052,40.982,41.919,41.019,41.786,41.055z"/>
		<path fill-rule="evenodd" clip-rule="evenodd" fill="#F3F3F3" d="M82.939,72.927c0.79,5.24,1.579,10.479,2.38,15.797
			c-1.713,0-3.332,0-5.03,0c-0.122-1.051-0.244-2.104-0.373-3.22c-0.605,0-1.188,0-1.82,0c-0.052,1.03-0.106,2.084-0.164,3.209
			c-1.741,0-3.398,0-5.161,0c0.417-3.189,0.82-6.375,1.251-9.557c0.323-2.39,0.68-4.776,1.022-7.164
			c2.568-0.484,5.061-0.359,7.424,0.89C82.599,72.95,82.782,72.915,82.939,72.927z M79.125,74.695
			c-0.075-0.026-0.15-0.053-0.226-0.08c-0.249,2.396-0.497,4.793-0.751,7.243c0.626,0,1.12,0,1.676,0
			C79.587,79.418,79.356,77.057,79.125,74.695z"/>
		<path fill-rule="evenodd" clip-rule="evenodd" fill="#EBEEEC" d="M66.729,69.324c3.578,0.145,5.607,2.467,5.149,7.234
			c-1.595,0-3.201,0-4.939,0c0-1.003,0.075-2.002-0.036-2.981c-0.045-0.396-0.495-0.746-0.761-1.117
			c-0.256,0.34-0.729,0.677-0.733,1.021c-0.051,3.794-0.053,7.59,0.01,11.384c0.006,0.358,0.535,0.709,0.821,1.063
			c0.263-0.339,0.7-0.652,0.754-1.021c0.137-0.942,0.166-1.914,0.101-2.864c-0.021-0.308-0.468-0.587-0.932-1.124
			c0-0.537,0-1.438,0-2.386c1.93,0,3.793,0,5.73,0c0,3.405,0,6.776,0,10.337c-1.21-0.53-2.898,0.971-3.53-1.325
			c-1.61,1.877-3.444,2.078-5.477,0.958c-0.048-0.391-0.021-0.81-0.156-1.168C60.63,81.73,61.6,76.6,65.065,71.833
			C65.655,71.022,66.176,70.162,66.729,69.324z"/>
		<path fill-rule="evenodd" clip-rule="evenodd" fill="#DEE2E3" d="M86.236,70.804c-0.018-0.354-0.037-0.707-0.059-1.13
			c2.164,0,4.264,0,6.451,0c0.394,2.664,0.788,5.324,1.181,7.984c0.064-0.003,0.129-0.007,0.194-0.01
			c0.339-2.283,0.679-4.566,1.018-6.849c0.366,0.321,0.907,0.572,1.069,0.975c0.741,1.843,1.529,3.689,2.01,5.607
			c0.698,2.787,0.689,5.642,0.008,8.452c-0.096,0.394-0.562,0.698-0.858,1.044c0-3.223,0-6.447,0-9.67
			c-0.076-0.005-0.151-0.01-0.227-0.015c-0.262,1.922-0.524,3.844-0.784,5.767c-0.257,1.895-0.512,3.79-0.777,5.757
			c-0.995,0-1.974,0-2.996,0c-0.649-3.94-1.3-7.892-1.951-11.844c0.266-1.04-0.09-1.936-0.695-2.741
			c-0.663-0.881-1.325-1.775-2.094-2.559C87.355,71.192,86.741,71.052,86.236,70.804z"/>
		<path fill-rule="evenodd" clip-rule="evenodd" fill="#D4DBDF" d="M68.178,56.873c0.471,1.875,1.058,3.73,1.385,5.63
			c0.433,2.512-0.679,4.554-3.056,5.472c-1.303,0.503-2.782,0.805-4.172,0.774c-2.161-0.048-3.574-1.376-4.263-3.42
			c-0.216-0.639-0.354-1.304-0.527-1.958c0.575-0.36,1.156-0.71,1.722-1.082c0.927-0.61,1.845-1.235,2.766-1.853
			c0.359,1.286,0.667,2.59,1.106,3.848c0.137,0.391,0.628,0.658,0.958,0.982c0.171-0.453,0.549-0.941,0.479-1.354
			c-0.272-1.598-0.687-3.172-1.048-4.755C65.079,58.396,66.628,57.635,68.178,56.873z"/>
		<path fill-rule="evenodd" clip-rule="evenodd" fill="#D4DBDF" d="M97.251,86.877c0.295-0.346,0.762-0.65,0.858-1.044
			c0.681-2.81,0.69-5.666-0.008-8.452c-0.481-1.918-1.27-3.765-2.01-5.607c-0.162-0.403-0.703-0.654-1.069-0.975
			c0-0.354,0-0.708,0-1.126c2.19,0,4.29,0,6.457,0c0,6.341,0,12.643,0,19.032c-1.351,0-2.729,0-4.227,0
			C97.251,88.117,97.251,87.498,97.251,86.877z"/>
		<path fill-rule="evenodd" clip-rule="evenodd" fill="#DEE2E3" d="M85.254,97.42c0.172,1.405,0.345,2.811,0.517,4.216
			c0.046,0.002,0.092,0.005,0.137,0.008c0.296-3.236,0.592-6.473,0.89-9.733c1.511,0,2.892,0,4.412,0
			c-0.48,3.336-0.949,6.594-1.417,9.851c-1.003,0.872-1.941,1.839-3.027,2.591c-1.313,0.91-2.751,1.637-4.136,2.443
			c-0.326-2.16-0.651-4.32-0.977-6.479c0.76-0.518,1.548-1,2.272-1.565C84.415,98.368,84.814,97.868,85.254,97.42z"/>
		<path fill-rule="evenodd" clip-rule="evenodd" fill="#EBEEEC" d="M86.236,70.804c0.505,0.248,1.119,0.389,1.491,0.768
			c0.769,0.784,1.432,1.678,2.094,2.559c0.605,0.805,0.961,1.702,0.695,2.741c-0.016,3.896-0.032,7.792-0.048,11.688
			c-0.076,0.063-0.151,0.126-0.227,0.189c-1.307,0-2.613,0-4.005,0C86.236,82.734,86.236,76.769,86.236,70.804z"/>
		<path fill-rule="evenodd" clip-rule="evenodd" fill="#ADB0B4" d="M82.236,42.779c3.16-0.011,6.32-0.021,9.48-0.031
			c0.497,1.695,1.067,3.374,1.462,5.092c0.233,1.014-0.208,1.87-1.261,2.282c-0.224-0.234-0.406-0.569-0.681-0.683
			c-0.87-0.364-1.775-0.645-2.666-0.958c-0.177-0.686-0.347-1.374-0.532-2.058c-0.267-0.986-0.849-1.343-1.875-0.915
			c0.217,0.914,0.426,1.792,0.634,2.669c-0.541-0.102-1.078-0.24-1.624-0.3c-1.274-0.14-2.553-0.241-3.829-0.358
			c-0.281-0.986-0.531-1.983-0.851-2.957c-0.281-0.856-0.141-1.364,0.864-1.444C81.657,43.094,81.943,42.897,82.236,42.779z"/>
		<path fill-rule="evenodd" clip-rule="evenodd" fill="#C6CED3" d="M106.317,88.747c-0.865,0-1.73,0-2.646,0
			c0-6.344,0-12.626,0-18.908c0.083-0.064,0.167-0.129,0.251-0.194c0.318,0.003,0.637,0.006,0.955,0.009
			c0.14,0.655,0.208,1.336,0.43,1.961c1.021,2.863,1.764,5.801,1.695,8.838C106.939,83.222,106.558,85.983,106.317,88.747z"/>
		<path fill-rule="evenodd" clip-rule="evenodd" fill="#D4DBDF" d="M81.212,55.882c0.678,1.613,1.356,3.227,2.034,4.84
			c-0.313-0.042-0.629-0.072-0.939-0.128c-2.302-0.417-4.59-0.896-6.956-0.377c-1.465,0.321-2.962,0.502-4.444,0.746
			c-0.189-1.68-0.379-3.36-0.569-5.04c1.454-0.244,2.907-0.486,4.361-0.73c0.185,0.94,0.37,1.88,0.568,2.889
			c0.618-0.185,1.124-0.337,1.629-0.489c-0.145-0.541-0.256-0.956-0.367-1.371c0.395-0.181,0.787-0.51,1.183-0.514
			C78.877,55.696,80.045,55.815,81.212,55.882z"/>
		<path fill-rule="evenodd" clip-rule="evenodd" fill="#B4B8BC" d="M53.249,55.922c0.709,2.142,0.513,2.863-1.235,4.297
			c0.383,0.11,0.707,0.203,1.029,0.295c-0.894,1.067-1.788,2.134-2.682,3.201c-0.395-0.805-0.98-1.077-1.942-0.604
			c0.32,1.353,0.645,2.723,0.969,4.093c-0.233,0.107-0.611,0.158-0.677,0.33c-0.667,1.717-1.281,3.454-1.911,5.186
			c-0.367,0.114-0.735,0.229-1.245,0.387c-0.455-1.781-0.885-3.466-1.315-5.15c0.318-0.382,0.691-0.731,0.943-1.152
			c1.368-2.284,2.562-4.689,4.104-6.847C50.37,58.443,51.912,57.256,53.249,55.922z"/>
		<path fill-rule="evenodd" clip-rule="evenodd" fill="#DEE2E3" d="M70.906,60.962c1.482-0.244,2.979-0.424,4.444-0.746
			c2.366-0.519,4.653-0.039,6.956,0.377c0.311,0.056,0.626,0.086,0.939,0.128c0.345,0.757,0.69,1.514,1.096,2.405
			c-1.762,0.452-3.435,0.882-5.167,1.327c-0.411-1.163-0.78-2.206-1.201-3.395c-0.581,0.143-1.135,0.28-1.784,0.44
			c0.182,1.193,0.354,2.32,0.546,3.583c-1.69,0.44-3.37,0.878-5.203,1.356C71.319,64.565,71.113,62.763,70.906,60.962z"/>
		<path fill-rule="evenodd" clip-rule="evenodd" fill="#BFC6CA" d="M70.056,53.518c-0.208-1.596-0.417-3.192-0.626-4.788
			c2.262-0.323,4.525-0.634,6.783-0.979c0.471-0.072,0.923-0.267,1.383-0.404c0.806,1.923,1.612,3.846,2.417,5.77
			c-0.262,0.13-0.519,0.363-0.785,0.374c-1.229,0.049-2.46,0.036-3.691,0.045c-0.356-0.814-0.712-1.627-1.068-2.441
			c-0.077,0.04-0.153,0.08-0.229,0.119c0.048,0.53,0.097,1.059,0.146,1.588C72.942,53.04,71.499,53.279,70.056,53.518z"/>
		<path fill-rule="evenodd" clip-rule="evenodd" fill="#BFC6CA" d="M60.78,102.014c0.053,0.83,0.106,1.66,0.167,2.617
			c0.766,0,1.542,0,2.375,0c0,1.105,0,2.083,0,3.165c-1.443,0-2.858,0-4.273,0c-0.771-0.977-1.541-1.953-2.312-2.929
			c0-4.302,0-8.604,0-13.007c0.405,0.021,0.753,0.039,1.102,0.057c-0.005,3.207,0.539,6.301,1.976,9.191
			C59.999,101.478,60.452,101.715,60.78,102.014z"/>
		<path fill-rule="evenodd" clip-rule="evenodd" fill="#DEE2E3" d="M64.5,100.084c0-2.691,0-5.382,0-8.173c0.991,0,1.965,0,2.939,0
			c0.088,0.934,0.113,1.88,0.298,2.794c0.063,0.314,0.529,0.547,0.811,0.817c0,0.826,0,1.652,0,2.573c0.947,0,1.731,0,2.591,0
			c0,1.029,0,1.963,0,3.011c-0.822,0-1.604,0-2.476,0c-0.042,0.847-0.079,1.587-0.116,2.328c-1.202,0.083-1.604-0.961-2.279-1.618
			C65.677,101.242,65.089,100.662,64.5,100.084z"/>
		<path fill-rule="evenodd" clip-rule="evenodd" fill="#ADB0B4" d="M53.249,55.922c-1.337,1.333-2.879,2.521-3.961,4.036
			c-1.542,2.158-2.736,4.562-4.104,6.847c-0.252,0.421-0.625,0.77-0.943,1.152c-0.175-0.396-0.35-0.792-0.525-1.189
			c0.028-1.941,0.056-3.882,0.083-5.824c0.438-0.389,0.892-0.76,1.31-1.17c0.64-0.629,1.253-1.284,1.877-1.929
			c0.198,0.707,0.396,1.413,0.584,2.088c1.322-0.108,1.586-0.781,1.275-1.831c-0.214-0.723-0.404-1.454-0.605-2.181
			c0.35-0.47,0.677-0.959,1.054-1.407c0.604-0.718,1.242-1.408,1.865-2.11C52.24,53.349,53.052,54.453,53.249,55.922z"/>
		<path fill-rule="evenodd" clip-rule="evenodd" fill="#A0A2A6" d="M108.448,49.684c0.292,1.198,0.571,2.4,0.88,3.594
			c0.396,1.531-0.213,3.003-2.289,3.834c-0.624-1.415-1.494-2.589-3.037-3.105c-0.08-0.545-0.119-1.101-0.245-1.635
			c-0.554-2.338-1.133-4.671-1.704-7.006c0.976,0.552,1.995,1.041,2.917,1.672C106.169,47.86,107.292,48.796,108.448,49.684z"/>
		<path fill-rule="evenodd" clip-rule="evenodd" fill="#BFC6CA" d="M106.317,88.747c0.241-2.764,0.622-5.524,0.685-8.292
			c0.069-3.037-0.675-5.976-1.695-8.838c-0.223-0.625-0.291-1.306-0.43-1.961c0.879-0.001,1.759-0.002,2.639-0.003
			c0.334,1.287,0.669,2.574,1.003,3.861c0.007,0.919-0.019,1.841,0.039,2.757c0.019,0.295,0.256,0.577,0.394,0.865
			c0.083,1.171,0.167,2.343,0.25,3.514c-0.219,0.175-0.617,0.34-0.627,0.526c-0.059,1.111-0.057,2.229,0,3.339
			c0.009,0.172,0.405,0.325,0.622,0.487c-0.16,1.25-0.321,2.5-0.481,3.749C107.916,88.748,107.116,88.748,106.317,88.747z"/>
		<path fill-rule="evenodd" clip-rule="evenodd" fill="#DEE2E3" d="M66.729,69.324c-0.553,0.837-1.074,1.698-1.663,2.508
			C61.6,76.6,60.63,81.73,62.729,87.336c0.134,0.359,0.107,0.778,0.156,1.168c-1.566-0.748-2.345-2.084-2.381-3.725
			c-0.081-3.672-0.108-7.35,0.009-11.02C60.611,70.696,63.466,68.748,66.729,69.324z"/>
		<path fill-rule="evenodd" clip-rule="evenodd" fill="#BFC6CA" d="M50.361,63.715c0.894-1.067,1.788-2.134,2.682-3.201
			c1.435,0.402,2.217,1.386,2.501,2.812c-0.263,0.152-0.613,0.241-0.775,0.466c-0.792,1.094-1.658,2.163-2.263,3.359
			c-0.743,1.469-1.253,3.056-1.865,4.592c-1.28,0.326-2.561,0.651-3.841,0.977c0.63-1.731,1.245-3.468,1.911-5.186
			c0.066-0.172,0.444-0.223,0.677-0.33c0.136,0.401,0.271,0.802,0.407,1.203c1.199-0.143,1.51-0.801,1.255-1.835
			C50.817,65.621,50.59,64.667,50.361,63.715z"/>
		<path fill-rule="evenodd" clip-rule="evenodd" fill="#B4B8BC" d="M55.876,56.894c-0.219-1.124-0.438-2.249-0.657-3.373
			c0.225-0.077,0.47-0.119,0.67-0.237c2.392-1.425,4.783-2.854,7.157-4.307c0.239-0.146,0.373-0.465,0.555-0.703
			c1.596,0.461,2.603,1.509,3.073,3.091c-0.416,0.093-0.85,0.138-1.244,0.287c-1.17,0.442-2.325,0.924-3.485,1.391
			c-0.1-0.259-0.137-0.58-0.315-0.762c-0.287-0.294-0.668-0.497-1.009-0.738c-0.157,0.395-0.426,0.784-0.443,1.184
			c-0.022,0.501,0.163,1.012,0.258,1.518c-0.463,0.197-0.958,0.343-1.384,0.602C57.976,55.501,56.933,56.208,55.876,56.894z"/>
		<path fill-rule="evenodd" clip-rule="evenodd" fill="#B4B8BC" d="M81.345,47.519c1.276,0.117,2.555,0.218,3.829,0.358
			c0.546,0.06,1.083,0.198,1.624,0.3c0.154,0.511,0.309,1.022,0.463,1.533c0.141,0.048,0.283,0.097,0.424,0.145
			c0.295-0.458,0.59-0.916,0.885-1.375c0.891,0.313,1.796,0.595,2.666,0.958c0.274,0.114,0.457,0.449,0.681,0.683
			c-0.17,0.083-0.341,0.166-0.875,0.425c3.014-0.046,3.684,1.783,3.989,3.934c-1.6-0.762-3.142-1.697-4.811-2.246
			c-2.72-0.894-5.524-1.535-8.293-2.283C81.733,49.141,81.539,48.33,81.345,47.519z"/>
		<path fill-rule="evenodd" clip-rule="evenodd" fill="#ADB0B4" d="M104.001,54.006c1.543,0.516,2.414,1.69,3.037,3.105
			c-0.946,0.292-1.892,0.585-2.838,0.877c-0.076-0.224-0.084-0.522-0.237-0.658c-2.081-1.842-4.171-3.675-6.3-5.461
			c-0.187-0.156-0.666,0.037-1.009,0.068c-0.377-1.473-0.753-2.945-1.13-4.417c1.251,0.649,2.501,1.3,3.753,1.947
			c0.757,0.391,1.519,0.775,2.278,1.162c0.395,1.383,0.791,2.767,1.261,4.414C103.33,54.593,103.666,54.3,104.001,54.006z"/>
		<path fill-rule="evenodd" clip-rule="evenodd" fill="#BFC6CA" d="M81.927,49.952c2.769,0.748,5.573,1.389,8.293,2.283
			c1.669,0.548,3.211,1.484,4.811,2.246c0.327,1.279,0.655,2.559,0.982,3.838c-0.741-0.443-1.466-0.914-2.226-1.321
			c-1.138-0.611-2.301-1.177-3.453-1.762c-0.167-0.528-0.327-1.059-0.504-1.583c-0.27-0.796-0.761-1.173-1.72-0.776
			c0.033,0.261,0.07,0.553,0.106,0.846c-1.449-0.333-2.893-0.695-4.351-0.98c-0.357-0.07-0.763,0.109-1.146,0.174
			C82.456,51.929,82.192,50.94,81.927,49.952z"/>
		<path fill-rule="evenodd" clip-rule="evenodd" fill="#A0A2A6" d="M101.554,50.629c-0.759-0.387-1.521-0.771-2.278-1.162
			c-1.252-0.646-2.502-1.297-3.753-1.947c-0.423-1.578-0.846-3.156-1.27-4.733c1.8-0.003,3.6-0.007,5.4-0.011
			C100.287,45.393,100.92,48.011,101.554,50.629z"/>
		<path fill-rule="evenodd" clip-rule="evenodd" fill="#A0A2A6" d="M46.984,57.846c-0.625,0.645-1.238,1.3-1.877,1.929
			c-0.417,0.41-0.872,0.782-1.31,1.17c-0.021-2.733-0.042-5.465-0.062-8.198c1.656-0.317,3.301-0.743,4.973-0.903
			c0.792-0.075,1.632,0.359,2.45,0.562c-0.623,0.702-1.26,1.393-1.865,2.11c-0.377,0.448-0.705,0.937-1.054,1.407
			c-0.496-0.102-0.991-0.205-1.487-0.306c0.005,0.398-0.016,0.799,0.023,1.194C46.81,57.159,46.912,57.501,46.984,57.846z"/>
		<path fill-rule="evenodd" clip-rule="evenodd" fill="#D4DBDF" d="M89.004,56.883c0.415,1.519,0.83,3.038,1.284,4.701
			c-1.672,0.443-3.301,0.874-5.089,1.347c-0.584-2.413-1.158-4.786-1.733-7.16c0.61,0.024,1.241-0.043,1.827,0.09
			C86.542,56.146,87.769,56.536,89.004,56.883z"/>
		<path fill-rule="evenodd" clip-rule="evenodd" fill="#EBEEEC" d="M76.989,97.676c0.344,0.148,0.676,0.372,1.034,0.425
			c0.494,0.073,1.008,0.019,1.562,0.019c0,1.017,0,1.914,0,2.958c-0.814,0-1.622,0-2.597,0c0,0.882,0,1.621,0,2.359
			c-1.349-0.158-2.698-0.316-4.046-0.475c0-2.24,0-4.479,0-6.72c0.354,0.145,0.701,0.307,1.062,0.432
			C74.995,97.016,75.993,97.343,76.989,97.676z"/>
		<path fill-rule="evenodd" clip-rule="evenodd" fill="#D4DBDF" d="M64.5,100.084c0.589,0.578,1.177,1.157,1.769,1.733
			c0.675,0.657,1.078,1.701,2.279,1.618c0.031,0.355,0.063,0.71,0.104,1.178c0.921,0,1.856,0,2.885,0c0,1.11,0,2.109,0,3.182
			c-2.32,0-4.609,0-7.037,0C64.5,105.21,64.5,102.647,64.5,100.084z"/>
		<path fill-rule="evenodd" clip-rule="evenodd" fill="#EBEEEC" d="M85.254,97.42c-0.44,0.448-0.839,0.948-1.33,1.332
			c-0.724,0.565-1.512,1.048-2.272,1.565c-0.433-2.773-0.865-5.546-1.311-8.402c1.482,0,2.857,0,4.423,0
			C84.926,93.735,85.09,95.578,85.254,97.42z"/>
		<path fill-rule="evenodd" clip-rule="evenodd" fill="#FAFAFA" d="M76.989,97.676c-0.996-0.333-1.994-0.66-2.986-1.002
			c-0.36-0.125-0.708-0.287-1.062-0.432c0-1.423,0-2.847,0-4.33c2.268,0,4.484,0,6.775,0c0,1.013,0,1.994,0,3.081
			c-0.827,0-1.687,0-2.728,0C76.989,95.954,76.989,96.815,76.989,97.676z"/>
		<path fill-rule="evenodd" clip-rule="evenodd" fill="#B4B8BC" d="M96.653,51.938c0.343-0.031,0.823-0.225,1.009-0.068
			c2.129,1.786,4.219,3.62,6.3,5.461c0.153,0.136,0.162,0.435,0.237,0.658c-1.841,0.49-3.682,0.98-5.704,1.518
			C97.866,56.919,97.26,54.428,96.653,51.938z"/>
		<path fill-rule="evenodd" clip-rule="evenodd" fill="#DEE2E3" d="M72.941,102.961c1.349,0.158,2.697,0.316,4.046,0.475
			c0.025,0.358,0.05,0.716,0.084,1.208c0.962,0,1.937,0,2.97,0c0,1.112,0,2.091,0,3.1c-0.199,0.046-0.348,0.11-0.497,0.11
			c-2.157,0.006-4.314,0.004-6.604,0.004C72.941,106.196,72.941,104.579,72.941,102.961z"/>
		<path fill-rule="evenodd" clip-rule="evenodd" fill="#ADB0B4" d="M50.67,97.42c0.673,0.405,1.339,0.823,2.02,1.214
			c2.993,1.72,3.028,4.502,2.374,7.305c-0.13,0.56-0.838,0.985-1.28,1.473c-0.531-1.091-1.041-2.192-1.606-3.265
			c-0.187-0.355-0.516-0.636-0.779-0.951c-0.115-0.31-0.23-0.619-0.345-0.929c0.008-0.42,0.058-0.845,0.018-1.261
			C50.956,99.809,49.979,98.709,50.67,97.42z"/>
		<path fill-rule="evenodd" clip-rule="evenodd" fill="#C6CED3" d="M50.641,71.743c0.611-1.536,1.122-3.123,1.865-4.592
			c0.605-1.196,1.471-2.265,2.263-3.359c0.163-0.225,0.512-0.314,0.775-0.466c0.319,1.392,0.736,2.771,0.931,4.18
			c0.22,1.589-0.365,2.52-1.862,3.069C53.32,71.05,51.967,71.361,50.641,71.743z"/>
		<path fill-rule="evenodd" clip-rule="evenodd" fill="#A0A2A6" d="M105.29,94.592c-0.891-0.608-1.299-0.272-1.369,0.705
			c-0.075,1.042,0.292,1.808,1.271,2.309c0.66,0.338,1.241,0.831,1.857,1.254c-0.238,0.984-0.421,1.987-0.74,2.945
			c-0.126,0.378-0.556,0.656-0.848,0.979c-1.077-0.893-2.155-1.785-3.232-2.677c0.168-0.439,0.437-0.866,0.488-1.318
			c0.272-2.374,0.49-4.753,0.727-7.131c0.799,0.005,1.598,0.011,2.397,0.016c0,0.678,0.057,1.363-0.024,2.031
			C105.779,94.018,105.474,94.298,105.29,94.592z"/>
		<path fill-rule="evenodd" clip-rule="evenodd" fill="#D4DBDF" d="M91.96,102.476c0-3.492,0-6.983,0-10.562c1.051,0,2.065,0,3.08,0
			c0.147,2.604-0.191,5.148-1.225,7.541C93.352,100.529,92.588,101.473,91.96,102.476z"/>
		<path fill-rule="evenodd" clip-rule="evenodd" fill="#93969A" d="M108.448,49.684c-1.156-0.887-2.278-1.824-3.479-2.646
			c-0.921-0.631-1.941-1.12-2.917-1.672c-0.209-0.832-0.419-1.663-0.628-2.495c1.804-0.037,3.607-0.074,5.411-0.111
			c0.506,2.114,1.013,4.229,1.516,6.344C108.397,49.293,108.416,49.49,108.448,49.684z"/>
		<path fill-rule="evenodd" clip-rule="evenodd" fill="#BFC6CA" d="M93.605,107.797c-0.51,0-1.02,0-1.646,0c0-0.812,0-1.625,0-2.439
			c0.293-0.187,0.673-0.311,0.866-0.572c1.501-2.038,2.662-4.247,3.233-6.734c0.823,0.043,1.646,0.087,2.56,0.135
			c0,0.896,0,1.754,0,2.613c-0.072,0.087-0.144,0.175-0.216,0.263c-0.713,0.034-1.426,0.069-2.332,0.112c0,1.164,0,2.302,0,3.44
			C94.753,105.292,94.09,106.476,93.605,107.797z"/>
		<path fill-rule="evenodd" clip-rule="evenodd" fill="#D4DBDF" d="M60.78,102.014c-0.329-0.299-0.781-0.536-0.965-0.907
			c-1.437-2.89-1.98-5.985-1.976-9.191c0.947,0,1.895,0,2.941,0C60.78,95.3,60.78,98.657,60.78,102.014z"/>
		<path fill-rule="evenodd" clip-rule="evenodd" fill="#93969A" d="M51.388,108.141c-3.931,0.433-5.888-1.729-5.225-5.882
			c1.157,0,2.33,0,3.453,0c0.266,1.105,0.53,2.206,0.794,3.306C50.736,106.424,51.062,107.282,51.388,108.141z"/>
		<path fill-rule="evenodd" clip-rule="evenodd" fill="#ADB0B4" d="M77.597,47.347c-0.46,0.138-0.913,0.333-1.383,0.404
			c-2.258,0.344-4.521,0.655-6.783,0.979c-0.107-0.782-0.215-1.564-0.337-2.452c2.441-0.633,4.812-1.248,7.326-1.899
			C76.818,45.386,77.208,46.367,77.597,47.347z"/>
		<path fill-rule="evenodd" clip-rule="evenodd" fill="#C6CED3" d="M96.058,98.051c-0.571,2.488-1.732,4.697-3.233,6.734
			c-0.192,0.262-0.572,0.385-0.866,0.572c0-0.96,0.001-1.921,0.001-2.881c0.628-1.003,1.392-1.947,1.855-3.021
			c1.034-2.393,1.372-4.937,1.225-7.541c0.56,0,1.12-0.001,1.68-0.001c-0.001,1.029-0.002,2.058-0.003,3.087
			c-0.217,0.235-0.594,0.452-0.622,0.708C96.011,96.481,96.061,97.269,96.058,98.051z"/>
		<path fill-rule="evenodd" clip-rule="evenodd" fill="#ADB0B4" d="M103.444,91.658c-0.237,2.378-0.455,4.758-0.727,7.131
			c-0.052,0.452-0.32,0.879-0.488,1.318c-2.158-1.33-3.007-4.871-1.63-6.956C101.257,92.153,102.271,91.729,103.444,91.658z"/>
		<path fill-rule="evenodd" clip-rule="evenodd" fill="#A0A2A6" d="M50.67,97.42c-0.691,1.289,0.286,2.388,0.401,3.585
			c0.041,0.416-0.009,0.841-0.018,1.261c-0.865-0.631-1.731-1.263-2.596-1.895c-0.038-0.35-0.072-0.699-0.112-1.048
			c-0.272-2.374-0.546-4.747-0.819-7.12c0.709-0.2,1.418-0.4,2.127-0.601c0.097,0.926,0.193,1.852,0.29,2.777
			C49.501,95.557,49.68,96.586,50.67,97.42z"/>
		<path fill-rule="evenodd" clip-rule="evenodd" fill="#D4DBDF" d="M82.629,106.796c1.384-0.806,2.823-1.534,4.136-2.443
			c1.086-0.752,2.024-1.72,3.027-2.591c-0.229,2-0.459,3.999-0.701,6.105c-2,0-3.859-0.008-5.718,0.004
			C82.574,107.875,82.668,107.299,82.629,106.796z"/>
		<path fill-rule="evenodd" clip-rule="evenodd" fill="#93969A" d="M105.461,102.785c0.292-0.323,0.722-0.601,0.848-0.979
			c0.319-0.958,0.502-1.96,0.74-2.945c0.641,0.646,1.282,1.291,1.922,1.937c-0.142,0.133-0.354,0.241-0.414,0.405
			c-0.835,2.273-1.649,4.553-2.468,6.832c-0.965-0.025-1.93-0.05-2.895-0.075c0.325-0.874,0.649-1.749,0.975-2.623
			c0.939,0.433,1.354-0.013,1.404-0.903C105.604,103.887,105.503,103.334,105.461,102.785z"/>
		<path fill-rule="evenodd" clip-rule="evenodd" fill="#C6CED3" d="M90.335,55.236c1.152,0.585,2.314,1.151,3.453,1.762
			c0.76,0.407,1.485,0.878,2.226,1.321c0.167,0.521,0.334,1.042,0.523,1.632c-1.264,0.348-2.442,0.676-3.623,0.993
			c-0.337,0.09-0.685,0.144-1.117,0.233C91.3,59.16,90.817,57.198,90.335,55.236z"/>
		<path fill-rule="evenodd" clip-rule="evenodd" fill="#ADB0B4" d="M63.602,48.273c-0.182,0.238-0.316,0.557-0.555,0.703
			c-2.375,1.454-4.765,2.882-7.157,4.307c-0.2,0.119-0.445,0.16-0.67,0.237c-0.176-1.317,0.315-2.419,1.153-3.378
			C57.947,48.343,61.286,47.495,63.602,48.273z"/>
		<path fill-rule="evenodd" clip-rule="evenodd" fill="#EBEEEC" d="M82.939,72.927c-0.158-0.012-0.341,0.023-0.469-0.044
			c-2.363-1.25-4.856-1.375-7.424-0.89c0.071-0.749,0.143-1.498,0.22-2.31c2.421,0,4.756,0,7.219,0
			C82.634,70.747,82.787,71.837,82.939,72.927z"/>
		<path fill-rule="evenodd" clip-rule="evenodd" fill="#A0A2A6" d="M104.17,105.336c-0.325,0.874-0.65,1.749-0.975,2.623
			c-2.388-0.539-3.314-2.035-2.986-5.707c1.195,0,2.4,0,3.642,0C103.96,103.305,104.065,104.32,104.17,105.336z"/>
		<path fill-rule="evenodd" clip-rule="evenodd" fill="#BFC6CA" d="M55.876,56.894c1.056-0.686,2.1-1.392,3.175-2.047
			c0.426-0.259,0.921-0.405,1.384-0.602c0.256,1.039,0.511,2.077,0.767,3.116c-0.41,0.216-0.855,0.384-1.222,0.657
			c-1.095,0.813-2.16,1.667-3.236,2.506C56.455,59.313,56.166,58.103,55.876,56.894z"/>
		<path fill-rule="evenodd" clip-rule="evenodd" fill="#C6CED3" d="M89.004,56.883c-1.236-0.347-2.462-0.737-3.711-1.022
			c-0.585-0.133-1.216-0.066-1.827-0.09c-0.249-0.951-0.498-1.903-0.746-2.854c0.383-0.064,0.789-0.244,1.146-0.174
			c1.458,0.285,2.901,0.647,4.351,0.98C88.479,54.776,88.742,55.83,89.004,56.883z"/>
		<path fill-rule="evenodd" clip-rule="evenodd" fill="#C6CED3" d="M56.744,60.523c1.076-0.838,2.141-1.692,3.236-2.506
			c0.367-0.273,0.812-0.441,1.222-0.657c0.277,1.025,0.554,2.051,0.831,3.077c-0.921,0.618-1.839,1.243-2.766,1.853
			c-0.566,0.372-1.147,0.722-1.722,1.082C57.278,62.422,57.011,61.473,56.744,60.523z"/>
		<path fill-rule="evenodd" clip-rule="evenodd" fill="#93969A" d="M105.29,94.592c0.184-0.294,0.489-0.574,0.526-0.887
			c0.082-0.668,0.024-1.353,0.024-2.031c2.622,0.27,3.616,1.753,3.244,4.941c-1.197,0-2.406,0-3.701,0
			C105.352,95.921,105.321,95.257,105.29,94.592z"/>
		<path fill-rule="evenodd" clip-rule="evenodd" fill="#BFC6CA" d="M61.945,53.042c1.16-0.467,2.315-0.949,3.485-1.391
			c0.395-0.149,0.828-0.194,1.244-0.287c0.251,0.879,0.502,1.758,0.754,2.637c-1.548,0.772-3.095,1.544-4.643,2.316
			C62.505,55.225,62.225,54.134,61.945,53.042z"/>
		<path fill-rule="evenodd" clip-rule="evenodd" fill="#C6CED3" d="M62.785,56.317c1.548-0.772,3.095-1.544,4.643-2.316
			c0.25,0.957,0.5,1.915,0.75,2.872c-1.55,0.762-3.1,1.524-4.649,2.286C63.281,58.211,63.033,57.264,62.785,56.317z"/>
		<path fill-rule="evenodd" clip-rule="evenodd" fill="#B4B8BC" d="M51.841,91.703c2.675,0.504,3.438,1.708,3.056,4.935
			c-0.928,0-1.87,0-2.811,0C52.004,94.993,51.923,93.348,51.841,91.703z"/>
		<path fill-rule="evenodd" clip-rule="evenodd" fill="#B4B8BC" d="M108.519,73.512c-0.334-1.287-0.669-2.574-1.003-3.861
			c1.28-0.02,2.56-0.04,3.839-0.06c-0.001,1.288-0.003,2.576-0.005,3.864C110.406,73.475,109.462,73.494,108.519,73.512z"/>
		<path fill-rule="evenodd" clip-rule="evenodd" fill="#93969A" d="M47.526,92.204c0.273,2.374,0.546,4.747,0.819,7.12
			c0.04,0.349,0.075,0.698,0.112,1.048c-2.573-1.453-3.558-5.187-1.915-7.353C46.793,92.689,47.194,92.473,47.526,92.204z"/>
		<path fill-rule="evenodd" clip-rule="evenodd" fill="#818486" d="M106.09,108.034c0.819-2.278,1.633-4.559,2.468-6.832
			c0.06-0.164,0.272-0.271,0.414-0.405c0.788,1.711,0.726,3.5,0.213,5.223C108.761,107.443,107.469,107.892,106.09,108.034z"/>
		<path fill-rule="evenodd" clip-rule="evenodd" fill="#EBEEEC" d="M68.548,95.523c-0.282-0.27-0.747-0.502-0.811-0.817
			c-0.186-0.914-0.21-1.86-0.298-2.794c1.264,0,2.528,0,3.852,0c0,1.029,0,2.009,0,3.126c-0.667,0-1.336-0.045-1.995,0.022
			C69.034,95.087,68.797,95.361,68.548,95.523z"/>
		<path fill-rule="evenodd" clip-rule="evenodd" fill="#C6CED3" d="M75.538,53.536c1.23-0.009,2.462,0.004,3.691-0.045
			c0.266-0.01,0.523-0.243,0.785-0.374c0.4,0.921,0.799,1.844,1.198,2.765c-1.167-0.067-2.334-0.186-3.5-0.175
			c-0.396,0.004-0.789,0.333-1.183,0.514C76.198,55.326,75.868,54.431,75.538,53.536z"/>
		<path fill-rule="evenodd" clip-rule="evenodd" fill="#C6CED3" d="M70.056,53.518c1.443-0.239,2.886-0.478,4.329-0.717
			c0.104,0.797,0.208,1.594,0.313,2.391c-1.454,0.244-2.907,0.486-4.361,0.73C70.244,55.12,70.15,54.319,70.056,53.518z"/>
		<path fill-rule="evenodd" clip-rule="evenodd" fill="#B4B8BC" d="M108.715,88.749c0.161-1.25,0.321-2.499,0.481-3.749
			c0.716-0.021,1.433-0.041,2.149-0.062c0,1.294,0,2.588,0,3.882C110.469,88.797,109.592,88.773,108.715,88.749z"/>
		<path fill-rule="evenodd" clip-rule="evenodd" fill="#A0A2A6" d="M51.388,108.141c-0.326-0.859-0.652-1.717-0.979-2.577
			c1.475-0.312,0.813-1.514,0.988-2.369c0.264,0.315,0.592,0.595,0.779,0.951c0.565,1.073,1.075,2.174,1.606,3.265
			C52.985,107.655,52.187,107.898,51.388,108.141z"/>
		<path fill-rule="evenodd" clip-rule="evenodd" fill="#ADB0B4" d="M97.437,104.7c0.51,0,1.02,0,1.609,0c0,1.032,0,2.041,0,3.101
			c-1.03,0-2.044,0-3.059,0c0.172-0.383,0.34-0.769,0.519-1.149C96.812,106,97.126,105.351,97.437,104.7z"/>
		<path fill-rule="evenodd" clip-rule="evenodd" fill="#ADB0B4" d="M51.841,91.703c0.082,1.645,0.163,3.29,0.245,4.935
			c-1.061,0.291-0.942-0.438-0.94-1.08c0.001-0.797,0.033-1.638-1.202-1.178c-0.097-0.925-0.193-1.851-0.29-2.777
			C50.383,91.636,51.112,91.669,51.841,91.703z"/>
		<path fill-rule="evenodd" clip-rule="evenodd" fill="#B4B8BC" d="M97.437,104.7c-0.311,0.65-0.625,1.299-0.932,1.952
			c-0.179,0.38-0.346,0.766-0.519,1.149c-0.794-0.001-1.588-0.002-2.382-0.004c0.485-1.321,1.148-2.505,2.465-3.182
			C96.526,104.643,96.981,104.672,97.437,104.7z"/>
		<path fill-rule="evenodd" clip-rule="evenodd" fill="#BFC6CA" d="M96.718,95c0.001-1.029,0.002-2.059,0.003-3.088
			c0.669,0,1.338,0,2.077,0c0,1.004,0,1.981,0,3.088C98.112,95,97.415,95,96.718,95z"/>
		<path fill-rule="evenodd" clip-rule="evenodd" fill="#ADB0B4" d="M56.738,104.867c0.771,0.977,1.541,1.953,2.312,2.929
			c-0.734,0.042-1.469,0.084-2.312,0.133C56.738,106.808,56.738,105.837,56.738,104.867z"/>
		<path fill-rule="evenodd" clip-rule="evenodd" fill="#B4B8BC" d="M103.921,69.645c-0.083,0.064-0.167,0.129-0.251,0.194
			C103.754,69.774,103.838,69.709,103.921,69.645z"/>
		<path fill-rule="evenodd" clip-rule="evenodd" fill="#ADB0B4" d="M98.402,101.062c0.072-0.087,0.144-0.175,0.216-0.263
			C98.546,100.887,98.474,100.975,98.402,101.062z"/>
		<path fill-rule="evenodd" clip-rule="evenodd" fill="#DEE2E3" d="M90.242,88.749c0.076-0.062,0.151-0.126,0.227-0.189
			C90.393,88.623,90.317,88.687,90.242,88.749z"/>
		<path fill-rule="evenodd" clip-rule="evenodd" fill="#231F20" d="M119.642,117.335c0.106-0.165,0.212-0.33,0.317-0.496
			C119.853,117.004,119.748,117.17,119.642,117.335z"/>
		<path fill-rule="evenodd" clip-rule="evenodd" fill="#262223" d="M101.424,42.87c0.209,0.832,0.419,1.663,0.628,2.495
			c0.57,2.335,1.149,4.668,1.704,7.006c0.126,0.535,0.166,1.09,0.245,1.635c-0.336,0.293-0.672,0.587-1.187,1.036
			c-0.471-1.647-0.866-3.03-1.261-4.414c-0.633-2.618-1.267-5.236-1.9-7.853C100.244,42.807,100.834,42.838,101.424,42.87z"/>
		<path fill-rule="evenodd" clip-rule="evenodd" fill="#262223" d="M111.346,84.938c-0.716,0.021-1.433,0.041-2.149,0.062
			c-0.217-0.162-0.613-0.314-0.622-0.487c-0.057-1.111-0.06-2.229,0-3.339c0.01-0.186,0.408-0.351,0.627-0.526
			c0.707,0.016,1.414,0.031,2.12,0.047C111.33,82.109,111.337,83.524,111.346,84.938z"/>
		<path fill-rule="evenodd" clip-rule="evenodd" fill="#262223" d="M108.519,73.512c0.944-0.019,1.888-0.038,2.831-0.057
			c0.003,1.194,0.005,2.388,0.008,3.582c-0.802,0.032-1.604,0.064-2.407,0.097c-0.137-0.288-0.375-0.569-0.394-0.865
			C108.5,75.353,108.525,74.432,108.519,73.512z"/>
		<path fill-rule="evenodd" clip-rule="evenodd" fill="#B4B8BC" d="M108.951,77.134c0.802-0.032,1.604-0.064,2.407-0.097
			c-0.012,1.219-0.024,2.438-0.037,3.658c-0.707-0.016-1.414-0.031-2.12-0.047C109.118,79.477,109.034,78.305,108.951,77.134z"/>
		<path fill-rule="evenodd" clip-rule="evenodd" fill="#EBEEEC" d="M41.038,118.32c-1.206-0.158-2.412-0.315-3.617-0.473
			c-0.94-0.887-1.881-1.773-2.822-2.66c2.021,0.398,4.061,0.719,6.055,1.226C41.796,116.704,41.297,117.6,41.038,118.32z"/>
		<path fill-rule="evenodd" clip-rule="evenodd" fill="#262223" d="M79.125,74.695c0.231,2.361,0.461,4.723,0.7,7.164
			c-0.557,0-1.05,0-1.676,0c0.254-2.45,0.502-4.847,0.751-7.243C78.975,74.643,79.05,74.669,79.125,74.695z"/>
		<path fill-rule="evenodd" clip-rule="evenodd" fill="#262223" d="M62.785,56.317c0.248,0.947,0.496,1.895,0.744,2.841
			c0.361,1.583,0.776,3.157,1.048,4.755c0.07,0.412-0.308,0.9-0.479,1.354c-0.33-0.324-0.821-0.591-0.958-0.982
			c-0.439-1.258-0.748-2.562-1.106-3.848c-0.277-1.026-0.554-2.052-0.831-3.077c-0.256-1.039-0.511-2.077-0.767-3.116
			c-0.095-0.506-0.28-1.017-0.258-1.518c0.017-0.4,0.286-0.79,0.443-1.184c0.341,0.241,0.722,0.444,1.009,0.738
			c0.178,0.182,0.215,0.503,0.315,0.762C62.225,54.134,62.505,55.225,62.785,56.317z"/>
		<path fill-rule="evenodd" clip-rule="evenodd" fill="#262223" d="M88.57,48.48c-0.295,0.458-0.59,0.917-0.885,1.375
			c-0.142-0.048-0.283-0.097-0.424-0.145c-0.154-0.511-0.309-1.022-0.463-1.533c-0.208-0.877-0.417-1.755-0.634-2.669
			c1.025-0.428,1.607-0.071,1.875,0.915C88.223,47.106,88.394,47.794,88.57,48.48z"/>
		<path fill-rule="evenodd" clip-rule="evenodd" fill="#262223" d="M74.698,55.192c-0.104-0.797-0.208-1.594-0.313-2.391
			c-0.049-0.529-0.097-1.058-0.146-1.588c0.076-0.039,0.153-0.079,0.229-0.119c0.356,0.814,0.712,1.627,1.068,2.441
			c0.33,0.895,0.661,1.79,0.991,2.686c0.111,0.415,0.223,0.83,0.367,1.371c-0.506,0.152-1.012,0.304-1.629,0.489
			C75.068,57.072,74.883,56.132,74.698,55.192z"/>
		<path fill-rule="evenodd" clip-rule="evenodd" fill="#262223" d="M50.361,63.715c0.229,0.952,0.457,1.905,0.69,2.857
			c0.254,1.035-0.057,1.693-1.255,1.835c-0.136-0.401-0.271-0.802-0.407-1.203c-0.325-1.371-0.649-2.741-0.969-4.093
			C49.381,62.639,49.966,62.91,50.361,63.715z"/>
		<path fill-rule="evenodd" clip-rule="evenodd" fill="#262223" d="M46.984,57.846c-0.072-0.345-0.174-0.687-0.209-1.035
			c-0.04-0.395-0.019-0.796-0.023-1.194c0.496,0.102,0.991,0.204,1.487,0.306c0.201,0.727,0.391,1.458,0.605,2.181
			c0.312,1.05,0.047,1.723-1.275,1.831C47.38,59.258,47.182,58.552,46.984,57.846z"/>
	</g>
</g>
</svg>
